<svg xmlns="http://www.w3.org/2000/svg" xmlns:xlink="http://www.w3.org/1999/xlink" width="24" height="24" preserveAspectRatio="xMidYMid meet" viewBox="0 0 24 24" style="-ms-transform: rotate(360deg); -webkit-transform: rotate(360deg); transform: rotate(360deg);"><path d="M5 3c-1.11 0-2 .89-2 2v14c0 1.11.89 2 2 2h14c1.11 0 2-.89 2-2V5c0-1.11-.89-2-2-2H5m0 2h14v14H5V5m2 2v2h10V7H7m0 4v2h10v-2H7m0 4v2h7v-2H7z" fill="#626262"/><rect x="0" y="0" width="24" height="24" fill="rgba(0, 0, 0, 0)" /></svg>