<?xml version="1.0" standalone="no"?>
<!DOCTYPE svg PUBLIC "-//W3C//DTD SVG 1.1//EN" "http://www.w3.org/Graphics/SVG/1.1/DTD/svg11.dtd" >
<svg xmlns="http://www.w3.org/2000/svg">
<metadata>
Created by FontPrep 20130207 at Thu Jul  9 11:40:57 2015
 By Toni Fisler
Copyright (c) 2009 by Mark Caneso /psType. All rights reserved.
</metadata>
<defs>
<font id="81c276bdfe0a1549bdabea789faea410" horiz-adv-x='1024' >
  <font-face 
    font-family="Ratio-Regular"
    font-weight="400"
    font-stretch="normal"
    units-per-em="2048"
    panose-1="2 0 5 3 0 0 0 2 0 4"
    ascent="1511"
    descent="-537"
    x-height="963"
    cap-height="1372"
    bbox="-131 -543 1917.01 1853"
    underline-thickness="102"
    underline-position="-102"
    unicode-range="U+0020-FB02"
  />
<missing-glyph horiz-adv-x="1167" 
d="M862 141v1090h-557v-1090h557zM1004 0h-840v1372h840v-1372z" />
    <glyph glyph-name="fi" unicode="fi" horiz-adv-x="1099" 
d="M950 0h-164v819h-411v-819h-164v819h-148v113l148 31v131q0 205 119 308t284 103q89 0 194 -20q106 -20 163 -29v-184l-80 -10q-162 96 -274 96q-113 0 -179 -62t-65 -192v-141h577v-963z" />
    <glyph glyph-name="fl" unicode="fl" horiz-adv-x="1150" 
d="M997 0h-163v1325q-160 31 -209 31q-252 0 -252 -271v-122h299v-144h-297v-819h-164v819h-148v113l148 31v122q0 209 122 315t318 105q137 0 346 -41v-1464z" />
    <glyph glyph-name=".notdef" horiz-adv-x="1167" 
d="M862 141v1090h-557v-1090h557zM1004 0h-840v1372h840v-1372z" />
    <glyph glyph-name=".null" horiz-adv-x="0" 
 />
    <glyph glyph-name="nonmarkingreturn" horiz-adv-x="681" 
 />
    <glyph glyph-name="space" unicode=" " horiz-adv-x="512" 
 />
    <glyph glyph-name="exclam" unicode="!" horiz-adv-x="497" 
d="M352 0h-207v221l207 -59v-162zM326 399l-152 41q-12 629 -22 936h202z" />
    <glyph glyph-name="quotedbl" unicode="&#x22;" horiz-adv-x="681" 
d="M557 956l-143 -28v418l143 28v-418zM274 956l-143 -28v418l143 28v-418z" />
    <glyph glyph-name="numbersign" unicode="#" horiz-adv-x="1333" 
d="M829 451v309h-331v-309h331zM983 0h-154v313h-331v-313h-154v313h-231v138h231v309h-231v135h231v315h154v-315h331v315h154v-315h238v-135h-238v-309h238v-138h-238v-313z" />
    <glyph glyph-name="dollar" unicode="$" horiz-adv-x="956" 
d="M580 -166h-138v143q-180 0 -338 25l19 156q133 -33 271 -33t218 41q78 41 78 117q0 89 -144 144t-273 134q-62 39 -104 110t-42 163q0 126 87 200t228 94v177h138v-166q123 -4 227 -35l-16 -156q-119 39 -239 39q-257 0 -257 -156q0 -61 57 -107q56 -46 140 -81t166 -75
t141 -106q57 -68 57 -174t-76 -186t-200 -110v-158z" />
    <glyph glyph-name="percent" unicode="%" horiz-adv-x="1411" 
d="M1296 230q0 -114 -76 -184t-194 -71q-118 0 -194 71q-76 70 -76 184t78 186t192 72t193 -72q77 -72 77 -186zM1026 72q66 0 106 42t40 116t-39 118q-39 43 -107 43t-106 -43t-39 -118q-1 -74 39 -116t106 -42zM92 882q0 114 78 186t192 71q114 1 193 -71q78 -72 78 -186
t-77 -185t-194 -71q-118 0 -194 72q-76 70 -76 184zM317 -57l-104 80l864 1163l107 -74zM362 723q66 0 106 42t40 117q0 76 -39 118t-107 42t-106 -43t-39 -117t39 -117q40 -42 106 -42z" />
    <glyph glyph-name="ampersand" unicode="&#x26;" horiz-adv-x="1499" 
d="M752 195q-272 168 -426 399q-60 -84 -60 -211t80 -192t192 -65t214 69zM100 352q0 104 46 204t108 159q-74 158 -74 280q0 203 113 302t283 99t323 -57l-22 -315h-142l15 199q-76 27 -172 27t-168 -59q-70 -58 -70 -185q0 -200 148 -390t374 -315q109 141 109 412v88h313
v-150h-172q0 -119 -37 -229t-90 -184q239 -117 483 -117l-8 -146q-279 2 -565 142q-158 -139 -399 -140q-152 1 -274 97t-122 278z" />
    <glyph glyph-name="quotesingle" unicode="'" horiz-adv-x="399" 
d="M274 956l-143 -28v418l143 28v-418z" />
    <glyph glyph-name="parenleft" unicode="(" horiz-adv-x="649" 
d="M86 586q0 307 120 590t314 458l113 -86q-187 -184 -283 -441t-96 -523t96 -524t283 -441l-113 -86q-195 176 -314 461q-120 285 -120 592z" />
    <glyph glyph-name="parenright" unicode=")" horiz-adv-x="651" 
d="M397 584q0 266 -95 523t-284 441l113 86q195 -176 315 -458t119 -590q1 -307 -119 -592t-315 -461l-113 86q188 184 284 441q95 258 95 524z" />
    <glyph glyph-name="asterisk" unicode="*" horiz-adv-x="950" 
d="M420 1530h108v-301l285 92l33 -102l-279 -91l172 -235l-86 -64l-176 242l-176 -242l-86 64l170 233l-283 93l33 102l285 -92v301z" />
    <glyph glyph-name="plus" unicode="+" 
d="M684 61h-141v412h-410v141h410v410h141v-410h412v-141h-412v-412z" />
    <glyph glyph-name="comma" unicode="," horiz-adv-x="522" 
d="M145 205h230q6 -43 6 -84q-1 -192 -148 -391l-90 53q72 117 107 209l-105 16v197z" />
    <glyph glyph-name="hyphen" unicode="-" horiz-adv-x="899" 
d="M760 432h-621v150h621v-150z" />
    <glyph glyph-name="period" unicode="." horiz-adv-x="520" 
d="M375 0h-230v205h230v-205z" />
    <glyph glyph-name="slash" unicode="/" horiz-adv-x="866" 
d="M260 -356h-156l502 1894h162z" />
    <glyph glyph-name="zero" unicode="0" horiz-adv-x="1310" 
d="M655 -25q-246 1 -386 145t-140 410t140 410t386 145q246 0 386 -144q141 -145 141 -411t-140 -410t-387 -145zM655 127q162 0 256 100t95 303q0 202 -94 304t-257 102q-162 0 -256 -101t-94 -305t94 -303q94 -100 256 -100z" />
    <glyph glyph-name="one" unicode="1" horiz-adv-x="808" 
d="M745 0h-651v145h266v766h-217v138h377v-904h225v-145z" />
    <glyph glyph-name="two" unicode="2" horiz-adv-x="1105" 
d="M991 0h-827l-27 147q92 65 292 225q199 160 267 237t68 160t-72 125t-203 42t-292 -70l-27 144q190 76 365 76t289 -80t114 -232q0 -117 -82 -216t-258 -237t-221 -174h614v-147z" />
    <glyph glyph-name="three" unicode="3" horiz-adv-x="974" 
d="M351 444q67 0 149 -12q72 47 113 130q42 83 42 151q0 111 -70 167q-71 56 -177 56q-158 0 -299 -51l-15 147q160 53 320 53t285 -95q126 -95 126 -271t-172 -340q85 -35 145 -111t60 -190q0 -194 -136 -306t-364 -112q-153 0 -311 35l27 149q162 -35 286 -34
q324 0 324 260q0 225 -346 225q-68 0 -107 -2l2 145q51 6 118 6z" />
    <glyph glyph-name="four" unicode="4" horiz-adv-x="1261" 
d="M786 164v274l19 211h141v-483h219v-148h-219v-331l-131 -9h-29v340h-675l-2 162l383 901h180l-389 -917h503z" />
    <glyph glyph-name="five" unicode="5" horiz-adv-x="1050" 
d="M435 -190q159 0 247 66t88 233q0 281 -324 280h-272v660h739l-8 -148h-571v-364h135q477 0 477 -412q0 -227 -143 -346t-345 -119t-380 49l26 152q172 -51 331 -51z" />
    <glyph glyph-name="six" unicode="6" horiz-adv-x="1148" 
d="M610 123q136 0 204 85t67 206q0 270 -279 270q-155 0 -311 -68q0 -240 92 -366q91 -126 227 -127zM774 1245q-217 0 -337 -133t-140 -358q176 78 349 78t291 -100q118 -98 118 -294t-122 -329t-342 -133t-348 178t-128 498t173 532q173 213 472 213q119 -1 201 -17
l-13 -151q-86 16 -174 16z" />
    <glyph glyph-name="seven" unicode="7" horiz-adv-x="995" 
d="M934 1049v-117l-572 -1247h-169l565 1216h-684l-8 148h868z" />
    <glyph glyph-name="eight" unicode="8" horiz-adv-x="1142" 
d="M827 1024q0 106 -72 166q-73 59 -188 59t-183 -56q-68 -57 -69 -157q1 -100 63 -158t173 -96l141 -51q135 139 135 293zM299 358q0 -92 74 -163q73 -72 197 -72t199 70q75 69 75 167t-60 154t-178 96q-119 40 -168 52q-61 -52 -100 -132t-39 -172zM1020 367
q0 -166 -133 -279t-322 -113q-189 1 -315 99t-127 270q0 199 199 365q-178 107 -178 293t121 290t313 104t307 -98t115 -267t-179 -343q199 -98 199 -321z" />
    <glyph glyph-name="nine" unicode="9" horiz-adv-x="1138" 
d="M530 932q-136 0 -204 -84t-68 -205q0 -270 279 -270q155 -1 311 67q0 240 -91 366t-227 126zM365 -188q217 0 337 133t140 358q-176 -78 -349 -78q-173 -1 -291 99t-118 296t122 328q122 133 342 133t348 -178q128 -177 128 -497t-173 -533t-472 -213q-119 0 -201 16
l12 152q86 -16 175 -16z" />
    <glyph glyph-name="colon" unicode=":" horiz-adv-x="602" 
d="M416 0h-230v205h230v-205zM416 709h-230v204h230v-204z" />
    <glyph glyph-name="semicolon" unicode=";" horiz-adv-x="602" 
d="M186 205h230q6 -43 6 -84q-1 -192 -148 -391l-90 53q72 117 107 209l-105 16v197zM416 709h-230v204h230v-204z" />
    <glyph glyph-name="less" unicode="&#x3c;" 
d="M1047 0l-902 406v241l902 408v-174l-807 -355l807 -354v-172z" />
    <glyph glyph-name="equal" unicode="=" 
d="M1094 303h-961v143h961v-143zM1094 641h-961v143h961v-143z" />
    <glyph glyph-name="greater" unicode="&#x3e;" 
d="M1081 406l-901 -406v172l807 354l-807 355v174l901 -408v-241z" />
    <glyph glyph-name="question" unicode="?" horiz-adv-x="894" 
d="M440 0h-207v213l207 -51v-162zM631 1077q0 166 -228 166q-123 0 -278 -47l-19 152q158 49 331 49t265 -90q92 -91 92 -215t-54 -210t-220 -188q-78 -47 -108 -86t-29 -93q0 -54 27 -167l-162 45q-20 76 -21 125q0 172 197 293q78 47 114 76t64 78q29 49 29 112z" />
    <glyph glyph-name="at" unicode="@" horiz-adv-x="1648" 
d="M610 393q0 -160 95 -160q102 1 235 132l47 368q-63 20 -121 21q-128 0 -192 -100t-64 -261zM860 -365q-352 0 -558 204t-206 593q0 203 66 373q66 169 174 279t248 170q139 60 288 61q324 0 495 -172t171 -447q0 -362 -190 -523q-100 -85 -256 -85t-158 133l-6 2
q-129 -113 -246 -112q-82 -1 -148 71t-65 207q0 236 111 361t292 124q117 0 254 -53l-77 -618h92q102 0 179 124q77 123 77 363q1 240 -141 366t-386 126q-199 0 -346 -110t-217 -278t-69 -362q0 -319 166 -495t485 -177q90 0 215 37l20 -125q-106 -37 -264 -37z" />
    <glyph glyph-name="A" unicode="A" horiz-adv-x="1236" 
d="M885 403l-267 828l-266 -828h533zM1210 0h-192l-84 256h-631l-84 -256h-192l473 1372h237z" />
    <glyph glyph-name="B" unicode="B" horiz-adv-x="1214" 
d="M365 772h368q115 109 115 246q0 102 -78 153t-211 52h-194v-451zM365 152h239q322 0 322 262q0 94 -68 153t-164 60h-329v-475zM604 0h-418v1372h375q475 0 475 -350q0 -147 -147 -299q94 -33 160 -113t65 -198q0 -196 -144 -304t-366 -108z" />
    <glyph glyph-name="C" unicode="C" horiz-adv-x="1257" 
d="M739 -25q-329 0 -481 193t-152 520q0 328 188 518t490 191q156 0 353 -58l-25 -411l-158 6l11 291q-109 23 -197 22q-203 0 -338 -138t-135 -426t128 -422t345 -134q159 0 356 72l45 -150q-197 -74 -430 -74z" />
    <glyph glyph-name="D" unicode="D" horiz-adv-x="1423" 
d="M365 152h268q493 0 493 536t-493 535h-268v-1071zM635 0h-449v1372h449q317 0 499 -167t181 -520t-183 -519t-497 -166z" />
    <glyph glyph-name="E" unicode="E" horiz-adv-x="1120" 
d="M186 0v1372h848l-18 -149h-651v-443h548v-149h-548v-479h645l18 -152h-842z" />
    <glyph glyph-name="F" unicode="F" horiz-adv-x="1064" 
d="M365 0h-179v1372h826l-21 -149h-626v-443h550v-149h-550v-631z" />
    <glyph glyph-name="G" unicode="G" horiz-adv-x="1386" 
d="M1278 575v-489q-287 -111 -520 -111q-332 0 -494 196t-162 521q0 324 195 514t528 191q215 0 367 -64l-29 -164q-169 78 -375 78t-352 -139t-145 -419q0 -280 131 -421t354 -141q183 0 324 68v358l147 22h31z" />
    <glyph glyph-name="H" unicode="H" horiz-adv-x="1484" 
d="M1298 0h-178v618h-755v-618h-179v1372h179v-598h755v598h178v-1372z" />
    <glyph glyph-name="I" unicode="I" horiz-adv-x="813" 
d="M725 0h-635v143h225v1086h-225v143h635v-143h-231v-1086h231v-143z" />
    <glyph glyph-name="J" unicode="J" horiz-adv-x="636" 
d="M272 125v1104h-225v143h404v-1194q0 -174 -43 -282q-69 -175 -312 -297l-80 131q145 84 201 169q55 85 55 226z" />
    <glyph glyph-name="K" unicode="K" horiz-adv-x="1177" 
d="M365 0h-179v1372h179v-686l507 686h226l-529 -678l607 -694h-248l-563 653v-653z" />
    <glyph glyph-name="L" unicode="L" horiz-adv-x="952" 
d="M186 0v1372h179v-1220h559l14 -152h-752z" />
    <glyph glyph-name="M" unicode="M" horiz-adv-x="1810" 
d="M360 1194v-1194h-174v1372h281l444 -1167l445 1167h268v-1372h-178v1194h-12l-60 -233l-375 -961h-184l-381 961l-61 233h-13z" />
    <glyph glyph-name="N" unicode="N" horiz-adv-x="1511" 
d="M1325 0h-254l-575 936l-117 260h-14v-1196h-179v1372h250l572 -936l125 -274h14v1210h178v-1372z" />
    <glyph glyph-name="O" unicode="O" horiz-adv-x="1478" 
d="M739 127q197 0 322 144q125 143 125 415t-126 416t-321 145q-195 0 -321 -144q-126 -143 -125 -415t125 -416t321 -145zM1374 687q0 -331 -171 -521t-463 -191t-464 191t-172 522t171 519t465 189t464 -188q170 -190 170 -521z" />
    <glyph glyph-name="P" unicode="P" horiz-adv-x="1091" 
d="M365 659h186q143 0 215 76t72 213q0 274 -287 275h-186v-564zM365 0h-179v1372h363q219 0 348 -106t129 -318t-130 -324q-130 -114 -347 -114h-184v-510z" />
    <glyph glyph-name="Q" unicode="Q" horiz-adv-x="1478" 
d="M739 127q197 0 322 144q125 143 125 415t-126 416t-321 145q-195 0 -321 -144q-126 -143 -125 -415t125 -416t321 -145zM1374 687q0 -331 -171 -521t-463 -191t-464 191t-172 522t171 519t465 189t464 -188q170 -190 170 -521zM1300 -358l-790 116l20 150l791 -111z" />
    <glyph glyph-name="R" unicode="R" 
d="M365 698h348q158 106 157 279q0 100 -67 173q-68 73 -195 73h-243v-525zM365 547v-547h-179v1372h412q217 0 339 -103t122 -286q0 -225 -238 -393l379 -590h-217l-340 547h-278z" />
    <glyph glyph-name="S" unicode="S" horiz-adv-x="1071" 
d="M448 127q160 0 254 61t95 181q0 78 -70 132t-170 90q-101 36 -201 80t-170 130t-69 211q0 186 142 285q143 99 335 99t324 -38l-17 -164q-150 53 -289 53t-224 -55t-85 -170q0 -80 70 -136t170 -95t200 -83t170 -123t70 -192q0 -217 -152 -317q-153 -100 -363 -100
t-366 38l17 160q169 -47 329 -47z" />
    <glyph glyph-name="T" unicode="T" horiz-adv-x="1060" 
d="M621 0h-179v1223h-415v149h1022l-21 -149h-407v-1223z" />
    <glyph glyph-name="U" unicode="U" horiz-adv-x="1396" 
d="M1049 453v919h178v-909q-1 -227 -149 -357t-380 -131q-232 0 -379 129t-147 359v909h178v-919q0 -156 102 -241t248 -85q145 0 247 85t102 241z" />
    <glyph glyph-name="V" unicode="V" 
d="M733 -16h-237l-473 1388h192l399 -1247l400 1247h192z" />
    <glyph glyph-name="W" unicode="W" horiz-adv-x="1939" 
d="M1548 -12h-262l-278 1024l-29 184h-8l-37 -184l-295 -1024h-252l-311 1384h188l228 -1040l26 -189h14l41 189l289 1040h234l278 -1040l35 -189h14l27 189l227 1040h189z" />
    <glyph glyph-name="X" unicode="X" horiz-adv-x="1208" 
d="M1163 0h-213l-346 559l-346 -559h-213l455 694l-451 678h221l334 -536l334 536h221l-450 -678z" />
    <glyph glyph-name="Y" unicode="Y" horiz-adv-x="1103" 
d="M643 0h-178v492l-445 880h205l332 -702l328 702h198l-440 -880v-492z" />
    <glyph glyph-name="Z" unicode="Z" horiz-adv-x="1171" 
d="M121 1223v149h936l8 -172l-799 -1048h805l12 -152h-983l-22 174l805 1049h-762z" />
    <glyph glyph-name="bracketleft" unicode="[" horiz-adv-x="583" 
d="M535 -489h-367v2013h346v-129h-203v-1755h224v-129z" />
    <glyph glyph-name="backslash" unicode="\" horiz-adv-x="858" 
d="M760 -453h-156l-498 1842h162z" />
    <glyph glyph-name="bracketright" unicode="]" horiz-adv-x="583" 
d="M416 -489h-367v129h223v1755h-202v129h346v-2013z" />
    <glyph glyph-name="asciicircum" unicode="^" horiz-adv-x="1069" 
d="M936 680h-162l-235 553h-4l-242 -553h-160l322 694h166z" />
    <glyph glyph-name="underscore" unicode="_" horiz-adv-x="866" 
d="M831 -279h-796v142h796v-142z" />
    <glyph glyph-name="grave" unicode="`" horiz-adv-x="1064" 
d="M569 1104l-325 231l88 115l309 -244z" />
    <glyph glyph-name="a" unicode="a" horiz-adv-x="972" 
d="M831 635v-629l-133 -26h-22v135h-4q-174 -133 -332 -133q-102 0 -179 70t-77 196q0 68 25 120t57 80q72 63 246 87l256 34v66q0 117 -54 163t-184 46q-131 0 -276 -66l-19 152q160 61 344 61q352 0 352 -356zM256 260q0 -59 38 -97t101 -38q113 0 273 115v209l-265 -39
q-147 -23 -147 -150z" />
    <glyph glyph-name="b" unicode="b" horiz-adv-x="1126" 
d="M315 1493v-627q168 125 339 125t275 -114q103 -115 103 -356t-142 -393t-409 -153q-132 0 -329 35v1452l143 31h20zM494 123q176 0 271 102q95 103 95 279t-58 258t-181 82q-156 0 -306 -131v-576q133 -14 179 -14z" />
    <glyph glyph-name="c" unicode="c" horiz-adv-x="966" 
d="M90 482q0 234 136 371q136 138 380 138q127 0 262 -45l-12 -158q-137 56 -274 56q-136 0 -228 -84t-92 -266q0 -371 338 -371q140 0 283 55v-147q-158 -55 -305 -56q-248 1 -368 137t-120 370z" />
    <glyph glyph-name="d" unicode="d" horiz-adv-x="1126" 
d="M612 844q-166 0 -256 -100t-90 -285q0 -336 256 -336q139 0 289 131v549q-90 41 -199 41zM975 1493v-1487l-144 -31h-20v125q-84 -63 -157 -94t-169 -31q-171 0 -281 116q-110 115 -110 353t133 393t394 154q74 0 190 -24v495l143 31h21z" />
    <glyph glyph-name="e" unicode="e" horiz-adv-x="1032" 
d="M756 604q0 104 -56 172t-164 68t-180 -73t-86 -193h486v26zM602 125q150 0 303 72v-152q-157 -70 -359 -70t-328 127t-126 394q0 203 121 349t324 146t301 -122t98 -291q0 -62 -8 -140h-662q8 -174 98 -244q88 -70 238 -69z" />
    <glyph glyph-name="f" unicode="f" horiz-adv-x="743" 
d="M622 1505q112 0 209 -26l-16 -150q-87 29 -193 29t-178 -62t-71 -192v-141h329v-144h-327v-819h-164v819h-148v113l148 31v124q-4 139 57 237q114 181 354 181z" />
    <glyph glyph-name="g" unicode="g" horiz-adv-x="1095" 
d="M262 -266q0 -133 252 -133q145 0 240 58q94 59 94 151q0 61 -46 84q-50 23 -114 25q-65 3 -106 3l-248 -2q-72 -78 -72 -186zM285 621q0 -115 65 -177q66 -61 162 -61t161 61q65 60 65 176t-65 177t-161 61t-162 -61t-65 -176zM512 250q-74 0 -129 14q-53 -88 -53 -143
q0 -39 70 -42t172 4q100 7 202 1t173 -68t71 -188q0 -158 -129 -264t-397 -107q-395 0 -396 234q0 71 39 143t92 117q-49 31 -49 131t92 227q-156 94 -155 312q1 151 113 261t284 109q96 0 182 -28h371v-125h-223q29 -43 47 -108t18 -109q0 -172 -114 -272
q-115 -99 -281 -99z" />
    <glyph glyph-name="h" unicode="h" horiz-adv-x="1138" 
d="M993 0h-164v647q0 197 -161 197q-139 0 -351 -123v-721h-163v1462l143 31h20v-635q119 72 200 103t169 30q137 0 222 -80t85 -252v-659z" />
    <glyph glyph-name="i" unicode="i" horiz-adv-x="468" 
d="M129 1423h207v-176l-207 -49v225zM315 0h-163v961l143 30h20v-991z" />
    <glyph glyph-name="j" unicode="j" horiz-adv-x="468" 
d="M129 1423h207v-176l-207 -49v225zM315 6q0 -176 -56 -303t-232 -229l-68 118q106 80 150 171q43 91 43 223v975l143 30h20v-985z" />
    <glyph glyph-name="k" unicode="k" horiz-adv-x="1007" 
d="M317 1493v-977l27 27l371 420h219l-408 -447l461 -516h-225l-418 477l-27 27v-504h-163v1462l143 31h20z" />
    <glyph glyph-name="l" unicode="l" horiz-adv-x="473" 
d="M319 1493v-1493h-165v1462l139 31h26z" />
    <glyph glyph-name="m" unicode="m" horiz-adv-x="1730" 
d="M1293 991q140 0 216 -91t76 -214v-686h-164v633q0 117 -40 164t-113 47q-137 0 -318 -123v-721h-164v633q0 117 -40 164t-113 47q-137 0 -318 -123v-721h-163v961l124 30h23l14 -133q201 133 340 133q203 0 265 -153l30 18q205 135 345 135z" />
    <glyph glyph-name="n" unicode="n" horiz-adv-x="1136" 
d="M991 0h-164v647q0 197 -161 197q-139 0 -351 -123v-721h-163v961l122 30h23l16 -133q121 72 202 103t169 30q137 0 222 -80t85 -252v-659z" />
    <glyph glyph-name="o" unicode="o" horiz-adv-x="1122" 
d="M561 844q-139 0 -218 -91t-79 -269t79 -270q79 -91 218 -91t218 91t79 269q0 177 -79 269t-218 92zM561 -25q-229 1 -349 141t-120 367t120 367t349 141q229 0 349 -140q120 -139 120 -367t-120 -368t-349 -141z" />
    <glyph glyph-name="p" unicode="p" horiz-adv-x="1126" 
d="M532 123q154 0 241 96t87 279q0 346 -239 346q-156 0 -306 -131v-570q127 -20 217 -20zM152 -537v1498l143 30h20v-125q168 125 338 125q171 0 275 -120q104 -119 104 -357t-129 -388t-377 -151q-94 0 -211 25v-506l-143 -31h-20z" />
    <glyph glyph-name="q" unicode="q" horiz-adv-x="1126" 
d="M811 -537v637q-168 -125 -339 -125t-274 114q-104 115 -104 355t142 394t409 153q133 0 330 -35v-1462l-144 -31h-20zM266 461q0 -176 58 -257t182 -81q155 0 305 131v575q-133 14 -178 15q-175 0 -271 -104t-96 -279z" />
    <glyph glyph-name="r" unicode="r" horiz-adv-x="714" 
d="M315 0h-163v961l127 30h20l10 -200h6q92 180 293 180q31 0 72 -4v-33l-8 -129q-20 2 -51 2q-105 0 -177 -45t-129 -158v-604z" />
    <glyph glyph-name="s" unicode="s" horiz-adv-x="862" 
d="M102 158h17q164 -35 266 -35q219 0 219 139q0 55 -51 91t-124 61q-73 26 -147 56t-124 91q-51 61 -52 154q0 131 106 204t254 73t265 -38v-151h-16q-125 41 -232 41q-205 0 -204 -129q0 -87 175 -145q72 -24 146 -54t125 -89q51 -60 51 -148q0 -162 -110 -233t-270 -71
q-159 0 -294 31v152z" />
    <glyph glyph-name="t" unicode="t" horiz-adv-x="727" 
d="M453 -25q-258 0 -258 254v590h-127v117l127 27v229l145 31h16v-260h316v-144h-316v-586q0 -113 129 -112q62 0 158 31l14 -140q-102 -37 -204 -37z" />
    <glyph glyph-name="u" unicode="u" horiz-adv-x="1130" 
d="M446 -25q-137 0 -222 80t-85 252v654l144 30h20v-672q0 -197 162 -196q139 0 350 123v715l143 30h21v-985l-139 -31h-23v134q-121 -72 -202 -103t-169 -31z" />
    <glyph glyph-name="v" unicode="v" horiz-adv-x="980" 
d="M602 -20h-223l-348 983h182l274 -828h9l278 828h176z" />
    <glyph glyph-name="w" unicode="w" horiz-adv-x="1591" 
d="M1276 -18h-227l-232 684q-16 57 -24 133h-7q-14 -76 -32 -135l-224 -682h-217l-250 981h177l196 -816l258 816h199l272 -813l199 813h164z" />
    <glyph glyph-name="x" unicode="x" horiz-adv-x="1019" 
d="M975 0h-201l-264 365l-262 -365h-201l365 489l-355 474h201l254 -359l252 359h201l-355 -474z" />
    <glyph glyph-name="y" unicode="y" horiz-adv-x="956" 
d="M188 -537l-92 119q129 92 184 163q54 71 107 202l14 39h-28l-340 977h188l242 -775h14l264 775h187l-371 -1024q-61 -178 -147 -284t-222 -192z" />
    <glyph glyph-name="z" unicode="z" horiz-adv-x="987" 
d="M117 819v144h753l19 -164l-613 -656h609l8 -143h-793l-16 158l608 661h-575z" />
    <glyph glyph-name="braceleft" unicode="{" horiz-adv-x="684" 
d="M223 -193q0 61 25 212t24 223q0 205 -161 204h-68v148h68q162 0 161 205q0 73 -24 223t-25 211q0 307 328 307q53 0 164 -12l-17 -142q-76 16 -155 17q-176 0 -176 -172q1 -72 23 -220q22 -147 22 -241t-29 -147t-94 -99v-8q67 -45 95 -98q28 -52 28 -146t-23 -242
t-22 -220q0 -172 176 -172q79 0 155 16l17 -141q-111 -12 -164 -13q-328 0 -328 307z" />
    <glyph glyph-name="bar" unicode="|" horiz-adv-x="473" 
d="M305 -451h-137v2022h137v-2022z" />
    <glyph glyph-name="braceright" unicode="}" horiz-adv-x="684" 
d="M141 -362q176 0 176 172q0 72 -22 220q-23 148 -23 241t29 147t94 98v8q-67 44 -95 98t-28 147t23 241t22 221q0 172 -176 172q-80 0 -155 -17l-17 142q111 12 164 12q328 0 328 -307q0 -61 -25 -212t-24 -222q0 -205 161 -205h68v-148h-68q-162 0 -161 -204
q0 -72 24 -223t25 -212q0 -307 -328 -307q-53 1 -164 13l17 141q76 -16 155 -16z" />
    <glyph glyph-name="asciitilde" unicode="~" horiz-adv-x="1249" 
d="M893 424q-100 0 -262 39q-163 39 -263 39t-202 -60l-19 142q129 66 271 65q92 0 254 -38t246 -38t159 35l25 -133q-109 -51 -209 -51z" />
    <glyph glyph-name="uni00A0" unicode="&#xa0;" horiz-adv-x="503" 
 />
    <glyph glyph-name="exclamdown" unicode="&#xa1;" horiz-adv-x="475" 
d="M129 1022h207v-221l-207 59v162zM336 -354h-203q27 942 29 977l151 -41q13 -629 23 -936z" />
    <glyph glyph-name="cent" unicode="&#xa2;" horiz-adv-x="1001" 
d="M655 -242h-127v219q-221 17 -327 151q-107 134 -107 349t114 350t320 158v227h127v-223q92 -4 217 -43l-12 -158q-137 56 -274 56q-136 0 -228 -84t-92 -266q0 -371 338 -371q140 0 283 55v-147q-106 -39 -232 -51v-222z" />
    <glyph glyph-name="sterling" unicode="&#xa3;" horiz-adv-x="1079" 
d="M973 0h-873l25 125q51 0 81 7t64 35q62 52 64 263v162h-182v125h182v145q0 463 477 524l25 -145q-176 -18 -259 -100t-83 -285v-139h350v-125h-350v-168q0 -209 -97 -299h576v-125z" />
    <glyph glyph-name="currency" unicode="&#xa4;" horiz-adv-x="1048" 
d="M526 342q72 0 116 50t44 124t-44 124t-116 50t-116 -50t-43 -124q-1 -74 43 -124t116 -50zM523 209q-87 0 -158 41l-150 -150l-104 107l147 147q-45 72 -45 159t43 161l-145 147l106 107l148 -148q77 43 163 43t158 -41l145 146l107 -107l-145 -143q47 -78 47 -163
t-47 -163l145 -145l-104 -107l-152 148q-72 -39 -159 -39z" />
    <glyph glyph-name="yen" unicode="&#xa5;" horiz-adv-x="1263" 
d="M723 0h-178v250h-328v125h328v117l-13 24h-315v125h252l-369 731h205l332 -702l328 702h198l-366 -731h247v-125h-309l-12 -24v-117h321v-125h-321v-250z" />
    <glyph glyph-name="brokenbar" unicode="&#xa6;" horiz-adv-x="481" 
d="M309 -451h-137v832h137v-832zM309 743h-137v828h137v-828z" />
    <glyph glyph-name="section" unicode="&#xa7;" horiz-adv-x="954" 
d="M678 434q0 66 -56 109t-169 86l-84 33q-100 -59 -101 -158q0 -72 54 -116t178 -93l88 -35q90 72 90 174zM388 -221q120 0 191 47t71 127t-54 118q-53 38 -150 76q-98 37 -142 61q-134 70 -176 157q-28 55 -28 124q0 156 144 240q-115 97 -115 237t115 223q114 83 274 83
t277 -37l-17 -143q-272 79 -413 1q-68 -38 -68 -126t105 -144q43 -21 123 -54q138 -56 217 -114q102 -75 102 -200q0 -81 -34 -139t-103 -123q109 -80 108 -209q0 -170 -125 -258t-313 -88q-138 -1 -281 34l15 146q157 -39 277 -39z" />
    <glyph glyph-name="dieresis" unicode="&#xa8;" horiz-adv-x="970" 
d="M764 1196h-201v176h201v-176zM408 1196h-201v176h201v-176z" />
    <glyph glyph-name="copyright" unicode="&#xa9;" horiz-adv-x="1630" 
d="M1528 684q0 -295 -209 -502t-504 -207t-504 207t-209 502t209 502t504 207t504 -207t209 -502zM815 92q242 0 411 174t169 418t-169 418t-411 174t-411 -174q-168 -174 -168 -418t168 -418t411 -174zM836 283q-377 0 -377 411q0 182 109 293q110 111 294 111
q88 0 211 -37l-10 -238l-96 8l4 154q-61 10 -117 10q-119 1 -196 -73t-76 -228q0 -315 272 -315q102 0 219 43l19 -98q-119 -41 -256 -41z" />
    <glyph glyph-name="ordfeminine" unicode="&#xaa;" horiz-adv-x="710" 
d="M469 750v61h-6q-103 -72 -183 -72q-80 1 -128 51t-50 114q-1 118 74 156q56 29 152 42l135 14v74q0 94 -135 94q-80 0 -181 -33l-8 103q106 32 219 32t167 -51t55 -157v-416l-99 -12h-12zM221 929q0 -44 23 -69t61 -24q70 0 158 57v145l-103 -12q-82 -12 -110 -32
t-29 -65z" />
    <glyph glyph-name="guillemotleft" unicode="&#xab;" horiz-adv-x="851" 
d="M748 182l-109 -59l-246 424l246 424l106 -60l-215 -362zM430 182l-108 -59l-246 424l246 424l106 -60l-215 -362z" />
    <glyph glyph-name="logicalnot" unicode="&#xac;" horiz-adv-x="1224" 
d="M1083 164h-141v309h-821v141h962v-450z" />
    <glyph glyph-name="registered" unicode="&#xae;" horiz-adv-x="1630" 
d="M692 709h176q90 57 90 155q0 53 -38 89q-39 36 -111 36h-117v-280zM692 610v-295h-119v770h252q119 0 188 -59t68 -160q0 -135 -135 -219l213 -332h-137l-186 295h-144zM1528 684q0 -295 -209 -502t-504 -207t-504 207t-209 502t209 502t504 207t504 -207t209 -502z
M815 92q242 0 411 174t169 418t-169 418t-411 174t-411 -174q-168 -174 -168 -418t168 -418t411 -174z" />
    <glyph glyph-name="macron" unicode="&#xaf;" horiz-adv-x="878" 
d="M739 1161h-600v129h600v-129z" />
    <glyph glyph-name="degree" unicode="&#xb0;" horiz-adv-x="624" 
d="M530 1177q0 -95 -63 -153t-155 -59q-92 0 -154 58q-64 57 -64 153t64 156t154 60t154 -60t64 -155zM311 1053q51 -1 86 31t35 94t-35 94q-35 33 -86 33t-85 -33t-34 -94t34 -94q34 -31 85 -31z" />
    <glyph glyph-name="plusminus" unicode="&#xb1;" 
d="M1096 575h-412v-352h-141v352h-410v140h410v411h141v-411h412v-140zM1096 0h-963v139h963v-139z" />
    <glyph glyph-name="twosuperior" unicode="&#xb2;" horiz-adv-x="872" 
d="M567 1212q-1 162 -183 162q-98 0 -232 -61l-23 127q141 55 276 55t223 -68q88 -69 87 -191t-63 -208t-152 -158t-195 -149h451v-123h-621l-16 125q49 39 127 99t148 119q172 144 173 271z" />
    <glyph glyph-name="threesuperior" unicode="&#xb3;" horiz-adv-x="811" 
d="M362 688q197 0 197 150q0 143 -205 143q-49 0 -98 -6v119q42 6 104 6t113 -13q68 73 68 139t-42 109t-139 43t-206 -45l-19 121q125 43 255 43q130 1 212 -65t82 -176t-102 -212q55 -28 90 -80t35 -116q1 -135 -93 -207t-256 -72q-106 0 -245 29l14 121q160 -31 235 -31z
" />
    <glyph glyph-name="acute" unicode="&#xb4;" horiz-adv-x="1064" 
d="M770 1333l-326 -231l-71 102l309 244z" />
    <glyph glyph-name="paragraph" unicode="&#xb6;" horiz-adv-x="1294" 
d="M967 -14v1235h-140v-1221h-180v510h-96q-217 0 -347 114t-130 324t129 318q129 106 348 106h579v-1366q0 -176 -56 -303t-232 -229l-68 118q106 80 150 171q43 91 43 223z" />
    <glyph glyph-name="periodcentered" unicode="&#xb7;" horiz-adv-x="565" 
d="M397 444h-229v205h229v-205z" />
    <glyph glyph-name="cedilla" unicode="&#xb8;" horiz-adv-x="874" 
d="M354 -418q180 0 181 99q0 74 -121 73q-16 0 -37 -2l-60 68l99 180h147l-92 -145l4 -7q190 -2 191 -165q0 -91 -73 -149t-235 -58q-29 0 -47 2l-4 106q25 -2 47 -2z" />
    <glyph glyph-name="onesuperior" unicode="&#xb9;" horiz-adv-x="761" 
d="M645 598h-526v123h221v641h-178v123h309v-764h174v-123z" />
    <glyph glyph-name="ordmasculine" unicode="&#xba;" horiz-adv-x="804" 
d="M403 834q82 0 131 55q48 55 48 169t-48 169t-131 55q-178 0 -178 -224t178 -224zM402 729q-142 0 -224 90q-82 91 -82 239t82 238t225 90t225 -90t81 -237q0 -147 -82 -239q-83 -91 -225 -91z" />
    <glyph glyph-name="guillemotright" unicode="&#xbb;" horiz-adv-x="851" 
d="M213 123l-109 59l218 367l-216 362l107 60l246 -424zM530 123l-108 59l217 367l-215 362l106 60l246 -424z" />
    <glyph glyph-name="onequarter" unicode="&#xbc;" horiz-adv-x="1937" 
d="M1710 0h-131v215h-449v113l238 571h139l-233 -565h305v166l14 149h117v-315h135v-119h-135v-215zM639 598h-526v123h221v641h-178v123h309v-764h174v-123zM586 -207l-121 51l782 1758l123 -52z" />
    <glyph glyph-name="onehalf" unicode="&#xbd;" horiz-adv-x="1939" 
d="M1835 0h-621l-16 125q49 39 127 99q79 60 149 119t121 127t51 144t-41 119q-43 43 -141 43t-233 -61l-23 127q140 55 276 55t223 -68q87 -69 87 -191t-62 -208t-152 -158t-196 -149h451v-123zM629 598h-527v123h222v641h-179v123h310v-764h174v-123zM575 -207l-120 51
l782 1758l123 -52z" />
    <glyph glyph-name="threequarters" unicode="&#xbe;" horiz-adv-x="1937" 
d="M365 688q197 0 196 150q0 143 -205 143q-49 0 -98 -6v119q44 6 104 6t113 -13q68 73 68 139t-42 109t-139 43t-206 -45l-19 121q125 43 255 43q130 1 212 -65t82 -176t-102 -212q55 -28 90 -80t35 -116q1 -135 -93 -207t-256 -72q-106 0 -245 29l14 121q158 -31 236 -31z
M1712 0h-131v215h-448v113l237 571h139l-233 -565h305v166l14 149h117v-315h135v-119h-135v-215zM618 -207l-120 51l782 1758l123 -52z" />
    <glyph glyph-name="questiondown" unicode="&#xbf;" horiz-adv-x="894" 
d="M479 1022h207v-213l-207 51v162zM482 -375q-172 0 -265 90q-92 91 -92 215t54 210t220 188q78 47 108 86t30 93t-27 167l162 -45q20 -69 20 -143q0 -141 -172 -259q-16 -12 -60 -39q-129 -79 -158 -159q-13 -37 -13 -84q0 -166 227 -166q123 0 279 47l18 -152
q-159 -49 -331 -49z" />
    <glyph glyph-name="Agrave" unicode="&#xc0;" horiz-adv-x="1236" 
d="M621 1481l-326 231l88 115l309 -244zM885 403l-267 828l-266 -828h533zM1210 0h-192l-84 256h-631l-84 -256h-192l473 1372h237z" />
    <glyph glyph-name="Aacute" unicode="&#xc1;" horiz-adv-x="1236" 
d="M934 1710l-326 -231l-71 102l309 244zM885 403l-267 828l-266 -828h533zM1210 0h-192l-84 256h-631l-84 -256h-192l473 1372h237z" />
    <glyph glyph-name="Acircumflex" unicode="&#xc2;" horiz-adv-x="1236" 
d="M850 1511l-232 185l-231 -185l-82 103l313 237l314 -237zM885 403l-267 828l-266 -828h533zM1210 0h-192l-84 256h-631l-84 -256h-192l473 1372h237z" />
    <glyph glyph-name="Atilde" unicode="&#xc3;" horiz-adv-x="1236" 
d="M481 1690q55 0 141 -37t154 -37q66 0 166 59l23 -127q-117 -68 -213 -67q-56 0 -142 37q-86 36 -152 36t-165 -59l-23 127q117 68 211 68zM885 403l-267 828l-266 -828h533zM1210 0h-192l-84 256h-631l-84 -256h-192l473 1372h237z" />
    <glyph glyph-name="Adieresis" unicode="&#xc4;" horiz-adv-x="1236" 
d="M897 1505h-201v176h201v-176zM541 1505h-201v176h201v-176zM885 403l-267 828l-266 -828h533zM1210 0h-192l-84 256h-631l-84 -256h-192l473 1372h237z" />
    <glyph glyph-name="Aring" unicode="&#xc5;" horiz-adv-x="1236" 
d="M618 1853q92 0 152 -56t59 -145q0 -88 -59 -144q-60 -56 -152 -56t-151 55t-59 145t59 145q59 56 151 56zM618 1540q45 0 77 32t32 81t-32 81t-77 32q-44 0 -76 -32t-32 -81t32 -81t76 -32zM885 403l-267 828l-266 -828h533zM1210 0h-192l-84 256h-631l-84 -256h-192
l473 1372h237z" />
    <glyph glyph-name="AE" unicode="&#xc6;" horiz-adv-x="1818" 
d="M885 403v820h-117l-379 -820h496zM885 0v254h-561l-113 -254h-203l658 1372h1067l-19 -149h-651v-443h549v-149h-549v-479h645l18 -152h-841z" />
    <glyph glyph-name="Ccedilla" unicode="&#xc7;" horiz-adv-x="1257" 
d="M588 -418q180 0 180 99q0 74 -121 73q-16 0 -37 -2l-59 68l88 162q-532 53 -533 716q0 318 188 508t490 191q156 0 353 -58l-25 -411l-158 6l11 291q-109 23 -197 22q-203 0 -338 -138t-135 -426t128 -422t345 -134q160 0 356 72l45 -150q-178 -68 -389 -74l-75 -120
l4 -7q190 -2 190 -165q0 -91 -73 -149t-234 -58q-29 0 -47 2l-4 106q25 -2 47 -2z" />
    <glyph glyph-name="Egrave" unicode="&#xc8;" horiz-adv-x="1120" 
d="M639 1481l-326 231l88 115l310 -244zM186 0v1372h848l-18 -149h-651v-443h548v-149h-548v-479h645l18 -152h-842z" />
    <glyph glyph-name="Eacute" unicode="&#xc9;" horiz-adv-x="1120" 
d="M885 1714l-326 -231l-72 102l310 244zM186 0v1372h848l-18 -149h-651v-443h548v-149h-548v-479h645l18 -152h-842z" />
    <glyph glyph-name="Ecircumflex" unicode="&#xca;" horiz-adv-x="1120" 
d="M825 1511l-231 185l-232 -185l-81 103l313 237l313 -237zM186 0v1372h848l-18 -149h-651v-443h548v-149h-548v-479h645l18 -152h-842z" />
    <glyph glyph-name="Edieresis" unicode="&#xcb;" horiz-adv-x="1120" 
d="M885 1505h-201v176h201v-176zM528 1505h-200v176h200v-176zM186 0v1372h848l-18 -149h-651v-443h548v-149h-548v-479h645l18 -152h-842z" />
    <glyph glyph-name="Igrave" unicode="&#xcc;" horiz-adv-x="813" 
d="M426 1481l-326 231l88 115l310 -244zM725 0h-635v143h225v1086h-225v143h635v-143h-231v-1086h231v-143z" />
    <glyph glyph-name="Iacute" unicode="&#xcd;" horiz-adv-x="813" 
d="M727 1710l-326 -231l-71 102l309 244zM725 0h-635v143h225v1086h-225v143h635v-143h-231v-1086h231v-143z" />
    <glyph glyph-name="Icircumflex" unicode="&#xce;" horiz-adv-x="813" 
d="M639 1479l-231 184l-232 -184l-82 102l314 238l313 -238zM725 0h-635v143h225v1086h-225v143h635v-143h-231v-1086h231v-143z" />
    <glyph glyph-name="Idieresis" unicode="&#xcf;" horiz-adv-x="813" 
d="M686 1505h-201v176h201v-176zM330 1505h-201v176h201v-176zM725 0h-635v143h225v1086h-225v143h635v-143h-231v-1086h231v-143z" />
    <glyph glyph-name="Eth" unicode="&#xd0;" horiz-adv-x="1433" 
d="M416 152h227q494 0 494 536t-494 535h-227v-459h262v-150h-262v-462zM645 0h-407v614h-185v150h185v608h407q317 0 499 -167t181 -520t-183 -519t-497 -166z" />
    <glyph glyph-name="Ntilde" unicode="&#xd1;" horiz-adv-x="1511" 
d="M599 1692q75 0 161 -37t152 -37t167 59l23 -127q-117 -68 -213 -67q-57 0 -143 37q-86 36 -150 36q-66 0 -166 -59l-22 127q117 68 191 68zM1325 0h-254l-575 936l-117 260h-14v-1196h-179v1372h250l572 -936l125 -274h14v1210h178v-1372z" />
    <glyph glyph-name="Ograve" unicode="&#xd2;" horiz-adv-x="1478" 
d="M750 1481l-326 231l88 115l309 -244zM739 127q197 0 322 144q125 143 125 415t-126 416t-321 145q-195 0 -321 -144q-126 -143 -125 -415t125 -416t321 -145zM1374 687q0 -331 -171 -521t-463 -191t-464 191t-172 522t171 519t465 189t464 -188q170 -190 170 -521z" />
    <glyph glyph-name="Oacute" unicode="&#xd3;" horiz-adv-x="1478" 
d="M1069 1710l-326 -231l-71 102l309 244zM739 127q197 0 322 144q125 143 125 415t-126 416t-321 145q-195 0 -321 -144q-126 -143 -125 -415t125 -416t321 -145zM1374 687q0 -331 -171 -521t-463 -191t-464 191t-172 522t171 519t465 189t464 -188q170 -190 170 -521z" />
    <glyph glyph-name="Ocircumflex" unicode="&#xd4;" horiz-adv-x="1478" 
d="M971 1479l-232 184l-231 -184l-82 102l313 238l314 -238zM739 127q197 0 322 144q125 143 125 415t-126 416t-321 145q-195 0 -321 -144q-126 -143 -125 -415t125 -416t321 -145zM1374 687q0 -331 -171 -521t-463 -191t-464 191t-172 522t171 519t465 189t464 -188
q170 -190 170 -521z" />
    <glyph glyph-name="Otilde" unicode="&#xd5;" horiz-adv-x="1478" 
d="M602 1690q55 0 141 -37t153 -37t167 59l22 -127q-117 -68 -213 -67q-57 0 -142 37q-84 36 -150 36t-166 -59l-23 127q117 68 211 68zM739 127q197 0 322 144q125 143 125 415t-126 416t-321 145q-195 0 -321 -144q-126 -143 -125 -415t125 -416t321 -145zM1374 687
q0 -331 -171 -521t-463 -191t-464 191t-172 522t171 519t465 189t464 -188q170 -190 170 -521z" />
    <glyph glyph-name="Odieresis" unicode="&#xd6;" horiz-adv-x="1478" 
d="M1018 1505h-201v176h201v-176zM662 1505h-201v176h201v-176zM739 127q197 0 322 144q125 143 125 415t-126 416t-321 145q-195 0 -321 -144q-126 -143 -125 -415t125 -416t321 -145zM1374 687q0 -331 -171 -521t-463 -191t-464 191t-172 522t171 519t465 189t464 -188
q170 -190 170 -521z" />
    <glyph glyph-name="multiply" unicode="&#xd7;" 
d="M934 125l-320 317l-319 -317l-100 100l319 318l-319 319l100 101l319 -320l320 320l100 -101l-319 -319l319 -318z" />
    <glyph glyph-name="Oslash" unicode="&#xd8;" horiz-adv-x="1478" 
d="M739 143q199 1 323 137t124 400t-121 407l-483 -919q74 -25 157 -25zM739 1231q-197 0 -321 -137t-125 -422q0 -285 156 -424l489 938q-88 45 -199 45zM1374 686q0 -330 -171 -520t-464 -191q-127 0 -239 39l-133 -256l-142 68l142 262q-262 188 -263 598q0 332 171 521
t464 190q154 0 281 -58l131 254l143 -67l-141 -271q221 -188 221 -569z" />
    <glyph glyph-name="Ugrave" unicode="&#xd9;" horiz-adv-x="1396" 
d="M737 1481l-325 231l88 115l309 -244zM1049 453v919h178v-909q-1 -227 -149 -357t-380 -131q-232 0 -379 129t-147 359v909h178v-919q0 -156 102 -241t248 -85q145 0 247 85t102 241z" />
    <glyph glyph-name="Uacute" unicode="&#xda;" horiz-adv-x="1396" 
d="M991 1710l-325 -231l-72 102l309 244zM1049 453v919h178v-909q-1 -227 -149 -357t-380 -131q-232 0 -379 129t-147 359v909h178v-919q0 -156 102 -241t248 -85q145 0 247 85t102 241z" />
    <glyph glyph-name="Ucircumflex" unicode="&#xdb;" horiz-adv-x="1396" 
d="M930 1479l-232 184l-231 -184l-82 102l313 238l314 -238zM1049 453v919h178v-909q-1 -227 -149 -357t-380 -131q-232 0 -379 129t-147 359v909h178v-919q0 -156 102 -241t248 -85q145 0 247 85t102 241z" />
    <glyph glyph-name="Udieresis" unicode="&#xdc;" horiz-adv-x="1396" 
d="M977 1505h-201v176h201v-176zM621 1505h-201v176h201v-176zM1049 453v919h178v-909q-1 -227 -149 -357t-380 -131q-232 0 -379 129t-147 359v909h178v-919q0 -156 102 -241t248 -85q145 0 247 85t102 241z" />
    <glyph glyph-name="Yacute" unicode="&#xdd;" horiz-adv-x="1103" 
d="M881 1710l-326 -231l-72 102l310 244zM643 0h-178v492l-445 880h205l332 -702l328 702h198l-440 -880v-492z" />
    <glyph glyph-name="Thorn" unicode="&#xde;" horiz-adv-x="1089" 
d="M367 489h186q143 0 215 76t72 213q0 274 -287 275h-186v-564zM367 0h-181v1534h181v-332h184q219 0 348 -106t129 -318t-130 -324q-130 -114 -347 -114h-184v-340z" />
    <glyph glyph-name="germandbls" unicode="&#xdf;" horiz-adv-x="1165" 
d="M317 -518h-163v1605q0 203 127 312t281 109t265 -89q111 -88 111 -236t-107 -245q-45 -41 -90 -74q-106 -78 -106 -133t48 -93t118 -65q69 -27 139 -59t118 -91q48 -60 48 -144q0 -141 -114 -223t-258 -81q-144 0 -267 29l18 148q131 -29 225 -29t162 35q66 35 66 99
t-48 100t-117 61q-69 24 -137 54t-117 91q-48 61 -48 136t32 127t77 90l90 76q108 91 108 185q0 93 -66 135t-153 42q-88 0 -165 -66t-77 -192v-1614z" />
    <glyph glyph-name="agrave" unicode="&#xe0;" horiz-adv-x="972" 
d="M532 1104l-325 231l88 115l309 -244zM831 635v-629l-133 -26h-22v135h-4q-174 -133 -332 -133q-102 0 -179 70t-77 196q0 68 25 120t57 80q72 63 246 87l256 34v66q0 117 -54 163t-184 46q-131 0 -276 -66l-19 152q160 61 344 61q352 0 352 -356zM256 260q0 -59 38 -97
t101 -38q113 0 273 115v209l-265 -39q-147 -23 -147 -150z" />
    <glyph glyph-name="aacute" unicode="&#xe1;" horiz-adv-x="972" 
d="M696 1333l-325 -231l-72 102l309 244zM831 635v-629l-133 -26h-22v135h-4q-174 -133 -332 -133q-102 0 -179 70t-77 196q0 68 25 120t57 80q72 63 246 87l256 34v66q0 117 -54 163t-184 46q-131 0 -276 -66l-19 152q160 61 344 61q352 0 352 -356zM256 260q0 -59 38 -97
t101 -38q113 0 273 115v209l-265 -39q-147 -23 -147 -150z" />
    <glyph glyph-name="acircumflex" unicode="&#xe2;" horiz-adv-x="972" 
d="M727 1102l-231 184l-232 -184l-82 102l314 238l313 -238zM831 635v-629l-133 -26h-22v135h-4q-174 -133 -332 -133q-102 0 -179 70t-77 196q0 68 25 120t57 80q72 63 246 87l256 34v66q0 117 -54 163t-184 46q-131 0 -276 -66l-19 152q160 61 344 61q352 0 352 -356z
M256 260q0 -59 38 -97t101 -38q113 0 273 115v209l-265 -39q-147 -23 -147 -150z" />
    <glyph glyph-name="atilde" unicode="&#xe3;" horiz-adv-x="972" 
d="M341 1350q75 0 161 -37t152 -37t167 59l23 -127q-117 -68 -213 -67q-57 0 -143 37q-86 36 -150 36q-66 0 -166 -59l-22 127q117 68 191 68zM831 635v-629l-133 -26h-22v135h-4q-174 -133 -332 -133q-102 0 -179 70t-77 196q0 68 25 120t57 80q72 63 246 87l256 34v66
q0 117 -54 163t-184 46q-131 0 -276 -66l-19 152q160 61 344 61q352 0 352 -356zM256 260q0 -59 38 -97t101 -38q113 0 273 115v209l-265 -39q-147 -23 -147 -150z" />
    <glyph glyph-name="adieresis" unicode="&#xe4;" horiz-adv-x="972" 
d="M750 1196h-201v176h201v-176zM393 1196h-200v176h200v-176zM831 635v-629l-133 -26h-22v135h-4q-174 -133 -332 -133q-102 0 -179 70t-77 196q0 68 25 120t57 80q72 63 246 87l256 34v66q0 117 -54 163t-184 46q-131 0 -276 -66l-19 152q160 61 344 61q352 0 352 -356z
M256 260q0 -59 38 -97t101 -38q113 0 273 115v209l-265 -39q-147 -23 -147 -150z" />
    <glyph glyph-name="aring" unicode="&#xe5;" horiz-adv-x="972" 
d="M496 1509q92 0 152 -56t59 -145q1 -88 -59 -144t-152 -56t-152 55q-59 55 -59 145t59 145q60 56 152 56zM496 1196q44 0 76 32t32 81t-32 81t-76 32t-77 -32q-32 -32 -32 -81t32 -81t77 -32zM831 635v-629l-133 -26h-22v135h-4q-174 -133 -332 -133q-102 0 -179 70
t-77 196q0 68 25 120t57 80q72 63 246 87l256 34v66q0 117 -54 163t-184 46q-131 0 -276 -66l-19 152q160 61 344 61q352 0 352 -356zM256 260q0 -59 38 -97t101 -38q113 0 273 115v209l-265 -39q-147 -23 -147 -150z" />
    <glyph glyph-name="ae" unicode="&#xe6;" horiz-adv-x="1587" 
d="M258 260q0 -61 37 -98t98 -37q115 0 275 115v206l-267 -34q-143 -20 -143 -152zM1094 844q-110 0 -182 -73t-87 -193h486q8 114 -49 190q-58 76 -168 76zM1158 125q150 0 302 72v-152q-156 -70 -360 -70q-246 0 -363 172h-10q-98 -96 -186 -131q-87 -34 -195 -34t-185 70
t-77 194q0 68 25 120t57 80q75 66 246 86l256 31v72q0 117 -54 163t-184 46q-131 0 -276 -66l-19 152q160 61 344 61q219 0 301 -135q125 135 320 135t293 -122t98 -291q0 -62 -8 -140h-662q7 -174 97 -244t240 -69z" />
    <glyph glyph-name="ccedilla" unicode="&#xe7;" horiz-adv-x="968" 
d="M479 -18q-387 56 -387 512q0 220 136 359q136 138 380 138q127 0 262 -45l-12 -158q-137 56 -274 56q-136 0 -228 -84t-92 -266q0 -371 338 -371q139 0 283 55v-147q-135 -47 -262 -54l-78 -122l4 -7q190 -2 190 -165q0 -90 -72 -149q-73 -58 -235 -58q-29 0 -47 2
l-4 106q25 -2 47 -2q180 0 180 99q0 74 -121 73q-16 0 -36 -2l-60 68z" />
    <glyph glyph-name="egrave" unicode="&#xe8;" horiz-adv-x="1032" 
d="M598 1104l-326 231l88 115l310 -244zM756 604q0 104 -56 172t-164 68t-180 -73t-86 -193h486v26zM602 125q150 0 303 72v-152q-157 -70 -359 -70t-328 127t-126 394q0 203 121 349t324 146t301 -122t98 -291q0 -62 -8 -140h-662q8 -174 98 -244q88 -70 238 -69z" />
    <glyph glyph-name="eacute" unicode="&#xe9;" horiz-adv-x="1032" 
d="M829 1333l-325 -231l-72 102l309 244zM756 604q0 104 -56 172t-164 68t-180 -73t-86 -193h486v26zM602 125q150 0 303 72v-152q-157 -70 -359 -70t-328 127t-126 394q0 203 121 349t324 146t301 -122t98 -291q0 -62 -8 -140h-662q8 -174 98 -244q88 -70 238 -69z" />
    <glyph glyph-name="ecircumflex" unicode="&#xea;" horiz-adv-x="1032" 
d="M764 1102l-232 184l-231 -184l-82 102l313 238l314 -238zM756 604q0 104 -56 172t-164 68t-180 -73t-86 -193h486v26zM602 125q150 0 303 72v-152q-157 -70 -359 -70t-328 127t-126 394q0 203 121 349t324 146t301 -122t98 -291q0 -62 -8 -140h-662q8 -174 98 -244
q88 -70 238 -69z" />
    <glyph glyph-name="edieresis" unicode="&#xeb;" horiz-adv-x="1032" 
d="M809 1196h-201v176h201v-176zM453 1196h-201v176h201v-176zM756 604q0 104 -56 172t-164 68t-180 -73t-86 -193h486v26zM602 125q150 0 303 72v-152q-157 -70 -359 -70t-328 127t-126 394q0 203 121 349t324 146t301 -122t98 -291q0 -62 -8 -140h-662q8 -174 98 -244
q88 -70 238 -69z" />
    <glyph glyph-name="igrave" unicode="&#xec;" horiz-adv-x="468" 
d="M250 1104l-326 231l88 115l310 -244zM315 0h-163v961l143 30h20v-991z" />
    <glyph glyph-name="iacute" unicode="&#xed;" horiz-adv-x="468" 
d="M541 1333l-326 -231l-72 102l310 244zM315 0h-163v961l143 30h20v-991z" />
    <glyph glyph-name="icircumflex" unicode="&#xee;" horiz-adv-x="468" 
d="M465 1102l-232 184l-231 -184l-82 102l313 238l314 -238zM315 0h-163v961l143 30h20v-991z" />
    <glyph glyph-name="idieresis" unicode="&#xef;" horiz-adv-x="468" 
d="M512 1196h-201v176h201v-176zM156 1196h-201v176h201v-176zM315 0h-163v961l143 30h20v-991z" />
    <glyph glyph-name="eth" unicode="&#xf0;" horiz-adv-x="1128" 
d="M850 643v64q-152 68 -305 67q-113 0 -195 -85t-82 -239t75 -239q75 -86 207 -86t216 128t84 390zM1024 659q0 -309 -129 -496t-348 -187t-336 136t-117 348t133 336t326 124q61 0 147 -23t146 -57q0 217 -144 374l-161 -155l-82 74l162 155q-109 82 -275 133l49 154
q207 -66 342 -172l152 147l88 -73l-156 -150q203 -219 203 -668z" />
    <glyph glyph-name="ntilde" unicode="&#xf1;" horiz-adv-x="1136" 
d="M434 1350q55 0 141 -37t153 -37t167 59l23 -127q-117 -68 -213 -67q-57 0 -143 37q-86 36 -150 36q-66 0 -166 -59l-23 127q117 68 211 68zM991 0h-164v647q0 197 -161 197q-139 0 -351 -123v-721h-163v961l122 30h23l16 -133q121 72 202 103t169 30q137 0 222 -80
t85 -252v-659z" />
    <glyph glyph-name="ograve" unicode="&#xf2;" horiz-adv-x="1122" 
d="M590 1104l-326 231l88 115l310 -244zM561 844q-139 0 -218 -91t-79 -269t79 -270q79 -91 218 -91t218 91t79 269q0 177 -79 269t-218 92zM561 -25q-229 1 -349 141t-120 367t120 367t349 141q229 0 349 -140q120 -139 120 -367t-120 -368t-349 -141z" />
    <glyph glyph-name="oacute" unicode="&#xf3;" horiz-adv-x="1122" 
d="M848 1333l-326 -231l-71 102l309 244zM561 844q-139 0 -218 -91t-79 -269t79 -270q79 -91 218 -91t218 91t79 269q0 177 -79 269t-218 92zM561 -25q-229 1 -349 141t-120 367t120 367t349 141q229 0 349 -140q120 -139 120 -367t-120 -368t-349 -141z" />
    <glyph glyph-name="ocircumflex" unicode="&#xf4;" horiz-adv-x="1122" 
d="M793 1102l-232 184l-231 -184l-82 102l313 238l313 -238zM561 844q-139 0 -218 -91t-79 -269t79 -270q79 -91 218 -91t218 91t79 269q0 177 -79 269t-218 92zM561 -25q-229 1 -349 141t-120 367t120 367t349 141q229 0 349 -140q120 -139 120 -367t-120 -368t-349 -141z
" />
    <glyph glyph-name="otilde" unicode="&#xf5;" horiz-adv-x="1122" 
d="M424 1350q55 0 141 -37t153 -37t167 59l22 -127q-117 -68 -213 -67q-57 0 -142 37q-84 36 -150 36t-166 -59l-23 127q117 68 211 68zM561 844q-139 0 -218 -91t-79 -269t79 -270q79 -91 218 -91t218 91t79 269q0 177 -79 269t-218 92zM561 -25q-229 1 -349 141t-120 367
t120 367t349 141q229 0 349 -140q120 -139 120 -367t-120 -368t-349 -141z" />
    <glyph glyph-name="odieresis" unicode="&#xf6;" horiz-adv-x="1122" 
d="M840 1196h-201v176h201v-176zM483 1196h-200v176h200v-176zM561 844q-139 0 -218 -91t-79 -269t79 -270q79 -91 218 -91t218 91t79 269q0 177 -79 269t-218 92zM561 -25q-229 1 -349 141t-120 367t120 367t349 141q229 0 349 -140q120 -139 120 -367t-120 -368t-349 -141
z" />
    <glyph glyph-name="divide" unicode="&#xf7;" 
d="M721 119h-213v190h213v-190zM721 776h-213v191h213v-191zM1096 477h-963v133h963v-133z" />
    <glyph glyph-name="oslash" unicode="&#xf8;" horiz-adv-x="1136" 
d="M864 474q0 169 -67 263l-308 -606q33 -8 78 -8q139 0 218 91t79 260zM567 844q-139 0 -218 -91t-79 -271t84 -275l316 622q-54 15 -103 15zM567 -25q-66 0 -147 19l-94 -189l-142 68l95 186q-180 135 -181 424q0 227 120 367t349 141q88 0 172 -26l86 170l140 -70
l-91 -174q162 -137 162 -408q0 -227 -120 -367t-349 -141z" />
    <glyph glyph-name="ugrave" unicode="&#xf9;" horiz-adv-x="1130" 
d="M614 1104l-325 231l88 115l309 -244zM446 -25q-137 0 -222 80t-85 252v654l144 30h20v-672q0 -197 162 -196q139 0 350 123v715l143 30h21v-985l-139 -31h-23v134q-121 -72 -202 -103t-169 -31z" />
    <glyph glyph-name="uacute" unicode="&#xfa;" horiz-adv-x="1130" 
d="M840 1333l-326 -231l-72 102l310 244zM446 -25q-137 0 -222 80t-85 252v654l144 30h20v-672q0 -197 162 -196q139 0 350 123v715l143 30h21v-985l-139 -31h-23v134q-121 -72 -202 -103t-169 -31z" />
    <glyph glyph-name="ucircumflex" unicode="&#xfb;" horiz-adv-x="1130" 
d="M795 1102l-232 184l-231 -184l-82 102l313 238l314 -238zM446 -25q-137 0 -222 80t-85 252v654l144 30h20v-672q0 -197 162 -196q139 0 350 123v715l143 30h21v-985l-139 -31h-23v134q-121 -72 -202 -103t-169 -31z" />
    <glyph glyph-name="udieresis" unicode="&#xfc;" horiz-adv-x="1130" 
d="M842 1196h-201v176h201v-176zM485 1196h-200v176h200v-176zM446 -25q-137 0 -222 80t-85 252v654l144 30h20v-672q0 -197 162 -196q139 0 350 123v715l143 30h21v-985l-139 -31h-23v134q-121 -72 -202 -103t-169 -31z" />
    <glyph glyph-name="yacute" unicode="&#xfd;" horiz-adv-x="956" 
d="M791 1333l-326 -231l-72 102l309 244zM188 -537l-92 119q129 92 184 163q54 71 107 202l14 39h-28l-340 977h188l242 -775h14l264 775h187l-371 -1024q-61 -178 -147 -284t-222 -192z" />
    <glyph glyph-name="thorn" unicode="&#xfe;" horiz-adv-x="1128" 
d="M535 123q155 0 241 96t86 279q0 346 -239 346q-156 0 -306 -131v-570q127 -20 218 -20zM154 -537v2014l143 30h20v-641q168 125 338 125q171 0 275 -120q104 -119 104 -357t-129 -388t-377 -151q-94 0 -211 25v-506l-143 -31h-20z" />
    <glyph glyph-name="ydieresis" unicode="&#xff;" horiz-adv-x="956" 
d="M756 1196h-201v176h201v-176zM399 1196h-200v176h200v-176zM188 -537l-92 119q129 92 184 163q54 71 107 202l14 39h-28l-340 977h188l242 -775h14l264 775h187l-371 -1024q-61 -178 -147 -284t-222 -192z" />
    <glyph glyph-name="dotlessi" unicode="&#x131;" horiz-adv-x="468" 
d="M315 0h-163v961l143 30h20v-991z" />
    <glyph glyph-name="Lslash" unicode="&#x141;" horiz-adv-x="1013" 
d="M426 152h559l14 -152h-751v535l-148 -84l-71 135l219 127v659h178v-557l285 166l77 -135l-362 -209v-485z" />
    <glyph glyph-name="lslash" unicode="&#x142;" horiz-adv-x="595" 
d="M375 1493v-516l172 100l69 -121l-241 -139v-817h-166v721l-119 -68l-63 123l182 105v581l139 31h27z" />
    <glyph glyph-name="OE" unicode="&#x152;" horiz-adv-x="1898" 
d="M748 1247q-197 0 -326 -145q-129 -146 -129 -416t128 -414t327 -145q131 0 217 51v1020q-80 49 -217 49zM748 -25q-304 -1 -474 189t-170 523t169 521t475 189q121 0 217 -25h847l-20 -149h-649v-441h549v-149h-549v-481h641l22 -152h-841q-113 -25 -217 -25z" />
    <glyph glyph-name="oe" unicode="&#x153;" horiz-adv-x="1785" 
d="M1290 844q-110 0 -182 -73t-86 -193h485q8 114 -49 190q-58 76 -168 76zM561 844q-139 0 -218 -91t-79 -269t79 -270q79 -91 218 -91t218 91t79 269q0 177 -79 269t-218 92zM1354 125q150 0 303 72v-152q-156 -70 -361 -70q-246 0 -362 170q-126 -170 -364 -170
q-238 1 -358 141t-120 367t120 367t362 141q242 0 366 -178q127 178 339 178t310 -122t99 -291q-1 -62 -9 -140h-661q8 -174 97 -244t239 -69z" />
    <glyph glyph-name="Scaron" unicode="&#x160;" horiz-adv-x="1071" 
d="M883 1716l-314 -237l-313 237l80 103l233 -185l234 185zM448 127q160 0 254 61t95 181q0 78 -70 132t-170 90q-101 36 -201 80t-170 130t-69 211q0 186 142 285q143 99 335 99t324 -38l-17 -164q-150 53 -289 53t-224 -55t-85 -170q0 -80 70 -136t170 -95t200 -83
t170 -123t70 -192q0 -217 -152 -317q-153 -100 -363 -100t-366 38l17 160q169 -47 329 -47z" />
    <glyph glyph-name="scaron" unicode="&#x161;" horiz-adv-x="862" 
d="M750 1294l-314 -237l-313 237l80 103l233 -185l234 185zM102 158h17q164 -35 266 -35q219 0 219 139q0 55 -51 91t-124 61q-73 26 -147 56t-124 91q-51 61 -52 154q0 131 106 204t254 73t265 -38v-151h-16q-125 41 -232 41q-205 0 -204 -129q0 -87 175 -145
q72 -24 146 -54t125 -89q51 -60 51 -148q0 -162 -110 -233t-270 -71q-159 0 -294 31v152z" />
    <glyph glyph-name="Ydieresis" unicode="&#x178;" horiz-adv-x="1103" 
d="M831 1505h-200v176h200v-176zM475 1505h-201v176h201v-176zM643 0h-178v492l-445 880h205l332 -702l328 702h198l-440 -880v-492z" />
    <glyph glyph-name="Zcaron" unicode="&#x17d;" horiz-adv-x="1171" 
d="M893 1704l-313 -238l-314 238l80 102l234 -184l233 184zM121 1223v149h936l8 -172l-799 -1048h805l12 -152h-983l-22 174l805 1049h-762z" />
    <glyph glyph-name="zcaron" unicode="&#x17e;" horiz-adv-x="987" 
d="M809 1294l-313 -237l-314 237l80 103l234 -185l233 185zM117 819v144h753l19 -164l-613 -656h609l8 -143h-793l-16 158l608 661h-575z" />
    <glyph glyph-name="florin" unicode="&#x192;" horiz-adv-x="909" 
d="M40 -301q68 0 114 11q45 11 88 46q86 70 86 307v615h-246v149h246v217q0 514 436 515q104 0 186 -21l-26 -152q-76 16 -146 17q-152 0 -220 -72t-66 -293v-211h337v-149h-337v-621q0 -272 -119 -393t-318 -121q-104 1 -186 21l27 151q76 -16 144 -16z" />
    <glyph glyph-name="circumflex" unicode="&#x2c6;" horiz-adv-x="946" 
d="M705 1102l-232 184l-231 -184l-82 102l313 238l313 -238z" />
    <glyph glyph-name="caron" unicode="&#x2c7;" horiz-adv-x="946" 
d="M788 1294l-313 -237l-313 237l80 103l233 -185l234 185z" />
    <glyph glyph-name="breve" unicode="&#x2d8;" horiz-adv-x="778" 
d="M385 1112q-219 0 -338 207l107 61q88 -145 231 -145t231 145l107 -61q-119 -207 -338 -207z" />
    <glyph glyph-name="dotaccent" unicode="&#x2d9;" horiz-adv-x="526" 
d="M362 1192h-198v180h198v-180z" />
    <glyph glyph-name="ring" unicode="&#x2da;" horiz-adv-x="696" 
d="M348 1509q92 0 152 -56t59 -145q0 -88 -59 -144q-60 -56 -152 -56t-151 55t-59 145t58 145q60 56 152 56zM348 1196q45 0 77 32t32 81t-32 81t-77 32t-77 -32q-31 -32 -31 -81t32 -81t76 -32z" />
    <glyph glyph-name="ogonek" unicode="&#x2db;" horiz-adv-x="952" 
d="M535 -530q-117 0 -173 54q-55 54 -55 146q0 147 131 330h152q-139 -195 -139 -309q0 -109 124 -109q56 0 89 8l-21 -112q-57 -8 -108 -8z" />
    <glyph glyph-name="tilde" unicode="&#x2dc;" horiz-adv-x="1013" 
d="M395 1350q55 0 141 -37t154 -37q66 0 166 59l23 -127q-117 -68 -213 -67q-56 0 -142 37q-86 36 -152 36t-165 -59l-23 127q117 68 211 68z" />
    <glyph glyph-name="hungarumlaut" unicode="&#x2dd;" horiz-adv-x="1218" 
d="M985 1331l-328 -229l-63 82l307 252zM600 1331l-328 -229l-63 82l307 252z" />
    <glyph glyph-name="Delta" unicode="&#x394;" horiz-adv-x="1478" 
d="M1147 145l-408 1098l-407 -1098h815zM1376 0h-1274l525 1372h225z" />
    <glyph glyph-name="Delta" unicode="&#x2206;" horiz-adv-x="1478" 
d="M1147 145l-408 1098l-407 -1098h815zM1376 0h-1274l525 1372h225z" />
    <glyph glyph-name="Omega" unicode="&#x3a9;" horiz-adv-x="1495" 
d="M1384 0h-536v184q340 188 340 582q0 219 -126 351t-314 132t-314 -132t-127 -351q0 -393 340 -582v-184h-536v147h378q-135 59 -253 229t-117 390q0 272 177 452q178 180 452 179q274 0 451 -179t177 -452q0 -221 -116 -390t-254 -229h378v-147z" />
    <glyph glyph-name="Omega" unicode="&#x2126;" horiz-adv-x="1495" 
d="M1384 0h-536v184q340 188 340 582q0 219 -126 351t-314 132t-314 -132t-127 -351q0 -393 340 -582v-184h-536v147h378q-135 59 -253 229t-117 390q0 272 177 452q178 180 452 179q274 0 451 -179t177 -452q0 -221 -116 -390t-254 -229h378v-147z" />
    <glyph glyph-name="mu" unicode="&#x3bc;" horiz-adv-x="1120" 
d="M442 -25q-84 0 -147 48v-529l-150 -20h-14v1487l143 30h21v-672q0 -197 162 -196q139 0 350 123v715l143 30h21v-985l-140 -31h-22v134q-121 -72 -202 -103t-165 -31z" />
    <glyph glyph-name="pi" unicode="&#x3c0;" horiz-adv-x="1482" 
d="M1156 -25q-64 1 -98 9q-99 25 -133 117q-22 58 -22 147v563h-387v-811h-164v811h-262v152h1274v-152h-297v-565q0 -133 96 -133q64 -1 140 32l14 -135q-97 -35 -161 -35z" />
    <glyph glyph-name="endash" unicode="&#x2013;" horiz-adv-x="1122" 
d="M981 444h-840v150h840v-150z" />
    <glyph glyph-name="emdash" unicode="&#x2014;" horiz-adv-x="1648" 
d="M1507 444h-1366v150h1366v-150z" />
    <glyph glyph-name="quoteleft" unicode="&#x2018;" horiz-adv-x="456" 
d="M344 1171h-229q-6 43 -6 84q0 193 147 392l90 -54q-72 -117 -106 -209l104 -16v-197z" />
    <glyph glyph-name="quoteright" unicode="&#x2019;" horiz-adv-x="423" 
d="M109 1464h229q6 -43 6 -84q0 -192 -147 -391l-91 53q72 117 107 209l-104 17v196z" />
    <glyph glyph-name="quotesinglbase" unicode="&#x201a;" horiz-adv-x="522" 
d="M145 205h230q6 -43 6 -84q-1 -192 -148 -391l-90 53q72 117 107 209l-105 16v197z" />
    <glyph glyph-name="quotedblleft" unicode="&#x201c;" horiz-adv-x="778" 
d="M344 1171h-229q-6 43 -6 84q0 193 147 392l90 -54q-72 -117 -106 -209l104 -16v-197zM666 1171h-230q-6 43 -6 84q0 193 148 392l90 -54q-72 -117 -107 -209l105 -16v-197z" />
    <glyph glyph-name="quotedblright" unicode="&#x201d;" horiz-adv-x="745" 
d="M430 1464h229q6 -43 7 -84q-1 -192 -148 -391l-90 53q72 117 107 209l-105 17v196zM109 1464h229q6 -43 6 -84q0 -192 -147 -391l-91 53q72 117 107 209l-104 17v196z" />
    <glyph glyph-name="quotedblbase" unicode="&#x201e;" horiz-adv-x="843" 
d="M467 205h229q6 -43 6 -84q0 -192 -147 -391l-90 53q72 117 106 209l-104 16v197zM145 205h230q6 -43 6 -84q-1 -192 -148 -391l-90 53q72 117 107 209l-105 16v197z" />
    <glyph glyph-name="dagger" unicode="&#x2020;" horiz-adv-x="802" 
d="M459 100h-142v826h-213v127h213v331l142 21v-352h243v-127h-243v-826z" />
    <glyph glyph-name="daggerdbl" unicode="&#x2021;" horiz-adv-x="811" 
d="M461 0h-142v453h-213v127h213v346h-213v127h213v331l142 21v-352h244v-127h-244v-346h244v-127h-244v-453z" />
    <glyph glyph-name="bullet" unicode="&#x2022;" horiz-adv-x="643" 
d="M481 502h-319v286h319v-286z" />
    <glyph glyph-name="ellipsis" unicode="&#x2026;" horiz-adv-x="1359" 
d="M1214 0h-215v205h215v-205zM786 0h-215v205h215v-205zM360 0h-215v205h215v-205z" />
    <glyph glyph-name="perthousand" unicode="&#x2030;" horiz-adv-x="2027" 
d="M1917 230q0 -114 -77 -184q-78 -70 -194 -71q-116 0 -193 71q-77 70 -77 184t78 186t193 72t193 -72t77 -186zM1647 72q65 0 105 42t40 116t-39 118q-39 43 -107 43t-106 -43q-39 -43 -39 -118q0 -74 40 -116t106 -42zM1300 230q0 -114 -76 -184t-194 -71q-118 0 -194 71
q-76 70 -76 184t78 186t192 72t193 -72q77 -72 77 -186zM1030 72q66 0 106 42t40 116t-39 118q-39 43 -107 43t-106 -43t-39 -118q-1 -74 39 -116t106 -42zM367 1139q115 1 193 -71t77 -186q0 -114 -77 -185q-78 -71 -194 -71t-193 72q-77 70 -77 184t78 186t193 71z
M322 -57l-105 80l864 1163l107 -74zM367 723q65 0 105 42t40 117q0 76 -39 118t-107 42t-106 -43q-39 -43 -39 -117t40 -117q40 -42 106 -42z" />
    <glyph glyph-name="guilsinglleft" unicode="&#x2039;" horiz-adv-x="534" 
d="M430 182l-108 -59l-246 424l246 424l106 -60l-215 -362z" />
    <glyph glyph-name="guilsinglright" unicode="&#x203a;" horiz-adv-x="534" 
d="M213 123l-109 59l218 367l-216 362l107 60l246 -424z" />
    <glyph glyph-name="fraction" unicode="&#x2044;" horiz-adv-x="790" 
d="M70 -207l-121 51l782 1758l123 -52z" />
    <glyph glyph-name="Euro" unicode="&#x20ac;" horiz-adv-x="1427" 
d="M887 -25q-537 0 -619 527h-174l19 137h141v59q0 41 2 62h-123l19 137h124q52 231 228 365t428 135q197 0 352 -45l-27 -156q-195 51 -349 51t-274 -88q-122 -88 -167 -262h672l-19 -137h-676q-2 -20 -2 -62v-59h660l-19 -137h-624q76 -375 456 -375q160 0 357 72l45 -150
q-197 -74 -430 -74z" />
    <glyph glyph-name="trademark" unicode="&#x2122;" horiz-adv-x="1499" 
d="M1343 756h-104v538h-8l-187 -542h-143l-186 542h-8v-538h-105v616h201l170 -522l170 522h200v-616zM369 756h-113v524h-182v92h481l-10 -92h-176v-524z" />
    <glyph glyph-name="partialdiff" unicode="&#x2202;" horiz-adv-x="1179" 
d="M592 764q-148 0 -236 -76t-88 -238t79 -244t187 -81q209 0 286 166q65 137 67 317q0 72 -2 99q-145 57 -293 57zM342 1548q342 0 530 -228t189 -632q0 -342 -138 -527q-139 -185 -363 -185t-345 129q-121 130 -121 346q0 217 135 339t334 122t318 -72q-55 555 -549 555
q-80 -1 -182 -17l-11 152q106 18 203 18z" />
    <glyph glyph-name="product" unicode="&#x220f;" horiz-adv-x="1771" 
d="M1630 -512h-164v2042h-1161v-2044h-164v2195h1489v-2193z" />
    <glyph glyph-name="summation" unicode="&#x2211;" horiz-adv-x="1349" 
d="M295 -449v148l504 917l-504 918v147h1143l-21 -151h-940l502 -914l-502 -913h924l20 -152h-1126z" />
    <glyph glyph-name="minus" unicode="&#x2212;" 
d="M1096 473h-963v141h963v-141z" />
    <glyph glyph-name="radical" unicode="&#x221a;" horiz-adv-x="1503" 
d="M121 813v150h368l308 -1160h12l440 1887h170l-501 -2052h-230l-328 1175h-239z" />
    <glyph glyph-name="infinity" unicode="&#x221e;" horiz-adv-x="1992" 
d="M512 758q-92 0 -154 -53t-63 -139q0 -86 62 -140q62 -53 155 -53q172 -1 391 192q-217 193 -391 193zM1481 758q-174 0 -391 -193q219 -193 391 -192q92 0 154 53t63 139q0 85 -62 139t-155 54zM512 225q-172 0 -281 92t-109 247t109 248t281 93q223 0 485 -243
q258 244 484 243q173 0 281 -93t108 -248t-109 -247t-280 -92q-230 0 -484 244q-258 -244 -485 -244z" />
    <glyph glyph-name="integral" unicode="&#x222b;" horiz-adv-x="833" 
d="M207 -334q131 0 131 168v1469q0 153 87 233t202 80q57 0 106 -10l-20 -142q-66 6 -80 6q-131 0 -131 -167v-1469q0 -154 -87 -234t-202 -79q-58 0 -107 10l21 141q63 -6 80 -6z" />
    <glyph glyph-name="approxequal" unicode="&#x2248;" 
d="M815 731q98 0 203 84l82 -110q-145 -113 -299 -113q-66 0 -189 43t-192 43q-109 0 -209 -82l-82 109q147 115 297 114q78 0 205 -44t184 -44zM426 469q78 0 205 -44t184 -44q98 0 203 84l82 -111q-145 -113 -299 -112q-66 0 -189 43t-192 43q-109 0 -209 -82l-82 108
q147 115 297 115z" />
    <glyph glyph-name="notequal" unicode="&#x2260;" 
d="M1094 301h-564l-139 -262l-110 51l116 211h-266v139h344l111 205h-455v141h533l131 240l106 -51l-104 -189h297v-141h-375l-109 -205h484v-139z" />
    <glyph glyph-name="lessequal" unicode="&#x2264;" 
d="M1065 0h-913v141h913v-141zM1065 225l-913 293v242l913 293v-166l-819 -248l819 -248v-166z" />
    <glyph glyph-name="greaterequal" unicode="&#x2265;" 
d="M1077 0h-913v141h913v-141zM1077 518l-913 -293v166l819 248l-819 248v166l913 -293v-242z" />
    <glyph glyph-name="lozenge" unicode="&#x25ca;" horiz-adv-x="1263" 
d="M631 111l360 575l-358 574l-359 -574zM717 0h-178l-439 686l447 684h178l438 -684z" />
    <glyph glyph-name="CR" horiz-adv-x="471" 
 />
    </font>
</defs>
</svg>
