<?xml version="1.0" standalone="no"?>
<!DOCTYPE svg PUBLIC "-//W3C//DTD SVG 1.1//EN" "http://www.w3.org/Graphics/SVG/1.1/DTD/svg11.dtd" >
<svg xmlns="http://www.w3.org/2000/svg">
<metadata>
Created by FontPrep 20130207 at Thu Jul  9 11:40:55 2015
 By Toni Fisler
Copyright (c) 2009 by Mark Caneso /psType. All rights reserved.
</metadata>
<defs>
<font id="459712f648434fc02390d26a078b85ab" horiz-adv-x='1024' >
  <font-face 
    font-family="Ratio-Light"
    font-weight="300"
    font-stretch="normal"
    units-per-em="2048"
    panose-1="2 0 5 3 0 0 0 2 0 4"
    ascent="1511"
    descent="-537"
    x-height="948"
    cap-height="1372"
    bbox="-156 -542 1855 1780"
    underline-thickness="102"
    underline-position="-102"
    unicode-range="U+0020-FB02"
  />
<missing-glyph horiz-adv-x="1167" 
d="M862 141v1090h-557v-1090h557zM1004 0h-840v1372h840v-1372z" />
    <glyph glyph-name="fi" unicode="fi" horiz-adv-x="1024" 
d="M860 0h-90v868h-473v-868h-90v868h-127v62l127 18v156q0 201 105 301t261 100q102 0 295 -49v-166l-80 -16q-20 84 -61 116t-157 32t-194 -74t-79 -230v-170h563v-948z" />
    <glyph glyph-name="fl" unicode="fl" horiz-adv-x="1048" 
d="M879 0h-93v1384q-109 37 -218 37q-109 -1 -190 -75t-81 -234v-164h338v-80h-338v-868h-90v868h-127v62l127 18v154q-4 201 104 302q109 101 277 101q125 0 291 -47v-1458z" />
    <glyph glyph-name=".notdef" horiz-adv-x="1167" 
d="M862 141v1090h-557v-1090h557zM1004 0h-840v1372h840v-1372z" />
    <glyph glyph-name=".null" horiz-adv-x="0" 
 />
    <glyph glyph-name="nonmarkingreturn" horiz-adv-x="681" 
 />
    <glyph glyph-name="space" unicode=" " horiz-adv-x="512" 
 />
    <glyph glyph-name="exclam" unicode="!" horiz-adv-x="393" 
d="M250 0h-107v174l107 -47v-127zM242 420l-90 26l-9 926h109z" />
    <glyph glyph-name="quotedbl" unicode="&#x22;" horiz-adv-x="626" 
d="M483 981l-84 -20v385l84 20v-385zM229 981l-84 -20v385l84 20v-385z" />
    <glyph glyph-name="numbersign" unicode="#" horiz-adv-x="1294" 
d="M844 420v368h-400v-368h400zM934 0h-90v340h-400v-340h-90v340h-260v80h260v368h-260v82h260v340h90v-340h400v340h88v-340h266v-82h-264v-368h268v-80h-268v-340z" />
    <glyph glyph-name="dollar" unicode="$" horiz-adv-x="831" 
d="M356 59q128 1 213 55q84 54 84 163t-192 198q-80 37 -160 78t-136 110t-56 176t76 176q77 69 206 89v143h82v-135q100 0 217 -33q-4 -57 -8 -88q-104 33 -215 33q-262 0 -262 -197q0 -131 193 -219q81 -37 161 -76t136 -101t57 -148q0 -123 -78 -199t-201 -98v-146h-82
v137l-33 -2q-129 0 -256 27q4 61 9 90q117 -33 245 -33z" />
    <glyph glyph-name="percent" unicode="%" horiz-adv-x="1349" 
d="M1255 230q1 -116 -69 -186t-178 -69q-108 0 -180 70q-70 69 -70 185t70 187q71 71 180 71t178 -72q69 -70 69 -186zM1006 41q78 0 124 50t48 138q0 87 -46 139t-126 52t-124 -50t-44 -140t45 -139q45 -50 123 -50zM92 882q0 116 71 186t178 71t178 -71t71 -187t-71 -186
t-179 -71t-178 72q-70 70 -70 186zM281 -45q-29 23 -66 49l862 1165l64 -43zM340 690q78 0 124 51t46 139t-45 140q-45 51 -125 51t-124 -51t-44 -139q0 -87 45 -139t123 -52z" />
    <glyph glyph-name="ampersand" unicode="&#x26;" horiz-adv-x="1468" 
d="M215 352q0 -141 86 -216t217 -75q168 0 287 125q-319 180 -488 451l-12 -23q-90 -121 -90 -262zM492 -23q-156 -1 -265 91t-109 278t132 336l24 29q-78 152 -77 290q0 199 108 297q109 98 263 98t309 -55l-21 -274h-84l14 209q-100 35 -208 35t-198 -72q-89 -72 -89 -227
q0 -211 163 -415t414 -343q113 164 113 414v118h274v-88h-186q0 -295 -127 -485q238 -118 490 -145q0 -31 -5 -84q-270 23 -538 155q-150 -162 -397 -162z" />
    <glyph glyph-name="quotesingle" unicode="'" horiz-adv-x="372" 
d="M229 981l-84 -20v385l84 20v-385z" />
    <glyph glyph-name="parenleft" unicode="(" horiz-adv-x="608" 
d="M102 581q0 307 118 587t304 464l64 -51q-190 -197 -288 -461t-99 -539q0 -275 97 -537t290 -458l-64 -51q-186 184 -304 461t-118 585z" />
    <glyph glyph-name="parenright" unicode=")" horiz-adv-x="608" 
d="M506 588q0 -307 -118 -589t-304 -464l-64 51q190 197 289 461q99 263 99 539t-98 537q-97 261 -290 458l64 51q186 -184 304 -460t118 -584z" />
    <glyph glyph-name="asterisk" unicode="*" horiz-adv-x="880" 
d="M408 1530h63v-328l311 101l21 -60q-57 -18 -163 -53t-146 -47l194 -262l-51 -39l-195 266l-192 -268q-43 32 -53 41q18 25 86 117t104 143l-311 104l20 60q139 -47 312 -103v328z" />
    <glyph glyph-name="plus" unicode="+" 
d="M655 61h-86v443h-436v84h436v436h86v-436h441v-84h-441v-443z" />
    <glyph glyph-name="comma" unicode="," horiz-adv-x="456" 
d="M170 152h115q4 -20 4 -78q-1 -135 -103 -293l-57 31q68 121 78 196l-37 6v138z" />
    <glyph glyph-name="hyphen" unicode="-" horiz-adv-x="884" 
d="M735 469h-585v86h585v-86z" />
    <glyph glyph-name="period" unicode="." horiz-adv-x="454" 
d="M285 0h-115v152h115v-152z" />
    <glyph glyph-name="slash" unicode="/" horiz-adv-x="722" 
d="M154 -356h-91l504 1894h95z" />
    <glyph glyph-name="zero" unicode="0" horiz-adv-x="1222" 
d="M610 -25q-225 1 -354 141t-129 396t129 396t354 140q224 0 354 -140t130 -396t-130 -396t-354 -141zM610 59q178 0 282 115q103 115 103 338t-103 338q-104 115 -282 115t-281 -115t-103 -338t102 -338q104 -115 282 -115z" />
    <glyph glyph-name="one" unicode="1" horiz-adv-x="743" 
d="M678 0h-584v80h262v862h-200v78h290v-940h232v-80z" />
    <glyph glyph-name="two" unicode="2" horiz-adv-x="995" 
d="M887 0h-762l-23 82q25 20 202 160t229 182q149 124 186 209q23 51 22 106q0 105 -82 165q-83 60 -217 60t-282 -49l-17 82q164 51 322 51q157 0 265 -80t108 -230t-152 -294q-90 -83 -219 -182l-225 -180h645v-82z" />
    <glyph glyph-name="three" unicode="3" horiz-adv-x="903" 
d="M317 -289q176 0 275 90q98 89 98 235t-97 212t-251 65q-51 0 -109 -4v84q45 4 116 4t130 -12q82 63 132 151t51 175q0 131 -83 192t-215 61t-270 -42l-10 84q139 43 296 43q156 0 266 -85t110 -261t-189 -349q100 -33 160 -113q59 -81 59 -192q0 -186 -124 -304
t-336 -118q-146 0 -285 29l14 86q137 -31 262 -31z" />
    <glyph glyph-name="four" unicode="4" horiz-adv-x="1122" 
d="M758 -356v374h-668l-8 86q150 397 354 932h99q-57 -156 -177 -468t-178 -468h578v404l12 151h78v-553h209v-84h-209v-372l-64 -2h-26z" />
    <glyph glyph-name="five" unicode="5" horiz-adv-x="995" 
d="M424 -289q144 0 252 82t106 266q0 184 -94 252t-254 68h-264v641h672l-4 -84h-580v-473h199q422 0 422 -385q0 -225 -131 -338t-345 -113q-166 0 -297 39l15 86q159 -41 303 -41z" />
    <glyph glyph-name="six" unicode="6" horiz-adv-x="1105" 
d="M899 403q0 317 -317 318q-169 0 -349 -88q0 -575 363 -576q143 1 223 97t80 249zM610 805q168 0 277 -98q109 -99 109 -289t-108 -317q-108 -126 -314 -126t-323 167q-116 167 -116 502t162 544t448 209q91 -1 173 -17l-13 -88q-82 18 -153 19q-228 0 -364 -160
t-150 -438q204 92 372 92z" />
    <glyph glyph-name="seven" unicode="7" horiz-adv-x="921" 
d="M854 1020v-74l-590 -1308h-96l588 1298h-674l-6 84h778z" />
    <glyph glyph-name="eight" unicode="8" horiz-adv-x="1101" 
d="M846 1032q0 133 -80 207t-211 74t-215 -75t-84 -193t64 -182t196 -109l164 -58q166 170 166 336zM240 344q0 -125 82 -206t227 -81t230 81t85 205t-68 187q-69 63 -202 109l-172 57q-182 -164 -182 -352zM963 348q0 -172 -118 -272t-297 -100t-293 92q-114 94 -114 262
q0 199 215 395q-197 96 -196 305q0 162 112 264q113 102 286 102q172 0 278 -96t106 -264t-186 -368q207 -90 207 -320z" />
    <glyph glyph-name="nine" unicode="9" horiz-adv-x="1069" 
d="M186 618q0 -317 316 -317q170 0 350 88q0 573 -363 574q-143 1 -223 -95t-80 -250zM476 217q-170 0 -278 98q-108 97 -108 289t109 318t315 127q206 0 321 -168t115 -502t-160 -542t-450 -208q-102 1 -172 17l12 88q76 -20 154 -21q229 0 364 159t150 437
q-203 -92 -372 -92z" />
    <glyph glyph-name="colon" unicode=":" horiz-adv-x="557" 
d="M336 0h-115v152h115v-152zM336 657h-115v152h115v-152z" />
    <glyph glyph-name="semicolon" unicode=";" horiz-adv-x="559" 
d="M221 152h115q4 -20 4 -78q0 -135 -102 -293l-58 31q68 121 78 196l-37 6v138zM336 657h-115v152h115v-152z" />
    <glyph glyph-name="less" unicode="&#x3c;" 
d="M1040 37q-741 348 -901 422v133q160 74 901 422v-101l-839 -387q279 -131 839 -389v-100z" />
    <glyph glyph-name="equal" unicode="=" 
d="M1049 354h-869v84h869v-84zM1049 651h-869v86h869v-86z" />
    <glyph glyph-name="greater" unicode="&#x3e;" 
d="M1087 459q-160 -74 -901 -422v100q688 319 838 389l-838 387v101q741 -348 901 -422v-133z" />
    <glyph glyph-name="question" unicode="?" horiz-adv-x="790" 
d="M334 0h-109v168l109 -31v-137zM203 519q0 73 44 139t105 108l124 82q152 99 151 252q0 88 -65 148q-129 119 -464 12l-14 88q152 49 283 49q180 0 266 -84q86 -85 86 -191q0 -191 -111 -276q-47 -37 -103 -75q-55 -38 -103 -71q-110 -77 -111 -221q0 -45 20 -121l-94 25
q-14 63 -14 136z" />
    <glyph glyph-name="at" unicode="@" horiz-adv-x="1662" 
d="M967 352l61 398q-82 33 -158 32q-139 0 -216 -114t-76 -279q0 -106 30 -148t94 -42q120 -1 265 153zM881 -375q-367 0 -582 206t-215 601q0 205 66 370q122 305 427 427q140 55 293 55q322 0 504 -181t182 -445t-114 -418q-114 -156 -328 -156q-82 0 -120 37t-33 137
q-152 -139 -277 -139q-80 1 -136 65t-56 193q0 213 101 347t277 134q117 0 250 -57q-14 -88 -41 -263t-39 -250t6 -103t80 -27q145 0 245 117q99 118 99 373t-166 406q-167 151 -436 150q-318 0 -508 -223t-190 -558t188 -527t533 -193q88 0 194 29l15 -78
q-104 -29 -219 -29z" />
    <glyph glyph-name="A" unicode="A" horiz-adv-x="1155" 
d="M889 360l-314 926l-317 -926h631zM1120 0h-108l-94 276h-685l-94 -276h-104l473 1372h133z" />
    <glyph glyph-name="B" unicode="B" horiz-adv-x="1175" 
d="M299 741h438q59 55 101 139t41 160q0 246 -320 246h-260v-545zM950 393q0 117 -76 191t-182 73h-393v-571h303q162 0 255 76t93 231zM561 1372q197 0 309 -78t113 -250q0 -171 -160 -331q103 -33 167 -118t65 -202q0 -189 -126 -291t-327 -102h-401v1372h360z" />
    <glyph glyph-name="C" unicode="C" horiz-adv-x="1191" 
d="M748 1311q-213 0 -368 -157q-155 -156 -155 -474q1 -318 145 -468t378 -151q170 1 313 60l29 -86q-188 -59 -352 -59q-465 -1 -582 439q-35 128 -35 283q0 314 178 506t465 193q123 0 299 -47l-25 -385l-90 2q17 290 19 313q-115 31 -219 31z" />
    <glyph glyph-name="D" unicode="D" horiz-adv-x="1335" 
d="M588 88q516 0 516 599t-516 599h-289v-1198h289zM590 1372q294 0 456 -167t162 -518t-165 -519t-453 -168h-389v1372h389z" />
    <glyph glyph-name="E" unicode="E" horiz-adv-x="1073" 
d="M201 0v1372h766l-6 -86h-662v-536h555v-86h-555v-578h653l9 -86h-760z" />
    <glyph glyph-name="F" unicode="F" horiz-adv-x="1024" 
d="M299 0h-98v1372h757l-8 -86h-651v-555h553v-86h-553v-645z" />
    <glyph glyph-name="G" unicode="G" horiz-adv-x="1325" 
d="M1204 541v-467q-215 -98 -461 -99q-307 0 -465 197t-159 520q0 324 186 514t494 191q168 0 319 -56q-4 -16 -10 -48t-10 -46q-143 55 -279 62q-298 0 -468 -199q-128 -150 -128 -412q0 -330 151 -484t386 -153q194 0 346 72v395l86 13h12z" />
    <glyph glyph-name="H" unicode="H" horiz-adv-x="1417" 
d="M1217 0h-99v655h-819v-655h-98v1372h98v-629h819v629h99v-1372z" />
    <glyph glyph-name="I" unicode="I" horiz-adv-x="741" 
d="M657 0h-569v82h231v1206h-231v84h569v-84h-239v-1206h239v-82z" />
    <glyph glyph-name="J" unicode="J" horiz-adv-x="575" 
d="M276 92v1198h-229v82h328v-1141q1 -261 -47 -373t-224 -235l-47 72q121 86 170 170t49 227z" />
    <glyph glyph-name="K" unicode="K" horiz-adv-x="1060" 
d="M299 0h-98v1372h98v-696l557 696h125l-567 -696l630 -676h-135l-610 659v-659z" />
    <glyph glyph-name="L" unicode="L" horiz-adv-x="864" 
d="M201 0v1372h98v-1286h543l12 -86h-653z" />
    <glyph glyph-name="M" unicode="M" horiz-adv-x="1685" 
d="M297 1280v-1280h-96v1372h168l479 -1253l479 1253h158v-1372h-96v1280h-9q-61 -168 -131 -373l-352 -913h-100l-359 913q-27 80 -133 373h-8z" />
    <glyph glyph-name="N" unicode="N" horiz-adv-x="1413" 
d="M1212 0h-137l-776 1262v-1262h-98v1372h147l766 -1255v1255h98v-1372z" />
    <glyph glyph-name="O" unicode="O" horiz-adv-x="1427" 
d="M715 1311q-209 0 -349 -162t-139 -463t139 -463t348 -162t348 162t138 463t-138 463t-347 162zM715 1397q272 1 431 -191t159 -522t-160 -519t-430 -189t-431 190q-161 192 -161 521t160 519t432 191z" />
    <glyph glyph-name="P" unicode="P" horiz-adv-x="1052" 
d="M299 621h248q159 0 239 89t80 248q0 328 -319 328h-248v-665zM299 0h-98v1372h344q197 0 311 -104t115 -310q0 -206 -116 -314q-116 -110 -310 -109h-246v-535z" />
    <glyph glyph-name="Q" unicode="Q" horiz-adv-x="1427" 
d="M712 61q210 0 349 161t139 462t-139 464t-348 163t-347 -162t-138 -464t136 -463q138 -161 348 -161zM1305 684q0 -330 -160 -520t-431 -189q-271 -1 -431 191t-160 521t160 519t431 190t431 -190q160 -192 160 -522zM1251 -317l-710 102l10 86l713 -102z" />
    <glyph glyph-name="R" unicode="R" horiz-adv-x="1146" 
d="M299 657h391q176 154 176 338q0 127 -73 209q-74 82 -220 82h-274v-629zM299 573v-573h-98v1372h364q193 0 299 -99t107 -272q1 -127 -61 -222t-162 -183l339 -596h-114l-326 573h-348z" />
    <glyph glyph-name="S" unicode="S" horiz-adv-x="997" 
d="M432 61q146 0 254 75t109 214q0 88 -69 153t-167 109q-99 44 -197 91t-166 131t-69 200q0 176 121 270t319 93q145 0 267 -33q-8 -70 -11 -94q-123 41 -266 41t-234 -68t-92 -211q-1 -76 49 -135t124 -95t161 -79q86 -43 161 -85t124 -115t49 -165q0 -194 -142 -288
t-360 -95q-100 0 -284 31l8 94q165 -39 311 -39z" />
    <glyph glyph-name="T" unicode="T" horiz-adv-x="978" 
d="M539 0h-99v1286h-415v86h938l-11 -86h-413v-1286z" />
    <glyph glyph-name="U" unicode="U" horiz-adv-x="1339" 
d="M1153 451q0 -223 -135 -349t-348 -127q-213 0 -347 125t-135 351v921h99v-932q1 -184 111 -281t272 -97t274 96q112 98 111 282v932h98v-921z" />
    <glyph glyph-name="V" unicode="V" horiz-adv-x="1150" 
d="M645 -16h-133l-479 1388h106l439 -1300l434 1300h106z" />
    <glyph glyph-name="W" unicode="W" horiz-adv-x="1773" 
d="M1370 -12h-141l-271 995l-67 295h-6l-72 -295l-274 -995h-136l-319 1384h102l228 -1001l57 -279h10l70 279l272 1001h131l338 -1280h11l57 279l227 1001h103z" />
    <glyph glyph-name="X" unicode="X" horiz-adv-x="1130" 
d="M1069 0h-117l-387 623l-391 -623h-117l445 700l-426 672h121l374 -602l373 602h113l-424 -680z" />
    <glyph glyph-name="Y" unicode="Y" horiz-adv-x="1021" 
d="M559 0h-98v489l-432 883h112l371 -780l373 780h108l-434 -883v-489z" />
    <glyph glyph-name="Z" unicode="Z" horiz-adv-x="1103" 
d="M123 1286v86h876l5 -96l-818 -1190h815l9 -86h-918l-12 96l821 1190h-778z" />
    <glyph glyph-name="bracketleft" unicode="[" horiz-adv-x="536" 
d="M502 -313h-316v1753h295v-78h-211v-1595h232v-80z" />
    <glyph glyph-name="backslash" unicode="\" horiz-adv-x="712" 
d="M659 -467h-90l-501 1860h94z" />
    <glyph glyph-name="bracketright" unicode="]" horiz-adv-x="538" 
d="M352 -313h-315v80h229v1595h-209v78h295v-1753z" />
    <glyph glyph-name="asciicircum" unicode="^" horiz-adv-x="1040" 
d="M856 840h-98l-232 452h-10l-235 -452h-97l285 532h104z" />
    <glyph glyph-name="underscore" unicode="_" horiz-adv-x="860" 
d="M813 -219h-766v82h766v-82z" />
    <glyph glyph-name="grave" unicode="`" horiz-adv-x="1038" 
d="M305 1298l53 66l265 -203l-45 -61z" />
    <glyph glyph-name="a" unicode="a" horiz-adv-x="931" 
d="M350 -18q-104 0 -179 68t-75 180q0 110 70 185t215 95l303 41v84q0 254 -248 254q-133 0 -272 -58l-10 87q145 55 297 55q324 0 323 -338v-633l-74 -14h-14v129h-2q-178 -135 -334 -135zM193 242q0 -76 50 -128t136 -53q131 0 305 134v282l-293 -43q-198 -30 -198 -192z
" />
    <glyph glyph-name="b" unicode="b" horiz-adv-x="1081" 
d="M256 1493v-649q184 129 349 129t264 -112q99 -113 99 -365t-132 -386q-133 -134 -363 -135q-125 0 -309 41v1446l78 31h14zM477 57q184 0 290 109q105 109 105 319t-68 307q-70 97 -222 97t-326 -133v-670q109 -29 221 -29z" />
    <glyph glyph-name="c" unicode="c" horiz-adv-x="935" 
d="M575 -25q-237 1 -351 133t-114 370t130 367q129 128 356 128q104 0 235 -35l-10 -88q-121 39 -235 39q-166 0 -272 -96t-105 -320q0 -225 100 -319t262 -94t277 42l8 -86q-145 -41 -281 -41z" />
    <glyph glyph-name="d" unicode="d" horiz-adv-x="1095" 
d="M586 889q-188 0 -282 -118t-95 -314q0 -399 289 -400q168 0 340 156v631q-152 45 -252 45zM928 1493v-1491l-78 -12h-12v129q-178 -143 -352 -143t-273 115q-100 116 -100 360t123 383t352 139q109 0 250 -41v530l77 31h13z" />
    <glyph glyph-name="e" unicode="e" horiz-adv-x="1013" 
d="M537 889q-132 0 -222 -90t-104 -254h588l2 39q0 137 -66 221t-198 84zM209 465q0 -199 96 -302t285 -104q141 0 278 60v-90q-154 -53 -297 -54q-219 0 -340 128q-121 127 -121 361t118 372q118 137 304 137t277 -109q92 -109 92 -272q0 -66 -10 -127h-682z" />
    <glyph glyph-name="f" unicode="f" horiz-adv-x="673" 
d="M575 1505q82 0 181 -20l-11 -86q-83 23 -185 23t-182 -76q-80 -74 -81 -228v-170h336v-80h-336v-868h-90v868h-127v62l127 18v154q-6 199 103 301q110 102 265 102z" />
    <glyph glyph-name="g" unicode="g" horiz-adv-x="1046" 
d="M881 -225q0 166 -213 171t-336 5q-123 -117 -123 -244q0 -86 72 -127q73 -41 237 -41q164 -1 264 63t99 173zM225 613q0 -137 76 -205t192 -68q117 0 195 68t78 202t-75 210q-75 75 -191 75t-195 -72q-80 -72 -80 -210zM975 -218q0 -134 -112 -229t-342 -95t-318 58
q-88 60 -88 177q0 61 40 138t113 140q-72 27 -72 129t103 207q-168 86 -168 309q0 152 102 254t269 103q82 0 168 -31h342v-74h-254q55 -55 79 -127t23 -125q0 -168 -103 -262t-265 -94q-66 0 -130 19q-80 -84 -79 -168q0 -80 123 -80l266 4q137 1 220 -59t83 -194z" />
    <glyph glyph-name="h" unicode="h" horiz-adv-x="1093" 
d="M934 0h-90v647q0 123 -56 182t-145 60q-156 0 -381 -152v-737h-92v1473l80 20h12v-672q232 152 372 152t220 -77t80 -232v-664z" />
    <glyph glyph-name="i" unicode="i" horiz-adv-x="425" 
d="M160 1423h106v-147l-106 -23v170zM258 0h-90v946l80 19h10v-965z" />
    <glyph glyph-name="j" unicode="j" horiz-adv-x="425" 
d="M160 1423h106v-147l-106 -23v170zM168 -37v983l78 19h12v-994q-2 -157 -50 -269t-185 -228q-4 6 -46 63q107 107 149 201t42 225z" />
    <glyph glyph-name="k" unicode="k" horiz-adv-x="886" 
d="M262 1493v-1004l408 457h123l-416 -457l473 -489h-121l-467 483v-483h-92v1462l78 31h14z" />
    <glyph glyph-name="l" unicode="l" horiz-adv-x="432" 
d="M262 1493v-1493h-92v1462l78 31h14z" />
    <glyph glyph-name="m" unicode="m" horiz-adv-x="1695" 
d="M1266 973q130 0 200 -77t70 -222v-674h-90v643q0 133 -46 189t-145 57q-137 0 -364 -154q6 -37 6 -86v-649h-90v659q-2 123 -48 177q-45 54 -131 53q-86 0 -160 -33t-208 -119v-737h-92v946l72 19h14l4 -146q213 154 369 154q201 0 250 -166q129 88 213 127t176 39z" />
    <glyph glyph-name="n" unicode="n" horiz-adv-x="1089" 
d="M930 0h-90v647q0 123 -56 182t-145 60q-156 0 -381 -152v-737h-90v946l70 19h14l4 -144q236 152 391 152q123 0 203 -77t80 -232v-664z" />
    <glyph glyph-name="o" unicode="o" horiz-adv-x="1116" 
d="M111 473q0 229 114 365q115 135 332 135t333 -135q116 -134 116 -364t-116 -364t-333 -134t-331 134t-115 363zM207 473q0 -209 96 -312t256 -103t255 102q95 104 95 313t-95 312t-255 103t-256 -102q-96 -104 -96 -313z" />
    <glyph glyph-name="p" unicode="p" horiz-adv-x="1107" 
d="M535 57q184 0 274 120t90 317q0 395 -287 395q-170 0 -352 -168v-615q168 -49 275 -49zM168 -537v1483l80 19h12v-148q184 156 360 156t276 -116q99 -117 99 -359q-1 -242 -119 -382t-341 -141q-102 0 -275 48v-543l-80 -17h-12z" />
    <glyph glyph-name="q" unicode="q" horiz-adv-x="1079" 
d="M825 -537v637q-182 -125 -346 -125t-265 113q-101 112 -101 366t133 386t362 133q145 0 307 -43v-1448l-77 -19h-13zM604 889q-186 0 -292 -108t-105 -326q0 -397 293 -398q157 0 325 133v670q-109 29 -221 29z" />
    <glyph glyph-name="r" unicode="r" horiz-adv-x="647" 
d="M588 864q-102 0 -181 -43t-149 -162v-659h-90v946l72 19h12l4 -191q115 182 322 182l32 -2v-28l-2 -62h-20z" />
    <glyph glyph-name="s" unicode="s" horiz-adv-x="821" 
d="M332 59q297 0 297 185q0 116 -183 183q-76 29 -150 59t-128 89q-53 59 -53 146q0 123 93 187t249 65q80 0 217 -27l-6 -86q-127 33 -213 29q-244 0 -244 -164q0 -63 53 -109t129 -74t151 -59t128 -87t53 -138q-1 -147 -107 -215t-272 -68q-106 0 -233 25l4 88
q125 -29 215 -29z" />
    <glyph glyph-name="t" unicode="t" horiz-adv-x="643" 
d="M382 -25q-81 -1 -131 49t-50 207v635h-125v64l125 18v262l80 15h8v-277h311v-82h-309v-684q-1 -55 23 -85t48 -35t71 -5q46 0 128 25l8 -80q-106 -27 -187 -27z" />
    <glyph glyph-name="u" unicode="u" horiz-adv-x="1089" 
d="M442 -25q-124 0 -204 76t-80 232v659l84 16h8v-659q0 -242 199 -242q156 0 380 152v733l82 16h11v-958l-78 -12h-13v137q-231 -150 -389 -150z" />
    <glyph glyph-name="v" unicode="v" horiz-adv-x="890" 
d="M508 -12h-125l-336 960h103l292 -870h9l292 870h101z" />
    <glyph glyph-name="w" unicode="w" horiz-adv-x="1406" 
d="M1079 -18h-118l-261 866l-260 -866h-114l-254 966h98l217 -864l258 864h115l258 -864h4l217 864h96z" />
    <glyph glyph-name="x" unicode="x" horiz-adv-x="948" 
d="M881 0h-111l-305 422l-287 -422h-110l344 487l-332 461h115l280 -399l281 399h112l-338 -469z" />
    <glyph glyph-name="y" unicode="y" horiz-adv-x="874" 
d="M160 -530l-54 69q195 143 252 318l43 129h-22l-330 962h101l280 -852h10l283 852h102l-327 -962q-72 -210 -136 -314t-202 -202z" />
    <glyph glyph-name="z" unicode="z" horiz-adv-x="933" 
d="M119 866v82h696l16 -92l-636 -774h632l9 -82h-725l-21 96l631 770h-602z" />
    <glyph glyph-name="braceleft" unicode="{" horiz-adv-x="610" 
d="M543 -522q-158 0 -237 72t-79 231q0 76 23 224t22 220q0 244 -192 244h-27v84h39q90 -1 135 65t45 158t-22 242t-23 225q0 158 79 231t237 72q43 0 137 -12q-8 -53 -10 -80q-82 10 -131 10q-223 0 -225 -196q0 -96 21 -250q22 -154 21 -238q0 -207 -147 -268
q147 -70 147 -270q0 -84 -22 -238t-21 -249q0 -195 226 -195q82 0 131 12q2 -29 10 -82q-94 -12 -137 -12z" />
    <glyph glyph-name="bar" unicode="|" horiz-adv-x="446" 
d="M264 -489h-82v2035h82v-2035z" />
    <glyph glyph-name="braceright" unicode="}" horiz-adv-x="612" 
d="M90 -440q208 0 207 215q0 75 -22 229t-21 238q0 207 147 268q-147 70 -147 270q0 84 21 239q22 155 22 250q0 195 -225 195q-47 0 -129 -10q-8 53 -11 80q90 12 138 12q156 0 234 -72t79 -231q0 -75 -23 -225q-22 -150 -22 -243t46 -158t134 -64h41v-84h-41
q-88 0 -134 -65t-46 -158t22 -241t23 -224q0 -158 -79 -231t-234 -72q-48 0 -138 12q2 23 11 82q49 -12 147 -12z" />
    <glyph glyph-name="asciitilde" unicode="~" horiz-adv-x="1318" 
d="M932 477q-100 0 -263 40t-261 40t-207 -59l-19 86q130 63 244 63t277 -40t244 -40t165 39l25 -80q-105 -49 -205 -49z" />
    <glyph glyph-name="uni00A0" unicode="&#xa0;" horiz-adv-x="544" 
 />
    <glyph glyph-name="exclamdown" unicode="&#xa1;" horiz-adv-x="389" 
d="M141 1147h107v-174l-107 47v127zM150 727l90 -27l8 -925h-109z" />
    <glyph glyph-name="cent" unicode="&#xa2;" horiz-adv-x="923" 
d="M596 -168h-78v145q-430 23 -430 535q0 223 115 359t315 153v152h78v-148q121 -6 217 -33q-4 -25 -16 -90q-121 35 -226 35q-165 0 -275 -106t-110 -322q0 -453 379 -453q133 0 260 41l19 -84q-115 -33 -248 -39v-145z" />
    <glyph glyph-name="sterling" unicode="&#xa3;" horiz-adv-x="1021" 
d="M952 0h-882l16 76q112 8 180 88t68 231v236h-217v76h217v137q0 432 424 536l16 -80q-170 -41 -260 -144t-90 -318v-131h401v-76h-401v-217q0 -231 -148 -338h676v-76z" />
    <glyph glyph-name="currency" unicode="&#xa4;" horiz-adv-x="991" 
d="M498 303q88 -1 147 61t59 151t-58 151q-60 62 -148 61q-88 0 -148 -61q-60 -60 -59 -150q-1 -90 59 -152t148 -61zM743 338l150 -150l-72 -71l-153 149q-78 -51 -173 -51t-171 55l-154 -153l-72 71l48 48q32 30 57 56t47 48q-53 80 -53 173t51 171v2l-150 152l74 71
l152 -151q78 57 167 57t181 -55l147 149l74 -71l-152 -150q106 -152 15 -326z" />
    <glyph glyph-name="yen" unicode="&#xa5;" horiz-adv-x="1067" 
d="M584 0h-99v291h-362v76h362v122l-10 19h-352v78h319l-389 786h113l371 -780l372 780h109l-391 -786h317v-78h-352l-8 -19v-122h360v-76h-360v-291z" />
    <glyph glyph-name="brokenbar" unicode="&#xa6;" horiz-adv-x="462" 
d="M272 -489h-82v866h82v-866zM272 750h-82v796h82v-796z" />
    <glyph glyph-name="section" unicode="&#xa7;" horiz-adv-x="825" 
d="M631 416q-1 42 -13 72q-22 51 -113 96q-30 14 -104 45t-122 53q-95 -50 -95 -148t60 -145t188 -96q90 -39 109 -47q90 68 90 170zM351 -211q112 0 191 57q79 56 79 146q1 90 -55 134t-199 97q-276 102 -277 291q0 139 117 213q-109 84 -109 208t98 198q98 73 238 73
q138 0 240 -28l-12 -82q-104 28 -212 28t-182 -44t-73 -144q0 -128 187 -204q79 -32 157 -64t132 -92t54 -144q0 -133 -113 -229q102 -72 103 -187q0 -152 -112 -230t-281 -77q-105 0 -234 27l8 84q143 -31 255 -31z" />
    <glyph glyph-name="dieresis" unicode="&#xa8;" horiz-adv-x="872" 
d="M666 1122h-127v113h127v-113zM330 1122h-125v113h125v-113z" />
    <glyph glyph-name="copyright" unicode="&#xa9;" horiz-adv-x="1599" 
d="M1516 684q0 -295 -210 -502t-506 -207t-506 207t-210 502t210 503t506 208t506 -208t210 -503zM799 49q264 0 449 185q186 186 186 450t-186 450t-449 185q-265 0 -449 -185q-184 -186 -184 -450t184 -450q185 -185 449 -185zM813 276q-184 0 -273 115t-89 301t105 297
t278 111q72 0 190 -31l-18 -227l-64 4l12 170q-70 16 -131 16q-123 0 -209 -85t-86 -264t82 -260t201 -81t211 35l14 -64q-115 -37 -223 -37z" />
    <glyph glyph-name="ordfeminine" unicode="&#xaa;" horiz-adv-x="731" 
d="M508 750v79q-115 -88 -202 -88t-137 46t-50 126q0 147 225 181l162 24v60q0 80 -38 112t-114 33q-76 0 -186 -37l-6 68q102 32 206 32t158 -48q55 -48 56 -164v-414q-27 -2 -66 -10h-8zM199 916q-1 -52 29 -80q30 -29 79 -29q88 0 199 82v170l-144 -23q-88 -14 -126 -41
t-37 -79z" />
    <glyph glyph-name="guillemotleft" unicode="&#xab;" horiz-adv-x="780" 
d="M659 168l-63 -41l-246 420l246 418l61 -41q-119 -207 -223 -377zM395 168l-63 -41l-246 420l246 418l61 -41q-119 -207 -223 -377z" />
    <glyph glyph-name="logicalnot" unicode="&#xac;" horiz-adv-x="1189" 
d="M981 510h-856v84h940v-430l-84 2v344z" />
    <glyph glyph-name="registered" unicode="&#xae;" horiz-adv-x="1599" 
d="M1516 684q0 -295 -210 -502t-506 -207t-506 207t-210 502t210 503t506 208t506 -208t210 -503zM799 49q264 0 449 185q186 186 186 450t-186 450t-449 185q-265 0 -449 -185q-184 -186 -184 -450t184 -450q185 -185 449 -185zM657 692h240q94 82 94 189q0 67 -40 107
t-124 40h-170v-336zM657 625v-328h-71v797h235q121 0 185 -58t63 -158q0 -101 -129 -231l201 -350h-92l-181 328h-211z" />
    <glyph glyph-name="macron" unicode="&#xaf;" horiz-adv-x="864" 
d="M705 1147h-533v78h533v-78z" />
    <glyph glyph-name="degree" unicode="&#xb0;" horiz-adv-x="620" 
d="M111 1163q0 93 56 147t143 54q88 0 144 -54t56 -146t-56 -146q-56 -53 -144 -53q-87 0 -143 53t-56 145zM176 1163q0 -67 39 -103t95 -36t96 36q38 36 38 104t-38 104q-40 37 -96 37t-95 -37t-39 -105z" />
    <glyph glyph-name="plusminus" unicode="&#xb1;" 
d="M1096 608h-441v-424h-86v424h-436v82h436v436h86v-436h441v-82zM1096 0h-963v80h963v-80z" />
    <glyph glyph-name="twosuperior" unicode="&#xb2;" horiz-adv-x="880" 
d="M748 618h-592l-17 80q238 174 324 258q156 154 155 273q0 178 -217 178q-119 0 -231 -45l-12 76q127 41 258 41q131 1 211 -63t80 -183q0 -150 -157 -299q-116 -111 -302 -242h500v-74z" />
    <glyph glyph-name="threesuperior" unicode="&#xb3;" horiz-adv-x="802" 
d="M569 1266q0 143 -196 143q-92 0 -201 -31q-8 45 -10 70q112 33 226 33q114 1 192 -53t77 -154q1 -56 -33 -120t-83 -112q141 -55 141 -183q0 -129 -85 -195t-225 -66t-237 20q4 23 8 76q127 -22 227 -22t160 46q62 46 62 129t-70 120t-168 37q-31 0 -88 -5v74q46 4 96 4
t107 -10q100 96 100 199z" />
    <glyph glyph-name="acute" unicode="&#xb4;" horiz-adv-x="937" 
d="M608 1364l54 -66l-273 -198l-45 61z" />
    <glyph glyph-name="paragraph" unicode="&#xb6;" horiz-adv-x="1136" 
d="M727 -393l-49 63q129 96 175 186t46 244v1180h-182v-1280h-92v528h-131q-201 0 -320 112t-119 318t118 310t321 104h497v-1245q0 -193 -60 -307t-204 -213z" />
    <glyph glyph-name="periodcentered" unicode="&#xb7;" horiz-adv-x="524" 
d="M319 477h-114v152h114v-152z" />
    <glyph glyph-name="cedilla" unicode="&#xb8;" horiz-adv-x="759" 
d="M301 -414q164 0 164 101q0 80 -129 80q-29 0 -43 -3q-39 45 -41 48l94 188h86l-90 -168q0 -2 2 -2q201 0 201 -141q1 -74 -57 -122t-187 -48q-37 0 -53 2l-2 67q16 -2 55 -2z" />
    <glyph glyph-name="onesuperior" unicode="&#xb9;" horiz-adv-x="753" 
d="M623 618h-488v74h225v703h-178v73h258v-776h183v-74z" />
    <glyph glyph-name="ordmasculine" unicode="&#xba;" horiz-adv-x="827" 
d="M115 1065q0 152 78 237q78 84 221 84t221 -84t78 -237q0 -152 -78 -237t-221 -85t-221 85t-78 237zM190 1065q0 -123 58 -189t166 -65q106 0 165 66q58 67 58 189t-58 188q-59 66 -165 65q-106 1 -165 -65t-59 -189z" />
    <glyph glyph-name="guillemotright" unicode="&#xbb;" horiz-adv-x="780" 
d="M184 127l-63 41l225 379q-104 170 -223 377q10 8 32 21t29 20l246 -418zM449 127l-64 41l225 379q-104 170 -223 377q10 8 32 21t30 20l245 -418z" />
    <glyph glyph-name="onequarter" unicode="&#xbc;" horiz-adv-x="1775" 
d="M1499 500q0 24 10 149h72v-354h139v-74h-139v-221h-82v221h-448l-9 72q147 385 224 577h86l-222 -575h369v205zM571 618h-499v74h239v703h-180v73h260v-776h180v-74zM1262 1569l-785 -1755l-76 30l783 1758z" />
    <glyph glyph-name="onehalf" unicode="&#xbd;" horiz-adv-x="1751" 
d="M1679 0h-592l-16 80q32 26 149 110q116 84 199 173q131 141 131 247q0 78 -55 129t-165 51t-230 -47q-10 70 -13 76q133 43 261 43t210 -64q81 -65 80 -184q0 -148 -158 -300q-117 -111 -300 -240h499v-74zM565 618h-499v74h239v703h-180v73h260v-776h180v-74zM1255 1569
l-784 -1755l-76 30l783 1758z" />
    <glyph glyph-name="threequarters" unicode="&#xbe;" horiz-adv-x="1755" 
d="M306 1077q52 0 106 -10q41 37 70 92q30 55 30 117t-51 98t-144 35q-93 0 -202 -31l-11 70q113 33 227 33q115 1 193 -53t78 -164t-117 -222q139 -55 139 -183q0 -129 -84 -195t-224 -66t-236 20q4 53 8 76q128 -22 226 -22t159 46t61 129t-68 120q-69 37 -167 37
q-35 0 -88 -5l-2 74q45 4 97 4zM1491 649h72v-354h139v-74h-139v-221h-82v221h-449l-8 72q147 385 223 577h86l-221 -575h369v205q10 125 10 149zM1253 1569l-784 -1755l-74 30l783 1758q14 -8 75 -33z" />
    <glyph glyph-name="questiondown" unicode="&#xbf;" horiz-adv-x="768" 
d="M467 1147h108v-133l-108 22v111zM598 628q0 -73 -44 -140q-44 -68 -106 -108t-124 -81q-150 -101 -150 -252q0 -88 65 -148q128 -118 463 -12l15 -88q-152 -49 -283 -49q-180 0 -266 84t-86 190q0 191 111 277q47 37 103 75t103 70t79 90q32 56 32 116t-21 136l95 -24
q14 -63 14 -136z" />
    <glyph glyph-name="Agrave" unicode="&#xc0;" horiz-adv-x="1155" 
d="M422 1708l53 66l264 -203l-45 -62zM889 360l-314 926l-317 -926h631zM1120 0h-108l-94 276h-685l-94 -276h-104l473 1372h133z" />
    <glyph glyph-name="Aacute" unicode="&#xc1;" horiz-adv-x="1155" 
d="M795 1745l53 -66l-273 -198l-45 61zM889 360l-314 926l-317 -926h631zM1120 0h-108l-94 276h-685l-94 -276h-104l473 1372h133z" />
    <glyph glyph-name="Acircumflex" unicode="&#xc2;" horiz-adv-x="1155" 
d="M788 1481l-210 168l-213 -168l-50 57l263 207l262 -207zM889 360l-314 926l-317 -926h631zM1120 0h-108l-94 276h-685l-94 -276h-104l473 1372h133z" />
    <glyph glyph-name="Atilde" unicode="&#xc3;" horiz-adv-x="1155" 
d="M740 1528q-64 0 -155 37t-155 37t-141 -48l-17 72q92 55 160 55q68 -1 160 -37t149 -36t123 37l21 -74q-81 -43 -145 -43zM889 360l-314 926l-317 -926h631zM1120 0h-108l-94 276h-685l-94 -276h-104l473 1372h133z" />
    <glyph glyph-name="Adieresis" unicode="&#xc4;" horiz-adv-x="1155" 
d="M809 1505h-127v113h127v-113zM473 1505h-125v113h125v-113zM889 360l-314 926l-317 -926h631zM1120 0h-108l-94 276h-685l-94 -276h-104l473 1372h133z" />
    <glyph glyph-name="Aring" unicode="&#xc5;" horiz-adv-x="1155" 
d="M578 1470q-68 0 -114 42t-46 112t46 112t114 42t114 -42t45 -112q1 -70 -45 -112t-114 -42zM578 1720q-37 0 -65 -26t-28 -70q0 -43 28 -70q28 -26 65 -26q36 0 64 26t28 70t-28 70t-64 26zM889 360l-314 926l-317 -926h631zM1120 0h-108l-94 276h-685l-94 -276h-104
l473 1372h133z" />
    <glyph glyph-name="AE" unicode="&#xc6;" horiz-adv-x="1632" 
d="M786 350v936h-137l-375 -936h512zM786 0v264h-544l-107 -264h-110l565 1372h938l-8 -86h-635v-536h528v-86h-528v-578h626l11 -86h-736z" />
    <glyph glyph-name="Ccedilla" unicode="&#xc7;" horiz-adv-x="1191" 
d="M748 1311q-213 0 -368 -157q-155 -156 -155 -474q1 -318 145 -468t378 -151q170 0 313 60l29 -86q-186 -57 -353 -60l-75 -143q0 -2 2 -2q201 0 200 -141q0 -74 -57 -122t-186 -48q-38 0 -54 2l-2 67q16 -2 56 -2q164 0 163 101q0 80 -129 80q-29 0 -43 -3q-39 45 -41 48
l84 168q-272 24 -403 220t-131 504t178 500t465 193q123 0 299 -47l-25 -385l-90 2q17 290 19 313q-115 31 -219 31z" />
    <glyph glyph-name="Egrave" unicode="&#xc8;" horiz-adv-x="1073" 
d="M354 1679l54 66l264 -203l-45 -61zM201 0v1372h766l-6 -86h-662v-536h555v-86h-555v-578h653l9 -86h-760z" />
    <glyph glyph-name="Eacute" unicode="&#xc9;" horiz-adv-x="1073" 
d="M741 1774l54 -66l-273 -199l-45 62zM201 0v1372h766l-6 -86h-662v-536h555v-86h-555v-578h653l9 -86h-760z" />
    <glyph glyph-name="Ecircumflex" unicode="&#xca;" horiz-adv-x="1073" 
d="M803 1481l-211 168l-213 -168l-49 57l262 207l262 -207zM201 0v1372h766l-6 -86h-662v-536h555v-86h-555v-578h653l9 -86h-760z" />
    <glyph glyph-name="Edieresis" unicode="&#xcb;" horiz-adv-x="1073" 
d="M817 1505h-127v113h127v-113zM481 1505h-125v113h125v-113zM201 0v1372h766l-6 -86h-662v-536h555v-86h-555v-578h653l9 -86h-760z" />
    <glyph glyph-name="Igrave" unicode="&#xcc;" horiz-adv-x="741" 
d="M102 1679l54 66l264 -203l-45 -61zM657 0h-569v82h231v1206h-231v84h569v-84h-239v-1206h239v-82z" />
    <glyph glyph-name="Iacute" unicode="&#xcd;" horiz-adv-x="741" 
d="M596 1745l53 -66l-272 -198l-45 61zM657 0h-569v82h231v1206h-231v84h569v-84h-239v-1206h239v-82z" />
    <glyph glyph-name="Icircumflex" unicode="&#xce;" horiz-adv-x="741" 
d="M586 1481l-211 168l-213 -168l-49 57l262 207l262 -207zM657 0h-569v82h231v1206h-231v84h569v-84h-239v-1206h239v-82z" />
    <glyph glyph-name="Idieresis" unicode="&#xcf;" horiz-adv-x="741" 
d="M604 1505h-127v113h127v-113zM268 1505h-125v113h125v-113zM657 0h-569v82h231v1206h-231v84h569v-84h-239v-1206h239v-82z" />
    <glyph glyph-name="Eth" unicode="&#xd0;" horiz-adv-x="1337" 
d="M342 86h248q516 0 516 600t-516 600h-248v-555h256v-86h-256v-559zM592 0h-348v645h-191v86h191v641h348q291 0 455 -167q163 -167 163 -519t-164 -519t-454 -167z" />
    <glyph glyph-name="Ntilde" unicode="&#xd1;" horiz-adv-x="1413" 
d="M870 1528q-64 0 -156 37q-91 37 -155 37t-141 -48l-17 72q93 55 161 55q68 -1 160 -37t148 -36q57 0 123 37l21 -74q-80 -43 -144 -43zM1212 0h-137l-776 1262v-1262h-98v1372h147l766 -1255v1255h98v-1372z" />
    <glyph glyph-name="Ograve" unicode="&#xd2;" horiz-adv-x="1427" 
d="M461 1679l53 66l264 -203l-45 -61zM715 1311q-209 0 -349 -162t-139 -463t139 -463t348 -162t348 162t138 463t-138 463t-347 162zM715 1397q272 1 431 -191t159 -522t-160 -519t-430 -189t-431 190q-161 192 -161 521t160 519t432 191z" />
    <glyph glyph-name="Oacute" unicode="&#xd3;" horiz-adv-x="1427" 
d="M940 1745l53 -66l-272 -198l-45 61zM715 1311q-209 0 -349 -162t-139 -463t139 -463t348 -162t348 162t138 463t-138 463t-347 162zM715 1397q272 1 431 -191t159 -522t-160 -519t-430 -189t-431 190q-161 192 -161 521t160 519t432 191z" />
    <glyph glyph-name="Ocircumflex" unicode="&#xd4;" horiz-adv-x="1427" 
d="M924 1481l-211 168l-213 -168l-49 57l262 207l262 -207zM715 1311q-209 0 -349 -162t-139 -463t139 -463t348 -162t348 162t138 463t-138 463t-347 162zM715 1397q272 1 431 -191t159 -522t-160 -519t-430 -189t-431 190q-161 192 -161 521t160 519t432 191z" />
    <glyph glyph-name="Otilde" unicode="&#xd5;" horiz-adv-x="1427" 
d="M876 1528q-64 0 -156 37q-90 37 -154 37t-142 -48l-16 72q92 55 160 55q68 -1 160 -37q91 -36 148 -36t123 37l21 -74q-80 -43 -144 -43zM715 1311q-209 0 -349 -162t-139 -463t139 -463t348 -162t348 162t138 463t-138 463t-347 162zM715 1397q272 1 431 -191t159 -522
t-160 -519t-430 -189t-431 190q-161 192 -161 521t160 519t432 191z" />
    <glyph glyph-name="Odieresis" unicode="&#xd6;" horiz-adv-x="1427" 
d="M944 1505h-127v113h127v-113zM608 1505h-125v113h125v-113zM715 1311q-209 0 -349 -162t-139 -463t139 -463t348 -162t348 162t138 463t-138 463t-347 162zM715 1397q272 1 431 -191t159 -522t-160 -519t-430 -189t-431 190q-161 192 -161 521t160 519t432 191z" />
    <glyph glyph-name="multiply" unicode="&#xd7;" 
d="M936 188l-320 320l-323 -324l-62 62l324 323l-319 320l59 59l319 -321l318 319l61 -61l-319 -318l321 -321z" />
    <glyph glyph-name="Oslash" unicode="&#xd8;" horiz-adv-x="1427" 
d="M1200 692q0 307 -158 475l-548 -1052q102 -53 221 -54q209 0 347 162t138 469zM227 684q0 -350 193 -516l559 1059q-115 84 -264 84q-209 0 -349 -162t-139 -465zM715 1397q176 0 309 -84l125 237l76 -34l-133 -256q213 -190 213 -576q0 -330 -160 -519t-430 -190
q-143 0 -264 58l-156 -301l-84 39l164 309q-252 186 -252 604q0 332 160 522t432 191z" />
    <glyph glyph-name="Ugrave" unicode="&#xd9;" horiz-adv-x="1339" 
d="M451 1679l53 66l264 -203l-45 -61zM1153 451q0 -223 -135 -349t-348 -127q-213 0 -347 125t-135 351v921h99v-932q1 -184 111 -281t272 -97t274 96q112 98 111 282v932h98v-921z" />
    <glyph glyph-name="Uacute" unicode="&#xda;" horiz-adv-x="1339" 
d="M874 1745l54 -66l-273 -198l-45 61zM1153 451q0 -223 -135 -349t-348 -127q-213 0 -347 125t-135 351v921h99v-932q1 -184 111 -281t272 -97t274 96q112 98 111 282v932h98v-921z" />
    <glyph glyph-name="Ucircumflex" unicode="&#xdb;" horiz-adv-x="1339" 
d="M881 1481l-211 168l-213 -168l-49 57l262 207l262 -207zM1153 451q0 -223 -135 -349t-348 -127q-213 0 -347 125t-135 351v921h99v-932q1 -184 111 -281t272 -97t274 96q112 98 111 282v932h98v-921z" />
    <glyph glyph-name="Udieresis" unicode="&#xdc;" horiz-adv-x="1339" 
d="M899 1505h-127v113h127v-113zM563 1505h-125v113h125v-113zM1153 451q0 -223 -135 -349t-348 -127q-213 0 -347 125t-135 351v921h99v-932q1 -184 111 -281t272 -97t274 96q112 98 111 282v932h98v-921z" />
    <glyph glyph-name="Yacute" unicode="&#xdd;" horiz-adv-x="1021" 
d="M713 1731l53 -66l-272 -199l-45 62zM559 0h-98v489l-432 883h112l371 -780l373 780h108l-434 -883v-489z" />
    <glyph glyph-name="Thorn" unicode="&#xde;" horiz-adv-x="1024" 
d="M301 436h219q158 0 239 90t81 250q0 326 -320 326h-219v-666zM301 0h-100v1507h100v-319h217q198 0 312 -104t114 -309t-115 -315t-311 -110h-217v-350z" />
    <glyph glyph-name="germandbls" unicode="&#xdf;" horiz-adv-x="1114" 
d="M260 -518h-90v1610q0 201 108 307t254 106t243 -81t97 -220t-118 -237q-50 -41 -98 -77q-119 -88 -118 -155t53 -113t126 -75q73 -29 147 -61t126 -87t52 -135q0 -143 -106 -216t-268 -73q-88 0 -224 25l11 84q147 -27 235 -27q88 -1 173 51t85 131t-51 125t-125 74
t-148 57q-74 30 -126 87q-52 56 -52 128t35 122t84 90q49 39 98 77q117 95 117 202t-72 163q-72 55 -180 55t-188 -82t-80 -241v-1614z" />
    <glyph glyph-name="agrave" unicode="&#xe0;" horiz-adv-x="931" 
d="M225 1298l54 66l264 -203l-45 -61zM350 -18q-104 0 -179 68t-75 180q0 110 70 185t215 95l303 41v84q0 254 -248 254q-133 0 -272 -58l-10 87q145 55 297 55q324 0 323 -338v-633l-74 -14h-14v129h-2q-178 -135 -334 -135zM193 242q0 -76 50 -128t136 -53q131 0 305 134
v282l-293 -43q-198 -30 -198 -192z" />
    <glyph glyph-name="aacute" unicode="&#xe1;" horiz-adv-x="931" 
d="M612 1364l54 -66l-273 -198l-45 61zM350 -18q-104 0 -179 68t-75 180q0 110 70 185t215 95l303 41v84q0 254 -248 254q-133 0 -272 -58l-10 87q145 55 297 55q324 0 323 -338v-633l-74 -14h-14v129h-2q-178 -135 -334 -135zM193 242q0 -76 50 -128t136 -53q131 0 305 134
v282l-293 -43q-198 -30 -198 -192z" />
    <glyph glyph-name="acircumflex" unicode="&#xe2;" horiz-adv-x="931" 
d="M668 1118l-211 168l-213 -168l-49 58l262 206l262 -206zM350 -18q-104 0 -179 68t-75 180q0 110 70 185t215 95l303 41v84q0 254 -248 254q-133 0 -272 -58l-10 87q145 55 297 55q324 0 323 -338v-633l-74 -14h-14v129h-2q-178 -135 -334 -135zM193 242q0 -76 50 -128
t136 -53q131 0 305 134v282l-293 -43q-198 -30 -198 -192z" />
    <glyph glyph-name="atilde" unicode="&#xe3;" horiz-adv-x="931" 
d="M644 1118q-64 0 -156 37t-154 37q-64 0 -141 -47l-17 72q92 55 160 55t160 -37t149 -37t123 37l20 -74q-80 -43 -144 -43zM350 -18q-104 0 -179 68t-75 180q0 110 70 185t215 95l303 41v84q0 254 -248 254q-133 0 -272 -58l-10 87q145 55 297 55q324 0 323 -338v-633
l-74 -14h-14v129h-2q-178 -135 -334 -135zM193 242q0 -76 50 -128t136 -53q131 0 305 134v282l-293 -43q-198 -30 -198 -192z" />
    <glyph glyph-name="adieresis" unicode="&#xe4;" horiz-adv-x="931" 
d="M696 1122h-127v113h127v-113zM360 1122h-124v113h124v-113zM350 -18q-104 0 -179 68t-75 180q0 110 70 185t215 95l303 41v84q0 254 -248 254q-133 0 -272 -58l-10 87q145 55 297 55q324 0 323 -338v-633l-74 -14h-14v129h-2q-178 -135 -334 -135zM193 242q0 -76 50 -128
t136 -53q131 0 305 134v282l-293 -43q-198 -30 -198 -192z" />
    <glyph glyph-name="aring" unicode="&#xe5;" horiz-adv-x="931" 
d="M463 1079q-68 0 -114 42t-46 112t46 112q46 41 114 41t114 -42t46 -111q0 -70 -46 -112t-114 -42zM463 1329q-37 -1 -65 -27t-28 -69t28 -70t65 -27t65 28q28 26 27 69q1 43 -27 69t-65 27zM350 -18q-104 0 -179 68t-75 180q0 110 70 185t215 95l303 41v84
q0 254 -248 254q-133 0 -272 -58l-10 87q145 55 297 55q324 0 323 -338v-633l-74 -14h-14v129h-2q-178 -135 -334 -135zM193 242q0 -76 50 -128t136 -53q131 0 305 134v282l-293 -43q-198 -30 -198 -192z" />
    <glyph glyph-name="ae" unicode="&#xe6;" horiz-adv-x="1552" 
d="M193 241q0 -77 50 -128t134 -52q141 0 321 140q-41 112 -41 264l-266 -31q-92 -8 -145 -62t-53 -131zM1076 889q-130 0 -221 -90t-105 -254h587l2 45q0 133 -66 216q-67 83 -197 83zM748 465q0 -217 108 -311t260 -94q153 0 291 59v-90q-154 -53 -297 -54
q-254 0 -369 166h-4q-195 -160 -389 -159q-102 0 -177 68t-75 178q0 112 72 188t217 92l272 31q6 102 19 172q-33 178 -240 178q-129 0 -274 -55q-2 29 -10 86q145 53 299 53q223 0 292 -172q117 172 332 172q181 0 273 -109t92 -272q0 -66 -10 -127h-682z" />
    <glyph glyph-name="ccedilla" unicode="&#xe7;" horiz-adv-x="935" 
d="M457 -414q164 0 164 101q0 80 -129 80q-29 0 -43 -3q-39 45 -41 48l84 170q-381 43 -381 499q0 236 129 364t356 128q104 0 235 -35l-10 -88q-121 39 -235 39q-166 0 -272 -96t-105 -320q0 -225 100 -319t262 -94t277 42l8 -86q-145 -41 -281 -41h-2l-75 -143q0 -2 2 -2
q201 0 200 -141q0 -74 -57 -122t-186 -48q-38 0 -54 2l-2 67q16 -2 56 -2z" />
    <glyph glyph-name="egrave" unicode="&#xe8;" horiz-adv-x="1013" 
d="M350 1298l53 66l265 -203l-45 -61zM537 889q-132 0 -222 -90t-104 -254h588l2 39q0 137 -66 221t-198 84zM209 465q0 -199 96 -302t285 -104q141 0 278 60v-90q-154 -53 -297 -54q-219 0 -340 128q-121 127 -121 361t118 372q118 137 304 137t277 -109q92 -109 92 -272
q0 -66 -10 -127h-682z" />
    <glyph glyph-name="eacute" unicode="&#xe9;" horiz-adv-x="1013" 
d="M696 1364l54 -66l-273 -198l-45 61zM537 889q-132 0 -222 -90t-104 -254h588l2 39q0 137 -66 221t-198 84zM209 465q0 -199 96 -302t285 -104q141 0 278 60v-90q-154 -53 -297 -54q-219 0 -340 128q-121 127 -121 361t118 372q118 137 304 137t277 -109q92 -109 92 -272
q0 -66 -10 -127h-682z" />
    <glyph glyph-name="ecircumflex" unicode="&#xea;" horiz-adv-x="1013" 
d="M719 1118l-211 168l-213 -168l-49 58l262 206l262 -206zM537 889q-132 0 -222 -90t-104 -254h588l2 39q0 137 -66 221t-198 84zM209 465q0 -199 96 -302t285 -104q141 0 278 60v-90q-154 -53 -297 -54q-219 0 -340 128q-121 127 -121 361t118 372q118 137 304 137
t277 -109q92 -109 92 -272q0 -66 -10 -127h-682z" />
    <glyph glyph-name="edieresis" unicode="&#xeb;" horiz-adv-x="1013" 
d="M758 1122h-127v113h127v-113zM422 1122h-125v113h125v-113zM537 889q-132 0 -222 -90t-104 -254h588l2 39q0 137 -66 221t-198 84zM209 465q0 -199 96 -302t285 -104q141 0 278 60v-90q-154 -53 -297 -54q-219 0 -340 128q-121 127 -121 361t118 372q118 137 304 137
t277 -109q92 -109 92 -272q0 -66 -10 -127h-682z" />
    <glyph glyph-name="igrave" unicode="&#xec;" horiz-adv-x="425" 
d="M-55 1298l53 66l264 -203l-45 -61zM258 0h-90v950l80 15h10v-965z" />
    <glyph glyph-name="iacute" unicode="&#xed;" horiz-adv-x="425" 
d="M420 1364l53 -66l-272 -198l-45 61zM258 0h-90v950l80 15h10v-965z" />
    <glyph glyph-name="icircumflex" unicode="&#xee;" horiz-adv-x="425" 
d="M426 1118l-211 168l-213 -168l-49 58l262 206l262 -206zM258 0h-90v950l80 15h10v-965z" />
    <glyph glyph-name="idieresis" unicode="&#xef;" horiz-adv-x="425" 
d="M444 1122h-127v113h127v-113zM109 1122h-125v113h125v-113zM258 0h-90v950l80 15h10v-965z" />
    <glyph glyph-name="eth" unicode="&#xf0;" horiz-adv-x="1103" 
d="M205 399q0 -164 85 -252t230 -88q361 0 361 590q-154 106 -363 107q-141 0 -227 -96t-86 -261zM979 633q0 -315 -119 -487t-327 -171q-209 0 -319 120q-110 121 -110 321t119 312t302 112t356 -97q0 317 -187 510l-172 -168l-53 45l174 170q-117 90 -283 148l31 88
q195 -70 318 -170l161 160l56 -47l-164 -160q119 -119 168 -286t49 -400z" />
    <glyph glyph-name="ntilde" unicode="&#xf1;" horiz-adv-x="1089" 
d="M710 1118q-64 0 -156 37q-90 37 -154 37t-142 -47l-16 72q92 55 160 55t160 -37q90 -37 148 -37t124 37l20 -74q-80 -43 -144 -43zM930 0h-90v647q0 123 -56 182t-145 60q-156 0 -381 -152v-737h-90v946l70 19h14l4 -144q236 152 391 152q123 0 203 -77t80 -232v-664z
" />
    <glyph glyph-name="ograve" unicode="&#xf2;" horiz-adv-x="1116" 
d="M293 1298l53 66l264 -203l-45 -61zM111 473q0 229 114 365q115 135 332 135t333 -135q116 -134 116 -364t-116 -364t-333 -134t-331 134t-115 363zM207 473q0 -209 96 -312t256 -103t255 102q95 104 95 313t-95 312t-255 103t-256 -102q-96 -104 -96 -313z" />
    <glyph glyph-name="oacute" unicode="&#xf3;" horiz-adv-x="1116" 
d="M750 1364l53 -66l-273 -198l-45 61zM111 473q0 229 114 365q115 135 332 135t333 -135q116 -134 116 -364t-116 -364t-333 -134t-331 134t-115 363zM207 473q0 -209 96 -312t256 -103t255 102q95 104 95 313t-95 312t-255 103t-256 -102q-96 -104 -96 -313z" />
    <glyph glyph-name="ocircumflex" unicode="&#xf4;" horiz-adv-x="1116" 
d="M770 1118l-211 168l-213 -168l-49 58l262 206l262 -206zM111 473q0 229 114 365q115 135 332 135t333 -135q116 -134 116 -364t-116 -364t-333 -134t-331 134t-115 363zM207 473q0 -209 96 -312t256 -103t255 102q95 104 95 313t-95 312t-255 103t-256 -102
q-96 -104 -96 -313z" />
    <glyph glyph-name="otilde" unicode="&#xf5;" horiz-adv-x="1116" 
d="M720 1118q-64 0 -156 37t-154 37q-64 0 -142 -47l-16 72q92 55 160 55t160 -37q90 -37 148 -37t124 37l20 -74q-80 -43 -144 -43zM111 473q0 229 114 365q115 135 332 135t333 -135q116 -134 116 -364t-116 -364t-333 -134t-331 134t-115 363zM207 473q0 -209 96 -312
t256 -103t255 102q95 104 95 313t-95 312t-255 103t-256 -102q-96 -104 -96 -313z" />
    <glyph glyph-name="odieresis" unicode="&#xf6;" horiz-adv-x="1116" 
d="M788 1122h-126v113h126v-113zM453 1122h-125v113h125v-113zM111 473q0 229 114 365q115 135 332 135t333 -135q116 -134 116 -364t-116 -364t-333 -134t-331 134t-115 363zM207 473q0 -209 96 -312t256 -103t255 102q95 104 95 313t-95 312t-255 103t-256 -102
q-96 -104 -96 -313z" />
    <glyph glyph-name="divide" unicode="&#xf7;" 
d="M678 156h-135v131h135v-131zM678 805h-135v131h135v-131zM1096 506h-963v80h963v-80z" />
    <glyph glyph-name="oslash" unicode="&#xf8;" horiz-adv-x="1122" 
d="M563 889q-160 1 -256 -103t-96 -328t127 -327l373 729q-68 29 -148 29zM563 57q160 -1 255 103t95 326t-129 329l-372 -729q63 -29 151 -29zM115 473q0 229 114 365q115 135 332 135q104 0 191 -35l92 180l80 -33l-97 -188q182 -127 183 -424q0 -229 -116 -363t-333 -135
q-102 0 -190 33l-103 -201l-75 39l104 203q-182 127 -182 424z" />
    <glyph glyph-name="ugrave" unicode="&#xf9;" horiz-adv-x="1089" 
d="M317 1298l54 66l264 -203l-45 -61zM442 -25q-124 0 -204 76t-80 232v659l84 16h8v-659q0 -242 199 -242q156 0 380 152v733l82 16h11v-958l-78 -12h-13v137q-231 -150 -389 -150z" />
    <glyph glyph-name="uacute" unicode="&#xfa;" horiz-adv-x="1089" 
d="M709 1364l53 -66l-273 -198l-45 61zM442 -25q-124 0 -204 76t-80 232v659l84 16h8v-659q0 -242 199 -242q156 0 380 152v733l82 16h11v-958l-78 -12h-13v137q-231 -150 -389 -150z" />
    <glyph glyph-name="ucircumflex" unicode="&#xfb;" horiz-adv-x="1089" 
d="M750 1118l-211 168l-213 -168l-50 58l263 206l262 -206zM442 -25q-124 0 -204 76t-80 232v659l84 16h8v-659q0 -242 199 -242q156 0 380 152v733l82 16h11v-958l-78 -12h-13v137q-231 -150 -389 -150z" />
    <glyph glyph-name="udieresis" unicode="&#xfc;" horiz-adv-x="1089" 
d="M772 1122h-127v113h127v-113zM436 1122h-125v113h125v-113zM442 -25q-124 0 -204 76t-80 232v659l84 16h8v-659q0 -242 199 -242q156 0 380 152v733l82 16h11v-958l-78 -12h-13v137q-231 -150 -389 -150z" />
    <glyph glyph-name="yacute" unicode="&#xfd;" horiz-adv-x="874" 
d="M627 1364l53 -66l-272 -198l-46 61zM160 -530l-54 69q195 143 252 318l43 129h-22l-330 962h101l280 -852h10l283 852h102l-327 -962q-72 -210 -136 -314t-202 -202z" />
    <glyph glyph-name="thorn" unicode="&#xfe;" horiz-adv-x="1110" 
d="M537 57q184 0 274 120t90 317q0 395 -287 395q-170 0 -352 -168v-615q168 -49 275 -49zM170 -537v2024l80 18h12v-688q184 156 360 156t276 -116q99 -117 99 -359q-1 -242 -119 -382t-341 -141q-102 0 -275 48v-543l-80 -17h-12z" />
    <glyph glyph-name="ydieresis" unicode="&#xff;" horiz-adv-x="874" 
d="M659 1122h-127v113h127v-113zM324 1122h-125v113h125v-113zM160 -530l-54 69q195 143 252 318l43 129h-22l-330 962h101l280 -852h10l283 852h102l-327 -962q-72 -210 -136 -314t-202 -202z" />
    <glyph glyph-name="dotlessi" unicode="&#x131;" horiz-adv-x="425" 
d="M258 0h-90v950l80 15h10v-965z" />
    <glyph glyph-name="Lslash" unicode="&#x141;" horiz-adv-x="907" 
d="M342 86h543l12 -86h-653v590l-150 -86l-37 74l187 108v686h98v-631l252 150l41 -72l-293 -172v-561z" />
    <glyph glyph-name="lslash" unicode="&#x142;" horiz-adv-x="557" 
d="M324 1493v-590l182 103l41 -72l-223 -127v-807h-93v756l-151 -86l-39 75l190 107v610l78 31h15z" />
    <glyph glyph-name="OE" unicode="&#x152;" horiz-adv-x="1763" 
d="M707 61q106 0 184 35v1180q-76 35 -184 35q-209 0 -343 -161t-134 -463t134 -464t343 -162zM707 -25q-272 -1 -427 189t-155 522t154 521t428 190q104 0 186 -25h764l-6 -86h-662v-536h555v-86h-555v-578h653l9 -86h-758q-86 -25 -186 -25z" />
    <glyph glyph-name="oe" unicode="&#x153;" horiz-adv-x="1800" 
d="M1324 889q-132 0 -222 -90t-105 -254h588l2 39q0 137 -65 221q-66 84 -198 84zM205 475q0 -209 96 -312t256 -103t255 102q95 104 95 313t-95 312t-255 103t-256 -102q-96 -104 -96 -313zM109 475q0 229 114 365q115 135 332 135q289 0 397 -236q54 109 150 171t221 63
q180 0 272 -109t93 -272q0 -66 -11 -127h-682q1 -199 97 -302t284 -104q141 0 279 60v-90q-154 -53 -297 -54q-301 0 -408 232q-109 -229 -395 -230q-217 1 -331 135t-115 363z" />
    <glyph glyph-name="Scaron" unicode="&#x160;" horiz-adv-x="997" 
d="M756 1724l-260 -204l-260 204l47 56l213 -170l211 170zM432 61q146 0 254 75t109 214q0 88 -69 153t-167 109q-99 44 -197 91t-166 131t-69 200q0 176 121 270t319 93q145 0 267 -33q-8 -70 -11 -94q-123 41 -266 41t-234 -68t-92 -211q-1 -76 49 -135t124 -95t161 -79
q86 -43 161 -85t124 -115t49 -165q0 -194 -142 -288t-360 -95q-100 0 -284 31l8 94q165 -39 311 -39z" />
    <glyph glyph-name="scaron" unicode="&#x161;" horiz-adv-x="821" 
d="M678 1315l-260 -205l-260 205l47 55l213 -170l211 170zM332 59q297 0 297 185q0 116 -183 183q-76 29 -150 59t-128 89q-53 59 -53 146q0 123 93 187t249 65q80 0 217 -27l-6 -86q-127 33 -213 29q-244 0 -244 -164q0 -63 53 -109t129 -74t151 -59t128 -87t53 -138
q-1 -147 -107 -215t-272 -68q-106 0 -233 25l4 88q125 -29 215 -29z" />
    <glyph glyph-name="Ydieresis" unicode="&#x178;" horiz-adv-x="1021" 
d="M741 1505h-127v113h127v-113zM406 1505h-125v113h125v-113zM559 0h-98v489l-432 883h112l371 -780l373 780h108l-434 -883v-489z" />
    <glyph glyph-name="Zcaron" unicode="&#x17d;" horiz-adv-x="1103" 
d="M805 1724l-260 -204l-260 204l47 56l213 -170l211 170zM123 1286v86h876l5 -96l-818 -1190h815l9 -86h-918l-12 96l821 1190h-778z" />
    <glyph glyph-name="zcaron" unicode="&#x17e;" horiz-adv-x="933" 
d="M731 1315l-260 -205l-260 205l47 55l213 -170l211 170zM119 866v82h696l16 -92l-636 -774h632l9 -82h-725l-21 96l631 770h-602z" />
    <glyph glyph-name="florin" unicode="&#x192;" horiz-adv-x="833" 
d="M418 33q0 -506 -420 -506q-98 0 -154 12l13 86q68 -12 129 -12q172 0 255 96t83 330v672h-254v84h254v260q0 506 419 506q88 0 152 -13l-10 -88q-68 12 -131 13q-176 -1 -256 -97t-80 -327v-254h350v-84h-350v-678z" />
    <glyph glyph-name="circumflex" unicode="&#x2c6;" horiz-adv-x="997" 
d="M719 1118l-211 168l-213 -168l-49 58l262 206l262 -206z" />
    <glyph glyph-name="caron" unicode="&#x2c7;" horiz-adv-x="997" 
d="M778 1315l-260 -205l-260 205l47 55l213 -170l211 170z" />
    <glyph glyph-name="breve" unicode="&#x2d8;" horiz-adv-x="937" 
d="M453 1202q125 0 149 123l68 -20q-29 -177 -217 -177t-217 177l67 20q25 -123 150 -123z" />
    <glyph glyph-name="dotaccent" unicode="&#x2d9;" horiz-adv-x="512" 
d="M322 1219h-132v120h132v-120z" />
    <glyph glyph-name="ring" unicode="&#x2da;" horiz-adv-x="909" 
d="M438 1090q-68 0 -114 42t-45 112q0 70 46 111q45 42 113 42t114 -42t46 -112q0 -69 -46 -111t-114 -42zM438 1339q-36 -1 -64 -27t-28 -69t28 -69t64 -27q36 0 65 27q27 28 27 70t-27 69q-28 26 -65 26z" />
    <glyph glyph-name="ogonek" unicode="&#x2db;" horiz-adv-x="999" 
d="M705 -483q-209 0 -209 176q0 121 120 307h95q-129 -186 -129 -299t141 -113q47 0 72 6l-7 -69q-41 -8 -83 -8z" />
    <glyph glyph-name="tilde" unicode="&#x2dc;" horiz-adv-x="1019" 
d="M685 1118q-63 0 -155 37t-156 37t-141 -47l-16 72q93 55 161 55t160 -37t148 -37q57 0 123 37l20 -74q-80 -43 -144 -43z" />
    <glyph glyph-name="hungarumlaut" unicode="&#x2dd;" horiz-adv-x="950" 
d="M750 1300l-273 -198l-43 53l264 207zM504 1300l-273 -198l-43 53l267 207z" />
    <glyph glyph-name="Delta" unicode="&#x394;" horiz-adv-x="1206" 
d="M1014 84l-412 1159l-409 -1159h821zM1145 0h-1084q272 750 496 1372h90z" />
    <glyph glyph-name="Delta" unicode="&#x2206;" horiz-adv-x="1206" 
d="M1014 84l-412 1159l-409 -1159h821zM1145 0h-1084q272 750 496 1372h90z" />
    <glyph glyph-name="Omega" unicode="&#x3a9;" horiz-adv-x="1466" 
d="M733 1313q-223 0 -374 -155t-151 -379t123 -408q122 -184 302 -275v-96h-537v84h412q-156 90 -280 275t-124 407q0 272 178 452t451 179q273 0 451 -179t178 -452q0 -220 -123 -406t-281 -276h412v-84h-536v96q180 90 302 274t122 410q0 224 -152 378q-150 154 -373 155z
" />
    <glyph glyph-name="Omega" unicode="&#x2126;" horiz-adv-x="1466" 
d="M733 1313q-223 0 -374 -155t-151 -379t123 -408q122 -184 302 -275v-96h-537v84h412q-156 90 -280 275t-124 407q0 272 178 452t451 179q273 0 451 -179t178 -452q0 -220 -123 -406t-281 -276h412v-84h-536v96q180 90 302 274t122 410q0 224 -152 378q-150 154 -373 155z
" />
    <glyph glyph-name="mu" unicode="&#x3bc;" horiz-adv-x="1021" 
d="M791 961q31 0 79 12h11v-969q-45 -4 -72 -8h-12l-6 129q-199 -150 -381 -150q-145 0 -201 99v-578q-53 -8 -80 -10h-10v1475l78 12h12v-674q0 -127 54 -181t159 -55q164 0 369 152v746z" />
    <glyph glyph-name="pi" unicode="&#x3c0;" horiz-adv-x="1355" 
d="M1068 -25q-159 0 -197 106q-17 50 -17 128v653h-420v-862h-94v862h-272v86h1192v-86h-312v-651q0 -106 46 -134q77 -45 212 7l13 -82q-97 -27 -151 -27z" />
    <glyph glyph-name="endash" unicode="&#x2013;" horiz-adv-x="1097" 
d="M950 508h-803v86h803v-86z" />
    <glyph glyph-name="emdash" unicode="&#x2014;" horiz-adv-x="1660" 
d="M1513 508h-1366v86h1366v-86z" />
    <glyph glyph-name="quoteleft" unicode="&#x2018;" horiz-adv-x="362" 
d="M240 1231h-115l-2 65q0 46 17 100t35 85q17 31 52 90l56 -31q-53 -94 -80 -172l37 -4v-133z" />
    <glyph glyph-name="quoteright" unicode="&#x2019;" horiz-adv-x="374" 
d="M156 1403h114l2 -66q0 -93 -52 -184q-18 -31 -52 -90l-55 31q53 94 80 172l-37 4v133z" />
    <glyph glyph-name="quotesinglbase" unicode="&#x201a;" horiz-adv-x="458" 
d="M172 135h115v-20q2 -20 2 -56q1 -35 -17 -89t-36 -85t-52 -90l-55 31q53 94 80 172l-37 4v133z" />
    <glyph glyph-name="quotedblleft" unicode="&#x201c;" horiz-adv-x="559" 
d="M240 1231h-115l-2 65q0 46 17 100t35 85q17 31 52 90l56 -31q-53 -94 -80 -172l37 -4v-133zM436 1231h-114l-3 65q-1 46 17 100t36 85q17 31 52 90l55 -31q-53 -94 -80 -172l37 -4v-133z" />
    <glyph glyph-name="quotedblright" unicode="&#x201d;" horiz-adv-x="571" 
d="M352 1403h115l2 -66q1 -93 -51 -184q-18 -31 -53 -90l-56 31q53 94 80 172l-37 4v133zM156 1403h114l2 -66q0 -93 -52 -184q-18 -31 -52 -90l-55 31q53 94 80 172l-37 4v133z" />
    <glyph glyph-name="quotedblbase" unicode="&#x201e;" horiz-adv-x="655" 
d="M369 135h114v-20q2 -20 2 -56q0 -35 -17 -89q-16 -54 -34 -85t-53 -90l-55 31q53 94 80 172l-37 4v133zM172 135h115v-20q2 -20 2 -56q1 -35 -17 -89t-36 -85t-52 -90l-55 31q53 94 80 172l-37 4v133z" />
    <glyph glyph-name="dagger" unicode="&#x2020;" horiz-adv-x="702" 
d="M383 954v-852h-90v852h-221v82h221v348l72 13h18v-361h252l2 -82h-254z" />
    <glyph glyph-name="daggerdbl" unicode="&#x2021;" horiz-adv-x="745" 
d="M403 68h-92v464h-219v76h219v353h-219v75h219v348l92 13v-361h252v-75h-252v-353h252v-76h-252v-464z" />
    <glyph glyph-name="bullet" unicode="&#x2022;" horiz-adv-x="585" 
d="M397 535h-209v190h209v-190z" />
    <glyph glyph-name="ellipsis" unicode="&#x2026;" horiz-adv-x="1169" 
d="M999 0h-114v152h114v-152zM641 0h-115v152h115v-152zM285 0h-115v152h115v-152z" />
    <glyph glyph-name="perthousand" unicode="&#x2030;" horiz-adv-x="1789" 
d="M1735 230q0 -116 -71 -186q-72 -70 -180 -69q-108 0 -178 70q-70 69 -69 185q0 116 70 187q71 71 179 71t178 -72q70 -70 71 -186zM1485 41q78 0 124 50t46 138q0 87 -46 139t-125 52t-123 -50t-44 -140t45 -139q45 -50 123 -50zM1130 230q0 -116 -70 -186t-178 -69
q-108 0 -179 70q-71 69 -71 185t71 187t180 71t178 -72q69 -70 69 -186zM881 41q78 0 124 50t46 139q0 90 -45 140t-125 50t-124 -50t-44 -140t45 -139q45 -50 123 -50zM592 1033q0 -115 -70 -185t-178 -70t-180 70q-70 70 -70 186t71 186t179 70t178 -70t70 -187zM186 -86
l-65 43q225 342 919 1407q15 -8 36 -22q21 -15 32 -21zM342 844q78 0 125 50t47 139t-46 141t-126 51q-80 0 -124 -51q-44 -50 -44 -140t45 -140t123 -50z" />
    <glyph glyph-name="guilsinglleft" unicode="&#x2039;" horiz-adv-x="514" 
d="M393 168l-61 -41l-246 420l246 418l59 -41l-221 -377z" />
    <glyph glyph-name="guilsinglright" unicode="&#x203a;" horiz-adv-x="514" 
d="M182 127l-63 41l225 379l-223 377l61 41l246 -418z" />
    <glyph glyph-name="fraction" unicode="&#x2044;" horiz-adv-x="761" 
d="M37 -188l-76 32l782 1758l78 -33z" />
    <glyph glyph-name="Euro" unicode="&#x20ac;" horiz-adv-x="1294" 
d="M242 696q0 61 4 90h-131l12 80h129q47 244 216 387t413 144q129 0 297 -45l-19 -92q-147 51 -310 51t-305 -114t-186 -331h670l-12 -80h-670q-4 -29 -4 -90t2 -90h631l-12 -80h-609q37 -244 173 -354q135 -110 321 -111q186 0 330 60l28 -86q-188 -59 -356 -60
q-270 1 -416 149t-184 402h-193l13 80h170q-2 29 -2 90z" />
    <glyph glyph-name="trademark" unicode="&#x2122;" horiz-adv-x="1308" 
d="M1171 772h-69v537l-191 -541h-82l-190 541h-2v-537h-70v600h129l174 -522l174 522h127v-600zM307 772h-71v537h-191v63h457l-6 -63h-189v-537z" />
    <glyph glyph-name="partialdiff" unicode="&#x2202;" horiz-adv-x="1056" 
d="M854 702q-180 51 -315 52q-356 0 -357 -340q0 -166 86 -260t245 -94t252 144q93 146 93 410zM289 1444q333 0 499 -214t166 -566t-120 -520q-120 -169 -345 -169q-190 0 -298 125q-107 125 -107 330t125 308q125 104 303 104t336 -60q-61 567 -535 578q-82 -1 -186 -17
q0 27 -4 89q86 12 166 12z" />
    <glyph glyph-name="product" unicode="&#x220f;" horiz-adv-x="1742" 
d="M1616 -512h-94v2107h-1301v-2109h-94v2195h1489v-2193z" />
    <glyph glyph-name="summation" unicode="&#x2211;" horiz-adv-x="1193" 
d="M272 -449v82l504 983l-504 983v82h1069l-16 -86h-944l502 -979l-502 -978h928l16 -87h-1053z" />
    <glyph glyph-name="minus" unicode="&#x2212;" 
d="M1096 506h-963v84h963v-84z" />
    <glyph glyph-name="radical" unicode="&#x221a;" horiz-adv-x="1286" 
d="M76 883v86h299q109 -409 305 -1155h12l449 1876h98l-502 -2052h-104q-201 741 -336 1245h-221z" />
    <glyph glyph-name="infinity" unicode="&#x221e;" horiz-adv-x="1968" 
d="M1755 569q0 109 -72 177q-73 68 -189 69q-116 -1 -220 -65t-238 -181q134 -117 238 -181t221 -64t189 68t71 177zM213 569q0 -109 73 -177q72 -68 188 -68t221 64t239 181q-132 117 -238 182t-222 65t-188 -70q-72 -68 -73 -177zM1855 569q0 -147 -102 -239
q-101 -92 -245 -92t-263 70t-260 202q-139 -133 -259 -203q-120 -69 -264 -69t-246 92q-101 92 -101 239t101 239q100 92 244 91q144 0 264 -69t261 -201q141 133 260 201t263 69t245 -91q102 -92 102 -239z" />
    <glyph glyph-name="integral" unicode="&#x222b;" horiz-adv-x="743" 
d="M420 -217q0 -123 -70 -192t-176 -68q-61 0 -111 8l11 82q57 -10 112 -10t98 42q42 42 42 136v1571q0 122 68 192t175 70q66 0 113 -10l-10 -80q-74 8 -121 8t-89 -42t-42 -136v-1571z" />
    <glyph glyph-name="approxequal" unicode="&#x2248;" 
d="M410 793q86 -1 214 -61t183 -60q92 0 180 73l51 -65q-121 -90 -241 -90q-59 0 -183 59t-200 59t-176 -67l-48 64q134 88 220 88zM408 451q88 -1 216 -61t183 -60q92 0 180 73l51 -63q-119 -92 -241 -92q-59 0 -183 60t-198 60t-178 -67l-48 64q130 86 218 86z" />
    <glyph glyph-name="notequal" unicode="&#x2260;" 
d="M1042 354h-548l-156 -204l-62 45l121 159h-223v84h289l162 213h-451v86h516l154 199l59 -43l-119 -156h258v-86h-323l-162 -213h485v-84z" />
    <glyph glyph-name="lessequal" unicode="&#x2264;" 
d="M1059 0h-907v80h907v-80zM1059 150l-907 364v133l907 365v-99l-844 -331l844 -334v-98z" />
    <glyph glyph-name="greaterequal" unicode="&#x2265;" 
d="M1075 0h-907v80h907v-80zM1075 514l-907 -364v98l844 334l-844 331v99l907 -365v-133z" />
    <glyph glyph-name="lozenge" unicode="&#x25ca;" horiz-adv-x="1064" 
d="M532 100l367 586q-63 98 -367 584q-215 -346 -366 -584zM565 0h-67l-439 686l441 684h69l437 -684q-52 -82 -441 -686z" />
    <glyph glyph-name="CR" horiz-adv-x="471" 
 />
    </font>
</defs>
</svg>
