<?xml version="1.0" standalone="no"?>
<!DOCTYPE svg PUBLIC "-//W3C//DTD SVG 1.1//EN" "http://www.w3.org/Graphics/SVG/1.1/DTD/svg11.dtd" >
<svg xmlns="http://www.w3.org/2000/svg">
<metadata>
Created by FontPrep 20130207 at Thu Jul  9 11:40:56 2015
 By Toni Fisler
Copyright (c) 2009 by Mark Caneso /psType. All rights reserved.
</metadata>
<defs>
<font id="4e782b30d442a59114ae3d88bf022e0d" horiz-adv-x='1024' >
  <font-face 
    font-family="Ratio-Medium"
    font-weight="500"
    font-stretch="normal"
    units-per-em="2048"
    panose-1="2 0 5 3 0 0 0 2 0 4"
    ascent="1511"
    descent="-537"
    x-height="971"
    cap-height="1372"
    bbox="-137 -543.009 2075 1888"
    underline-thickness="102"
    underline-position="-102"
    unicode-range="U+000D-FB02"
  />
<missing-glyph horiz-adv-x="1179" 
d="M848 158v1056h-526v-1056h526zM1016 0h-862v1372h862v-1372z" />
    <glyph glyph-name="fi" unicode="fi" horiz-adv-x="1191" 
d="M203 1083q0 225 137 323t350 97q78 -2 204 -18t183 -21v-231q-35 -4 -104 -8q-163 65 -222 74q-59 8 -96 8q-90 -1 -151 -57t-62 -165v-114h617v-971h-242v782h-373v-782h-241v782h-150v152q117 29 150 35v114z" />
    <glyph glyph-name="fl" unicode="fl" horiz-adv-x="1236" 
d="M1098 0h-242v1282q-143 25 -188 25q-98 -1 -160 -59t-62 -179v-98h271v-189h-268v-782h-242v782h-156v152q92 23 156 35v104q0 223 133 327t350 103q217 0 408 -30v-1473z" />
    <glyph glyph-name=".notdef" horiz-adv-x="1179" 
d="M848 158v1056h-526v-1056h526zM1016 0h-862v1372h862v-1372z" />
    <glyph glyph-name=".null" horiz-adv-x="0" 
 />
    <glyph glyph-name=".null" horiz-adv-x="0" 
 />
    <glyph glyph-name="nonmarkingreturn" horiz-adv-x="681" 
 />
    <glyph glyph-name="CR" unicode="&#xd;" horiz-adv-x="475" 
 />
    <glyph glyph-name="space" unicode=" " horiz-adv-x="512" 
 />
    <glyph glyph-name="exclam" unicode="!" horiz-adv-x="528" 
d="M135 0v242l256 -70v-172h-256zM410 1374l-29 -999l-234 57l-24 942h287z" />
    <glyph glyph-name="quotedbl" unicode="&#x22;" horiz-adv-x="798" 
d="M473 889v461q37 8 110 20t107 19v-463zM115 889v461q37 8 109 20t110 19v-463z" />
    <glyph glyph-name="numbersign" unicode="#" horiz-adv-x="1306" 
d="M780 727h-256v-248h256v248zM524 0h-225v297h-201v182h201v248h-201v182h201v301h225v-301h256v301h228v-301h200v-182h-200v-248h200v-182h-200v-297h-228v297h-256v-297z" />
    <glyph glyph-name="dollar" unicode="$" horiz-adv-x="978" 
d="M614 -166h-194v146h-62q-61 0 -270 26l27 197q171 -39 287 -39t186 35t70 87t-57 92q-56 40 -136 76t-161 78t-137 114q-56 73 -56 167q0 133 83 213t226 104v173h194v-162q127 -8 232 -39l-19 -197q-150 47 -257 47q-216 0 -218 -123q0 -91 193 -180q80 -37 160 -80
t136 -109t56 -151q0 -125 -77 -205t-206 -110v-160z" />
    <glyph glyph-name="percent" unicode="%" horiz-adv-x="1495" 
d="M1008 248q0 -63 28 -98t75 -35q48 0 77 35t29 98q-1 137 -105 137t-104 -137zM1111 -23q-140 0 -219 72t-79 200t79 200q79 71 219 71t220 -72t80 -199q0 -128 -80 -200t-220 -72zM382 784q48 0 77 35t28 99q0 137 -104 137t-104 -137q0 -63 27 -99q28 -35 76 -35z
M382 647q-140 0 -219 72t-79 200q0 127 79 199t219 72t220 -72t80 -200t-80 -199q-80 -72 -220 -72zM227 45l881 1172l149 -101l-884 -1173z" />
    <glyph glyph-name="ampersand" unicode="&#x26;" horiz-adv-x="1540" 
d="M315 381q0 -101 66 -157q67 -56 155 -56t166 49q-217 139 -348 336q-39 -72 -39 -172zM397 993q0 -176 132 -350t329 -291q78 117 78 336v117h379v-189h-176q-2 -195 -99 -354q205 -96 473 -96l-12 -189q-313 2 -592 129q-156 -129 -409 -129q-166 -1 -291 97t-125 284
q0 98 44 196t116 161q-72 135 -72 278q0 193 113 298t296 105t361 -63l-22 -338h-205l14 193q-55 18 -136 18t-139 -54t-57 -159z" />
    <glyph glyph-name="quotesingle" unicode="'" horiz-adv-x="440" 
d="M115 889v461q37 8 109 20t108 19v-463z" />
    <glyph glyph-name="parenleft" unicode="(" horiz-adv-x="686" 
d="M72 584q0 298 120 582t316 468q100 -72 172 -116q-188 -188 -278 -434t-91 -502q0 -256 90 -500t279 -432l-54 -36q-36 -24 -65 -43t-53 -38q-197 184 -317 468q-119 284 -119 583z" />
    <glyph glyph-name="parenright" unicode=")" horiz-adv-x="684" 
d="M614 584q0 -299 -120 -583t-316 -468q-31 23 -89 61t-83 56q188 188 279 433q90 245 90 501t-90 500t-279 434l172 116q196 -184 316 -468t120 -582z" />
    <glyph glyph-name="asterisk" unicode="*" horiz-adv-x="962" 
d="M782 899l-141 -98l-158 223l-157 -223l-144 98l160 217l-260 82l53 154l256 -86l-2 274h178l-2 -274l260 86l56 -154l-260 -82z" />
    <glyph glyph-name="plus" unicode="+" 
d="M721 61h-215v379h-373v205h373v379h215v-379h375v-205h-375v-379z" />
    <glyph glyph-name="comma" unicode="," horiz-adv-x="552" 
d="M127 248h293q12 -59 12 -109q0 -205 -178 -434l-127 70q86 133 117 221l-117 14v238z" />
    <glyph glyph-name="hyphen" unicode="-" horiz-adv-x="927" 
d="M811 412h-694v209h694v-209z" />
    <glyph glyph-name="period" unicode="." horiz-adv-x="557" 
d="M129 0v250h299v-250h-299z" />
    <glyph glyph-name="slash" unicode="/" horiz-adv-x="899" 
d="M817 1538q-40 -147 -506 -1894h-229l502 1894h233z" />
    <glyph glyph-name="zero" unicode="0" horiz-adv-x="1325" 
d="M664 -25q-248 0 -401 150t-152 414q0 264 152 412q153 149 401 149t400 -148t150 -413q0 -264 -151 -414t-399 -150zM663 172q140 0 220 91t80 275t-80 274q-80 91 -220 91q-141 0 -221 -91t-80 -274t80 -275q81 -91 221 -91z" />
    <glyph glyph-name="one" unicode="1" horiz-adv-x="907" 
d="M104 0v193h261v686h-211v186h448v-872h215v-193h-713z" />
    <glyph glyph-name="two" unicode="2" horiz-adv-x="1110" 
d="M492 899q-162 0 -330 -74l-31 195q209 78 399 78t308 -87t118 -233t-109 -262q-61 -63 -111 -105t-154 -122l-148 -113q190 16 365 17h207v-193h-867l-26 174q137 98 306 230t230 202t62 144q-1 74 -63 112t-156 37z" />
    <glyph glyph-name="three" unicode="3" horiz-adv-x="1005" 
d="M627 707q1 194 -255 194q-128 0 -270 -57l-22 196q178 58 360 58t306 -98q126 -98 126 -271q0 -86 -45 -177t-114 -163q86 -41 139 -120t53 -189q0 -201 -146 -319t-384 -117q-168 0 -344 43l32 194q147 -35 277 -41q158 0 237 54t78 174q0 213 -319 213q-37 0 -121 -7
v193q65 8 147 8t144 -10q55 47 88 117t33 125z" />
    <glyph glyph-name="four" unicode="4" horiz-adv-x="1312" 
d="M776 -338v354h-676l-4 170q8 20 18 60t13 47l322 805h260q-238 -594 -355 -891h422v260q5 92 23 240h213v-498h215v-193h-215v-344l-189 -10h-47z" />
    <glyph glyph-name="five" unicode="5" horiz-adv-x="1099" 
d="M412 870v-329h94q496 0 495 -422q-1 -233 -153 -353t-364 -120t-404 47l33 198q215 -51 346 -51q293 0 293 262q0 140 -81 192t-239 52h-256v719h780l-4 -195h-540z" />
    <glyph glyph-name="six" unicode="6" horiz-adv-x="1179" 
d="M620 170q118 0 176 73t58 179q0 238 -238 237q-133 0 -270 -59q0 -210 78 -320t196 -110zM693 852q167 0 288 -103t121 -302t-135 -335t-364 -136t-369 172q-140 173 -140 512t184 555t502 217q121 0 236 -23l-17 -197q-119 18 -200 19q-203 0 -317 -118t-126 -329
q170 68 337 68z" />
    <glyph glyph-name="seven" unicode="7" horiz-adv-x="1054" 
d="M993 1067v-164l-567 -1239h-256l557 1204h-649l-15 199h930z" />
    <glyph glyph-name="eight" unicode="8" horiz-adv-x="1169" 
d="M578 -25q-203 -1 -337 101q-135 102 -135 292t187 349q-68 41 -119 122t-51 189q0 176 128 288t339 112t332 -107q120 -106 120 -279t-161 -340q184 -100 184 -315q0 -178 -142 -295t-345 -117zM356 375q0 -81 65 -143t167 -62t166 60q63 60 63 158q1 135 -205 206
q-52 18 -147 45q-109 -105 -109 -264zM801 1030q-1 92 -61 148t-158 55q-98 0 -157 -52q-58 -53 -58 -143t55 -137q31 -27 51 -44q19 -17 73 -39t69 -26t75 -26q111 127 111 264z" />
    <glyph glyph-name="nine" unicode="9" horiz-adv-x="1171" 
d="M823 471q0 211 -78 321q-77 110 -195 110t-176 -74q-58 -73 -59 -179q0 -238 238 -237q133 0 270 59zM480 221q-170 1 -292 103t-120 300q0 198 135 335t363 137t369 -172q140 -172 140 -511t-182 -555t-502 -216q-135 -1 -237 22l16 197q98 -18 201 -19q203 0 317 117
t125 330q-163 -68 -333 -68z" />
    <glyph glyph-name="colon" unicode=":" horiz-adv-x="618" 
d="M160 690v252h299v-252h-299zM160 0v250h299v-250h-299z" />
    <glyph glyph-name="semicolon" unicode=";" horiz-adv-x="616" 
d="M158 248h295q10 -49 10 -109q0 -203 -176 -434l-127 70q82 127 114 221l-116 14v238zM158 690v252h299v-252h-299z" />
    <glyph glyph-name="less" unicode="&#x3c;" 
d="M315 526q265 -111 752 -313v-217q-184 76 -944 391v277l944 395v-221z" />
    <glyph glyph-name="equal" unicode="=" 
d="M1094 274h-961v193h961v-193zM1094 631h-961v192h961v-192z" />
    <glyph glyph-name="greater" unicode="&#x3e;" 
d="M1104 664v-275q-176 -76 -944 -393v217l751 313l-751 312v221z" />
    <glyph glyph-name="question" unicode="?" horiz-adv-x="933" 
d="M227 0v244l281 -62v-182h-281zM402 1198q-118 0 -291 -59l-23 196q184 61 372 61t290 -96t102 -227t-65 -215t-216 -182q-69 -45 -97 -84q-28 -38 -28 -100t27 -154l-229 57q-18 78 -19 121q0 170 207 307q66 45 96 70q83 68 82 160q0 61 -45 103t-163 42z" />
    <glyph glyph-name="at" unicode="@" horiz-adv-x="1757" 
d="M915 723q-104 0 -158 -87q-55 -87 -55 -226t89 -140q72 1 174 99q31 242 45 340q-49 14 -95 14zM1188 236q106 0 189 108t83 338t-146 367t-384 137q-194 0 -344 -114t-222 -282t-73 -350q0 -315 175 -484t478 -169q113 0 246 39q23 -119 29 -164q-145 -43 -310 -43
q-371 0 -600 215t-229 611q0 395 252 657t598 262t543 -199t197 -471t-141 -445q-140 -173 -358 -173q-178 0 -192 129h-10q-115 -101 -219 -101t-174 78q-68 78 -68 219q0 233 120 359t306 127q135 -1 285 -60q-49 -393 -76 -591h45z" />
    <glyph glyph-name="A" unicode="A" horiz-adv-x="1302" 
d="M442 442h418l-209 682q-31 -100 -65 -214t-78 -253q-43 -139 -66 -215zM373 244l-80 -244h-277l484 1372h305l481 -1372h-274q-6 20 -80 244h-559z" />
    <glyph glyph-name="B" unicode="B" horiz-adv-x="1259" 
d="M432 793h309q90 90 90 208q0 84 -60 126t-163 42h-176v-376zM432 203h205q266 0 266 219q0 82 -56 131t-140 49h-275v-399zM631 0h-457v1372h449q475 0 475 -348q0 -145 -135 -293q92 -37 151 -118t60 -189q0 -208 -155 -316t-388 -108z" />
    <glyph glyph-name="C" unicode="C" horiz-adv-x="1292" 
d="M770 1194q-178 0 -296 -127t-118 -369q0 -520 414 -520q178 0 385 78q25 -86 59 -199q-213 -80 -473 -80q-339 0 -495 193q-156 192 -156 522t195 516t516 187q162 0 377 -56l-25 -450l-229 4l10 285q-82 16 -164 16z" />
    <glyph glyph-name="D" unicode="D" horiz-adv-x="1433" 
d="M645 203q428 0 428 483t-428 483h-213v-966h213zM1341 685q0 -353 -186 -519t-508 -166h-473v1372h473q324 0 509 -167t185 -520z" />
    <glyph glyph-name="E" unicode="E" horiz-adv-x="1175" 
d="M174 0v1372h918l-25 -203h-635v-366h539v-199h-539v-401h631l22 -203h-911z" />
    <glyph glyph-name="F" unicode="F" horiz-adv-x="1116" 
d="M174 0v1372h901l-24 -203h-619v-381h539v-198h-539v-590h-258z" />
    <glyph glyph-name="G" unicode="G" horiz-adv-x="1406" 
d="M1311 608v-528q-285 -102 -545 -103q-336 1 -508 191t-172 519t203 518t540 190q219 0 406 -66q-30 -182 -39 -221q-186 86 -386 86t-328 -130t-128 -383t119 -378t320 -125q147 0 260 53v349l198 28h60z" />
    <glyph glyph-name="H" unicode="H" horiz-adv-x="1538" 
d="M174 1372h258v-573h672v573h260v-1372h-260v594h-672v-594h-258v1372z" />
    <glyph glyph-name="I" unicode="I" horiz-adv-x="890" 
d="M573 195h234v-195h-723v195h231v981h-231v196h723v-196h-234v-981z" />
    <glyph glyph-name="J" unicode="J" horiz-adv-x="700" 
d="M270 147v1029h-227v196h485v-1173q0 -231 -85 -369t-318 -252l-113 178q145 88 202 173q56 85 56 218z" />
    <glyph glyph-name="K" unicode="K" horiz-adv-x="1255" 
d="M432 0h-258v1372h258v-643l449 643h307l-504 -680l580 -692h-336l-496 606v-606z" />
    <glyph glyph-name="L" unicode="L" horiz-adv-x="1003" 
d="M174 0v1372h260v-1169h541l18 -203h-819z" />
    <glyph glyph-name="M" unicode="M" horiz-adv-x="1873" 
d="M174 1372h369q342 -936 397 -1089l399 1089h361v-1372h-258v1036h-10l-54 -215q-14 -45 -48 -135t-48 -135l-215 -553h-258q-207 513 -273 714q-65 200 -96 324h-12v-1036h-254v1372z" />
    <glyph glyph-name="N" unicode="N" horiz-adv-x="1552" 
d="M430 1061v-1061h-256v1372h311l377 -604q176 -326 246 -481h14v1085h256v-1372h-315l-387 600q-23 41 -70 124q-48 83 -76 140t-84 197h-16z" />
    <glyph glyph-name="O" unicode="O" horiz-adv-x="1495" 
d="M747 178q175 0 283 131t107 377q0 246 -108 378q-107 132 -281 132t-283 -132t-109 -378t108 -377t283 -131zM748 -25q-304 -1 -482 191t-178 521t177 519t483 190t482 -190q175 -190 175 -520t-176 -520t-481 -191z" />
    <glyph glyph-name="P" unicode="P" horiz-adv-x="1144" 
d="M432 1169v-491h158q117 0 175 66t58 186q0 240 -233 239h-158zM174 1372h414q229 0 367 -114q139 -114 139 -328t-140 -334q-140 -119 -366 -119h-156v-477h-258v1372z" />
    <glyph glyph-name="Q" unicode="Q" horiz-adv-x="1495" 
d="M88 687q0 329 177 519t482 190t481 -190q176 -192 177 -521q0 -329 -176 -519q-175 -190 -481 -190t-483 190q-177 192 -177 521zM356 686q0 -246 108 -378t282 -132t283 131q108 131 108 378t-109 379t-282 132q-174 0 -282 -132t-108 -378zM496 -281l26 195
q561 -74 844 -113q-10 -66 -27 -196q-638 87 -843 114z" />
    <glyph glyph-name="R" unicode="R" horiz-adv-x="1275" 
d="M432 1169v-454h295q123 100 123 246q0 86 -55 147t-160 61h-203zM635 1372q227 0 355 -108t128 -306t-221 -380q37 -60 160 -266t190 -312h-307l-297 514h-211v-514h-258v1372h461z" />
    <glyph glyph-name="S" unicode="S" horiz-adv-x="1103" 
d="M637 1397q180 0 330 -43l-21 -228q-172 60 -306 60t-204 -47t-70 -123t70 -125q68 -49 165 -86t195 -81t166 -127q69 -83 68 -198q0 -215 -154 -319t-405 -105q-188 0 -385 41q8 63 27 217q197 -49 341 -49t228 44t84 126t-69 128q-69 48 -165 82t-193 78t-166 133
t-69 222q0 195 148 297t385 103z" />
    <glyph glyph-name="T" unicode="T" horiz-adv-x="1120" 
d="M690 1169v-1169h-260v1169h-405v203h1087l-25 -203h-397z" />
    <glyph glyph-name="U" unicode="U" horiz-adv-x="1427" 
d="M1270 471q0 -231 -156 -363t-402 -132t-400 132q-155 132 -154 363v901h258v-905q0 -131 88 -210t207 -79t210 78t91 211v905h258v-901z" />
    <glyph glyph-name="V" unicode="V" horiz-adv-x="1296" 
d="M10 1372h279l358 -1134q213 664 361 1134h278l-491 -1388h-293z" />
    <glyph glyph-name="W" unicode="W" horiz-adv-x="1994" 
d="M1157 1372q111 -410 246 -958q14 -100 27 -164h16l27 196l198 926h268q-86 -350 -333 -1384h-330l-248 930q-8 51 -20 153h-15q-20 -119 -32 -176l-252 -907h-322q-18 74 -141 593t-191 791h277l203 -958l20 -164h18l29 164q74 304 250 958h305z" />
    <glyph glyph-name="X" unicode="X" horiz-adv-x="1286" 
d="M1245 1372l-448 -672l465 -700h-310l-313 512l-309 -512h-299l456 696q-301 442 -454 676h313l295 -487l297 487h307z" />
    <glyph glyph-name="Y" unicode="Y" horiz-adv-x="1183" 
d="M723 0h-258v494l-455 878h295l291 -641l291 641h287l-451 -878v-494z" />
    <glyph glyph-name="Z" unicode="Z" horiz-adv-x="1210" 
d="M109 1169v203h997l8 -205q-137 -182 -391 -515t-342 -449h735l14 -203h-1030l-28 205l735 964h-698z" />
    <glyph glyph-name="bracketleft" unicode="[" horiz-adv-x="630" 
d="M154 1524h411v-176h-194v-1661h215v-176h-432v2013z" />
    <glyph glyph-name="backslash" unicode="\" horiz-adv-x="897" 
d="M328 1386l491 -1839h-231q-209 778 -496 1839h236z" />
    <glyph glyph-name="bracketright" unicode="]" horiz-adv-x="630" 
d="M477 -489h-426v176h207v1663h-201v174h420v-2013z" />
    <glyph glyph-name="asciicircum" unicode="^" horiz-adv-x="1081" 
d="M733 659q-123 290 -198 482h-5l-202 -482h-234l338 715h207q109 -240 330 -715h-236z" />
    <glyph glyph-name="underscore" unicode="_" horiz-adv-x="911" 
d="M23 -315v190h866v-190h-866z" />
    <glyph glyph-name="grave" unicode="`" horiz-adv-x="1036" 
d="M596 1069l-373 256l123 154l350 -273z" />
    <glyph glyph-name="a" unicode="a" horiz-adv-x="1003" 
d="M881 623v-617l-205 -26h-21v126h-6q-162 -125 -319 -124q-104 0 -184 73q-79 74 -78 203q0 170 129 230q63 30 110 42t121 23l211 29v49q0 96 -41 135t-135 39q-156 0 -318 -66l-20 195q181 63 369 63q188 -1 288 -87t99 -287zM317 279q0 -51 31 -83t80 -32q86 0 211 88
v180l-199 -31q-123 -16 -123 -122z" />
    <glyph glyph-name="b" unicode="b" horiz-adv-x="1153" 
d="M379 1493v-387q0 -78 -4 -221h2q151 113 319 113t273 -116q104 -116 104 -360t-145 -396t-420 -151q-141 0 -371 33v1454l203 31h39zM823 510q0 291 -202 291q-119 0 -242 -107v-512q92 -12 147 -12q145 0 222 89q75 89 75 251z" />
    <glyph glyph-name="c" unicode="c" horiz-adv-x="972" 
d="M78 484q0 238 139 375q139 138 381 138q141 0 287 -47l-19 -205q-318 121 -460 -17q-76 -73 -76 -232q0 -324 284 -324q129 0 283 59v-200q-166 -55 -313 -56q-260 -1 -383 135t-123 374z" />
    <glyph glyph-name="d" unicode="d" horiz-adv-x="1155" 
d="M330 465q0 -291 219 -291q115 0 229 107v493q-78 31 -157 31q-139 0 -215 -87t-76 -253zM1020 1493v-1481l-199 -37h-30v115q-57 -49 -145 -80t-169 -30q-173 0 -285 118t-112 360q0 240 135 390t381 149q70 0 182 -22v487l211 31h31z" />
    <glyph glyph-name="e" unicode="e" horiz-adv-x="1050" 
d="M717 594q0 221 -168 221q-90 0 -145 -59q-54 -60 -64 -162h377zM565 -25q-231 0 -359 126t-128 391q0 211 125 358t344 147t320 -123t102 -296q0 -66 -8 -144h-623q4 -150 79 -206t219 -56t300 68v-199q-184 -66 -371 -66z" />
    <glyph glyph-name="f" unicode="f" horiz-adv-x="802" 
d="M664 1309q-95 1 -156 -57t-62 -171v-110h320v-187h-317v-784h-242v784h-156v152l156 35v104q-4 213 121 322t309 108q133 0 256 -32l-25 -195q-109 31 -204 31z" />
    <glyph glyph-name="g" unicode="g" horiz-adv-x="1132" 
d="M526 821q-78 1 -127 -53t-49 -151t48 -149t127 -52t128 52t49 149t-49 151t-127 53zM328 -256q0 -111 207 -111q123 0 197 48q74 49 73 115q0 66 -48 82t-171 18l-203 -2q-55 -66 -55 -150zM1057 -162q0 -162 -131 -272t-418 -109q-418 0 -418 240q0 71 39 137t98 107
q-63 37 -63 125q0 123 96 241q-160 90 -160 307q0 162 118 273t308 110q100 0 183 -26h397v-174h-207q51 -85 51 -183q0 -180 -120 -277t-304 -97q-68 0 -110 10q-43 -76 -43 -118t92 -42l244 8q348 0 348 -260z" />
    <glyph glyph-name="h" unicode="h" horiz-adv-x="1167" 
d="M381 0h-242v1462l203 31h39v-616q187 121 333 121t235 -83q89 -82 89 -262v-653h-241v625q0 172 -138 172q-110 -1 -278 -103v-694z" />
    <glyph glyph-name="i" unicode="i" horiz-adv-x="518" 
d="M117 1440h280v-226l-280 -45v271zM379 995v-995h-242v967l203 28h39z" />
    <glyph glyph-name="j" unicode="j" horiz-adv-x="518" 
d="M117 1440h280v-226l-280 -45v271zM379 995v-958q0 -174 -74 -312t-278 -247l-95 157q109 78 157 167t48 208v957l203 28h39z" />
    <glyph glyph-name="k" unicode="k" horiz-adv-x="1087" 
d="M381 0h-242v1462l203 31h39v-940l340 418h313l-393 -461l430 -510h-315l-375 461v-461z" />
    <glyph glyph-name="l" unicode="l" horiz-adv-x="522" 
d="M383 0h-244v1462l199 31h45v-1493z" />
    <glyph glyph-name="m" unicode="m" horiz-adv-x="1763" 
d="M1328 997q140 0 223 -90t83 -235v-672h-241v614q0 98 -33 140t-96 41q-106 0 -256 -99v-696h-242v614q0 98 -33 140t-96 41q-111 0 -256 -97v-698h-244v967l182 28h31l17 -123q188 125 331 125q197 0 267 -147l28 18q195 129 335 129z" />
    <glyph glyph-name="n" unicode="n" horiz-adv-x="1165" 
d="M379 0h-242v967l180 28h31l19 -125q104 66 183 97t167 30q141 0 230 -82t89 -262v-653h-241v625q0 172 -133 172q-103 -1 -283 -101v-696z" />
    <glyph glyph-name="o" unicode="o" horiz-adv-x="1138" 
d="M568 801q-240 1 -240 -315t240 -316t241 316q0 316 -241 315zM569 -25q-243 -1 -367 139t-124 371t125 371t365 141q240 0 367 -140q126 -139 126 -371t-125 -372t-367 -139z" />
    <glyph glyph-name="p" unicode="p" horiz-adv-x="1157" 
d="M827 500q0 299 -204 299q-123 0 -244 -107v-506q96 -18 180 -18q129 0 199 83q69 83 69 249zM137 -537v1504l199 28h33v-112q147 115 319 115t281 -122t109 -363t-135 -388q-134 -147 -365 -148q-82 0 -199 23v-498l-211 -39h-31z" />
    <glyph glyph-name="q" unicode="q" horiz-adv-x="1153" 
d="M774 -537v402q0 76 4 223q-154 -113 -322 -113t-272 115q-104 114 -104 358t145 397t420 152q174 0 371 -34v-1457l-201 -43h-41zM330 467q0 -155 50 -225t165 -70t229 107v512q-92 12 -147 12q-145 0 -221 -90t-76 -246z" />
    <glyph glyph-name="r" unicode="r" horiz-adv-x="765" 
d="M700 770q-118 0 -192 -43t-129 -147v-580h-242v967l182 28h31l12 -182h9q96 172 288 172q23 0 72 -4v-57l-6 -154h-25z" />
    <glyph glyph-name="s" unicode="s" horiz-adv-x="892" 
d="M88 707q0 133 110 211t280 79q171 0 296 -36v-201h-20q-138 43 -230 43q-186 0 -186 -103q0 -44 50 -72t121 -47t141 -49t121 -90q50 -61 50 -155q0 -168 -125 -240q-126 -72 -292 -72t-312 31v199h17q168 -35 276 -35q186 0 186 106q0 77 -171 125q-72 21 -142 51
t-120 94t-50 161z" />
    <glyph glyph-name="t" unicode="t" horiz-adv-x="792" 
d="M428 782v-501q0 -111 119 -111q53 0 164 31l14 -185q-123 -41 -266 -41q-272 0 -273 267v540h-133v158l133 29v233l209 43h33v-274h315v-189h-315z" />
    <glyph glyph-name="u" unicode="u" horiz-adv-x="1157" 
d="M442 -25q-141 0 -230 82t-89 262v648l205 28h37v-647q0 -170 137 -170q117 0 278 103v686l205 28h37v-979l-197 -41h-32v127q-103 -66 -183 -96t-168 -31z" />
    <glyph glyph-name="v" unicode="v" horiz-adv-x="1054" 
d="M285 971l241 -754h9l239 754h258l-358 -991h-291l-360 991h262z" />
    <glyph glyph-name="w" unicode="w" horiz-adv-x="1630" 
d="M944 971l240 -746l166 746h233l-254 -989h-295l-200 622l-17 117h-14q-10 -86 -21 -119l-192 -620h-285l-260 989h254l168 -746l227 746h250z" />
    <glyph glyph-name="x" unicode="x" horiz-adv-x="1101" 
d="M1073 0h-291l-235 332l-232 -332h-282l373 492l-363 479h291l223 -322l219 322h281l-359 -473z" />
    <glyph glyph-name="y" unicode="y" horiz-adv-x="1015" 
d="M287 971l207 -729h12l233 729h256l-383 -1061q-59 -164 -145 -266t-211 -181q-125 137 -133 146q121 89 176 155t98 183l15 39h-54l-331 985h260z" />
    <glyph glyph-name="z" unicode="z" horiz-adv-x="1011" 
d="M102 776v195h801l21 -193l-553 -585h549l12 -193h-842l-14 188l547 588h-521z" />
    <glyph glyph-name="braceleft" unicode="{" horiz-adv-x="745" 
d="M121 414h-82v211h82q77 0 107 44t30 119t-24 216t-23 202q0 334 352 334q82 0 197 -16l-23 -205q-94 23 -170 22q-143 0 -143 -141q0 -72 24 -213t23 -225q0 -84 -30 -137t-97 -101v-8q68 -49 98 -102q30 -54 29 -138q0 -84 -24 -224t-23 -212q0 -141 143 -141
q76 0 170 22l23 -204q-147 -16 -197 -17q-352 0 -352 334q-1 60 23 202t24 212q0 166 -137 166z" />
    <glyph glyph-name="bar" unicode="|" horiz-adv-x="518" 
d="M365 -520h-211v2001h211v-2001z" />
    <glyph glyph-name="braceright" unicode="}" horiz-adv-x="745" 
d="M625 627h82v-211h-82q-78 0 -108 -44t-30 -119t24 -216t24 -203q0 -334 -353 -334q-82 0 -196 17l22 204q94 -23 170 -22q143 0 144 141q0 72 -24 213t-24 225t30 138t97 100v8q-67 48 -97 102t-30 138t24 224t24 212q0 141 -144 141q-76 0 -170 -22l-22 205
q147 16 196 16q352 0 353 -334q0 -61 -24 -202t-24 -211q1 -166 138 -166z" />
    <glyph glyph-name="asciitilde" unicode="~" horiz-adv-x="1239" 
d="M397 473q-119 0 -250 -74q-10 66 -26 197q145 76 299 76q88 0 246 -35t235 -35t186 49q25 -123 39 -186q-132 -63 -240 -63t-262 35q-154 36 -227 36z" />
    <glyph glyph-name="uni00A0" unicode="&#xa0;" horiz-adv-x="464" 
 />
    <glyph glyph-name="exclamdown" unicode="&#xa1;" horiz-adv-x="491" 
d="M379 1036v-262l-281 68v194h281zM121 -360q31 934 33 989l176 -41q8 -283 28 -948h-237z" />
    <glyph glyph-name="cent" unicode="&#xa2;" horiz-adv-x="997" 
d="M694 -236h-211v218q-209 26 -308 156t-99 342t107 345q108 133 300 164v223h211v-219q84 -6 189 -41l-19 -204q-145 55 -265 55t-196 -74t-75 -233q0 -324 284 -324q129 0 283 59v-200q-90 -31 -201 -47v-220z" />
    <glyph glyph-name="sterling" unicode="&#xa3;" horiz-adv-x="1030" 
d="M924 0h-858l34 176q51 0 81 6t62 30q60 45 60 220v47h-147v172h147v49q0 461 528 512l31 -192q-168 -14 -247 -85t-78 -241v-43h268v-172h-268v-53q0 -164 -78 -248h465v-178z" />
    <glyph glyph-name="currency" unicode="&#xa4;" horiz-adv-x="1042" 
d="M524 354q63 0 104 47q40 47 40 116t-40 115t-104 46t-103 -46q-40 -46 -40 -115t40 -116t103 -47zM242 670l-148 147l123 119l150 -148q75 39 155 39t158 -36l147 145l121 -119l-145 -143q45 -74 45 -159t-45 -159l145 -143l-119 -119l-153 146q-76 -35 -156 -35t-153 37
l-152 -148l-121 119l148 145q-41 70 -41 153t41 159z" />
    <glyph glyph-name="yen" unicode="&#xa5;" horiz-adv-x="1327" 
d="M793 0h-258v209h-357v199h357v81h-357v199h256l-354 684h295l291 -641l290 641h287l-352 -684h262v-199h-360v-81h360v-199h-360v-209z" />
    <glyph glyph-name="brokenbar" unicode="&#xa6;" horiz-adv-x="526" 
d="M369 -518h-211v858h211v-858zM369 655h-211v824h211v-824z" />
    <glyph glyph-name="section" unicode="&#xa7;" horiz-adv-x="1001" 
d="M375 382q47 -38 119 -66t100 -42q66 64 66 148t-136 139l-127 51q-69 -60 -69 -126t47 -104zM403 -203q209 0 209 148q0 57 -43 89t-177 85t-222 132t-88 223t151 237q-109 91 -109 237t126 235q125 89 297 89t311 -39l-18 -209q-156 47 -256 47t-154 -32
q-55 -32 -55 -89t55 -97t134 -70q79 -31 157 -67t133 -105t55 -162q0 -158 -139 -279q94 -88 94 -201q0 -190 -133 -279t-314 -89t-339 43l18 198q180 -45 307 -45z" />
    <glyph glyph-name="dieresis" unicode="&#xa8;" horiz-adv-x="1067" 
d="M606 1155v217h260v-217h-260zM199 1155v217h258v-217h-258z" />
    <glyph glyph-name="copyright" unicode="&#xa9;" horiz-adv-x="1613" 
d="M831 942q-93 0 -157 -59t-64 -187q0 -260 221 -260q109 0 230 43l31 -127q-137 -49 -277 -49q-186 1 -278 107q-93 106 -93 284t110 282t280 103q109 0 233 -45l-16 -243l-138 12l13 127q-61 12 -95 12zM254 684q0 -231 158 -393t396 -162t394 162q158 162 158 393
t-158 393t-396 162t-394 -162q-158 -162 -158 -393zM84 684q0 297 207 504t517 207t516 -206t206 -504t-206 -504t-516 -206t-517 206t-207 503z" />
    <glyph glyph-name="ordfeminine" unicode="&#xaa;" horiz-adv-x="727" 
d="M610 1149v-401l-133 -19h-12v84h-4q-102 -82 -207 -82q-70 0 -121 47q-51 48 -51 118q0 129 84 165q63 28 151 41l138 20v31q0 63 -27 88q-26 25 -110 25t-185 -41l-12 125q119 43 239 43q250 0 250 -244zM326 1004q-80 -8 -80 -81t82 -73q44 0 127 57v117z" />
    <glyph glyph-name="guillemotleft" unicode="&#xab;" horiz-adv-x="937" 
d="M854 184l-172 -88l-266 453l266 448l170 -90l-223 -358q13 -17 113 -183t112 -182zM485 178l-166 -88l-270 459l266 452l166 -88l-217 -366q12 -15 110 -183t111 -186z" />
    <glyph glyph-name="logicalnot" unicode="&#xac;" horiz-adv-x="1189" 
d="M1065 639v-489l-217 8v297h-750v184h967z" />
    <glyph glyph-name="registered" unicode="&#xae;" horiz-adv-x="1613" 
d="M711 936v-211h161q47 49 48 115q0 96 -101 96h-108zM815 1059q123 1 193 -57t71 -161q0 -103 -110 -198l170 -295h-178l-140 254h-110v-254h-154v711h258zM254 684q0 -231 158 -393t396 -162t394 162q158 162 158 393t-158 393t-396 162t-394 -162q-158 -162 -158 -393z
M84 684q0 297 207 504t517 207t516 -206t206 -504t-206 -504t-516 -206t-517 206t-207 503z" />
    <glyph glyph-name="macron" unicode="&#xaf;" horiz-adv-x="993" 
d="M838 1194h-682v178h682v-178z" />
    <glyph glyph-name="degree" unicode="&#xb0;" horiz-adv-x="645" 
d="M322 1389q106 0 176 -65t69 -168q0 -103 -69 -165q-70 -61 -176 -61t-176 61q-68 61 -68 165t68 168q70 65 176 65zM229 1156q0 -52 26 -80t66 -27q39 -1 67 27t28 80t-28 82t-68 30t-65 -30q-26 -30 -26 -82z" />
    <glyph glyph-name="plusminus" unicode="&#xb1;" 
d="M721 260h-215v342h-383v186h383v383h215v-383h383v-186h-383v-342zM1104 0h-981v184h981v-184z" />
    <glyph glyph-name="twosuperior" unicode="&#xb2;" horiz-adv-x="890" 
d="M791 582h-674l-21 147q39 33 134 108t122 99q182 147 183 274q0 58 -39 94q-38 36 -136 36t-225 -62l-29 170q150 57 302 57q152 1 246 -71q96 -72 96 -192t-60 -206t-168 -174q-23 -18 -149 -119h418v-161z" />
    <glyph glyph-name="threesuperior" unicode="&#xb3;" horiz-adv-x="825" 
d="M528 840q0 119 -178 118q-72 0 -129 -6v156q83 8 139 8t103 -8q49 58 49 114t-35 91t-119 35t-217 -50l-28 162q159 47 291 47t222 -67q89 -68 89 -180t-97 -213q121 -70 121 -205t-105 -212t-276 -77q-110 0 -266 33l21 159q162 -31 243 -30q172 0 172 125z" />
    <glyph glyph-name="acute" unicode="&#xb4;" horiz-adv-x="1038" 
d="M782 1325l-374 -256l-101 137l350 273z" />
    <glyph glyph-name="paragraph" unicode="&#xb6;" horiz-adv-x="1357" 
d="M975 8v1161h-119v-1169h-246v477q-88 4 -131 10q-193 14 -307 128t-115 324q1 210 141 322t373 111h641v-1274q0 -102 -6 -135t-13 -82t-21 -74t-31 -67q-18 -42 -69 -100q-82 -91 -208 -160l-102 162q115 78 164 164t49 202z" />
    <glyph glyph-name="periodcentered" unicode="&#xb7;" horiz-adv-x="600" 
d="M145 420v260h310v-260h-310z" />
    <glyph glyph-name="cedilla" unicode="&#xb8;" horiz-adv-x="874" 
d="M674 -317q0 -97 -81 -153t-251 -56q-41 0 -72 4q-2 43 -2 131l62 -6q78 1 120 25t42 55q0 59 -99 59q-12 0 -47 -6l-76 82l117 182h199l-107 -139q2 -2 2 -4q193 -12 193 -174z" />
    <glyph glyph-name="onesuperior" unicode="&#xb9;" horiz-adv-x="792" 
d="M692 582h-590v161h217v586h-178v164h375v-750h176v-161z" />
    <glyph glyph-name="ordmasculine" unicode="&#xba;" horiz-adv-x="798" 
d="M555 1061q0 205 -157 205q-156 0 -156 -205t156 -205t157 205zM398 729q-158 0 -238 90t-80 242t81 243t237 91t239 -92q82 -92 82 -242t-82 -241t-239 -91z" />
    <glyph glyph-name="guillemotright" unicode="&#xbb;" horiz-adv-x="935" 
d="M254 96l-170 88l221 365q-12 16 -110 180t-109 178l168 90l266 -448zM616 90l-165 88l223 369q-12 18 -110 184q-97 166 -109 182l166 88l266 -452z" />
    <glyph glyph-name="onequarter" unicode="&#xbc;" horiz-adv-x="2058" 
d="M684 582h-590v161h215v586h-176v164h375v-750h176v-161zM668 -217l-172 70l784 1757l172 -68zM1853 0h-198v207h-459v141l225 574h207l-217 -555h244v151l18 170h180v-321h129v-160h-129v-207z" />
    <glyph glyph-name="onehalf" unicode="&#xbd;" horiz-adv-x="2045" 
d="M1708 619q0 141 -172 141q-94 0 -229 -62l-29 170q154 58 304 58t244 -73q95 -73 95 -210q0 -102 -59 -186t-166 -174q-31 -27 -150 -121h416v-162h-672l-22 150q39 32 134 106q96 74 154 123q152 128 152 240zM676 582h-590v161h215v586h-176v164h375v-750h176v-161z
M659 -217l-172 70l785 1757l172 -68z" />
    <glyph glyph-name="threequarters" unicode="&#xbe;" horiz-adv-x="2043" 
d="M651 -217l-172 70l785 1757l172 -68zM1837 0h-199v207h-458v141l225 574h207l-217 -555h243v151l19 170h180v-321h129v-160h-129v-207zM530 840q0 119 -180 118q-70 0 -127 -6v156q77 8 137 8t103 -8q49 58 49 114t-35 91t-119 35t-217 -50l-26 162q157 47 289 47
t222 -66q89 -67 89 -179t-94 -215q53 -31 86 -85t32 -114q0 -141 -104 -218t-275 -77q-112 0 -268 33l21 159q166 -31 243 -30q174 0 174 125z" />
    <glyph glyph-name="questiondown" unicode="&#xbf;" horiz-adv-x="933" 
d="M725 1034v-252q-94 18 -279 60v192h279zM731 480q0 -80 -48 -145t-140 -134q-87 -58 -105 -76t-55 -60t-37 -137q0 -55 45 -93t153 -38t294 60l28 -197q-178 -59 -370 -59t-293 96q-102 96 -103 237q0 104 45 180t148 154q35 31 89 71t72 56q46 43 47 106q1 62 -34 187
q77 -16 233 -53q31 -75 31 -155z" />
    <glyph glyph-name="Agrave" unicode="&#xc0;" horiz-adv-x="1302" 
d="M709 1479l-373 256l123 153l350 -272zM442 442h418l-209 682q-31 -100 -65 -214t-78 -253q-43 -139 -66 -215zM373 244l-80 -244h-277l484 1372h305l481 -1372h-274q-6 20 -80 244h-559z" />
    <glyph glyph-name="Aacute" unicode="&#xc1;" horiz-adv-x="1302" 
d="M1032 1735l-375 -256l-100 137l350 272zM442 442h418l-209 682q-31 -100 -65 -214t-78 -253q-43 -139 -66 -215zM373 244l-80 -244h-277l484 1372h305l481 -1372h-274q-6 20 -80 244h-559z" />
    <glyph glyph-name="Acircumflex" unicode="&#xc2;" horiz-adv-x="1302" 
d="M901 1479l-248 192l-247 -192l-115 139l362 262l361 -262zM442 442h418l-209 682q-31 -100 -65 -214t-78 -253q-43 -139 -66 -215zM373 244l-80 -244h-277l484 1372h305l481 -1372h-274q-6 20 -80 244h-559z" />
    <glyph glyph-name="Atilde" unicode="&#xc3;" horiz-adv-x="1302" 
d="M817 1552q-55 0 -147 33t-148 33q-102 0 -217 -70l-31 181q127 76 236 75q57 0 150 -32t145 -33q95 -1 199 67l28 -178q-111 -76 -215 -76zM442 442h418l-209 682q-31 -100 -65 -214t-78 -253q-43 -139 -66 -215zM373 244l-80 -244h-277l484 1372h305l481 -1372h-274
q-6 20 -80 244h-559z" />
    <glyph glyph-name="Adieresis" unicode="&#xc4;" horiz-adv-x="1302" 
d="M727 1509v217h260v-217h-260zM319 1509v217h259v-217h-259zM442 442h418l-209 682q-31 -100 -65 -214t-78 -253q-43 -139 -66 -215zM373 244l-80 -244h-277l484 1372h305l481 -1372h-274q-6 20 -80 244h-559z" />
    <glyph glyph-name="Aring" unicode="&#xc5;" horiz-adv-x="1302" 
d="M893 1661q0 -97 -69 -157t-172 -60t-171 60q-67 60 -67 156t67 158q68 60 171 60t172 -60t69 -157zM653 1567q37 -1 62 25t24 69q0 43 -24 70q-25 27 -62 27t-61 -28q-24 -26 -25 -69q1 -43 25 -69t61 -25zM442 442h418l-209 682q-31 -100 -65 -214t-78 -253
q-43 -139 -66 -215zM373 244l-80 -244h-277l484 1372h305l481 -1372h-274q-6 20 -80 244h-559z" />
    <glyph glyph-name="AE" unicode="&#xc6;" horiz-adv-x="1888" 
d="M885 446v723h-78l-326 -723h404zM1145 1169v-366h538v-199h-538v-401h631l22 -203h-913v246h-492l-108 -246h-285l647 1372h1155l-20 -203h-637z" />
    <glyph glyph-name="Ccedilla" unicode="&#xc7;" horiz-adv-x="1292" 
d="M770 1194q-178 0 -296 -127t-118 -369q0 -520 414 -520q178 0 385 78q25 -86 59 -199q-164 -61 -354 -73l-92 -123q2 -2 2 -4q193 -12 193 -174q0 -97 -81 -153t-251 -56q-41 0 -72 4q-2 43 -2 131l61 -6q78 1 120 25t42 55q0 59 -98 59q-14 0 -47 -6q-54 64 -76 82
l105 164q-573 43 -574 716q0 324 195 510t516 187q162 0 377 -56l-25 -450l-229 4l10 285q-82 16 -164 16z" />
    <glyph glyph-name="Egrave" unicode="&#xc8;" horiz-adv-x="1175" 
d="M721 1479l-373 256l123 153l350 -272zM174 0v1372h918l-25 -203h-635v-366h539v-199h-539v-401h631l22 -203h-911z" />
    <glyph glyph-name="Eacute" unicode="&#xc9;" horiz-adv-x="1175" 
d="M961 1735l-375 -256l-101 137l351 272zM174 0v1372h918l-25 -203h-635v-366h539v-199h-539v-401h631l22 -203h-911z" />
    <glyph glyph-name="Ecircumflex" unicode="&#xca;" horiz-adv-x="1175" 
d="M834 1479l-248 192l-248 -192l-115 139l363 262l360 -262zM174 0v1372h918l-25 -203h-635v-366h539v-199h-539v-401h631l22 -203h-911z" />
    <glyph glyph-name="Edieresis" unicode="&#xcb;" horiz-adv-x="1175" 
d="M659 1565v217h261v-217h-261zM252 1565v217h258v-217h-258zM174 0v1372h918l-25 -203h-635v-366h539v-199h-539v-401h631l22 -203h-911z" />
    <glyph glyph-name="Igrave" unicode="&#xcc;" horiz-adv-x="890" 
d="M451 1479l-373 256l123 153l350 -272zM573 195h234v-195h-723v195h231v981h-231v196h723v-196h-234v-981z" />
    <glyph glyph-name="Iacute" unicode="&#xcd;" horiz-adv-x="890" 
d="M813 1735l-375 -256l-100 137l350 272zM573 195h234v-195h-723v195h231v981h-231v196h723v-196h-234v-981z" />
    <glyph glyph-name="Icircumflex" unicode="&#xce;" horiz-adv-x="890" 
d="M696 1479l-247 192l-248 -192l-115 139l363 262l360 -262zM573 195h234v-195h-723v195h231v981h-231v196h723v-196h-234v-981z" />
    <glyph glyph-name="Idieresis" unicode="&#xcf;" horiz-adv-x="890" 
d="M520 1565v217h260v-217h-260zM113 1565v217h258v-217h-258zM573 195h234v-195h-723v195h231v981h-231v196h723v-196h-234v-981z" />
    <glyph glyph-name="Eth" unicode="&#xd0;" horiz-adv-x="1464" 
d="M489 203h187q428 0 428 483t-428 483h-187v-381h252v-202h-252v-383zM678 0h-447v586h-180v202h180v584h447q324 0 509 -167t185 -520t-186 -519t-508 -166z" />
    <glyph glyph-name="Ntilde" unicode="&#xd1;" horiz-adv-x="1552" 
d="M645 1546q-102 0 -217 -69l-31 180q127 76 236 76q57 0 150 -33t145 -33q94 0 198 68l29 -179q-111 -76 -215 -75q-55 1 -147 33t-148 32zM430 1061v-1061h-256v1372h311l377 -604q176 -326 246 -481h14v1085h256v-1372h-315l-387 600q-23 41 -70 124q-48 83 -76 140
t-84 197h-16z" />
    <glyph glyph-name="Ograve" unicode="&#xd2;" horiz-adv-x="1495" 
d="M766 1479l-373 256l123 153l350 -272zM747 178q175 0 283 131t107 377q0 246 -108 378q-107 132 -281 132t-283 -132t-109 -378t108 -377t283 -131zM748 -25q-304 -1 -482 191t-178 521t177 519t483 190t482 -190q175 -190 175 -520t-176 -520t-481 -191z" />
    <glyph glyph-name="Oacute" unicode="&#xd3;" horiz-adv-x="1495" 
d="M1108 1735l-375 -256l-100 137l350 272zM747 178q175 0 283 131t107 377q0 246 -108 378q-107 132 -281 132t-283 -132t-109 -378t108 -377t283 -131zM748 -25q-304 -1 -482 191t-178 521t177 519t483 190t482 -190q175 -190 175 -520t-176 -520t-481 -191z" />
    <glyph glyph-name="Ocircumflex" unicode="&#xd4;" horiz-adv-x="1495" 
d="M995 1479l-247 192l-248 -192l-115 139l363 262l360 -262zM747 178q175 0 283 131t107 377q0 246 -108 378q-107 132 -281 132t-283 -132t-109 -378t108 -377t283 -131zM748 -25q-304 -1 -482 191t-178 521t177 519t483 190t482 -190q175 -190 175 -520t-176 -520
t-481 -191z" />
    <glyph glyph-name="Otilde" unicode="&#xd5;" horiz-adv-x="1495" 
d="M911 1552q-55 0 -147 33t-148 33q-102 0 -217 -70l-30 181q127 76 235 75q56 0 150 -32t145 -33q95 -1 199 67l28 -178q-111 -76 -215 -76zM747 178q175 0 283 131t107 377q0 246 -108 378q-107 132 -281 132t-283 -132t-109 -378t108 -377t283 -131zM748 -25
q-304 -1 -482 191t-178 521t177 519t483 190t482 -190q175 -190 175 -520t-176 -520t-481 -191z" />
    <glyph glyph-name="Odieresis" unicode="&#xd6;" horiz-adv-x="1495" 
d="M821 1509v217h260v-217h-260zM414 1509v217h258v-217h-258zM747 178q175 0 283 131t107 377q0 246 -108 378q-107 132 -281 132t-283 -132t-109 -378t108 -377t283 -131zM748 -25q-304 -1 -482 191t-178 521t177 519t483 190t482 -190q175 -190 175 -520t-176 -520
t-481 -191z" />
    <glyph glyph-name="multiply" unicode="&#xd7;" 
d="M911 98l-299 301l-299 -301l-147 140l301 299l-299 297l149 139l297 -299l295 301l150 -141l-299 -297l299 -299z" />
    <glyph glyph-name="Oslash" unicode="&#xd8;" horiz-adv-x="1495" 
d="M750 178q174 0 282 131t107 357q0 226 -82 362l-430 -831q55 -19 123 -19zM358 694q0 -238 97 -370l438 843q-68 29 -143 29q-174 0 -283 -132t-109 -370zM750 -25q-123 0 -224 31l-133 -260l-190 90l137 264q-250 188 -250 586q0 330 177 520t483 191q127 0 243 -39
l129 250l189 -88l-135 -263q231 -190 231 -571q0 -330 -176 -520t-481 -191z" />
    <glyph glyph-name="Ugrave" unicode="&#xd9;" horiz-adv-x="1427" 
d="M737 1479l-372 256l122 153l351 -272zM1270 471q0 -231 -156 -363t-402 -132t-400 132q-155 132 -154 363v901h258v-905q0 -131 88 -210t207 -79t210 78t91 211v905h258v-901z" />
    <glyph glyph-name="Uacute" unicode="&#xda;" horiz-adv-x="1427" 
d="M1059 1735l-375 -256l-100 137l350 272zM1270 471q0 -231 -156 -363t-402 -132t-400 132q-155 132 -154 363v901h258v-905q0 -131 88 -210t207 -79t210 78t91 211v905h258v-901z" />
    <glyph glyph-name="Ucircumflex" unicode="&#xdb;" horiz-adv-x="1427" 
d="M963 1479l-248 192l-248 -192l-115 139l363 262l360 -262zM1270 471q0 -231 -156 -363t-402 -132t-400 132q-155 132 -154 363v901h258v-905q0 -131 88 -210t207 -79t210 78t91 211v905h258v-901z" />
    <glyph glyph-name="Udieresis" unicode="&#xdc;" horiz-adv-x="1427" 
d="M788 1509v217h261v-217h-261zM381 1509v217h258v-217h-258zM1270 471q0 -231 -156 -363t-402 -132t-400 132q-155 132 -154 363v901h258v-905q0 -131 88 -210t207 -79t210 78t91 211v905h258v-901z" />
    <glyph glyph-name="Yacute" unicode="&#xdd;" horiz-adv-x="1183" 
d="M961 1735l-375 -256l-101 137l351 272zM723 0h-258v494l-455 878h295l291 -641l291 641h287l-451 -878v-494z" />
    <glyph glyph-name="Thorn" unicode="&#xde;" horiz-adv-x="1140" 
d="M434 995v-491h156q113 0 174 68t61 184q0 117 -60 178t-175 61h-156zM174 1485h254v-287h160q229 0 367 -114q139 -114 139 -328t-140 -334q-140 -119 -366 -119h-154v-303h-260v1485z" />
    <glyph glyph-name="germandbls" unicode="&#xdf;" horiz-adv-x="1212" 
d="M723 736q0 -40 45 -72t110 -60q64 -26 130 -60t110 -94t45 -143q-1 -158 -115 -245t-282 -87q-121 0 -281 33q6 68 23 199q133 -31 220 -31t137 29t50 78t-45 77q-46 28 -110 52t-127 54t-109 94q-45 65 -45 148t44 145q45 62 97 101q52 40 96 96t44 118t-49 99
q-49 36 -129 36t-147 -66t-66 -184v-1571h-230v1569q0 217 137 337q138 120 312 120t294 -96q120 -95 119 -257q0 -84 -44 -153q-44 -70 -95 -106t-95 -78t-44 -82z" />
    <glyph glyph-name="agrave" unicode="&#xe0;" horiz-adv-x="1003" 
d="M545 1069l-373 256l123 154l350 -273zM881 623v-617l-205 -26h-21v126h-6q-162 -125 -319 -124q-104 0 -184 73q-79 74 -78 203q0 170 129 230q63 30 110 42t121 23l211 29v49q0 96 -41 135t-135 39q-156 0 -318 -66l-20 195q181 63 369 63q188 -1 288 -87t99 -287z
M317 279q0 -51 31 -83t80 -32q86 0 211 88v180l-199 -31q-123 -16 -123 -122z" />
    <glyph glyph-name="aacute" unicode="&#xe1;" horiz-adv-x="1003" 
d="M797 1325l-375 -256l-100 137l350 273zM881 623v-617l-205 -26h-21v126h-6q-162 -125 -319 -124q-104 0 -184 73q-79 74 -78 203q0 170 129 230q63 30 110 42t121 23l211 29v49q0 96 -41 135t-135 39q-156 0 -318 -66l-20 195q181 63 369 63q188 -1 288 -87t99 -287z
M317 279q0 -51 31 -83t80 -32q86 0 211 88v180l-199 -31q-123 -16 -123 -122z" />
    <glyph glyph-name="acircumflex" unicode="&#xe2;" horiz-adv-x="1003" 
d="M717 1069l-248 193l-248 -193l-115 139l363 262l360 -262zM881 623v-617l-205 -26h-21v126h-6q-162 -125 -319 -124q-104 0 -184 73q-79 74 -78 203q0 170 129 230q63 30 110 42t121 23l211 29v49q0 96 -41 135t-135 39q-156 0 -318 -66l-20 195q181 63 369 63
q188 -1 288 -87t99 -287zM317 279q0 -51 31 -83t80 -32q86 0 211 88v180l-199 -31q-123 -16 -123 -122z" />
    <glyph glyph-name="atilde" unicode="&#xe3;" horiz-adv-x="1003" 
d="M657 1143q-55 0 -147 33t-148 32q-102 0 -217 -69l-30 180q127 76 235 76q56 0 150 -33t145 -33q95 0 199 68l28 -178q-111 -76 -215 -76zM881 623v-617l-205 -26h-21v126h-6q-162 -125 -319 -124q-104 0 -184 73q-79 74 -78 203q0 170 129 230q63 30 110 42t121 23
l211 29v49q0 96 -41 135t-135 39q-156 0 -318 -66l-20 195q181 63 369 63q188 -1 288 -87t99 -287zM317 279q0 -51 31 -83t80 -32q86 0 211 88v180l-199 -31q-123 -16 -123 -122z" />
    <glyph glyph-name="adieresis" unicode="&#xe4;" horiz-adv-x="1003" 
d="M573 1155v217h261v-217h-261zM166 1155v217h258v-217h-258zM881 623v-617l-205 -26h-21v126h-6q-162 -125 -319 -124q-104 0 -184 73q-79 74 -78 203q0 170 129 230q63 30 110 42t121 23l211 29v49q0 96 -41 135t-135 39q-156 0 -318 -66l-20 195q181 63 369 63
q188 -1 288 -87t99 -287zM317 279q0 -51 31 -83t80 -32q86 0 211 88v180l-199 -31q-123 -16 -123 -122z" />
    <glyph glyph-name="aring" unicode="&#xe5;" horiz-adv-x="1003" 
d="M715 1290q0 -96 -69 -156t-172 -60t-171 60t-67 156q0 96 67 157q68 60 171 60q103 -1 172 -61t69 -156zM475 1196q37 0 62 26t25 68t-25 70q-25 26 -62 26t-61 -26t-25 -70q1 -42 25 -68t61 -26zM881 623v-617l-205 -26h-21v126h-6q-162 -125 -319 -124q-104 0 -184 73
q-79 74 -78 203q0 170 129 230q63 30 110 42t121 23l211 29v49q0 96 -41 135t-135 39q-156 0 -318 -66l-20 195q181 63 369 63q188 -1 288 -87t99 -287zM317 279q0 -51 31 -83t80 -32q86 0 211 88v180l-199 -31q-123 -16 -123 -122z" />
    <glyph glyph-name="ae" unicode="&#xe6;" horiz-adv-x="1587" 
d="M1253 594v20q0 88 -43 144t-129 57t-140 -59t-64 -162h376zM319 279q0 -49 28 -82t73 -33q100 0 217 88v178l-209 -29q-109 -20 -109 -122zM1102 -25q-258 0 -379 156h-8q-105 -88 -187 -119q-82 -30 -192 -30t-190 72q-79 72 -78 202q0 160 114 222q82 45 209 67l246 30
v58q0 96 -44 134t-155 38q-166 -10 -293 -66l-20 197q174 61 375 61t288 -116q121 117 299 116q215 0 317 -123t101 -296q0 -66 -8 -144h-625q6 -150 81 -206t219 -56t301 68v-199q-184 -66 -371 -66z" />
    <glyph glyph-name="ccedilla" unicode="&#xe7;" horiz-adv-x="972" 
d="M78 483q0 238 139 376t381 138q141 0 287 -47l-19 -205q-318 121 -460 -17q-76 -73 -76 -232q0 -324 284 -324q129 0 283 59v-200q-125 -43 -242 -51l-90 -119q2 -2 2 -4q193 -12 193 -174q0 -97 -81 -153t-251 -56q-41 0 -72 4q-2 43 -2 131l62 -6q78 1 120 25t42 55
q0 59 -99 59q-12 0 -47 -6l-76 82l107 166q-385 57 -385 499z" />
    <glyph glyph-name="egrave" unicode="&#xe8;" horiz-adv-x="1050" 
d="M608 1069l-372 256l122 154l351 -273zM717 594q0 221 -168 221q-90 0 -145 -59q-54 -60 -64 -162h377zM565 -25q-231 0 -359 126t-128 391q0 211 125 358t344 147t320 -123t102 -296q0 -66 -8 -144h-623q4 -150 79 -206t219 -56t300 68v-199q-184 -66 -371 -66z" />
    <glyph glyph-name="eacute" unicode="&#xe9;" horiz-adv-x="1050" 
d="M887 1325l-375 -256l-100 137l350 273zM717 594q0 221 -168 221q-90 0 -145 -59q-54 -60 -64 -162h377zM565 -25q-231 0 -359 126t-128 391q0 211 125 358t344 147t320 -123t102 -296q0 -66 -8 -144h-623q4 -150 79 -206t219 -56t300 68v-199q-184 -66 -371 -66z" />
    <glyph glyph-name="ecircumflex" unicode="&#xea;" horiz-adv-x="1050" 
d="M797 1069l-248 193l-248 -193l-115 139l363 262l360 -262zM717 594q0 221 -168 221q-90 0 -145 -59q-54 -60 -64 -162h377zM565 -25q-231 0 -359 126t-128 391q0 211 125 358t344 147t320 -123t102 -296q0 -66 -8 -144h-623q4 -150 79 -206t219 -56t300 68v-199
q-184 -66 -371 -66z" />
    <glyph glyph-name="edieresis" unicode="&#xeb;" horiz-adv-x="1050" 
d="M618 1155v217h261v-217h-261zM211 1155v217h258v-217h-258zM717 594q0 221 -168 221q-90 0 -145 -59q-54 -60 -64 -162h377zM565 -25q-231 0 -359 126t-128 391q0 211 125 358t344 147t320 -123t102 -296q0 -66 -8 -144h-623q4 -150 79 -206t219 -56t300 68v-199
q-184 -66 -371 -66z" />
    <glyph glyph-name="igrave" unicode="&#xec;" horiz-adv-x="518" 
d="M246 1069l-373 256l123 154l350 -273zM379 995v-995h-242v967l203 28h39z" />
    <glyph glyph-name="iacute" unicode="&#xed;" horiz-adv-x="518" 
d="M614 1325l-374 -256l-101 137l350 273zM379 995v-995h-242v967l203 28h39z" />
    <glyph glyph-name="icircumflex" unicode="&#xee;" horiz-adv-x="518" 
d="M506 1069l-248 193l-248 -193l-114 139l362 262l360 -262zM379 995v-995h-242v967l203 28h39z" />
    <glyph glyph-name="idieresis" unicode="&#xef;" horiz-adv-x="518" 
d="M330 1155v217h260v-217h-260zM-78 1155v217h258v-217h-258zM379 995v-995h-242v967l203 28h39z" />
    <glyph glyph-name="eth" unicode="&#xf0;" horiz-adv-x="1171" 
d="M324 456q0 -140 66 -209t178 -69t189 114t77 335v51q-125 55 -245 55t-193 -68q-72 -69 -72 -209zM76 472q0 222 138 348t343 126q147 0 279 -67q-16 182 -123 305l-142 -146l-133 121l142 139q-96 66 -246 113l67 209q197 -59 340 -158q96 96 144 146l139 -125
l-143 -142q203 -225 202 -655q0 -338 -144 -524q-143 -186 -371 -186t-360 136q-132 138 -132 360z" />
    <glyph glyph-name="ntilde" unicode="&#xf1;" horiz-adv-x="1165" 
d="M752 1143q-56 0 -148 33t-147 32q-102 0 -217 -69l-31 180q127 76 235 76q56 0 150 -33t145 -33q95 0 199 68l29 -178q-111 -76 -215 -76zM379 0h-242v967l180 28h31l19 -125q104 66 183 97t167 30q141 0 230 -82t89 -262v-653h-241v625q0 172 -133 172
q-103 -1 -283 -101v-696z" />
    <glyph glyph-name="ograve" unicode="&#xf2;" horiz-adv-x="1138" 
d="M635 1069l-373 256l123 154l350 -273zM568 801q-240 1 -240 -315t240 -316t241 316q0 316 -241 315zM569 -25q-243 -1 -367 139t-124 371t125 371t365 141q240 0 367 -140q126 -139 126 -371t-125 -372t-367 -139z" />
    <glyph glyph-name="oacute" unicode="&#xf3;" horiz-adv-x="1138" 
d="M909 1325l-374 -256l-101 137l350 273zM568 801q-240 1 -240 -315t240 -316t241 316q0 316 -241 315zM569 -25q-243 -1 -367 139t-124 371t125 371t365 141q240 0 367 -140q126 -139 126 -371t-125 -372t-367 -139z" />
    <glyph glyph-name="ocircumflex" unicode="&#xf4;" horiz-adv-x="1138" 
d="M817 1069l-248 193l-247 -193l-115 139l362 262l361 -262zM568 801q-240 1 -240 -315t240 -316t241 316q0 316 -241 315zM569 -25q-243 -1 -367 139t-124 371t125 371t365 141q240 0 367 -140q126 -139 126 -371t-125 -372t-367 -139z" />
    <glyph glyph-name="otilde" unicode="&#xf5;" horiz-adv-x="1138" 
d="M733 1143q-53 0 -146 33t-149 32q-102 0 -217 -69l-31 180q127 76 236 76q56 0 150 -33t145 -33q95 0 199 68l28 -178q-111 -76 -215 -76zM568 801q-240 1 -240 -315t240 -316t241 316q0 316 -241 315zM569 -25q-243 -1 -367 139t-124 371t125 371t365 141
q240 0 367 -140q126 -139 126 -371t-125 -372t-367 -139z" />
    <glyph glyph-name="odieresis" unicode="&#xf6;" horiz-adv-x="1138" 
d="M643 1155v217h260v-217h-260zM236 1155v217h258v-217h-258zM568 801q-240 1 -240 -315t240 -316t241 316q0 316 -241 315zM569 -25q-243 -1 -367 139t-124 371t125 371t365 141q240 0 367 -140q126 -139 126 -371t-125 -372t-367 -139z" />
    <glyph glyph-name="divide" unicode="&#xf7;" 
d="M745 100h-266v228h266v-228zM745 758h-266v227h266v-227zM1104 453h-981v182h981v-182z" />
    <glyph glyph-name="oslash" unicode="&#xf8;" horiz-adv-x="1150" 
d="M336 487q0 -106 29 -180l2 2l247 490l-36 2q-242 0 -242 -314zM578 170q240 0 239 317q0 131 -43 207l-262 -512l-2 -6q31 -6 68 -6zM578 -25q-86 0 -158 19l-101 -195l-186 86l105 203q-152 134 -152 382t125 388t367 139q47 0 124 -12l107 205l190 -88l-104 -201
q174 -135 174 -414q1 -231 -125 -371t-366 -141z" />
    <glyph glyph-name="ugrave" unicode="&#xf9;" horiz-adv-x="1157" 
d="M623 1069l-373 256l123 154l350 -273zM442 -25q-141 0 -230 82t-89 262v648l205 28h37v-647q0 -170 137 -170q117 0 278 103v686l205 28h37v-979l-197 -41h-32v127q-103 -66 -183 -96t-168 -31z" />
    <glyph glyph-name="uacute" unicode="&#xfa;" horiz-adv-x="1157" 
d="M922 1325l-375 -256l-101 137l351 273zM442 -25q-141 0 -230 82t-89 262v648l205 28h37v-647q0 -170 137 -170q117 0 278 103v686l205 28h37v-979l-197 -41h-32v127q-103 -66 -183 -96t-168 -31z" />
    <glyph glyph-name="ucircumflex" unicode="&#xfb;" horiz-adv-x="1157" 
d="M823 1069l-248 193l-247 -193l-115 139l362 262l361 -262zM442 -25q-141 0 -230 82t-89 262v648l205 28h37v-647q0 -170 137 -170q117 0 278 103v686l205 28h37v-979l-197 -41h-32v127q-103 -66 -183 -96t-168 -31z" />
    <glyph glyph-name="udieresis" unicode="&#xfc;" horiz-adv-x="1157" 
d="M649 1155v217h260v-217h-260zM242 1155v217h258v-217h-258zM442 -25q-141 0 -230 82t-89 262v648l205 28h37v-647q0 -170 137 -170q117 0 278 103v686l205 28h37v-979l-197 -41h-32v127q-103 -66 -183 -96t-168 -31z" />
    <glyph glyph-name="yacute" unicode="&#xfd;" horiz-adv-x="1015" 
d="M883 1325l-375 -256l-100 137l350 273zM287 971l207 -729h12l233 729h256l-383 -1061q-59 -164 -145 -266t-211 -181q-125 137 -133 146q121 89 176 155t98 183l15 39h-54l-331 985h260z" />
    <glyph glyph-name="thorn" unicode="&#xfe;" horiz-adv-x="1159" 
d="M829 500q0 299 -204 299q-123 0 -244 -107v-506q96 -18 180 -18q129 0 199 83q69 83 69 249zM139 -537v2022l205 20h37v-616q141 109 311 109t279 -122t109 -363t-135 -388q-134 -147 -365 -148q-82 0 -199 23v-498q-154 -27 -211 -39h-31z" />
    <glyph glyph-name="ydieresis" unicode="&#xff;" horiz-adv-x="1015" 
d="M582 1155v217h260v-217h-260zM174 1155v217h258v-217h-258zM287 971l207 -729h12l233 729h256l-383 -1061q-59 -164 -145 -266t-211 -181q-125 137 -133 146q121 89 176 155t98 183l15 39h-54l-331 985h260z" />
    <glyph glyph-name="dotlessi" unicode="&#x131;" horiz-adv-x="518" 
d="M379 995v-995h-242v967l203 28h39z" />
    <glyph glyph-name="Lslash" unicode="&#x141;" horiz-adv-x="1069" 
d="M242 0v492l-129 -74l-101 180l230 129v645h258v-508l270 156l109 -180l-379 -213v-424h542l17 -203h-817z" />
    <glyph glyph-name="lslash" unicode="&#x142;" horiz-adv-x="684" 
d="M444 0h-243v641l-105 -59l-88 163l193 109v608l198 31h45v-502l166 94l97 -159l-263 -148v-778z" />
    <glyph glyph-name="OE" unicode="&#x152;" horiz-adv-x="1970" 
d="M356 686q0 -246 110 -378t286 -132q135 0 217 47v922q-86 51 -217 51q-174 0 -285 -132t-111 -378zM752 -25q-312 1 -488 191t-176 521t175 520t489 190q119 0 217 -25h917l-24 -203h-635v-364h538v-201h-538v-401h628l25 -203h-911q-113 -25 -217 -25z" />
    <glyph glyph-name="oe" unicode="&#x153;" horiz-adv-x="1767" 
d="M1436 594v20q0 88 -43 144t-129 57q-86 0 -141 -59q-54 -60 -64 -162h377zM326 486q0 -316 240 -316t241 316q0 316 -242 317q-239 -1 -239 -317zM1284 -25q-242 0 -362 144q-123 -143 -360 -143q-236 0 -360 138q-124 140 -124 372t124 372t364 139q240 0 364 -151
q127 152 341 152t315 -124q101 -123 102 -296q0 -66 -9 -144h-624q6 -150 81 -206t220 -56t297 68v-199q-180 -66 -369 -66z" />
    <glyph glyph-name="Scaron" unicode="&#x160;" horiz-adv-x="1103" 
d="M918 1737l-361 -262l-362 262l114 139l248 -193l248 193zM637 1397q180 0 330 -43l-21 -228q-172 60 -306 60t-204 -47t-70 -123t70 -125q68 -49 165 -86t195 -81t166 -127q69 -83 68 -198q0 -215 -154 -319t-405 -105q-188 0 -385 41q8 63 27 217q197 -49 341 -49
t228 44t84 126t-69 128q-69 48 -165 82t-193 78t-166 133t-69 222q0 195 148 297t385 103z" />
    <glyph glyph-name="scaron" unicode="&#x161;" horiz-adv-x="892" 
d="M813 1327l-360 -262l-363 262l115 139l248 -192l247 192zM88 707q0 133 110 211t280 79q171 0 296 -36v-201h-20q-138 43 -230 43q-186 0 -186 -103q0 -44 50 -72t121 -47t141 -49t121 -90q50 -61 50 -155q0 -168 -125 -240q-126 -72 -292 -72t-312 31v199h17
q168 -35 276 -35q186 0 186 106q0 77 -171 125q-72 21 -142 51t-120 94t-50 161z" />
    <glyph glyph-name="Ydieresis" unicode="&#x178;" horiz-adv-x="1183" 
d="M666 1505v217h260v-217h-260zM258 1505v217h258v-217h-258zM723 0h-258v494l-455 878h295l291 -641l291 641h287l-451 -878v-494z" />
    <glyph glyph-name="Zcaron" unicode="&#x17d;" horiz-adv-x="1210" 
d="M963 1737l-361 -262l-362 262l114 139l248 -193l248 193zM109 1169v203h997l8 -205q-137 -182 -391 -515t-342 -449h735l14 -203h-1030l-28 205l735 964h-698z" />
    <glyph glyph-name="zcaron" unicode="&#x17e;" horiz-adv-x="1011" 
d="M870 1327l-360 -262l-363 262l115 139l248 -192l248 192zM102 776v195h801l21 -193l-553 -585h549l12 -193h-842l-14 188l547 588h-521z" />
    <glyph glyph-name="florin" unicode="&#x192;" horiz-adv-x="946" 
d="M313 72v575h-239v197h239v184q0 520 492 520q100 0 199 -24l-31 -199q-131 23 -164 23q-135 0 -195 -64t-61 -262v-176h321v-199h-321v-510q0 -319 -128 -454t-366 -136q-92 0 -196 27q29 190 31 199q127 -25 186 -25q117 0 175 67t58 257z" />
    <glyph glyph-name="circumflex" unicode="&#x2c6;" horiz-adv-x="1060" 
d="M778 1069l-248 193l-247 -193l-115 139l362 262l361 -262z" />
    <glyph glyph-name="caron" unicode="&#x2c7;" horiz-adv-x="1060" 
d="M891 1327l-361 -262l-362 262l115 139l247 -192l248 192z" />
    <glyph glyph-name="breve" unicode="&#x2d8;" horiz-adv-x="952" 
d="M473 1069q-244 0 -379 229l164 95q84 -154 215 -154t215 154l164 -95q-135 -229 -379 -229z" />
    <glyph glyph-name="dotaccent" unicode="&#x2d9;" horiz-adv-x="610" 
d="M438 1143h-268v225h268v-225z" />
    <glyph glyph-name="ring" unicode="&#x2da;" horiz-adv-x="786" 
d="M633 1290q0 -96 -69 -156t-172 -60t-171 60t-67 156q0 96 67 157q68 60 171 60q103 -1 172 -61t69 -156zM393 1196q37 0 62 26t25 68t-25 70q-25 26 -62 26t-61 -26t-25 -70q1 -42 25 -68t61 -26z" />
    <glyph glyph-name="ogonek" unicode="&#x2db;" horiz-adv-x="937" 
d="M264 -328q0 143 133 328h219q-147 -193 -147 -303q0 -86 98 -86q68 0 119 14l-31 -155q-59 -10 -139 -11q-252 0 -252 213z" />
    <glyph glyph-name="tilde" unicode="&#x2dc;" horiz-adv-x="1095" 
d="M727 1143q-55 0 -147 33t-148 32q-102 0 -217 -69l-31 180q127 76 236 76q57 0 150 -33t145 -33q94 0 198 68l29 -178q-111 -76 -215 -76z" />
    <glyph glyph-name="hungarumlaut" unicode="&#x2dd;" horiz-adv-x="1357" 
d="M1143 1325l-375 -254l-96 123l350 279zM672 1325l-375 -254l-96 123l348 279z" />
    <glyph glyph-name="Delta" unicode="&#x394;" horiz-adv-x="1513" 
d="M414 197h686q-39 109 -108 298t-125 345t-109 299zM1430 0h-1346l539 1372h270z" />
    <glyph glyph-name="Omega" unicode="&#x3a9;" horiz-adv-x="1521" 
d="M762 1198q-174 0 -288 -118t-114 -314q0 -367 330 -545v-221h-594v199h328q-123 69 -221 221t-99 346q0 272 186 450t471 179q286 0 471 -178t185 -451q0 -198 -97 -350t-222 -217h327v-199h-594v221q330 178 330 545q-1 196 -113 314t-286 118z" />
    <glyph glyph-name="mu" unicode="&#x3bc;" horiz-adv-x="1142" 
d="M458 -25q-64 0 -102 7v-463l-209 -21h-32v1469l204 28h37v-647q0 -170 138 -170q117 0 278 103v686l205 28h37v-979l-197 -41h-33v127q-200 -127 -326 -127z" />
    <glyph glyph-name="pi" unicode="&#x3c0;" horiz-adv-x="1499" 
d="M76 971h1321v-209h-291v-492q0 -98 70 -98q76 0 165 37l17 -195q-121 -37 -228 -37q-262 0 -262 293v492h-297v-762h-237v762h-258v209z" />
    <glyph glyph-name="endash" unicode="&#x2013;" horiz-adv-x="1122" 
d="M1006 424h-889v190h889v-190z" />
    <glyph glyph-name="emdash" unicode="&#x2014;" horiz-adv-x="1599" 
d="M1483 424h-1366v190h1366v-190z" />
    <glyph glyph-name="quoteleft" unicode="&#x2018;" horiz-adv-x="497" 
d="M397 1139h-293q-10 49 -10 110q0 203 176 434l127 -69q-82 -125 -114 -219l114 -19v-237z" />
    <glyph glyph-name="quoteright" unicode="&#x2019;" horiz-adv-x="462" 
d="M92 1468h293q12 -59 12 -110q0 -205 -178 -434l-127 69q86 133 117 219l-117 19v237z" />
    <glyph glyph-name="quotesinglbase" unicode="&#x201a;" horiz-adv-x="552" 
d="M127 248h293q12 -59 12 -109q0 -205 -178 -434l-127 70q86 133 117 221l-117 14v238z" />
    <glyph glyph-name="quotedblleft" unicode="&#x201c;" horiz-adv-x="874" 
d="M399 1139h-293q-12 57 -12 110q0 205 178 434l127 -69q-80 -125 -116 -219l116 -19v-237zM774 1139h-293q-10 49 -10 110q0 203 176 434l127 -69q-80 -125 -117 -219l117 -19v-237z" />
    <glyph glyph-name="quotedblright" unicode="&#x201d;" horiz-adv-x="837" 
d="M469 1468h293q10 -66 10 -110q0 -203 -176 -434l-127 69q82 125 115 219l-115 19v237zM92 1468h293q12 -59 12 -110q0 -203 -176 -434q-86 45 -129 69q86 133 117 219l-117 19v237z" />
    <glyph glyph-name="quotedblbase" unicode="&#x201e;" horiz-adv-x="929" 
d="M504 248h293q10 -49 10 -109q0 -203 -176 -434l-127 70q82 127 114 221l-114 14v238zM127 248h293q12 -47 12 -109q0 -203 -176 -434l-127 70q82 127 115 221l-117 14v238z" />
    <glyph glyph-name="dagger" unicode="&#x2020;" horiz-adv-x="833" 
d="M516 1061h234v-174h-234v-803h-217v803h-215v174h215v325l143 21q20 4 74 8v-354z" />
    <glyph glyph-name="daggerdbl" unicode="&#x2021;" horiz-adv-x="851" 
d="M522 1061h238v-174h-238v-281h238v-176h-238v-430h-215v430h-215v176h215v281h-215v174h215v328l176 26h39v-354z" />
    <glyph glyph-name="bullet" unicode="&#x2022;" horiz-adv-x="663" 
d="M141 475v332h381v-332h-381z" />
    <glyph glyph-name="ellipsis" unicode="&#x2026;" horiz-adv-x="1480" 
d="M594 0v250h291v-250h-291zM1061 0v250h291v-250h-291zM129 0v250h291v-250h-291z" />
    <glyph glyph-name="perthousand" unicode="&#x2030;" horiz-adv-x="2166" 
d="M1775 115q49 0 77 35t28 98q0 137 -104 137t-105 -137q0 -63 28 -98t76 -35zM1775 -23q-140 0 -220 72q-79 72 -79 200t79 200q79 71 219 71t221 -72q80 -72 80 -199q0 -128 -80 -200t-220 -72zM1103 115q48 0 77 35t28 98q0 137 -104 137t-105 -137q0 -63 28 -98t76 -35
zM1103 -23q-140 0 -219 72t-79 200t79 200q79 71 219 71t220 -72t80 -199q0 -128 -80 -200t-220 -72zM374 784q48 0 77 35t28 99q0 137 -104 137t-105 -137q0 -62 28 -98t76 -36zM374 647q-140 0 -219 72t-79 200q0 127 79 199t219 72t220 -72t80 -200t-80 -199
q-80 -72 -220 -72zM219 45l881 1172l149 -101l-884 -1173z" />
    <glyph glyph-name="guilsinglleft" unicode="&#x2039;" horiz-adv-x="567" 
d="M485 178l-166 -88l-270 459l266 452l166 -88l-219 -366q12 -15 112 -183t111 -186z" />
    <glyph glyph-name="guilsinglright" unicode="&#x203a;" horiz-adv-x="567" 
d="M248 90l-166 88l223 369q-14 18 -111 185t-108 181l166 88l266 -452z" />
    <glyph glyph-name="fraction" unicode="&#x2044;" horiz-adv-x="823" 
d="M-59 -147l788 1749q131 -53 164 -66l-789 -1749q-32 13 -163 66z" />
    <glyph glyph-name="Euro" unicode="&#x20ac;" horiz-adv-x="1429" 
d="M920 1194q-152 0 -255 -72t-149 -209h608l-22 -172h-617v-100h611l-21 -172h-563q80 -291 387 -291q178 0 385 78q25 -86 59 -199q-213 -80 -473 -80q-537 0 -630 492h-158l18 172h119v100h-113l23 172h117q59 227 240 355t444 127q190 0 379 -54l-29 -219
q-208 72 -360 72z" />
    <glyph glyph-name="trademark" unicode="&#x2122;" horiz-adv-x="1566" 
d="M406 1245v-506h-162v506h-181v127h529l-12 -127h-174zM1436 739h-156v191l14 293h-10l-160 -488h-176l-160 484h-10l17 -289v-191h-156v633h248l149 -495l148 495h252v-633z" />
    <glyph glyph-name="partialdiff" unicode="&#x2202;" horiz-adv-x="1198" 
d="M608 725q-124 1 -202 -65t-78 -208t68 -212t162 -70q178 0 244 166q54 137 54 313v31q-123 45 -248 45zM365 1536q351 0 545 -228t194 -630q0 -338 -146 -519t-378 -181t-366 126q-134 127 -134 349q0 221 141 345t357 124q158 0 266 -56q-68 471 -494 471
q-74 0 -203 -20l-12 199q121 20 230 20z" />
    <glyph glyph-name="product" unicode="&#x220f;" horiz-adv-x="1765" 
d="M358 -496h-235v2157h1519v-2155h-233v1956h-1051v-1958z" />
    <glyph glyph-name="summation" unicode="&#x2211;" horiz-adv-x="1347" 
d="M223 1659h1180l-12 -197h-893l465 -852q-86 -156 -467 -846h884l13 -196h-1170v172l479 870l-479 877v172z" />
    <glyph glyph-name="minus" unicode="&#x2212;" 
d="M1104 449h-981v188h981v-188z" />
    <glyph glyph-name="radical" unicode="&#x221a;" horiz-adv-x="1507" 
d="M111 784v197h415l277 -1057l26 72l385 1681h236l-504 -2033h-274q-244 856 -324 1140h-237z" />
    <glyph glyph-name="infinity" unicode="&#x221e;" horiz-adv-x="1974" 
d="M516 723q-80 0 -131 -45t-51 -114q0 -68 51 -112t131 -44q144 -1 328 155q-184 160 -328 160zM1638 564q0 70 -50 113q-50 44 -130 44q-144 0 -330 -158q188 -158 330 -157q80 0 130 44t50 114zM516 213q-188 0 -303 95t-115 256t116 257q116 97 318 97t455 -224
q248 221 471 221q186 0 301 -96t115 -257t-115 -256t-301 -95q-229 0 -471 223q-246 -221 -471 -221z" />
    <glyph glyph-name="integral" unicode="&#x222b;" horiz-adv-x="872" 
d="M559 1272v-1411q0 -168 -93 -247q-94 -79 -192 -79t-180 16l27 193q78 -12 104 -12q104 0 105 129v1411q0 164 92 246t235 81q70 0 140 -14l-29 -196q-74 12 -96 12q-113 0 -113 -129z" />
    <glyph glyph-name="approxequal" unicode="&#x2248;" 
d="M807 223q-76 0 -200 46t-183 46q-94 0 -207 -86q-66 102 -96 156q170 115 309 115q70 0 180 -38t152 -42v2q41 -16 55 -16q84 0 205 86l40 -70q32 -55 48 -86q-158 -113 -303 -113zM807 575q-76 -1 -200 47t-183 48q-92 0 -207 -88l-96 155q174 117 309 117q70 0 180 -38
t152 -42q35 -14 55 -14q84 0 205 84l88 -154q-156 -115 -303 -115z" />
    <glyph glyph-name="notequal" unicode="&#x2260;" 
d="M1094 274h-559l-125 -231l-148 63l92 168h-221v193h326l90 164h-416v192h522l121 219l144 -63l-86 -156h260v-192h-365l-90 -164h455v-193z" />
    <glyph glyph-name="lessequal" unicode="&#x2264;" 
d="M1090 0h-949v186h949v-186zM141 555v274l953 308v-215l-756 -230l756 -227v-215z" />
    <glyph glyph-name="greaterequal" unicode="&#x2265;" 
d="M1085 0h-948v186h948v-186zM889 692q-322 103 -756 230v215l952 -308v-274l-952 -305v215z" />
    <glyph glyph-name="lozenge" unicode="&#x25ca;" horiz-adv-x="1265" 
d="M633 1184l-303 -500l301 -496l305 496q-262 434 -303 500zM741 1372l443 -688l-451 -684h-211l-440 684l448 688h211z" />
    </font>
</defs>
</svg>
