<?xml version="1.0" standalone="no"?>
<!DOCTYPE svg PUBLIC "-//W3C//DTD SVG 1.1//EN" "http://www.w3.org/Graphics/SVG/1.1/DTD/svg11.dtd" >
<svg xmlns="http://www.w3.org/2000/svg">
<metadata>
Created by FontPrep 20130207 at Thu Jul  9 11:40:55 2015
 By Toni Fisler
Copyright (c) 2009 by Mark Caneso /psType. All rights reserved.
</metadata>
<defs>
<font id="b9faa269b52cfcc5e0647ec75465d9c9" horiz-adv-x='1024' >
  <font-face 
    font-family="Ratio-Bold"
    font-weight="700"
    font-stretch="normal"
    units-per-em="2048"
    panose-1="2 0 5 3 0 0 0 2 0 4"
    ascent="1511"
    descent="-537"
    x-height="981"
    cap-height="1372"
    bbox="-143 -543 2195 1995"
    underline-thickness="102"
    underline-position="-102"
    unicode-range="U+0020-FB02"
  />
<missing-glyph horiz-adv-x="1187" 
d="M838 178v1016h-504v-1016h504zM1026 0h-879v1372h879v-1372z" />
    <glyph glyph-name="fi" unicode="fi" horiz-adv-x="1267" 
d="M702 1249q-202 0 -202 -182v-86h645v-981h-299v741h-344v-741h-297v741h-150v197q98 29 150 41v94q0 430 485 430q88 0 241 -14t232 -14v-285q-70 -8 -96 -8l-27 2q-37 8 -139 36q-103 28 -199 29z" />
    <glyph glyph-name="fl" unicode="fl" horiz-adv-x="1306" 
d="M1176 0h-297v1233q-154 16 -177 16q-86 0 -142 -50t-56 -148v-70h250v-240h-248v-741h-297v741h-162v197q94 25 162 41v82q0 233 132 337t355 103q54 0 182 -12t199 -8h99v-1481z" />
    <glyph glyph-name=".notdef" horiz-adv-x="1187" 
d="M838 178v1016h-504v-1016h504zM1026 0h-879v1372h879v-1372z" />
    <glyph glyph-name=".null" horiz-adv-x="0" 
 />
    <glyph glyph-name="nonmarkingreturn" horiz-adv-x="681" 
 />
    <glyph glyph-name="space" unicode=" " horiz-adv-x="512" 
 />
    <glyph glyph-name="exclam" unicode="!" horiz-adv-x="565" 
d="M459 0h-348v285l348 -82v-203zM426 348l-289 76q-16 631 -26 948h346z" />
    <glyph glyph-name="quotedbl" unicode="&#x22;" horiz-adv-x="862" 
d="M379 891l-270 -47v512l270 49v-514zM762 891l-270 -47v512l270 49v-514z" />
    <glyph glyph-name="numbersign" unicode="#" horiz-adv-x="1290" 
d="M745 514v176h-198v-176h198zM1026 0h-281v279h-198v-279h-279v279h-178v235h178v176h-178v238h178v282h279v-282h198v282h281v-282h174v-238h-174v-176h174v-235h-174v-279z" />
    <glyph glyph-name="dollar" unicode="$" horiz-adv-x="995" 
d="M641 -166h-235v146l-64 4q-127 6 -266 28l33 246q188 -47 315 -47q211 0 211 86q0 39 -55 74q-56 35 -134 69t-156 78q-78 45 -134 124q-56 78 -56 192t83 193t223 106v170h235v-158q133 -12 233 -43l-20 -246q-172 55 -301 55q-160 0 -160 -83t188 -162q79 -35 157 -78
t131 -116q55 -74 55 -182t-76 -187t-207 -107v-162z" />
    <glyph glyph-name="percent" unicode="%" horiz-adv-x="1566" 
d="M1495 264q0 -137 -90 -211q-90 -73 -229 -73t-232 73q-92 74 -92 210t92 214t230 78t230 -77q91 -77 91 -214zM1174 158q76 0 75 106q0 106 -75 107q-76 -1 -76 -107t76 -106zM715 963q0 -137 -90 -213q-89 -76 -229 -76t-231 76t-91 212t91 213t230 77t230 -76
q90 -76 90 -213zM410 -59q-18 14 -177 131l895 1179l179 -129zM393 856q35 0 57 28t21 79q0 106 -77 106q-77 -1 -77 -107t76 -106z" />
    <glyph glyph-name="ampersand" unicode="&#x26;" horiz-adv-x="1566" 
d="M346 374q0 -73 58 -115t132 -42t132 27q-176 104 -295 262q-27 -59 -27 -132zM502 -23q-176 1 -303 101t-127 289q0 88 43 182t121 168q-72 121 -72 287t115 279q115 114 303 114t391 -68l-25 -366h-252l17 184q-39 10 -111 10t-118 -44t-46 -132q0 -147 120 -306
t296 -261q55 90 55 248v149h426v-233h-178q-6 -139 -78 -285q184 -74 424 -74l41 2l-14 -244q-338 2 -612 119q-152 -119 -416 -119z" />
    <glyph glyph-name="quotesingle" unicode="'" horiz-adv-x="477" 
d="M377 891l-268 -47v512l268 49v-514z" />
    <glyph glyph-name="parenleft" unicode="(" horiz-adv-x="722" 
d="M61 584q0 290 120 574t319 476l217 -153q-363 -365 -363 -896t363 -900l-217 -152q-199 193 -319 477t-120 574z" />
    <glyph glyph-name="parenright" unicode=")" horiz-adv-x="722" 
d="M662 584q0 -289 -120 -574t-319 -477l-217 152q362 371 363 899q0 528 -363 897l217 153q199 -193 319 -477t120 -573z" />
    <glyph glyph-name="asterisk" unicode="*" horiz-adv-x="980" 
d="M819 905l-182 -135l-145 201l-144 -201l-182 135l151 197l-245 74l69 213l236 -78l-4 241h229l-6 -245l246 82l67 -213l-243 -72z" />
    <glyph glyph-name="plus" unicode="+" 
d="M758 61h-283v357h-342v252h342v354h283v-354h338v-252h-338v-357z" />
    <glyph glyph-name="comma" unicode="," horiz-adv-x="581" 
d="M119 299h338q14 -70 14 -139q0 -220 -197 -484q-32 16 -82 48t-71 40q92 141 123 234q-30 2 -125 16v285z" />
    <glyph glyph-name="hyphen" unicode="-" horiz-adv-x="956" 
d="M852 387h-748v281h748v-281z" />
    <glyph glyph-name="period" unicode="." horiz-adv-x="585" 
d="M467 0h-348v303h348v-303z" />
    <glyph glyph-name="slash" unicode="/" horiz-adv-x="927" 
d="M356 -356h-282l501 1894h285z" />
    <glyph glyph-name="zero" unicode="0" horiz-adv-x="1335" 
d="M98 547q0 264 160 417q160 152 410 152t410 -152t159 -417q0 -264 -160 -418q-159 -154 -409 -154t-410 154t-160 418zM930 547q0 159 -69 239t-193 80t-195 -81q-70 -81 -70 -239t70 -238q70 -81 195 -81q126 0 194 81t68 239z" />
    <glyph glyph-name="one" unicode="1" horiz-adv-x="942" 
d="M856 0h-756v248h256v594h-206v243h499v-837h207v-248z" />
    <glyph glyph-name="two" unicode="2" horiz-adv-x="1122" 
d="M1024 0h-895l-27 205q440 313 509 386q69 71 69 135t-56 97t-141 33q-147 0 -340 -76q-10 84 -34 252q223 82 421 82t322 -96q123 -96 123 -256q0 -127 -74 -215t-237 -207l-183 -131l2 -4q242 43 400 43h141v-248z" />
    <glyph glyph-name="three" unicode="3" horiz-adv-x="1034" 
d="M385 -125q256 0 256 191q0 199 -301 198q-41 0 -131 -8v246q86 12 168 12t139 -10q96 94 96 184t-61 131t-154 41q-158 0 -293 -63l-30 254q188 63 384 63t325 -102q128 -102 128 -271q0 -82 -44 -175t-107 -163q184 -109 184 -321t-154 -335q-154 -122 -399 -122
q-169 0 -366 49q4 39 16 122t18 126q188 -47 326 -47z" />
    <glyph glyph-name="four" unicode="4" horiz-adv-x="1353" 
d="M768 -358v372h-676l-6 191q8 45 330 913h317q-59 -156 -171 -446t-159 -412h365l4 307l23 207h262v-514h215v-246h-215v-360l-230 -12h-59z" />
    <glyph glyph-name="five" unicode="5" horiz-adv-x="1114" 
d="M725 96q0 203 -250 203h-309v788h809l-2 -249h-518v-289h65q256 1 382 -105t126 -338t-160 -357q-160 -124 -397 -124q-188 0 -403 47l36 254q231 -51 359 -51q262 0 262 221z" />
    <glyph glyph-name="six" unicode="6" horiz-adv-x="1210" 
d="M634 225q106 -1 158 59t52 151t-53 143t-166 53q-113 0 -234 -47q0 -178 69 -268t174 -91zM823 1212q-403 0 -417 -393q156 55 301 55q190 0 313 -105t123 -311q-1 -206 -145 -344t-380 -138t-382 164q-148 164 -148 528t190 583t523 219q133 1 262 -28l-21 -250
q-123 20 -219 20z" />
    <glyph glyph-name="seven" unicode="7" horiz-adv-x="1089" 
d="M1030 1087v-219l-563 -1228h-317l550 1191h-626l-17 256h973z" />
    <glyph glyph-name="eight" unicode="8" horiz-adv-x="1191" 
d="M406 1062q0 -111 96 -168q74 -44 188 -77q94 109 94 227q0 76 -51 126t-138 50t-138 -47q-51 -49 -51 -111zM401 414q1 -80 57 -131t144 -51t142 48t55 126q0 78 -76 123t-238 92q-84 -90 -84 -207zM1100 426q0 -198 -148 -322t-362 -122q-213 0 -353 105t-141 296
q0 96 52 190t124 162q-70 49 -115 137q-46 88 -46 185q0 174 133 294q133 119 356 119t349 -114q127 -114 127 -294q0 -179 -152 -337q176 -101 176 -299z" />
    <glyph glyph-name="nine" unicode="9" horiz-adv-x="1202" 
d="M568 864q-106 0 -158 -60t-52 -149q0 -90 54 -143t160 -53q108 0 239 47q0 178 -69 268t-174 90zM496 215q-190 1 -314 107t-123 312t145 343t380 137t382 -165q148 -165 148 -529t-188 -582q-188 -219 -525 -219q-131 0 -262 29l21 250q123 -20 219 -21q402 0 418 393
q-156 -55 -301 -55z" />
    <glyph glyph-name="colon" unicode=":" horiz-adv-x="632" 
d="M492 0h-351v303h351v-303zM492 676h-351v305h351v-305z" />
    <glyph glyph-name="semicolon" unicode=";" horiz-adv-x="632" 
d="M143 299h340q14 -70 15 -139q0 -222 -199 -484l-152 88q94 152 121 234q-12 1 -125 16v285zM492 676h-351v305h351v-305z" />
    <glyph glyph-name="less" unicode="&#x3c;" 
d="M373 526q243 -94 712 -264v-272q-326 125 -976 379v313l976 383v-274z" />
    <glyph glyph-name="equal" unicode="=" 
d="M1096 248h-963v258h963v-258zM1096 612h-963v258h963v-258z" />
    <glyph glyph-name="greater" unicode="&#x3e;" 
d="M1120 371l-977 -381v272l713 264l-713 265v274l977 -381v-313z" />
    <glyph glyph-name="question" unicode="?" horiz-adv-x="964" 
d="M557 0h-330v281l330 -72v-209zM600 1024q0 54 -44 87q-44 32 -126 32q-143 0 -328 -70l-24 250q202 74 406 74q204 -1 308 -107t103 -254q0 -92 -41 -162t-100 -112q-58 -42 -118 -79q-142 -90 -142 -206q-1 -69 26 -149l-276 71q-16 61 -16 134t58 152t128 125t128 103
t58 111z" />
    <glyph glyph-name="at" unicode="@" horiz-adv-x="1859" 
d="M774 432q0 -121 84 -121q59 1 129 64l43 323q-47 14 -74 15q-88 0 -135 -80t-47 -201zM948 -422q-381 0 -632 238t-250 635q0 264 125 485q126 221 335 346q208 125 428 125t378 -65q285 -117 397 -404q49 -127 49 -262q0 -283 -144 -448t-391 -165q-205 0 -229 123h-13
q-103 -84 -211 -84t-180 84t-71 232q0 229 128 357t314 128q141 0 309 -67l-73 -562h59q244 0 244 394q0 229 -144 368t-399 140q-166 0 -296 -67q-230 -119 -317 -407q-38 -123 -38 -251q0 -317 185 -485t478 -169q123 0 268 39l33 -207q-170 -51 -342 -51z" />
    <glyph glyph-name="A" unicode="A" horiz-adv-x="1353" 
d="M844 489l-168 512l-166 -512h334zM1343 0h-335l-78 229h-508l-76 -229h-336l490 1372h352z" />
    <glyph glyph-name="B" unicode="B" horiz-adv-x="1290" 
d="M479 819h269q70 70 69 162q0 61 -48 95t-126 34h-164v-291zM479 264h180q227 0 228 168q0 62 -49 102t-125 39h-234v-309zM647 0h-483v1372h500q477 0 477 -346q0 -135 -127 -287q92 -43 146 -122t54 -181q0 -220 -160 -328t-407 -108z" />
    <glyph glyph-name="C" unicode="C" horiz-adv-x="1318" 
d="M80 696q0 334 200 515t533 182q180 0 395 -52l-24 -497l-281 2l10 276q-57 10 -139 11q-166 -1 -268 -107t-102 -340t100 -340q102 -106 282 -106t392 84l69 -256q-233 -90 -502 -91q-349 0 -507 193q-158 192 -158 526z" />
    <glyph glyph-name="D" unicode="D" horiz-adv-x="1441" 
d="M653 264q381 0 381 423t-381 423h-174v-846h174zM1360 686q0 -354 -190 -520t-515 -166h-491v1372h491q329 0 517 -166t188 -520z" />
    <glyph glyph-name="E" unicode="E" horiz-adv-x="1210" 
d="M164 0v1372h966l-26 -264h-625v-277h533v-258h-533v-311h621l26 -262h-962z" />
    <glyph glyph-name="F" unicode="F" horiz-adv-x="1157" 
d="M479 0h-315v1372h956l-26 -264h-615v-307h533v-258h-533v-543z" />
    <glyph glyph-name="G" unicode="G" horiz-adv-x="1427" 
d="M1337 647v-573q-303 -96 -565 -97q-338 -1 -517 185t-179 519t209 523t551 191q223 0 432 -70l-47 -287q-209 94 -399 94t-305 -111q-116 -113 -116 -339t110 -334t294 -108q119 -1 215 34v338l233 35h84z" />
    <glyph glyph-name="H" unicode="H" horiz-adv-x="1574" 
d="M1411 0h-317v565h-615v-565h-315v1372h315v-543h615v543h317v-1372z" />
    <glyph glyph-name="I" unicode="I" horiz-adv-x="960" 
d="M874 0h-788v254h236v862h-236v256h788v-256h-237v-862h237v-254z" />
    <glyph glyph-name="J" unicode="J" horiz-adv-x="747" 
d="M272 176v940h-229v256h543v-1147q-2 -254 -100 -400t-341 -271l-135 233q147 90 205 175q57 85 57 214z" />
    <glyph glyph-name="K" unicode="K" horiz-adv-x="1312" 
d="M479 0h-315v1372h315v-594l406 594h366l-487 -680l563 -692h-401l-447 551v-551z" />
    <glyph glyph-name="L" unicode="L" horiz-adv-x="1044" 
d="M164 0v1372h317v-1108h529l20 -264h-866z" />
    <glyph glyph-name="M" unicode="M" horiz-adv-x="1916" 
d="M475 854v-854h-311v1372h432l365 -999l366 999h426v-1372h-313v854h-10l-48 -195l-268 -665h-309l-264 665l-54 195h-12z" />
    <glyph glyph-name="N" unicode="N" horiz-adv-x="1579" 
d="M1415 0h-358l-467 682l-96 223h-17v-905h-313v1372h354l451 -690l118 -248h15v938h313v-1372z" />
    <glyph glyph-name="O" unicode="O" horiz-adv-x="1507" 
d="M754 -25q-316 1 -496 193t-180 519t180 518t496 191t495 -192q181 -192 181 -518t-180 -518t-496 -193zM403 686q-1 -217 95 -334q96 -116 256 -116t254 116t94 334q0 217 -94 334t-254 117t-256 -117t-95 -334z" />
    <glyph glyph-name="P" unicode="P" horiz-adv-x="1181" 
d="M164 0v1372h448q234 0 380 -124t146 -343t-146 -343t-380 -124h-133v-438h-315zM479 1110v-410h135q199 0 199 205t-199 205h-135z" />
    <glyph glyph-name="Q" unicode="Q" horiz-adv-x="1505" 
d="M752 236q160 0 255 116t95 334q0 217 -95 334t-254 117t-254 -118t-95 -334q0 -217 94 -333t254 -116zM1427 684q0 -326 -180 -518t-494 -191q-314 0 -495 193q-180 192 -180 518t180 518t494 193q314 0 495 -193q180 -194 180 -520zM1368 -438l-881 112l31 248l881 -117
z" />
    <glyph glyph-name="R" unicode="R" horiz-adv-x="1304" 
d="M479 735h256q98 88 99 207q0 70 -46 118t-137 48h-172v-373zM479 477v-477h-315v1372h493q233 0 367 -114t133 -310q0 -80 -36 -158q-37 -78 -75 -123q-38 -46 -98 -104l332 -563h-373l-266 477h-162z" />
    <glyph glyph-name="S" unicode="S" horiz-adv-x="1140" 
d="M662 1130q-242 0 -242 -130q0 -62 68 -105t162 -79q96 -36 192 -81t164 -128t67 -197q0 -220 -159 -326t-422 -107q-195 0 -414 41l33 273q209 -53 372 -53q266 0 267 133q0 84 -129 136q-57 23 -128 47t-141 58t-127 78q-57 45 -93 120t-36 173q0 201 155 306t402 106
q182 0 359 -49l-25 -279q-203 63 -325 63z" />
    <glyph glyph-name="T" unicode="T" horiz-adv-x="1171" 
d="M743 0h-317v1108h-397v264h1132l-28 -264h-390v-1108z" />
    <glyph glyph-name="U" unicode="U" horiz-adv-x="1441" 
d="M1296 483q0 -235 -160 -371t-416 -136q-255 0 -415 136t-160 371v889h316v-887q0 -119 76 -182q75 -63 185 -63t184 63t75 182v887h315v-889z" />
    <glyph glyph-name="V" unicode="V" horiz-adv-x="1353" 
d="M844 -16h-334l-504 1388h340l332 -1003l332 1003h338z" />
    <glyph glyph-name="W" unicode="W" horiz-adv-x="2035" 
d="M1647 -12h-377l-219 772l-23 166h-16l-29 -166l-223 -772h-371l-346 1384h338l178 -790l25 -207h20l21 135l219 862h358l221 -862l23 -135h18l25 207l178 790h326z" />
    <glyph glyph-name="X" unicode="X" horiz-adv-x="1345" 
d="M1335 0h-377l-301 471l-274 -471h-360l448 711l-446 661h381l272 -444l262 444h371l-443 -678z" />
    <glyph glyph-name="Y" unicode="Y" horiz-adv-x="1245" 
d="M782 0h-315v494l-463 878h361l262 -569l262 569h352l-459 -876v-496z" />
    <glyph glyph-name="Z" unicode="Z" horiz-adv-x="1247" 
d="M104 1108v264h1039l10 -244l-688 -866h686l16 -262h-1065l-30 240l684 868h-652z" />
    <glyph glyph-name="bracketleft" unicode="[" horiz-adv-x="679" 
d="M625 -489h-480v2013h459v-232h-188v-1552h209v-229z" />
    <glyph glyph-name="backslash" unicode="\" horiz-adv-x="925" 
d="M856 -453h-283q-287 1061 -495 1839h289q204 -776 489 -1839z" />
    <glyph glyph-name="bracketright" unicode="]" horiz-adv-x="677" 
d="M532 -489h-466v229h196v1556h-201v228h471v-2013z" />
    <glyph glyph-name="asciicircum" unicode="^" horiz-adv-x="1089" 
d="M991 635h-284l-175 397h-2q-143 -324 -176 -397h-286q233 492 348 739h235q63 -141 182 -397t158 -342z" />
    <glyph glyph-name="underscore" unicode="_" horiz-adv-x="946" 
d="M932 -358h-918v245h918v-245z" />
    <glyph glyph-name="grave" unicode="`" horiz-adv-x="1017" 
d="M614 1106l-405 283l147 198l381 -305z" />
    <glyph glyph-name="a" unicode="a" horiz-adv-x="1028" 
d="M915 612v-606l-251 -26h-21v118h-8q-147 -119 -309 -116q-109 2 -188 76t-79 212q0 192 175 255q71 27 208 48l176 23v37q0 69 -32 99t-113 30q-154 0 -330 -66l-22 246q174 66 381 66t310 -94t103 -302zM365 299q1 -43 25 -67t65 -23q73 0 163 59v146l-149 -21
q-104 -16 -104 -94z" />
    <glyph glyph-name="b" unicode="b" horiz-adv-x="1171" 
d="M424 1493v-375q0 -84 -8 -211h4q141 101 307 101t270 -119q105 -119 105 -366t-148 -397t-428 -151q-182 0 -399 33v1454l242 31h55zM795 512q0 127 -43 183q-44 57 -138 57t-190 -80v-436q61 -10 125 -11q246 0 246 287z" />
    <glyph glyph-name="c" unicode="c" horiz-adv-x="980" 
d="M586 -25q-520 0 -518 512q0 247 141 383t383 138q158 0 301 -50l-21 -258q-156 53 -262 54q-236 0 -236 -261t249 -262q128 1 280 60v-260q-158 -55 -317 -56z" />
    <glyph glyph-name="d" unicode="d" horiz-adv-x="1175" 
d="M375 475q0 -240 192 -239q93 -1 187 77v428q-70 18 -129 19q-250 0 -250 -285zM1051 1493v-1473l-238 -45h-39v103q-55 -41 -143 -72t-156 -31q-176 0 -291 125q-114 125 -114 371t136 391t372 146q59 0 176 -23v477l260 31h37z" />
    <glyph glyph-name="e" unicode="e" horiz-adv-x="1060" 
d="M557 782q-147 0 -168 -168h299v15q0 69 -32 111t-99 42zM654 229q134 0 300 62v-254q-201 -61 -376 -62q-510 0 -510 514q0 219 128 369t362 150t339 -138q96 -124 94 -292q0 -82 -10 -148h-594q2 -119 68 -160q65 -41 199 -41z" />
    <glyph glyph-name="f" unicode="f" horiz-adv-x="849" 
d="M502 1057v-76h313v-240h-309v-741h-297v743h-162v197l162 39v84q-2 221 125 332t323 110q133 0 285 -39l-33 -245q-119 29 -208 29t-144 -49q-55 -48 -55 -144z" />
    <glyph glyph-name="g" unicode="g" horiz-adv-x="1159" 
d="M371 -246q0 -84 174 -84q109 0 168 36t59 97q0 35 -34 47t-111 13l-215 -2q-41 -57 -41 -107zM532 778q-66 0 -104 -43t-37 -120q0 -77 37 -119q38 -42 104 -41q66 0 104 42q38 43 38 119t-38 119t-104 43zM544 -543q-270 0 -366 67t-96 181q0 137 141 223
q-74 45 -73 135q0 123 98 242q-162 90 -162 303q0 170 122 285t324 115q96 0 183 -27h415v-231h-194q43 -74 43 -142q0 -188 -124 -284t-323 -97q-55 0 -98 9q-33 -56 -33 -94t99 -38l221 11q142 0 252 -52t109 -216q-1 -165 -134 -277q-134 -112 -404 -113z" />
    <glyph glyph-name="h" unicode="h" horiz-adv-x="1187" 
d="M1069 0h-297v600q0 141 -119 141q-94 0 -225 -77v-664h-297v1462l242 31h55v-594q168 109 312 109t236 -86t93 -275v-647z" />
    <glyph glyph-name="i" unicode="i" horiz-adv-x="555" 
d="M106 1460h336v-282l-336 -41v323zM424 0h-297v973l244 28h53v-1001z" />
    <glyph glyph-name="j" unicode="j" horiz-adv-x="555" 
d="M109 1460h333v-282l-333 -41v323zM424 72q0 -178 -86 -326t-311 -266l-115 203q215 145 215 358v932l244 28h53v-929z" />
    <glyph glyph-name="k" unicode="k" horiz-adv-x="1142" 
d="M428 1493v-895l297 383h379l-379 -477l412 -504h-385l-324 410v-410h-297v1462l242 31h55z" />
    <glyph glyph-name="l" unicode="l" horiz-adv-x="559" 
d="M428 1493v-1493h-297v1462l240 31h57z" />
    <glyph glyph-name="m" unicode="m" horiz-adv-x="1783" 
d="M1362 1008q133 0 218 -89t85 -262v-657h-297v596q0 80 -27 113t-81 32q-92 0 -216 -71v-670h-296v596q0 145 -109 145q-88 0 -215 -71v-670h-297v973l219 28h39l16 -114q190 121 328 121q193 0 268 -140l62 37q170 103 303 103z" />
    <glyph glyph-name="n" unicode="n" horiz-adv-x="1183" 
d="M1065 0h-297v600q0 141 -113 141q-82 0 -231 -71v-670h-297v973l219 28h37l18 -114q201 121 340 121t231 -86t93 -275v-647z" />
    <glyph glyph-name="o" unicode="o" horiz-adv-x="1146" 
d="M774 492q0 266 -200 266t-201 -265q0 -265 200 -266q201 -1 201 265zM1079 494q0 -238 -128 -378t-378 -140q-249 0 -377 138q-128 140 -128 379t128 377t378 138t377 -138q128 -138 128 -376z" />
    <glyph glyph-name="p" unicode="p" horiz-adv-x="1177" 
d="M424 670v-430q78 -14 151 -15q227 0 227 274q0 138 -44 193q-46 56 -138 56t-196 -78zM127 -537v1510l238 28h38v-98h5q152 105 314 105t274 -126t112 -371t-133 -387t-357 -142q-88 0 -194 20v-491l-260 -48h-37z" />
    <glyph glyph-name="q" unicode="q" horiz-adv-x="1169" 
d="M745 -537v400q0 84 9 211h-4q-135 -98 -303 -98t-273 116q-104 117 -104 365q0 249 147 399t428 150h80q165 -8 317 -33v-1454l-241 -56h-56zM375 467q0 -125 44 -181t139 -56t187 79v436q-61 10 -122 11q-248 0 -248 -289z" />
    <glyph glyph-name="r" unicode="r" horiz-adv-x="798" 
d="M737 731q-115 0 -189 -44t-124 -134v-553h-297v973l221 28h37l16 -161h7q106 156 286 155q23 0 72 -4v-61l-4 -199h-25z" />
    <glyph glyph-name="s" unicode="s" horiz-adv-x="927" 
d="M496 1008q190 0 311 -37v-260h-21q-137 45 -270 45t-133 -72q0 -51 127 -71t227 -73q53 -28 89 -90t36 -151q0 -324 -479 -324q-152 0 -289 31v256h17q168 -35 282 -35q164 0 164 68q0 35 -49 54t-120 33q-72 14 -142 42q-70 26 -119 96t-49 178q0 137 113 224
q115 86 305 86z" />
    <glyph glyph-name="t" unicode="t" horiz-adv-x="854" 
d="M494 -25q-144 0 -225 66t-81 242v458h-137v203l137 33v237l250 58h47v-291h316v-240h-316v-403q0 -111 111 -111q55 0 168 33q4 -80 16 -240q-142 -45 -286 -45z" />
    <glyph glyph-name="u" unicode="u" horiz-adv-x="1175" 
d="M435 -25q-140 0 -231 85t-91 274v639l247 28h50v-620q0 -141 118 -141q96 0 226 79v654l245 28h52v-974l-238 -52h-37v121q-201 -121 -341 -121z" />
    <glyph glyph-name="v" unicode="v" horiz-adv-x="1099" 
d="M721 -20h-340l-369 1001h318l219 -668h10l211 668h317z" />
    <glyph glyph-name="w" unicode="w" horiz-adv-x="1669" 
d="M1372 -18h-342l-168 555l-16 114h-21l-18 -114l-162 -555h-342l-266 999h311q66 -295 139 -666h19l192 666h289l197 -666h16l146 666h282z" />
    <glyph glyph-name="x" unicode="x" horiz-adv-x="1155" 
d="M1141 0h-365l-219 305l-195 -305h-339l366 510l-364 471h354l211 -293l184 293h344l-356 -477z" />
    <glyph glyph-name="y" unicode="y" horiz-adv-x="1058" 
d="M307 -539q-57 61 -164 179q90 70 144 123q53 54 88 124l47 97h-66l-340 997h320l182 -678h10l209 678h307l-348 -1004q-127 -360 -389 -516z" />
    <glyph glyph-name="z" unicode="z" horiz-adv-x="1038" 
d="M96 727v254h836l20 -225l-510 -504h506l17 -252h-877l-14 223l504 504h-482z" />
    <glyph glyph-name="braceleft" unicode="{" horiz-adv-x="800" 
d="M215 -117q0 55 13 161q14 106 14 163q0 58 -20 120q-19 62 -48 62h-129v260h129q12 0 12 60q53 39 54 151q0 50 -14 156t-15 160q0 356 369 356q111 0 233 -25l-31 -252q-147 31 -186 31q-115 0 -115 -106q1 -70 21 -209t20 -211q0 -143 -112 -240q113 -102 112 -239
q0 -74 -20 -211t-21 -209q0 -106 101 -107q73 0 200 33l31 -254q-94 -18 -176 -25q-221 0 -322 80q-100 80 -100 295z" />
    <glyph glyph-name="bar" unicode="|" horiz-adv-x="552" 
d="M408 -471h-263v2001h263v-2001z" />
    <glyph glyph-name="braceright" unicode="}" horiz-adv-x="800" 
d="M221 -246q100 0 101 107q0 70 -20 208q-19 138 -19 212q0 145 110 237q-111 100 -110 242q0 74 19 212t20 208q0 106 -113 106q-45 0 -189 -31q-10 84 -26 252q115 25 231 25q367 0 367 -342q0 -70 -20 -206t-19 -209q0 -73 24 -99t103 -27h80v-260h-80q-80 1 -104 -25
t-23 -99q0 -73 19 -208t20 -204q0 -195 -106 -270t-318 -75q-90 7 -174 25q16 178 26 254q127 -33 201 -33z" />
    <glyph glyph-name="asciitilde" unicode="~" horiz-adv-x="1243" 
d="M860 375q-88 0 -236 34t-218 33q-106 0 -269 -92l-33 262q160 88 322 88q88 0 236 -32t223 -33q76 0 213 70l49 -250q-150 -80 -287 -80z" />
    <glyph glyph-name="uni00A0" unicode="&#xa0;" horiz-adv-x="436" 
 />
    <glyph glyph-name="exclamdown" unicode="&#xa1;" horiz-adv-x="552" 
d="M98 1051h348v-285l-348 82v203zM131 702l289 -75l26 -949h-346z" />
    <glyph glyph-name="cent" unicode="&#xa2;" horiz-adv-x="993" 
d="M670 -223h-262v217q-344 74 -345 500q-1 188 91 316t254 173v225h262v-204q102 -8 219 -46l-21 -258q-156 53 -262 54q-236 0 -236 -261t248 -262q129 0 281 60v-260q-115 -43 -229 -51v-203z" />
    <glyph glyph-name="sterling" unicode="&#xa3;" horiz-adv-x="1118" 
d="M1030 0h-971l43 238q165 0 196 86q15 41 15 108v117h-176v223h176v123q0 240 164 366t453 136l31 -252q-360 6 -361 -256v-117h301v-223h-301v-119q0 -119 -63 -188h493v-242z" />
    <glyph glyph-name="currency" unicode="&#xa4;" horiz-adv-x="1036" 
d="M520 371q59 0 96 42t37 104q0 61 -37 105t-96 44t-96 -43t-37 -105t37 -105q37 -42 96 -42zM518 834q78 0 154 -35l149 145l133 -133l-145 -141q43 -76 43 -155t-43 -153l145 -143l-131 -133l-155 145q-72 -31 -152 -31t-149 33l-154 -147l-131 133l147 146
q-41 71 -41 149t39 152l-145 145l133 133l152 -147q73 37 151 37z" />
    <glyph glyph-name="yen" unicode="&#xa5;" horiz-adv-x="1378" 
d="M848 0h-316v195h-352v221h352v65h-352v221h242l-352 670h360l262 -569l262 569h353l-351 -670h244v-221h-352v-65h352v-221h-352v-195z" />
    <glyph glyph-name="brokenbar" unicode="&#xa6;" horiz-adv-x="563" 
d="M414 -471h-264v874h264v-874zM414 662h-264v868h264v-868z" />
    <glyph glyph-name="section" unicode="&#xa7;" horiz-adv-x="1060" 
d="M414 -174q166 0 166 111q0 47 -33 71t-168 80q-135 54 -223 138t-88 230t157 246q-100 90 -100 218q0 174 134 268q135 94 321 95t333 -58v-254h-20q-155 51 -297 51t-141 -88q0 -39 54 -73q54 -35 131 -65t153 -69t130 -110t54 -162q0 -182 -141 -297q82 -92 82 -197
q0 -295 -314 -368q-86 -19 -196 -19t-281 39v256h16q208 -43 271 -43zM389 465q0 -76 141 -133l72 -31q43 53 43 105t-28 78q-28 24 -91 51l-96 38q-41 -61 -41 -108z" />
    <glyph glyph-name="dieresis" unicode="&#xa8;" horiz-adv-x="1134" 
d="M940 1188h-303v264h303v-264zM494 1188h-301v264h301v-264z" />
    <glyph glyph-name="copyright" unicode="&#xa9;" horiz-adv-x="1601" 
d="M819 893q-72 0 -123 -48t-51 -145q0 -207 174 -206q117 0 240 43l39 -154q-152 -55 -291 -55q-180 0 -273 102q-94 102 -94 272t109 264t268 95q111 0 252 -49l-14 -248l-172 10l8 111q-45 8 -72 8zM276 688q0 -216 146 -366t380 -150q232 0 378 150q145 150 145 366
t-145 367q-146 149 -378 149t-379 -150t-147 -366zM74 687q0 298 204 504t526 206t524 -206t202 -504t-203 -504t-525 -206t-526 206q-202 206 -202 504z" />
    <glyph glyph-name="ordfeminine" unicode="&#xaa;" horiz-adv-x="731" 
d="M76 920q0 158 215 186l145 18v56q0 57 -104 57t-211 -33l-10 160q125 33 260 33q135 1 195 -57t61 -173v-428l-178 -18v72q-87 -70 -177 -70q-90 1 -143 51t-53 146zM436 907v90l-74 -10q-49 -6 -69 -20t-21 -45q0 -48 54 -48t110 33z" />
    <glyph glyph-name="guillemotleft" unicode="&#xab;" horiz-adv-x="1003" 
d="M530 176l-204 -123l-287 496l280 489l209 -120l-221 -371zM936 188l-215 -122l-283 483l283 477l213 -121l-227 -358z" />
    <glyph glyph-name="logicalnot" unicode="&#xac;" horiz-adv-x="1167" 
d="M786 432h-700v238h969v-537l-269 21v278z" />
    <glyph glyph-name="registered" unicode="&#xae;" horiz-adv-x="1603" 
d="M276 686q0 -217 146 -367q146 -149 380 -149q232 0 378 149q145 150 145 367t-145 367q-146 149 -378 149t-379 -150t-147 -366zM74 685q0 298 204 504t526 206t524 -206t202 -504t-203 -504t-525 -206t-526 206q-202 206 -202 504zM733 874v-151h105q41 35 41 73
q0 78 -76 78h-70zM1079 820q0 -104 -106 -197l162 -267h-224l-120 215h-58v-215h-196v684h284q117 0 188 -57q70 -59 70 -163z" />
    <glyph glyph-name="macron" unicode="&#xaf;" horiz-adv-x="1075" 
d="M909 1139h-743v235h743v-235z" />
    <glyph glyph-name="degree" unicode="&#xb0;" horiz-adv-x="667" 
d="M334 889q-119 -1 -192 65q-72 66 -72 180t72 182t192 66q120 0 192 -68t72 -180t-72 -178t-192 -67zM334 1047q30 -1 52 23t22 65t-22 67t-52 25q-30 0 -51 -26q-20 -26 -21 -66q0 -88 72 -88z" />
    <glyph glyph-name="plusminus" unicode="&#xb1;" 
d="M1110 635h-362v-330h-269v330h-362v242h362v350h269v-350h362v-242zM1110 0h-993v240h993v-240z" />
    <glyph glyph-name="twosuperior" unicode="&#xb2;" horiz-adv-x="915" 
d="M821 561h-710l-25 176q24 19 134 111t126 102q172 141 172 242q0 109 -141 108q-113 0 -248 -61l-33 219q152 62 316 62t266 -78t102 -230t-215 -331q-8 -7 -66 -55t-71 -56h393v-209z" />
    <glyph glyph-name="threesuperior" unicode="&#xb3;" horiz-adv-x="843" 
d="M356 745q156 0 156 97q0 92 -160 92q-74 0 -149 -10v198q144 23 258 8q35 48 35 90q0 92 -125 91q-90 0 -234 -51l-35 206q160 54 306 54t241 -69q94 -69 94 -185t-92 -215q117 -80 117 -215q0 -136 -113 -218t-273 -82t-300 35l27 203q160 -29 247 -29z" />
    <glyph glyph-name="acute" unicode="&#xb4;" horiz-adv-x="1017" 
d="M791 1386l-406 -280l-125 174l381 305z" />
    <glyph glyph-name="paragraph" unicode="&#xb6;" horiz-adv-x="1409" 
d="M983 35v1075h-106v-1110h-291v428q-240 8 -390 128t-149 349q0 229 151 348t392 119h684v-1302q0 -178 -82 -320t-307 -264l-129 211q121 76 174 156t53 182z" />
    <glyph glyph-name="periodcentered" unicode="&#xb7;" horiz-adv-x="632" 
d="M500 393h-367v326h367v-326z" />
    <glyph glyph-name="cedilla" unicode="&#xb8;" horiz-adv-x="874" 
d="M461 -315q0 41 -80 41q-31 0 -59 -11l-82 99l127 186h237l-117 -135q193 -20 193 -182q0 -97 -74 -155t-227 -58q-65 0 -139 8v160q33 -8 90 -9q131 0 131 56z" />
    <glyph glyph-name="onesuperior" unicode="&#xb9;" horiz-adv-x="827" 
d="M731 561h-635v209h213v520h-178v211h422v-731h178v-209z" />
    <glyph glyph-name="ordmasculine" unicode="&#xba;" horiz-adv-x="811" 
d="M406 1227q-76 0 -109 -44q-33 -45 -33 -139t33 -138t109 -44t108 44t33 138q-1 94 -33 138t-108 45zM406 700q-168 0 -250 92t-82 252t82 252t250 92t250 -92t81 -252q1 -160 -81 -252t-250 -92z" />
    <glyph glyph-name="guillemotright" unicode="&#xbb;" horiz-adv-x="1003" 
d="M678 53l-207 123l227 371l-223 371l209 120l281 -489zM283 66l-215 122l225 359l-223 358l213 121l280 -477z" />
    <glyph glyph-name="onequarter" unicode="&#xbc;" horiz-adv-x="2146" 
d="M717 561h-633v209h211v520h-176v211h420v-731h178v-209zM727 -227l-209 92l787 1757l208 -88zM1958 0h-246v201h-467v172l217 577h256l-207 -542h201v135l21 194h225v-329h125v-207h-125v-201z" />
    <glyph glyph-name="onehalf" unicode="&#xbd;" horiz-adv-x="2125" 
d="M709 561h-633v209h211v520h-176v211h419v-731h179v-209zM2054 0h-708l-27 176q25 16 135 110t125 103q172 139 174 244q0 106 -141 106q-115 0 -250 -61l-33 219q152 61 317 61t266 -78t101 -228q0 -152 -215 -333q-6 -5 -38 -31t-60 -48t-39 -31h393v-209zM719 -227
l-209 92l786 1757l209 -88z" />
    <glyph glyph-name="threequarters" unicode="&#xbe;" horiz-adv-x="2107" 
d="M684 -227l-209 92l787 1757l208 -88zM1915 0h-246v201h-467v172l217 577h256l-207 -542h201v135l21 194h225v-329h125v-207h-125v-201zM352 745q156 0 156 97q0 92 -160 92q-74 0 -149 -10v198q147 25 256 8q37 48 37 90q0 90 -125 91q-90 0 -234 -51l-35 206
q164 54 308 54t238 -69q93 -69 93 -183t-90 -217q115 -78 115 -214q0 -137 -113 -219t-271 -82t-300 35l24 203q162 -29 250 -29z" />
    <glyph glyph-name="questiondown" unicode="&#xbf;" horiz-adv-x="962" 
d="M424 1051h330v-281l-330 72v209zM381 26q0 -54 44 -86t126 -32q143 0 328 69l24 -249q-203 -74 -407 -74t-307 106t-103 254q5 78 21 113t26 55t33 45t35 38t43 38t43 34t50 36q39 27 71 51q81 61 80 140q0 79 -27 159l276 -72q17 -61 17 -133t-58 -152
q-58 -79 -129 -125q-70 -45 -128 -103t-58 -112z" />
    <glyph glyph-name="Agrave" unicode="&#xc0;" horiz-adv-x="1353" 
d="M659 1479l-405 282l147 199l381 -305zM844 489l-168 512l-166 -512h334zM1343 0h-335l-78 229h-508l-76 -229h-336l490 1372h352z" />
    <glyph glyph-name="Aacute" unicode="&#xc1;" horiz-adv-x="1353" 
d="M1053 1763l-406 -280l-125 174l381 305zM844 489l-168 512l-166 -512h334zM1343 0h-335l-78 229h-508l-76 -229h-336l490 1372h352z" />
    <glyph glyph-name="Acircumflex" unicode="&#xc2;" horiz-adv-x="1353" 
d="M938 1473l-260 202l-256 -202l-141 180l397 293l395 -293zM844 489l-168 512l-166 -512h334zM1343 0h-335l-78 229h-508l-76 -229h-336l490 1372h352z" />
    <glyph glyph-name="Atilde" unicode="&#xc3;" horiz-adv-x="1353" 
d="M860 1487q-53 0 -151 29t-156 28q-117 0 -242 -82l-37 242q131 84 252 84q60 0 158 -29t150 -28q108 -1 208 79l37 -237q-106 -86 -219 -86zM844 489l-168 512l-166 -512h334zM1343 0h-335l-78 229h-508l-76 -229h-336l490 1372h352z" />
    <glyph glyph-name="Adieresis" unicode="&#xc4;" horiz-adv-x="1353" 
d="M1051 1505h-303v264h303v-264zM604 1505h-301v264h301v-264zM844 489l-168 512l-166 -512h334zM1343 0h-335l-78 229h-508l-76 -229h-336l490 1372h352z" />
    <glyph glyph-name="Aring" unicode="&#xc5;" horiz-adv-x="1353" 
d="M677 1640q30 0 50 20q21 20 21 55q0 34 -20 54q-20 21 -51 21q-30 0 -50 -20q-21 -20 -21 -55t20 -55t51 -20zM678 1952q110 0 186 -67q74 -67 74 -171t-75 -169t-187 -65t-184 66q-74 64 -74 168t75 171t185 67zM844 489l-168 512l-166 -512h334zM1343 0h-335l-78 229
h-508l-76 -229h-336l490 1372h352z" />
    <glyph glyph-name="AE" unicode="&#xc6;" horiz-adv-x="1935" 
d="M887 496v612h-51l-285 -612h336zM1204 1108v-277h533v-258h-533v-311h621l24 -262h-962v236h-443q-90 -201 -104 -236h-346l643 1372h1218q-18 -172 -24 -264h-627z" />
    <glyph glyph-name="Ccedilla" unicode="&#xc7;" horiz-adv-x="1318" 
d="M729 -315q0 41 -80 41q-31 0 -59 -11l-82 99l117 172q-545 61 -545 712q0 332 200 513t533 182q180 0 395 -52l-24 -497l-281 2l10 276q-57 10 -139 11q-166 -1 -268 -107t-102 -340t100 -340q102 -106 282 -106t392 84l69 -256q-180 -70 -391 -86l-100 -117
q193 -20 192 -182q0 -97 -74 -155t-227 -58q-65 0 -139 8v160q33 -8 90 -9q131 0 131 56z" />
    <glyph glyph-name="Egrave" unicode="&#xc8;" horiz-adv-x="1210" 
d="M743 1477l-405 282l147 199l381 -305zM164 0v1372h966l-26 -264h-625v-277h533v-258h-533v-311h621l26 -262h-962z" />
    <glyph glyph-name="Eacute" unicode="&#xc9;" horiz-adv-x="1210" 
d="M967 1757l-406 -280l-125 174l381 305zM164 0v1372h966l-26 -264h-625v-277h533v-258h-533v-311h621l26 -262h-962z" />
    <glyph glyph-name="Ecircumflex" unicode="&#xca;" horiz-adv-x="1210" 
d="M895 1473l-260 202l-256 -202l-141 180l397 293l395 -293zM164 0v1372h966l-26 -264h-625v-277h533v-258h-533v-311h621l26 -262h-962z" />
    <glyph glyph-name="Edieresis" unicode="&#xcb;" horiz-adv-x="1210" 
d="M1014 1505h-303v264h303v-264zM567 1505h-301v264h301v-264zM164 0v1372h966l-26 -264h-625v-277h533v-258h-533v-311h621l26 -262h-962z" />
    <glyph glyph-name="Igrave" unicode="&#xcc;" horiz-adv-x="960" 
d="M485 1477l-405 282l147 199l381 -305zM874 0h-788v254h236v862h-236v256h788v-256h-237v-862h237v-254z" />
    <glyph glyph-name="Iacute" unicode="&#xcd;" horiz-adv-x="960" 
d="M887 1757l-406 -280l-125 174l381 305zM874 0h-788v254h236v862h-236v256h788v-256h-237v-862h237v-254z" />
    <glyph glyph-name="Icircumflex" unicode="&#xce;" horiz-adv-x="960" 
d="M743 1477l-260 202l-256 -202l-141 180l397 293l396 -293zM874 0h-788v254h236v862h-236v256h788v-256h-237v-862h237v-254z" />
    <glyph glyph-name="Idieresis" unicode="&#xcf;" horiz-adv-x="960" 
d="M856 1505h-303v264h303v-264zM410 1505h-301v264h301v-264zM874 0h-788v254h236v862h-236v256h788v-256h-237v-862h237v-254z" />
    <glyph glyph-name="Eth" unicode="&#xd0;" horiz-adv-x="1505" 
d="M717 264q381 0 381 423t-381 423h-174v-295h245v-262h-245v-289h174zM1423 686q0 -354 -189 -520t-515 -166h-492v553h-178v262h178v557h492q328 0 516 -166t188 -520z" />
    <glyph glyph-name="Ntilde" unicode="&#xd1;" horiz-adv-x="1579" 
d="M973 1475q-51 1 -149 29t-158 28q-117 0 -242 -82l-37 242q131 84 252 84q59 0 157 -29t150 -29q109 0 209 80l37 -237q-106 -86 -219 -86zM1415 0h-358l-467 682l-96 223h-17v-905h-313v1372h354l451 -690l118 -248h15v938h313v-1372z" />
    <glyph glyph-name="Ograve" unicode="&#xd2;" horiz-adv-x="1507" 
d="M758 1483l-406 282l148 199l381 -305zM754 -25q-316 1 -496 193t-180 519t180 518t496 191t495 -192q181 -192 181 -518t-180 -518t-496 -193zM403 686q-1 -217 95 -334q96 -116 256 -116t254 116t94 334q0 217 -94 334t-254 117t-256 -117t-95 -334z" />
    <glyph glyph-name="Oacute" unicode="&#xd3;" horiz-adv-x="1507" 
d="M1171 1757l-405 -280l-125 174l381 305zM754 -25q-316 1 -496 193t-180 519t180 518t496 191t495 -192q181 -192 181 -518t-180 -518t-496 -193zM403 686q-1 -217 95 -334q96 -116 256 -116t254 116t94 334q0 217 -94 334t-254 117t-256 -117t-95 -334z" />
    <glyph glyph-name="Ocircumflex" unicode="&#xd4;" horiz-adv-x="1507" 
d="M1014 1483l-260 203l-256 -203l-142 180l398 293l395 -293zM754 -25q-316 1 -496 193t-180 519t180 518t496 191t495 -192q181 -192 181 -518t-180 -518t-496 -193zM403 686q-1 -217 95 -334q96 -116 256 -116t254 116t94 334q0 217 -94 334t-254 117t-256 -117t-95 -334
z" />
    <glyph glyph-name="Otilde" unicode="&#xd5;" horiz-adv-x="1507" 
d="M936 1503q-52 0 -150 29t-157 29q-117 0 -242 -82l-37 241q131 84 252 84q60 0 158 -28t149 -29q109 0 209 80l37 -238q-106 -86 -219 -86zM754 -25q-316 1 -496 193t-180 519t180 518t496 191t495 -192q181 -192 181 -518t-180 -518t-496 -193zM403 686q-1 -217 95 -334
q96 -116 256 -116t254 116t94 334q0 217 -94 334t-254 117t-256 -117t-95 -334z" />
    <glyph glyph-name="Odieresis" unicode="&#xd6;" horiz-adv-x="1507" 
d="M1126 1507h-303v265h303v-265zM680 1507h-301v265h301v-265zM754 -25q-316 1 -496 193t-180 519t180 518t496 191t495 -192q181 -192 181 -518t-180 -518t-496 -193zM403 686q-1 -217 95 -334q96 -116 256 -116t254 116t94 334q0 217 -94 334t-254 117t-256 -117
t-95 -334z" />
    <glyph glyph-name="multiply" unicode="&#xd7;" 
d="M903 70l-285 278l-284 -278l-180 182l286 276l-282 275l182 184l281 -276l278 278l184 -188l-284 -271l286 -278z" />
    <glyph glyph-name="Oslash" unicode="&#xd8;" horiz-adv-x="1507" 
d="M403 686q0 -158 50 -262l378 704q-49 8 -77 9q-160 0 -256 -117t-95 -334zM1102 686q0 158 -55 272l-383 -712q35 -10 90 -10q160 0 254 116t94 334zM78 669q0 345 180 536t496 192q117 0 209 -27l94 174l239 -121l-94 -176q227 -193 228 -561q0 -326 -180 -518
t-496 -193q-115 0 -219 29l-117 -221l-244 121l121 227q-217 193 -217 538z" />
    <glyph glyph-name="Ugrave" unicode="&#xd9;" horiz-adv-x="1441" 
d="M727 1483l-405 282l147 199l381 -305zM1296 483q0 -235 -160 -371t-416 -136q-255 0 -415 136t-160 371v889h316v-887q0 -119 76 -182q75 -63 185 -63t184 63t75 182v887h315v-889z" />
    <glyph glyph-name="Uacute" unicode="&#xda;" horiz-adv-x="1441" 
d="M1102 1763l-406 -280l-125 174l381 305zM1296 483q0 -235 -160 -371t-416 -136q-255 0 -415 136t-160 371v889h316v-887q0 -119 76 -182q75 -63 185 -63t184 63t75 182v887h315v-889z" />
    <glyph glyph-name="Ucircumflex" unicode="&#xdb;" horiz-adv-x="1441" 
d="M981 1483l-260 203l-256 -203l-141 180l397 293l395 -293zM1296 483q0 -235 -160 -371t-416 -136q-255 0 -415 136t-160 371v889h316v-887q0 -119 76 -182q75 -63 185 -63t184 63t75 182v887h315v-889z" />
    <glyph glyph-name="Udieresis" unicode="&#xdc;" horiz-adv-x="1441" 
d="M1094 1507h-303v265h303v-265zM647 1507h-301v265h301v-265zM1296 483q0 -235 -160 -371t-416 -136q-255 0 -415 136t-160 371v889h316v-887q0 -119 76 -182q75 -63 185 -63t184 63t75 182v887h315v-889z" />
    <glyph glyph-name="Yacute" unicode="&#xdd;" horiz-adv-x="1245" 
d="M887 1796l-406 -280l-125 174l381 305zM782 0h-315v494l-463 878h361l262 -569l262 569h352l-459 -876v-496z" />
    <glyph glyph-name="Thorn" unicode="&#xde;" horiz-adv-x="1179" 
d="M479 532h135q199 0 199 204t-199 204h-135v-408zM479 0h-315v1481h307v-277h141q236 0 381 -121t145 -343t-146 -346t-380 -124h-133v-270z" />
    <glyph glyph-name="germandbls" unicode="&#xdf;" horiz-adv-x="1282" 
d="M836 737q0 -37 42 -67t100 -54t118 -56t101 -90q42 -58 42 -140q0 -174 -115 -264q-116 -90 -276 -90t-326 38l27 250q145 -35 231 -35q133 0 133 74q0 33 -42 55t-100 41q-57 19 -117 51t-102 100t-42 152q0 141 120 239t120 179q0 55 -36 93t-106 38t-128 -65
q-56 -66 -56 -176v-1528h-293v1532q0 231 144 361t339 130q195 -1 327 -113t132 -282q0 -76 -37 -136t-82 -92q-46 -32 -82 -70t-36 -75z" />
    <glyph glyph-name="agrave" unicode="&#xe0;" horiz-adv-x="1028" 
d="M522 1106l-405 283l147 198l381 -305zM915 612v-606l-251 -26h-21v118h-8q-147 -119 -309 -116q-109 2 -188 76t-79 212q0 192 175 255q71 27 208 48l176 23v37q0 69 -32 99t-113 30q-154 0 -330 -66l-22 246q174 66 381 66t310 -94t103 -302zM365 299q1 -43 25 -67
t65 -23q73 0 163 59v146l-149 -21q-104 -16 -104 -94z" />
    <glyph glyph-name="aacute" unicode="&#xe1;" horiz-adv-x="1028" 
d="M795 1386l-406 -280l-125 174l381 305zM915 612v-606l-251 -26h-21v118h-8q-147 -119 -309 -116q-109 2 -188 76t-79 212q0 192 175 255q71 27 208 48l176 23v37q0 69 -32 99t-113 30q-154 0 -330 -66l-22 246q174 66 381 66t310 -94t103 -302zM365 299q1 -43 25 -67
t65 -23q73 0 163 59v146l-149 -21q-104 -16 -104 -94z" />
    <glyph glyph-name="acircumflex" unicode="&#xe2;" horiz-adv-x="1028" 
d="M748 1106l-261 203l-256 -203l-141 180l397 293l396 -293zM915 612v-606l-251 -26h-21v118h-8q-147 -119 -309 -116q-109 2 -188 76t-79 212q0 192 175 255q71 27 208 48l176 23v37q0 69 -32 99t-113 30q-154 0 -330 -66l-22 246q174 66 381 66t310 -94t103 -302z
M365 299q1 -43 25 -67t65 -23q73 0 163 59v146l-149 -21q-104 -16 -104 -94z" />
    <glyph glyph-name="atilde" unicode="&#xe3;" horiz-adv-x="1028" 
d="M713 1112q-53 0 -151 29t-156 28q-117 0 -242 -82l-37 242q131 84 252 84q59 0 157 -29t150 -28q109 0 209 80l37 -238q-106 -86 -219 -86zM915 612v-606l-251 -26h-21v118h-8q-147 -119 -309 -116q-109 2 -188 76t-79 212q0 192 175 255q71 27 208 48l176 23v37
q0 69 -32 99t-113 30q-154 0 -330 -66l-22 246q174 66 381 66t310 -94t103 -302zM365 299q1 -43 25 -67t65 -23q73 0 163 59v146l-149 -21q-104 -16 -104 -94z" />
    <glyph glyph-name="adieresis" unicode="&#xe4;" horiz-adv-x="1028" 
d="M903 1108h-303v264h303v-264zM457 1108h-301v264h301v-264zM915 612v-606l-251 -26h-21v118h-8q-147 -119 -309 -116q-109 2 -188 76t-79 212q0 192 175 255q71 27 208 48l176 23v37q0 69 -32 99t-113 30q-154 0 -330 -66l-22 246q174 66 381 66t310 -94t103 -302z
M365 299q1 -43 25 -67t65 -23q73 0 163 59v146l-149 -21q-104 -16 -104 -94z" />
    <glyph glyph-name="aring" unicode="&#xe5;" horiz-adv-x="1028" 
d="M527 1264q30 0 51 20q20 20 20 54t-20 54t-50 21q-30 0 -51 -20q-20 -21 -20 -55t20 -54t50 -20zM528 1575q110 0 186 -67q74 -67 74 -171t-74 -169q-74 -64 -187 -64q-111 0 -185 64t-74 169q0 104 75 171t185 67zM915 612v-606l-251 -26h-21v118h-8
q-147 -119 -309 -116q-109 2 -188 76t-79 212q0 192 175 255q71 27 208 48l176 23v37q0 69 -32 99t-113 30q-154 0 -330 -66l-22 246q174 66 381 66t310 -94t103 -302zM365 299q1 -43 25 -67t65 -23q73 0 163 59v146l-149 -21q-104 -16 -104 -94z" />
    <glyph glyph-name="ae" unicode="&#xe6;" horiz-adv-x="1589" 
d="M367 302q1 -96 103 -96q56 0 148 60v146q-61 0 -121 -12q-61 -12 -80 -24q-50 -28 -50 -74zM1083 782q-147 0 -168 -168h302q-1 168 -134 168zM1180 229q133 0 303 62v-254q-203 -61 -379 -62q-262 0 -391 138q-115 -78 -193 -105q-78 -26 -188 -26t-193 74
q-82 74 -82 218q0 145 108 212q85 52 214 75l239 31v39q0 81 -34 105t-152 24q-162 -14 -291 -64q-6 82 -22 246q183 66 379 66t299 -97q119 96 286 97q234 0 340 -138q95 -122 95 -292q-1 -82 -11 -148h-594q2 -119 68 -160t199 -41z" />
    <glyph glyph-name="ccedilla" unicode="&#xe7;" horiz-adv-x="980" 
d="M565 -315q0 41 -80 41q-31 0 -59 -11l-82 99l115 172q-391 55 -391 508q0 240 141 376t383 138q158 0 301 -50l-21 -258q-156 53 -262 54q-236 0 -236 -261t249 -262q129 0 280 60v-260q-98 -37 -211 -49l-100 -117q193 -20 192 -182q0 -96 -73 -155q-74 -58 -228 -58
q-65 0 -139 8v160q33 -8 90 -9q131 0 131 56z" />
    <glyph glyph-name="egrave" unicode="&#xe8;" horiz-adv-x="1060" 
d="M618 1106l-405 283l147 198l381 -305zM557 782q-147 0 -168 -168h299v15q0 69 -32 111t-99 42zM654 229q134 0 300 62v-254q-201 -61 -376 -62q-510 0 -510 514q0 219 128 369t362 150t339 -138q96 -124 94 -292q0 -82 -10 -148h-594q2 -119 68 -160q65 -41 199 -41z" />
    <glyph glyph-name="eacute" unicode="&#xe9;" horiz-adv-x="1060" 
d="M938 1386l-406 -280l-124 174l380 305zM557 782q-147 0 -168 -168h299v15q0 69 -32 111t-99 42zM654 229q134 0 300 62v-254q-201 -61 -376 -62q-510 0 -510 514q0 219 128 369t362 150t339 -138q96 -124 94 -292q0 -82 -10 -148h-594q2 -119 68 -160q65 -41 199 -41z
" />
    <glyph glyph-name="ecircumflex" unicode="&#xea;" horiz-adv-x="1060" 
d="M815 1106l-260 203l-256 -203l-141 180l397 293l395 -293zM557 782q-147 0 -168 -168h299v15q0 69 -32 111t-99 42zM654 229q134 0 300 62v-254q-201 -61 -376 -62q-510 0 -510 514q0 219 128 369t362 150t339 -138q96 -124 94 -292q0 -82 -10 -148h-594q2 -119 68 -160
q65 -41 199 -41z" />
    <glyph glyph-name="edieresis" unicode="&#xeb;" horiz-adv-x="1060" 
d="M932 1112h-303v264h303v-264zM485 1112h-301v264h301v-264zM557 782q-147 0 -168 -168h299v15q0 69 -32 111t-99 42zM654 229q134 0 300 62v-254q-201 -61 -376 -62q-510 0 -510 514q0 219 128 369t362 150t339 -138q96 -124 94 -292q0 -82 -10 -148h-594q2 -119 68 -160
q65 -41 199 -41z" />
    <glyph glyph-name="igrave" unicode="&#xec;" horiz-adv-x="555" 
d="M272 1106l-405 283l147 198l381 -305zM424 0h-297v973l244 28h53v-1001z" />
    <glyph glyph-name="iacute" unicode="&#xed;" horiz-adv-x="555" 
d="M690 1386l-405 -280l-125 174l381 305zM424 0h-297v973l244 28h53v-1001z" />
    <glyph glyph-name="icircumflex" unicode="&#xee;" horiz-adv-x="555" 
d="M539 1106l-260 203l-256 -203l-142 180l398 293l395 -293zM424 0h-297v973l244 28h53v-1001z" />
    <glyph glyph-name="idieresis" unicode="&#xef;" horiz-adv-x="555" 
d="M651 1112h-303v264h303v-264zM205 1112h-301v264h301v-264zM424 0h-297v973l244 28h53v-1001z" />
    <glyph glyph-name="eth" unicode="&#xf0;" horiz-adv-x="1198" 
d="M813 618v33q-115 43 -216 43t-163 -57t-61 -178q0 -121 55 -177q54 -56 152 -56t166 98q68 99 67 294zM68 477q0 225 142 352t357 127q115 0 240 -45q-14 129 -92 228l-92 -90l-168 161l77 70q-92 49 -217 84l84 254q193 -51 344 -148l146 144l174 -164l-139 -131
q197 -225 196 -631q0 -342 -152 -526t-388 -184t-374 136q-138 138 -138 363z" />
    <glyph glyph-name="ntilde" unicode="&#xf1;" horiz-adv-x="1183" 
d="M780 1112q-51 0 -149 29t-158 28q-117 0 -242 -82l-36 242q131 84 251 84q60 0 158 -29t150 -28q109 0 209 80l36 -238q-106 -86 -219 -86zM1065 0h-297v600q0 141 -113 141q-82 0 -231 -71v-670h-297v973l219 28h37l18 -114q201 121 340 121t231 -86t93 -275v-647z" />
    <glyph glyph-name="ograve" unicode="&#xf2;" horiz-adv-x="1146" 
d="M608 1106l-405 283l147 198l381 -305zM774 492q0 266 -200 266t-201 -265q0 -265 200 -266q201 -1 201 265zM1079 494q0 -238 -128 -378t-378 -140q-249 0 -377 138q-128 140 -128 379t128 377t378 138t377 -138q128 -138 128 -376z" />
    <glyph glyph-name="oacute" unicode="&#xf3;" horiz-adv-x="1146" 
d="M946 1386l-405 -280l-125 174l381 305zM774 492q0 266 -200 266t-201 -265q0 -265 200 -266q201 -1 201 265zM1079 494q0 -238 -128 -378t-378 -140q-249 0 -377 138q-128 140 -128 379t128 377t378 138t377 -138q128 -138 128 -376z" />
    <glyph glyph-name="ocircumflex" unicode="&#xf4;" horiz-adv-x="1146" 
d="M834 1106l-261 203l-256 -203l-141 180l397 293l396 -293zM774 492q0 266 -200 266t-201 -265q0 -265 200 -266q201 -1 201 265zM1079 494q0 -238 -128 -378t-378 -140q-249 0 -377 138q-128 140 -128 379t128 377t378 138t377 -138q128 -138 128 -376z" />
    <glyph glyph-name="otilde" unicode="&#xf5;" horiz-adv-x="1146" 
d="M758 1112q-54 0 -152 29t-155 28q-117 0 -242 -82l-37 242q131 84 252 84q60 0 158 -29t149 -28q109 0 209 80l37 -238q-106 -86 -219 -86zM774 492q0 266 -200 266t-201 -265q0 -265 200 -266q201 -1 201 265zM1079 494q0 -238 -128 -378t-378 -140q-249 0 -377 138
q-128 140 -128 379t128 377t378 138t377 -138q128 -138 128 -376z" />
    <glyph glyph-name="odieresis" unicode="&#xf6;" horiz-adv-x="1146" 
d="M946 1110h-303v264h303v-264zM500 1110h-301v264h301v-264zM774 492q0 266 -200 266t-201 -265q0 -265 200 -266q201 -1 201 265zM1079 494q0 -238 -128 -378t-378 -140q-249 0 -377 138q-128 140 -128 379t128 377t378 138t377 -138q128 -138 128 -376z" />
    <glyph glyph-name="divide" unicode="&#xf7;" 
d="M764 776h-303v271h303v-271zM1110 442h-993v242h993v-242zM764 80h-303v270h303v-270z" />
    <glyph glyph-name="oslash" unicode="&#xf8;" horiz-adv-x="1165" 
d="M782 494q0 63 -14 124l-201 -391h15q200 1 200 267zM381 494q0 -96 25 -158l212 420q-12 2 -36 2q-201 0 -201 -264zM76 494q0 238 128 376t378 138q76 0 137 -13l102 197l215 -109l-100 -192q152 -139 152 -387t-129 -388q-128 -140 -377 -141q-59 0 -121 11l-113 -211
l-213 108l111 193q-170 137 -170 418z" />
    <glyph glyph-name="ugrave" unicode="&#xf9;" horiz-adv-x="1175" 
d="M600 1106l-405 283l147 198l381 -305zM435 -25q-140 0 -231 85t-91 274v639l247 28h50v-620q0 -141 118 -141q96 0 226 79v654l245 28h52v-974l-238 -52h-37v121q-201 -121 -341 -121z" />
    <glyph glyph-name="uacute" unicode="&#xfa;" horiz-adv-x="1175" 
d="M973 1386l-406 -280l-125 174l381 305zM435 -25q-140 0 -231 85t-91 274v639l247 28h50v-620q0 -141 118 -141q96 0 226 79v654l245 28h52v-974l-238 -52h-37v121q-201 -121 -341 -121z" />
    <glyph glyph-name="ucircumflex" unicode="&#xfb;" horiz-adv-x="1175" 
d="M846 1106l-260 203l-256 -203l-142 180l398 293l395 -293zM435 -25q-140 0 -231 85t-91 274v639l247 28h50v-620q0 -141 118 -141q96 0 226 79v654l245 28h52v-974l-238 -52h-37v121q-201 -121 -341 -121z" />
    <glyph glyph-name="udieresis" unicode="&#xfc;" horiz-adv-x="1175" 
d="M958 1112h-303v264h303v-264zM512 1112h-301v264h301v-264zM435 -25q-140 0 -231 85t-91 274v639l247 28h50v-620q0 -141 118 -141q96 0 226 79v654l245 28h52v-974l-238 -52h-37v121q-201 -121 -341 -121z" />
    <glyph glyph-name="yacute" unicode="&#xfd;" horiz-adv-x="1058" 
d="M795 1386l-406 -280l-125 174l381 305zM307 -539q-57 61 -164 179q90 70 144 123q53 54 88 124l47 97h-66l-340 997h320l182 -678h10l209 678h307l-348 -1004q-127 -360 -389 -516z" />
    <glyph glyph-name="thorn" unicode="&#xfe;" horiz-adv-x="1181" 
d="M807 504q0 133 -45 188q-46 56 -138 56t-196 -78v-432q80 -14 152 -15q227 0 227 281zM131 -537v2014l258 28h39v-592q141 95 301 95q159 0 271 -126t112 -371t-133 -388t-356 -143q-88 0 -195 20v-489l-260 -48h-37z" />
    <glyph glyph-name="ydieresis" unicode="&#xff;" horiz-adv-x="1058" 
d="M903 1108h-303v264h303v-264zM457 1108h-301v264h301v-264zM307 -539q-57 61 -164 179q90 70 144 123q53 54 88 124l47 97h-66l-340 997h320l182 -678h10l209 678h307l-348 -1004q-127 -360 -389 -516z" />
    <glyph glyph-name="dotlessi" unicode="&#x131;" horiz-adv-x="555" 
d="M424 0h-297v973l244 28h53v-1001z" />
    <glyph glyph-name="Lslash" unicode="&#x141;" horiz-adv-x="1122" 
d="M242 0v442l-117 -63l-123 235l240 131v627h317v-450l258 143l131 -231l-389 -218v-352h528l21 -264h-866z" />
    <glyph glyph-name="lslash" unicode="&#x142;" horiz-adv-x="751" 
d="M512 1493v-483l147 86l117 -205l-264 -156v-735h-297v563l-109 -63l-108 211l217 125v626l240 31h57z" />
    <glyph glyph-name="OE" unicode="&#x152;" horiz-adv-x="2021" 
d="M403 687q1 -216 97 -334q96 -117 248 -117t225 43v806q-87 51 -231 51t-242 -116q-98 -117 -97 -333zM78 686q0 328 179 519t499 192q119 0 217 -25h969l-29 -262h-625v-276h533v-261h-533v-309h621l26 -264h-962q-98 -25 -217 -25q-318 -1 -498 191t-180 520z" />
    <glyph glyph-name="oe" unicode="&#x153;" horiz-adv-x="1759" 
d="M1253 782q-147 0 -168 -168h301q0 168 -133 168zM569 756q-199 0 -199 -265t199 -266q201 0 201 267q0 132 -48 198t-153 66zM1350 229q133 0 303 62v-254q-199 -61 -379 -62q-238 0 -359 113q-129 -113 -361 -113q-232 -1 -360 139q-126 140 -126 379t127 377t364 138
t365 -121q130 121 342 121t316 -125t106 -305q-1 -70 -9 -148h-596q2 -119 68 -160t199 -41z" />
    <glyph glyph-name="Scaron" unicode="&#x160;" horiz-adv-x="1140" 
d="M971 1776l-396 -291l-397 291l137 182l260 -203l256 203zM662 1130q-242 0 -242 -130q0 -62 68 -105t162 -79q96 -36 192 -81t164 -128t67 -197q0 -220 -159 -326t-422 -107q-195 0 -414 41l33 273q209 -53 372 -53q266 0 267 133q0 84 -129 136q-57 23 -128 47t-141 58
t-127 78q-57 45 -93 120t-36 173q0 201 155 306t402 106q182 0 359 -49l-25 -279q-203 63 -325 63z" />
    <glyph glyph-name="scaron" unicode="&#x161;" horiz-adv-x="927" 
d="M866 1366l-395 -291l-397 291l137 182l260 -202l256 202zM496 1008q190 0 311 -37v-260h-21q-137 45 -270 45t-133 -72q0 -51 127 -71t227 -73q53 -28 89 -90t36 -151q0 -324 -479 -324q-152 0 -289 31v256h17q168 -35 282 -35q164 0 164 68q0 35 -49 54t-120 33
q-72 14 -142 42q-70 26 -119 96t-49 178q0 137 113 224q115 86 305 86z" />
    <glyph glyph-name="Ydieresis" unicode="&#x178;" horiz-adv-x="1245" 
d="M995 1505h-303v264h303v-264zM549 1505h-301v264h301v-264zM782 0h-315v494l-463 878h361l262 -569l262 569h352l-459 -876v-496z" />
    <glyph glyph-name="Zcaron" unicode="&#x17d;" horiz-adv-x="1247" 
d="M1016 1776l-395 -291l-398 291l137 182l261 -203l256 203zM104 1108v264h1039l10 -244l-688 -866h686l16 -262h-1065l-30 240l684 868h-652z" />
    <glyph glyph-name="zcaron" unicode="&#x17e;" horiz-adv-x="1038" 
d="M920 1366l-396 -291l-397 291l137 182l260 -202l256 202zM96 727v254h836l20 -225l-510 -504h506l17 -252h-877l-14 223l504 504h-482z" />
    <glyph glyph-name="florin" unicode="&#x192;" horiz-adv-x="976" 
d="M112 -195q90 -1 140 59t51 218v532h-233v250h233v148q0 310 159 424q143 102 372 102q119 -8 206 -31l-32 -254q-135 31 -225 31q-91 0 -139 -60t-48 -218v-136h311v-256h-311v-503q0 -330 -156 -451q-140 -109 -379 -109q-110 8 -204 33q25 168 34 254q131 -33 221 -33z
" />
    <glyph glyph-name="circumflex" unicode="&#x2c6;" horiz-adv-x="1140" 
d="M831 1106l-260 203l-256 -203l-141 180l397 293l396 -293z" />
    <glyph glyph-name="caron" unicode="&#x2c7;" horiz-adv-x="1140" 
d="M967 1366l-396 -291l-397 291l137 182l260 -202l256 202z" />
    <glyph glyph-name="breve" unicode="&#x2d8;" horiz-adv-x="1075" 
d="M536 1126q-265 0 -407 254l203 136q82 -166 204 -166t205 166l201 -136q-141 -254 -406 -254z" />
    <glyph glyph-name="dotaccent" unicode="&#x2d9;" horiz-adv-x="669" 
d="M494 1098h-318v274h318v-274z" />
    <glyph glyph-name="ring" unicode="&#x2da;" horiz-adv-x="851" 
d="M425 1264q30 0 50 20q21 20 21 54t-20 54t-51 21q-30 0 -50 -20q-21 -21 -21 -55t20 -54t51 -20zM426 1575q110 0 186 -67q74 -67 74 -171t-75 -169q-75 -64 -187 -64t-184 64q-74 64 -74 169q0 104 75 171t185 67z" />
    <glyph glyph-name="ogonek" unicode="&#x2db;" horiz-adv-x="929" 
d="M481 -283q0 -63 80 -63q47 0 141 20l-36 -202q-72 -14 -164 -15q-268 0 -269 232q0 69 40 159t96 162h268q-156 -195 -156 -293z" />
    <glyph glyph-name="tilde" unicode="&#x2dc;" horiz-adv-x="1153" 
d="M770 1112q-54 0 -152 29t-155 28q-117 0 -242 -82l-37 242q131 84 252 84q60 0 158 -29t149 -28q109 0 209 80l37 -238q-106 -86 -219 -86z" />
    <glyph glyph-name="hungarumlaut" unicode="&#x2dd;" horiz-adv-x="1458" 
d="M1253 1389l-407 -283l-119 170l381 307zM721 1389l-408 -283l-118 170l378 307z" />
    <glyph glyph-name="Delta" unicode="&#x394;" horiz-adv-x="1544" 
d="M1069 258l-295 760l-299 -760h594zM1470 0h-1396l549 1372h301z" />
    <glyph glyph-name="Delta" unicode="&#x2206;" horiz-adv-x="1544" 
d="M1069 258l-295 760l-299 -760h594zM1470 0h-1396l549 1372h301z" />
    <glyph glyph-name="Omega" unicode="&#x3a9;" horiz-adv-x="1544" 
d="M1143 766q-1 172 -105 272t-267 101q-163 -1 -267 -101t-105 -272q0 -332 322 -500v-266h-635v260h293q-115 76 -199 208t-84 298q0 274 190 452t486 177q295 0 486 -177t192 -452q0 -172 -83 -302t-202 -204h291v-260h-635v266q322 168 322 500z" />
    <glyph glyph-name="Omega" unicode="&#x2126;" horiz-adv-x="1544" 
d="M1143 766q-1 172 -105 272t-267 101q-163 -1 -267 -101t-105 -272q0 -332 322 -500v-266h-635v260h293q-115 76 -199 208t-84 298q0 274 190 452t486 177q295 0 486 -177t192 -452q0 -172 -83 -302t-202 -204h291v-260h-635v266q322 168 322 500z" />
    <glyph glyph-name="mu" unicode="&#x3bc;" horiz-adv-x="1163" 
d="M430 -25q-20 0 -31 2v-432l-247 -20h-48v1448l248 28h49v-620q0 -141 119 -141q96 0 225 79v654l248 28h51v-974l-239 -52h-37v121q-201 -121 -338 -121z" />
    <glyph glyph-name="pi" unicode="&#x3c0;" horiz-adv-x="1527" 
d="M610 0h-299v741h-248v240h1354v-240h-282v-403q0 -111 110 -111q55 0 168 33q4 -80 17 -240q-142 -45 -286 -45t-226 66t-82 242v458h-226v-741z" />
    <glyph glyph-name="endash" unicode="&#x2013;" horiz-adv-x="1126" 
d="M1024 401h-922v236h922v-236z" />
    <glyph glyph-name="emdash" unicode="&#x2014;" horiz-adv-x="1570" 
d="M1468 401h-1366v236h1366v-236z" />
    <glyph glyph-name="quoteleft" unicode="&#x2018;" horiz-adv-x="536" 
d="M442 1102h-340q-14 70 -14 141q0 211 197 486l153 -91q-90 -145 -121 -231l125 -21v-284z" />
    <glyph glyph-name="quoteright" unicode="&#x2019;" horiz-adv-x="497" 
d="M84 1473h340q14 -70 14 -140q1 -223 -198 -485l-152 88q94 150 121 233q-117 18 -125 19v285z" />
    <glyph glyph-name="quotesinglbase" unicode="&#x201a;" horiz-adv-x="581" 
d="M119 299h338q14 -70 14 -139q0 -220 -197 -484q-32 16 -82 48t-71 40q92 141 123 234q-30 2 -125 16v285z" />
    <glyph glyph-name="quotedblleft" unicode="&#x201c;" horiz-adv-x="950" 
d="M442 1102h-338q-16 66 -16 141q0 213 199 486q95 -54 151 -91q-90 -145 -121 -231l125 -21v-284zM856 1102h-340q-14 70 -14 141q0 213 198 486l152 -91q-90 -145 -121 -231l125 -21v-284z" />
    <glyph glyph-name="quotedblright" unicode="&#x201d;" horiz-adv-x="909" 
d="M500 1473h338q14 -70 14 -140q0 -215 -197 -485q-66 35 -153 88q90 139 123 233q-97 16 -125 19v285zM86 1473h338q14 -70 14 -140q1 -215 -196 -485q-45 25 -156 88q88 137 125 233q-99 17 -125 19v285z" />
    <glyph glyph-name="quotedblbase" unicode="&#x201e;" horiz-adv-x="999" 
d="M535 299h337q16 -78 17 -139q0 -216 -199 -484l-153 88q94 152 122 234l-124 16v285zM119 299h340q16 -66 16 -139q0 -216 -199 -484q-20 10 -71 41t-82 47q92 141 123 234l-127 16v285z" />
    <glyph glyph-name="dagger" unicode="&#x2020;" horiz-adv-x="860" 
d="M559 68h-268v774h-217v231h217v318l192 36h76v-354h227v-231h-227v-774z" />
    <glyph glyph-name="daggerdbl" unicode="&#x2021;" horiz-adv-x="886" 
d="M569 0h-268v406h-217v231h217v205h-217v231h217v322l193 28q28 4 75 4v-354h234v-231h-234v-205h234v-231h-234v-406z" />
    <glyph glyph-name="bullet" unicode="&#x2022;" horiz-adv-x="679" 
d="M553 446h-426v383h426v-383z" />
    <glyph glyph-name="ellipsis" unicode="&#x2026;" horiz-adv-x="1566" 
d="M1448 0h-344v303h344v-303zM954 0h-342v303h342v-303zM463 0h-344v303h344v-303z" />
    <glyph glyph-name="perthousand" unicode="&#x2030;" horiz-adv-x="2260" 
d="M2195 264q0 -137 -90 -211q-90 -73 -229 -73t-231 74q-93 74 -93 209q0 136 92 214t231 78q138 0 229 -77t91 -214zM1874 158q76 0 76 106t-76 107q-76 -1 -76 -107t76 -106zM1501 264q0 -137 -90 -211q-90 -73 -229 -73t-232 73q-92 74 -92 210t92 214t230 78t230 -77
q91 -77 91 -214zM1180 158q76 0 75 106q0 106 -75 107q-76 -1 -76 -107t76 -106zM721 963q0 -137 -90 -213q-89 -76 -229 -76t-231 76t-91 212t91 213t230 77t230 -76q90 -76 90 -213zM416 -59l-176 131l895 1179l178 -129zM399 856q35 0 57 28t21 79q0 106 -77 106
q-77 -1 -77 -107t76 -106z" />
    <glyph glyph-name="guilsinglleft" unicode="&#x2039;" horiz-adv-x="600" 
d="M305 547l225 -371l-206 -123l-285 496l280 489l209 -120z" />
    <glyph glyph-name="guilsinglright" unicode="&#x203a;" horiz-adv-x="598" 
d="M293 547l-221 371l209 120l278 -489l-287 -496l-204 123z" />
    <glyph glyph-name="fraction" unicode="&#x2044;" horiz-adv-x="854" 
d="M129 -221l-192 82l794 1741l195 -82z" />
    <glyph glyph-name="Euro" unicode="&#x20ac;" horiz-adv-x="1495" 
d="M254 639v66h-143l24 239h154q68 217 251 333t447 116q180 0 395 -52l-43 -272q-213 59 -350 59q-268 0 -362 -184h579l-24 -239h-604v-7q0 -41 2 -59h587l-24 -240h-502q90 -159 295 -159t416 84l69 -256q-233 -90 -501 -91q-506 0 -627 422h-221l24 240h158z" />
    <glyph glyph-name="trademark" unicode="&#x2122;" horiz-adv-x="1619" 
d="M1501 719h-192v233l8 187h-10l-125 -422h-201l-123 413h-10l8 -178v-233h-190v653h280l98 -309l27 -154h14l29 152l100 311h287v-653zM434 719h-198v487h-181v166h563l-12 -166h-172v-487z" />
    <glyph glyph-name="partialdiff" unicode="&#x2202;" horiz-adv-x="1222" 
d="M616 682q-102 0 -174 -54t-72 -173t62 -174q61 -55 148 -56q138 0 198 118t60 306q-120 33 -222 33zM381 1524q358 0 557 -228t199 -628q0 -334 -153 -512t-390 -178t-381 122q-143 122 -143 352t146 356t368 126q141 0 235 -37q-76 375 -454 375q-76 0 -215 -27
q-12 164 -17 254q137 25 248 25z" />
    <glyph glyph-name="product" unicode="&#x220f;" horiz-adv-x="1769" 
d="M1655 -473h-285v1857h-971v-1857h-284v2109h1540v-2109z" />
    <glyph glyph-name="summation" unicode="&#x2211;" horiz-adv-x="1353" 
d="M115 -414v201l463 817l-463 828v202h1208l-8 -250h-860q266 -483 438 -778l-440 -770h856q4 -164 8 -250h-1202z" />
    <glyph glyph-name="minus" unicode="&#x2212;" 
d="M1110 420h-993v246h993v-246z" />
    <glyph glyph-name="radical" unicode="&#x221a;" horiz-adv-x="1515" 
d="M102 743v254h449l221 -802q2 -9 16 -59l21 -75q207 862 379 1604h285l-508 -2013h-308q-14 50 -319 1091h-236z" />
    <glyph glyph-name="infinity" unicode="&#x221e;" horiz-adv-x="1970" 
d="M524 446q119 0 285 117q-162 117 -285 117q-70 0 -114 -33t-43 -84q-1 -51 43 -84t114 -33zM1448 678q-119 0 -287 -115q156 -117 287 -117q72 0 114 33t42 83t-42 83t-114 33zM1437 928q207 0 327 -100t120 -266q0 -167 -118 -266t-331 -99q-212 0 -450 194
q-231 -193 -461 -192q-198 0 -318 99t-120 265t121 266q121 101 331 101t447 -197q244 195 452 195z" />
    <glyph glyph-name="integral" unicode="&#x222b;" horiz-adv-x="901" 
d="M319 1190q0 385 355 385q74 0 168 -21q-8 -68 -35 -237l-107 10q-94 0 -94 -90v-1343q0 -228 -177 -302q-79 -32 -169 -32t-174 18q16 105 31 240q111 -18 129 -19q74 0 73 95v1296z" />
    <glyph glyph-name="approxequal" unicode="&#x2248;" 
d="M430 539q68 1 196 -51t198 -52t196 86l94 -205q-158 -117 -307 -116q-80 0 -208 51t-175 51q-84 0 -207 -94l-106 211q182 119 319 119zM430 895q68 0 196 -51t198 -51t196 86l94 -205q-158 -117 -307 -117q-80 0 -208 51t-175 51q-84 0 -207 -94l-106 211
q182 119 319 119z" />
    <glyph glyph-name="notequal" unicode="&#x2260;" 
d="M133 248v258h342l57 106h-399v258h537l123 230l170 -84l-78 -146h211v-258h-348l-58 -106h406v-258h-543l-123 -230l-172 82l78 148h-203z" />
    <glyph glyph-name="lessequal" unicode="&#x2264;" 
d="M1094 0h-979v240h979v-240zM1096 279l-981 321v311l981 324v-272l-709 -207l709 -205v-272z" />
    <glyph glyph-name="greaterequal" unicode="&#x2265;" 
d="M1112 0h-979v240h979v-240zM1112 600l-981 -321v272l709 205l-709 207v272l981 -324v-311z" />
    <glyph glyph-name="lozenge" unicode="&#x25ca;" horiz-adv-x="1271" 
d="M637 281l266 403l-264 412l-264 -412q98 -153 262 -403zM750 0h-234l-444 684l452 692h234q295 -463 444 -694q-302 -455 -452 -682z" />
    <glyph glyph-name="CR" horiz-adv-x="479" 
 />
    </font>
</defs>
</svg>
