<?xml version="1.0" standalone="no"?>
<!DOCTYPE svg PUBLIC "-//W3C//DTD SVG 1.1//EN" "http://www.w3.org/Graphics/SVG/1.1/DTD/svg11.dtd" >
<svg xmlns="http://www.w3.org/2000/svg">
<metadata>
Created by FontPrep 20130207 at Thu Jul  9 13:50:12 2015
 By Toni Fisler
Copyright (c) 2010 by Jan Fromm. All rights reserved.
</metadata>
<defs>
<font id="3b7fdfe0a6fef24b4c669e4f047d44c2" horiz-adv-x='1024' >
  <font-face 
    font-family="Rooney-Bold"
    font-weight="420"
    font-stretch="normal"
    units-per-em="2048"
    panose-1="2 15 8 3 4 3 6 6 4 4"
    ascent="1536"
    descent="-512"
    x-height="1020"
    cap-height="1378"
    bbox="-74 -512 2781.01 2048"
    underline-thickness="200"
    underline-position="-211"
    unicode-range="U+000D-FB02"
  />
<missing-glyph 
d="M164 539q0 151 98 249t248 98t249 -98q99 -100 99 -250t-99 -247q-99 -98 -249 -98t-248 98t-98 248zM528 360q0 -20 26 -20t26 20v152h141q14 0 14 20t-14 21h-141v125h157q16 0 17 20q0 20 -17 21h-174q-35 0 -35 -33v-326zM283 362q0 -26 59 -26q106 0 107 104v246
q0 33 -33 33h-92q-16 -1 -16 -21t16 -20h73v-238q0 -66 -51 -65l-47 8q-16 0 -16 -21z" />
    <glyph glyph-name="f_b" unicode="fb" horiz-adv-x="1908" 
d="M1290 174q250 0 250 344q0 160 -57 237t-154 76q-55 -1 -103 -25t-69 -48l-20 -23v-522q53 -39 153 -39zM211 829h-78q-92 0 -92 82q0 49 30 79t85 30h55v33q0 203 138 323t399 119q209 0 315 -53q43 -24 58 -54t16 -96v-221q0 -78 -15 -172l4 -2q61 91 186 128
q54 15 118 15q184 0 290 -124t106 -380t-151 -408q-152 -151 -426 -151q-203 -1 -297 51t-94 140v1108q-64 33 -166 33q-201 0 -203 -195v-94h123q92 0 93 -82q0 -109 -115 -109h-101v-632l74 -25q43 -14 59 -32t17 -55q0 -37 -27 -61t-73 -24h-394q-47 0 -73 25t-27 61
q0 36 16 52q16 17 62 32l88 27v632z" />
    <glyph glyph-name="f_f" unicode="ff" horiz-adv-x="1406" 
d="M211 829h-78q-92 0 -92 82q0 49 30 79t85 30h55v10q0 203 138 323t401 120q78 1 146 -13t95 -26l31 -15q114 76 262 76t184 -36t35 -132v-16q0 -43 -2 -88q-2 -76 -78 -76q-63 0 -90 80l-24 73q-14 6 -43 7q-121 0 -121 -160v-127h145q92 0 92 -82q0 -109 -114 -109h-123
v-632l98 -27q78 -20 78 -84q0 -38 -27 -62t-73 -24h-398q-47 0 -73 25t-27 61q0 63 76 88l67 23v637h-377v-637l68 -23q76 -25 76 -88q0 -38 -27 -62t-74 -24h-387q-47 0 -73 25t-27 61q0 36 16 52q16 17 62 32l88 27v632zM489 1020h377v47q0 96 27 176q-80 43 -197 43
q-207 0 -207 -194v-72z" />
    <glyph glyph-name="f_h" unicode="fh" horiz-adv-x="1994" 
d="M1435 1040q384 0 386 -393v-450l77 -25q44 -14 60 -32t16 -55t-26 -61t-74 -24h-381q-47 0 -74 25t-27 61t17 53q16 18 59 33l74 25v385q0 133 -48 191t-144 58q-56 -1 -104 -25t-68 -48l-21 -23v-538l74 -25q43 -14 59 -32t16 -55t-26 -61q-27 -24 -74 -24h-377
q-47 0 -73 25t-27 61q0 36 16 53q16 18 60 33l74 25v1077q-63 35 -183 35q-207 0 -207 -193v-96h129q92 0 93 -82q0 -109 -115 -109h-107v-632l74 -25q43 -14 59 -32t17 -55q0 -37 -27 -61t-73 -24h-394q-47 0 -73 25t-27 61q0 36 16 52q16 17 62 32l88 27v632h-78
q-92 0 -92 82q0 49 30 79t85 30h55v33q0 203 140 323t411 119q211 0 321 -55q43 -20 59 -52t15 -98v-219q0 -78 -14 -172l4 -2q95 143 288 143z" />
    <glyph glyph-name="f_i" unicode="fi" horiz-adv-x="1325" 
d="M211 829h-78q-92 0 -92 82q0 49 30 79t85 30h55v33q0 203 137 323t393 119q187 0 279 -61t92 -152q0 -53 -35 -88t-78 -35t-69 24q-26 23 -50 51q-22 28 -74 52t-134 23t-132 -51t-51 -144v-94h512q80 0 112 -33t32 -113v-677l84 -25q69 -20 69 -70q-1 -102 -102 -102
h-373q-47 0 -73 25t-27 61q0 63 76 88l67 23v637h-377v-637l68 -23q76 -25 76 -88q0 -38 -27 -62t-74 -24h-387q-47 0 -73 25t-27 61q0 36 16 52q16 17 62 32l88 27v632z" />
    <glyph glyph-name="f_dotlessi" unicode="f&#x131;" horiz-adv-x="1325" 
d="M211 829h-78q-92 0 -92 82q0 49 30 79t85 30h55v47q0 205 114 317t324 111q127 0 163 -36t36 -132v-16q0 -43 -2 -88q-2 -76 -78 -76q-63 0 -90 80l-25 73q-14 6 -43 7q-121 0 -121 -160v-127h512q80 0 112 -33t32 -113v-677l84 -25q69 -20 69 -70q-1 -102 -102 -102
h-373q-47 0 -73 25t-27 61q0 63 76 88l67 23v637h-377v-637l68 -23q76 -25 76 -88q0 -38 -27 -62t-74 -24h-387q-47 0 -73 25t-27 61q0 36 16 52q16 17 62 32l88 27v632z" />
    <glyph glyph-name="f_j" unicode="fj" horiz-adv-x="1282" 
d="M211 829h-78q-92 0 -92 82q0 49 30 79t85 30h55v33q0 203 136 323t390 119q183 0 275 -61t92 -152q0 -53 -35 -88t-78 -35t-69 24q-26 23 -50 51t-74 52t-130 23t-129 -51t-50 -144v-94h504q80 0 112 -33t32 -113v-796q0 -301 -138 -443q-113 -113 -249 -112
q-49 1 -75 23t-26 56q-1 34 13 51t49 38q71 41 109 111t38 208v824h-369v-637l74 -25q43 -14 59 -32t17 -55q0 -37 -27 -61t-73 -24h-394q-47 0 -73 25t-27 61q0 36 16 52q16 17 62 32l88 27v632z" />
    <glyph glyph-name="f_k" unicode="fk" horiz-adv-x="1910" 
d="M211 829h-78q-92 0 -92 82q0 49 30 79t85 30h55v33q0 203 140 323t411 119q211 0 321 -55q43 -20 59 -52t15 -98v-721l283 265l-37 20q-57 33 -57 92q0 33 22 53q23 20 64 21h354q40 0 64 -20t24 -54q0 -68 -88 -104l-53 -23l-285 -248l113 -145q141 -182 286 -262
q47 -27 47 -70t-45 -75q-45 -31 -135 -31q-183 1 -336 219l-221 315v-325l35 -17q45 -20 59 -40q15 -20 15 -55q0 -37 -29 -61t-76 -24h-332q-47 0 -73 25t-27 61q0 61 76 86l74 25v1077q-63 35 -183 35q-207 0 -207 -193v-96h129q92 0 93 -82q0 -109 -115 -109h-107v-632
l74 -25q43 -14 59 -32t17 -55q0 -37 -27 -61t-73 -24h-394q-47 0 -73 25t-27 61q0 36 16 52q16 17 62 32l88 27v632z" />
    <glyph glyph-name="f_l" unicode="fl" horiz-adv-x="1337" 
d="M211 829h-78q-92 0 -92 82q0 49 30 79t85 30h55v33q0 203 140 323t411 119q211 0 321 -55q43 -20 59 -52t15 -98v-1093l78 -25q43 -14 59 -32t16 -55t-26 -61q-27 -24 -74 -24h-381q-47 0 -73 25t-27 61q0 36 16 53q16 18 60 33l74 25v1077q-63 35 -183 35
q-207 0 -207 -193v-96h129q92 0 93 -82q0 -109 -115 -109h-107v-632l74 -25q43 -14 59 -32t17 -55q0 -37 -27 -61t-73 -24h-394q-47 0 -73 25t-27 61q0 36 16 52q16 17 62 32l88 27v632z" />
    <glyph glyph-name="f_f_b" unicode="ffb" horiz-adv-x="2564" 
d="M1946 174q250 0 249 344q0 160 -57 237t-153 76q-55 -1 -103 -25t-70 -48l-20 -23v-522q53 -39 154 -39zM489 1020h377v33q0 98 35 184q-74 49 -205 49q-207 0 -207 -194v-72zM2073 1040q197 0 303 -124t106 -380t-152 -408q-152 -151 -425 -151q-203 -1 -297 51t-95 140
v1108q-63 33 -165 33q-202 0 -203 -195v-94h123q92 0 92 -82q0 -109 -115 -109h-100v-632l74 -25q43 -14 59 -32t16 -55t-26 -61t-74 -24h-371q-47 0 -73 25t-27 61q0 63 76 88l67 23v637h-377v-637l68 -23q76 -25 76 -88q0 -38 -27 -62t-74 -24h-387q-47 0 -73 25t-27 61
q0 36 16 52q16 17 62 32l88 27v632h-78q-92 0 -92 82q0 49 30 79t85 30h55v10q0 203 138 323t401 120q84 -1 158 -17t108 -33l31 -16q135 88 350 88t321 -53q43 -23 59 -53q15 -31 15 -97v-221q0 -78 -14 -172l4 -2q95 143 291 143z" />
    <glyph glyph-name="f_f_h" unicode="ffh" horiz-adv-x="2650" 
d="M489 1020h377v33q0 98 35 184q-74 49 -205 49q-207 0 -207 -194v-72zM211 829h-78q-92 0 -92 82q0 49 30 79t85 30h55v10q0 203 138 323t401 120q84 -1 158 -17t108 -33l31 -16q135 88 358 88t334 -55q43 -23 58 -54t15 -96v-219q0 -78 -14 -172l4 -2q61 91 186 128
q54 15 117 15q179 0 275 -100t96 -293v-450l78 -25q43 -14 59 -32q17 -18 17 -55t-27 -61t-74 -24h-381q-48 0 -74 25t-26 61t16 53q16 18 60 33l74 25v385q0 133 -48 191t-145 58q-55 -1 -103 -25t-69 -48l-21 -23v-538l74 -25q44 -14 60 -32t16 -55t-27 -61t-73 -24h-377
q-47 0 -74 25t-27 61t16 53q16 18 60 33l74 25v1077q-63 35 -182 35q-207 0 -207 -193v-96h129q92 0 92 -82q0 -109 -115 -109h-106v-632l74 -25q43 -14 59 -32t16 -55t-26 -61t-74 -24h-371q-47 0 -73 25t-27 61q0 63 76 88l67 23v637h-377v-637l68 -23q76 -25 76 -88
q0 -38 -27 -62t-74 -24h-387q-47 0 -73 25t-27 61q0 36 16 52q16 17 62 32l88 27v632z" />
    <glyph glyph-name="f_f_i" unicode="ffi" horiz-adv-x="1980" 
d="M489 1020h377v33q0 100 35 184q-74 49 -205 49q-207 0 -207 -194v-72zM211 829h-78q-92 0 -92 82q0 49 30 79t85 30h55v10q0 203 138 323t401 120q84 -1 158 -17t108 -33l31 -16q133 88 335 88t293 -61q92 -61 92 -152q-1 -53 -35 -88t-78 -35t-70 24q-26 23 -48 51
t-75 52q-52 24 -134 23t-132 -51t-50 -144v-94h512q79 0 111 -33t32 -113v-677l84 -25q70 -20 70 -70t-28 -76t-75 -26h-372q-47 0 -74 25t-27 61q0 63 76 88l68 23v637h-377v-637l67 -23q76 -25 76 -88q0 -38 -26 -62t-74 -24h-365q-47 0 -73 25t-27 61q0 63 76 88l67 23
v637h-377v-637l68 -23q76 -25 76 -88q0 -38 -27 -62t-74 -24h-387q-47 0 -73 25t-27 61q0 36 16 52q16 17 62 32l88 27v632z" />
    <glyph glyph-name="f_f_j" unicode="ffj" horiz-adv-x="1937" 
d="M211 829h-78q-92 0 -92 82q0 49 30 79t85 30h55v10q0 203 138 323t401 120q84 -1 158 -17t108 -33l31 -16q133 88 331 88t290 -61q91 -61 91 -152q0 -53 -35 -88t-78 -35q-44 0 -70 24q-26 23 -48 51t-74 52q-51 24 -131 23t-129 -51t-49 -144v-94h504q79 0 111 -33
t32 -113v-796q0 -301 -137 -443q-113 -113 -250 -112q-49 1 -75 23t-26 56t14 51q13 17 48 38q70 41 109 111t38 208v824h-368v-637l74 -25q43 -14 59 -32t16 -55t-26 -61t-74 -24h-371q-47 0 -73 25t-27 61q0 63 76 88l67 23v637h-377v-637l68 -23q76 -25 76 -88
q0 -38 -27 -62t-74 -24h-387q-47 0 -73 25t-27 61q0 36 16 52q16 17 62 32l88 27v632zM489 1020h377v33q0 100 35 184q-74 49 -205 49q-207 0 -207 -194v-72z" />
    <glyph glyph-name="f_f_k" unicode="ffk" horiz-adv-x="2566" 
d="M489 1020h377v33q0 98 35 184q-74 49 -205 49q-207 0 -207 -194v-72zM211 829h-78q-92 0 -92 82q0 49 30 79t85 30h55v10q0 203 138 323t401 120q84 -1 158 -17t108 -33l31 -16q135 88 358 88t334 -55q43 -23 58 -54t15 -96v-721l283 265l-37 20q-57 33 -57 92
q0 33 22 53q23 20 64 21h354q41 0 65 -20t23 -54q0 -68 -88 -104l-53 -23l-285 -248l113 -145q141 -182 287 -262q47 -27 47 -70t-45 -75q-45 -31 -135 -31q-183 1 -336 219l-222 315v-325l35 -17q45 -20 59 -40t15 -55q0 -37 -29 -61t-75 -24h-332q-47 0 -74 25t-27 61
q0 61 76 86l74 25v1077q-63 35 -182 35q-207 0 -207 -193v-96h129q92 0 92 -82q0 -109 -115 -109h-106v-632l74 -25q43 -14 59 -32t16 -55t-26 -61t-74 -24h-371q-47 0 -73 25t-27 61q0 63 76 88l67 23v637h-377v-637l68 -23q76 -25 76 -88q0 -38 -27 -62t-74 -24h-387
q-47 0 -73 25t-27 61q0 36 16 52q16 17 62 32l88 27v632z" />
    <glyph glyph-name="f_f_l" unicode="ffl" horiz-adv-x="1992" 
d="M489 1020h377v33q0 98 35 184q-74 49 -205 49q-207 0 -207 -194v-72zM211 829h-78q-92 0 -92 82q0 49 30 79t85 30h55v10q0 203 138 323t401 120q84 -1 158 -17t108 -33l31 -16q135 88 358 88t334 -55q43 -23 58 -54t15 -96v-1093l78 -25q44 -14 60 -32t16 -55t-27 -61
t-73 -24h-381q-47 0 -74 25t-27 61t16 53q16 18 60 33l74 25v1077q-63 35 -182 35q-207 0 -207 -193v-96h129q92 0 92 -82q0 -109 -115 -109h-106v-632l74 -25q43 -14 59 -32t16 -55t-26 -61t-74 -24h-371q-47 0 -73 25t-27 61q0 63 76 88l67 23v637h-377v-637l68 -23
q76 -25 76 -88q0 -38 -27 -62t-74 -24h-387q-47 0 -73 25t-27 61q0 36 16 52q16 17 62 32l88 27v632z" />
    <glyph glyph-name="f_thorn" unicode="f&#xfe;" horiz-adv-x="1908" 
d="M1290 174q250 0 250 344q0 160 -57 237t-154 76q-55 -1 -103 -25t-69 -48l-20 -23v-522q53 -39 153 -39zM1249 -23q-21 0 -112 13l-4 -4q4 -57 4 -105v-153l88 -27q45 -13 61 -31t16 -55t-24 -61q-25 -24 -72 -23h-401q-47 0 -74 25t-26 61q0 61 69 84l84 27v1548
q-64 33 -166 33q-201 0 -203 -195v-94h123q92 0 93 -82q0 -109 -115 -109h-101v-632l74 -25q43 -14 59 -32t17 -55q0 -37 -27 -61t-73 -24h-394q-47 0 -73 25t-27 61q0 36 16 52q16 17 62 32l88 27v632h-78q-92 0 -92 82q0 49 30 79t85 30h55v33q0 203 138 323t399 119
q209 0 315 -53q43 -22 58 -54t16 -102v-215q0 -78 -15 -172l4 -2q61 91 186 128q54 15 118 15q184 0 290 -124t106 -380t-151 -408q-152 -151 -426 -151z" />
    <glyph glyph-name="f_t" unicode="ft" horiz-adv-x="1435" 
d="M1415 133q0 -43 -35 -78q-68 -68 -233 -67q-289 0 -289 317v529h-369v-637l99 -27q78 -20 78 -84q0 -38 -27 -62t-74 -24h-420q-47 0 -73 25t-27 61q0 36 16 52q16 17 62 32l88 27v632h-78q-92 0 -92 82q0 49 30 79t85 30h55v49q0 207 104 317t295 109q115 0 151 -36
t36 -118v-16q0 -53 -2 -98q-2 -76 -76 -76q-61 0 -88 80l-25 74q-10 4 -26 4q-90 0 -91 -160v-129h379l39 133q39 129 134 129t96 -92v-170h176q92 0 92 -82q0 -109 -115 -109h-153v-464q0 -176 110 -177l107 13q61 0 61 -68z" />
    <glyph glyph-name="f_f_t" unicode="fft" horiz-adv-x="2091" 
d="M1513 305v529h-368v-637l98 -27q78 -20 78 -84q0 -38 -27 -62t-73 -24h-398q-47 0 -73 25t-27 61q0 63 76 88l67 23v637h-377v-637l68 -23q76 -25 76 -88q0 -38 -27 -62t-74 -24h-387q-47 0 -73 25t-27 61q0 36 16 52q16 17 62 32l88 27v632h-78q-92 0 -92 82q0 49 30 79
t85 30h55v10q0 203 138 323t401 120q74 -1 140 -13t93 -24l31 -13q96 72 232 72t170 -36q36 -36 36 -118v-16q0 -53 -2 -98q-2 -76 -76 -76q-61 0 -88 80l-24 74q-10 4 -27 4q-90 0 -90 -160v-129h379l39 133q39 129 134 129t95 -92v-170h176q92 0 92 -82q0 -109 -114 -109
h-154v-464q0 -176 111 -177l106 13q61 0 62 -68q0 -43 -35 -78q-68 -68 -234 -67q-289 0 -289 317zM489 1020h377v49q0 102 25 176q-78 41 -195 41q-207 0 -207 -194v-72z" />
    <glyph glyph-name="t_t" unicode="tt" horiz-adv-x="1417" 
d="M174 305v524h-70q-94 0 -94 82q0 49 30 79t85 30h55l37 145q16 68 49 99t90 30q96 0 97 -92v-182h393l37 145q16 68 49 99t90 30q96 0 96 -92v-182h176q92 0 92 -82q0 -109 -114 -109h-154v-464q0 -176 111 -177l106 13q61 0 62 -68q0 -43 -35 -78q-68 -68 -234 -67
q-289 0 -288 317v529h-387v-469q0 -176 100 -177l96 13q61 0 62 -68q0 -43 -35 -78q-68 -68 -223 -67q-279 0 -279 317z" />
    <glyph glyph-name=".notdef" 
d="M164 539q0 151 98 249t248 98t249 -98q99 -100 99 -250t-99 -247q-99 -98 -249 -98t-248 98t-98 248zM528 360q0 -20 26 -20t26 20v152h141q14 0 14 20t-14 21h-141v125h157q16 0 17 20q0 20 -17 21h-174q-35 0 -35 -33v-326zM283 362q0 -26 59 -26q106 0 107 104v246
q0 33 -33 33h-92q-16 -1 -16 -21t16 -20h73v-238q0 -66 -51 -65l-47 8q-16 0 -16 -21z" />
    <glyph glyph-name=".null" horiz-adv-x="0" 
 />
    <glyph glyph-name=".null" horiz-adv-x="0" 
 />
    <glyph glyph-name="nonmarkingreturn" horiz-adv-x="681" 
 />
    <glyph glyph-name="CR" unicode="&#xd;" horiz-adv-x="0" 
 />
    <glyph glyph-name="space" unicode=" " horiz-adv-x="522" 
 />
    <glyph glyph-name="exclam" unicode="!" horiz-adv-x="696" 
d="M174 150q0 76 50 126t126 50t124 -48t48 -124t-50 -126t-126 -50t-124 48t-48 124zM197 1372q-1 111 151 111t152 -111q0 -25 -6 -129l-37 -723q-5 -92 -109 -92t-108 92l-37 723q-6 104 -6 129z" />
    <glyph glyph-name="quotedbl" unicode="&#x22;" horiz-adv-x="866" 
d="M492 1412q0 28 32 56t100 27q68 0 100 -28t32 -55t-8 -114l-31 -317q-11 -84 -95 -84t-92 84l-30 317q-8 86 -8 114zM111 1412q1 28 33 56t99 27q67 0 99 -28t33 -55q0 -27 -8 -114l-31 -317q-10 -84 -94 -84t-92 84l-31 317q-8 86 -8 114z" />
    <glyph glyph-name="numbersign" unicode="#" horiz-adv-x="1513" 
d="M569 508h267l110 356h-264zM139 336q-92 0 -92 86t94 86h187l110 356h-135q-92 0 -92 86t94 86h187l83 269q31 94 111 94q53 0 87 -27t34 -63t-8 -66l-64 -207h264l84 269q31 94 111 94q53 0 87 -27t34 -63t-8 -66l-64 -207h131q92 0 92 -86t-94 -86h-182l-113 -356h133
q92 0 93 -86q0 -86 -95 -86h-184l-84 -268q-31 -94 -111 -95q-53 0 -87 27t-34 63t9 66l65 207h-266l-84 -268q-31 -94 -110 -95q-53 0 -88 27q-34 26 -34 62t9 67l65 207h-135z" />
    <glyph glyph-name="dollar" unicode="$" horiz-adv-x="1097" 
d="M582 1135q-190 0 -191 -136q0 -100 122 -159q54 -27 120 -53q65 -25 131 -57t120 -72t88 -106t34 -153q0 -145 -92 -247t-269 -138v-209q0 -96 -90 -96t-90 96v197q-229 8 -297 76q-31 31 -31 137v29q0 68 2 112q2 82 78 82q66 0 92 -82l43 -135q74 -35 189 -35
q203 0 202 158q0 70 -63 118q-64 48 -154 82t-180 76t-153 124t-63 211t93 227q94 98 269 127v202q0 96 90 97q90 0 90 -97v-192q207 -10 262 -66q31 -31 31 -137v-18q0 -68 -2 -113q-2 -82 -78 -82q-67 0 -92 82l-37 123q-57 27 -174 27z" />
    <glyph glyph-name="percent" unicode="%" horiz-adv-x="1976" 
d="M1397 375q0 -105 36 -157t91 -52q121 0 121 207q0 106 -36 157t-91 52q-121 0 -121 -207zM1145 362q0 178 107 288q108 110 280 110t268 -98t96 -276t-108 -289q-108 -109 -279 -109q-172 0 -268 98t-96 276zM1444 1322q0 -30 -25 -73l-719 -1208q-37 -63 -81 -63
q-45 0 -69 23q-24 25 -24 55t25 73l719 1208q37 63 81 63q45 0 69 -23q24 -25 24 -55zM332 1006q0 -106 36 -158t91 -51q121 0 121 207q0 106 -36 157t-91 51q-121 1 -121 -206zM80 993q0 178 107 288q108 110 280 110q172 -1 268 -99t96 -276q1 -178 -107 -288t-280 -110
t-268 98t-96 277z" />
    <glyph glyph-name="ampersand" unicode="&#x26;" horiz-adv-x="1640" 
d="M391 483q0 -137 96 -226t251 -89t245 63q-135 85 -286 217t-236 242q-26 -19 -48 -80t-22 -127zM1016 1020h362q92 0 92 -82q0 -109 -114 -109h-84l-2 -2q78 -113 78 -257t-56 -263q111 -74 211 -131q68 -41 68 -88t-31 -73q-83 -69 -283 42q-35 20 -106 66
q-178 -145 -461 -145t-430 118q-147 119 -147 312q1 80 27 152t85 144q59 71 117 103l27 16q-84 139 -84 264q0 182 122 295t332 113q147 0 221 -54q74 -53 74 -117t-40 -105t-83 -41t-73 32t-68 63q-39 32 -90 32q-121 0 -121 -154q0 -305 539 -705q2 18 2 39
q0 170 -84 289q-16 24 -46 52t-43 50t-14 56q1 88 103 88z" />
    <glyph glyph-name="quotesingle" unicode="'" horiz-adv-x="485" 
d="M111 1412q1 28 33 56t99 27q67 0 99 -28t33 -55q0 -27 -8 -114l-31 -317q-10 -84 -94 -84t-92 84l-31 317q-8 86 -8 114z" />
    <glyph glyph-name="parenleft" unicode="(" horiz-adv-x="681" 
d="M123 584q0 262 90 517t240 425q39 45 82 45t69 -24q26 -25 27 -55q0 -30 -19 -58q-215 -342 -215 -850t215 -850q44 -70 -8 -114q-28 -24 -70 -24t-81 46q-150 170 -240 425t-90 517z" />
    <glyph glyph-name="parenright" unicode=")" horiz-adv-x="681" 
d="M285 584q0 508 -215 850q-43 69 8 113q28 24 70 24t81 -45q150 -170 240 -425t90 -517t-90 -517t-240 -425q-39 -45 -82 -45q-43 -1 -69 23t-27 54q0 30 19 60q215 342 215 850z" />
    <glyph glyph-name="asterisk" unicode="*" horiz-adv-x="860" 
d="M198 899q-34 0 -65 34t-31 77q0 66 68 84l139 39l-139 38q-68 20 -68 84q0 43 30 79t67 36t65 -27l105 -102l-33 131q-6 30 -6 56t27 47q28 20 73 20q100 0 100 -80q0 -18 -6 -43l-32 -131l104 100q32 29 66 29t65 -34t31 -76q0 -66 -68 -84l-139 -39l139 -39
q68 -20 68 -84q0 -43 -30 -79t-67 -36t-65 27l-104 102l32 -131q6 -29 6 -55t-28 -47q-28 -20 -72 -21q-100 0 -100 80q0 18 6 43l33 131l-105 -100q-32 -29 -66 -29z" />
    <glyph glyph-name="plus" unicode="+" horiz-adv-x="1085" 
d="M436 485h-248q-44 0 -70 27t-26 72q0 46 27 72t69 26h248v238q0 119 107 118q106 0 106 -118v-238h246q45 0 71 -27t26 -71t-26 -72q-26 -27 -71 -27h-246v-237q0 -119 -106 -119t-107 119v237z" />
    <glyph glyph-name="comma" unicode="," horiz-adv-x="614" 
d="M127 156q0 78 51 130t132 52t129 -56t48 -172q1 -116 -79 -247q-135 -222 -265 -215q-27 2 -45 18t-18 44t26 60q94 111 123 222q-102 45 -102 164z" />
    <glyph glyph-name="hyphen" unicode="-" horiz-adv-x="925" 
d="M231 651h486q92 0 92 -88q0 -121 -115 -121h-485q-92 0 -92 88q-1 121 114 121z" />
    <glyph glyph-name="period" unicode="." horiz-adv-x="614" 
d="M127 156q0 78 52 130t130 52t128 -50t50 -128t-52 -130t-130 -52t-128 50t-50 128z" />
    <glyph glyph-name="slash" unicode="/" horiz-adv-x="892" 
d="M698 1505q53 -1 87 -31t34 -67t-10 -68l-578 -1589q-33 -90 -112 -90q-53 0 -87 31t-34 67t10 68l578 1589q33 90 112 90z" />
    <glyph glyph-name="zero" unicode="0" horiz-adv-x="1290" 
d="M640 899q-118 0 -190 -91t-73 -266q0 -176 78 -272q77 -96 195 -96t191 91t73 266t-78 272q-78 96 -196 96zM630 -23q-250 1 -394 145t-144 399t159 415t409 160t394 -144t144 -400q0 -255 -159 -415t-409 -160z" />
    <glyph glyph-name="one" unicode="1" horiz-adv-x="825" 
d="M110 821q-28 0 -51 22q-23 23 -23 57t32 66t163 76t213 45q131 0 131 -131v-751l127 -33q86 -23 86 -86q0 -38 -26 -62t-74 -24h-524q-47 0 -74 25t-27 61q0 63 82 84l152 35v637l-125 -17q-34 -4 -62 -4z" />
    <glyph glyph-name="two" unicode="2" horiz-adv-x="997" 
d="M543 750q0 68 -43 104q-42 37 -112 37q-70 1 -140 -19t-96 -20t-50 22q-22 22 -22 59q1 82 163 133q95 30 212 30q190 0 286 -80q97 -80 97 -211t-83 -235t-296 -273l-103 -82h349l28 80q29 82 92 82q76 0 78 -82q2 -55 2 -135v-17q-1 -83 -31 -113t-92 -30h-571
q-74 0 -115 38t-41 108t84 141l168 145q139 121 188 185q48 65 48 133z" />
    <glyph glyph-name="three" unicode="3" horiz-adv-x="983" 
d="M145 -20q37 0 69 -31t79 -61t127 -29q80 0 137 59t57 165q0 105 -84 171t-256 65q-48 0 -76 33t-28 82q0 48 29 66t100 18q129 0 197 58t68 144q0 85 -52 129t-124 44t-142 -23q-70 -22 -96 -22t-50 22q-23 22 -22 58q0 83 165 137q93 31 210 31q193 0 291 -83t100 -203
q0 -120 -60 -212q-60 -90 -157 -127v-2q127 -29 201 -116t73 -224q0 -199 -142 -328t-380 -129q-162 0 -247 58t-85 137q0 49 30 81t68 32z" />
    <glyph glyph-name="four" unicode="4" horiz-adv-x="1122" 
d="M612 283v522l-342 -522h342zM887 944v-661h112q90 0 91 -90q0 -59 -33 -93t-90 -34h-80v-175l88 -26q45 -13 61 -31t16 -54t-26 -61q-27 -25 -74 -24h-426q-48 1 -74 25t-26 59t17 52t63 30l106 30v175h-403q-170 0 -170 153q0 63 47 133l391 592q51 78 103 109t135 30
q172 0 172 -139z" />
    <glyph glyph-name="five" unicode="5" horiz-adv-x="985" 
d="M221 344q-100 0 -96 94l22 512q6 123 123 123h508q90 0 90 -94q0 -68 -32 -105t-84 -36h-394l-10 -258q276 -8 428 -128t152 -319t-146 -330t-385 -131q-153 0 -243 56t-91 139q0 51 29 82t74 31t101 -60q57 -60 159 -61q102 0 161 60q58 60 58 167q0 258 -424 258z" />
    <glyph glyph-name="six" unicode="6" horiz-adv-x="1163" 
d="M104 573q0 399 186 613t494 215q195 0 195 -107q0 -40 -24 -64t-66 -24l-96 6q-336 0 -394 -419q41 33 116 57q75 25 153 24q184 0 294 -112t110 -312q0 -202 -137 -337q-136 -135 -358 -135q-221 0 -347 148t-126 447zM594 168q90 0 139 64t49 188q0 122 -57 188
t-154 66q-49 0 -95 -16t-66 -31l-21 -17q0 -230 58 -336q57 -106 147 -106z" />
    <glyph glyph-name="seven" unicode="7" horiz-adv-x="980" 
d="M131 645q-78 0 -80 82q-2 66 -2 172v16q0 96 31 127t92 31h635q160 0 160 -129q0 -55 -77 -191t-116 -210t-94 -204q-94 -222 -94 -459q0 -202 -158 -204q-68 0 -109 42t-40 112q0 188 107 425q108 237 327 589h-463l-35 -117q-25 -82 -84 -82z" />
    <glyph glyph-name="eight" unicode="8" horiz-adv-x="1132" 
d="M354 360q0 -86 58 -140t156 -54q97 0 152 47q54 47 54 124t-59 134t-189 119q-172 -117 -172 -230zM127 1014q0 156 131 272q130 116 332 115q202 0 304 -87t103 -222q0 -219 -213 -357q135 -72 199 -151q63 -80 64 -199q1 -170 -139 -289t-364 -119q-224 1 -342 97
q-116 96 -116 239q0 201 268 361q-227 121 -227 340zM563 1212q-78 0 -121 -40t-43 -114q-1 -73 53 -127t158 -108q119 94 119 219q0 78 -44 124t-122 46z" />
    <glyph glyph-name="nine" unicode="9" horiz-adv-x="1163" 
d="M92 624q0 202 136 336q136 136 360 136t347 -148q124 -148 124 -448q1 -400 -189 -614t-512 -214q-195 0 -194 107q0 41 24 65t66 23l96 -6q356 0 414 420q-10 -9 -30 -23t-91 -37q-70 -23 -147 -22q-184 -1 -294 111t-110 314zM568 905q-90 -1 -138 -65
q-49 -64 -49 -187t57 -189t154 -65q49 -1 95 15t67 32l20 17q0 229 -58 335t-148 107z" />
    <glyph glyph-name="colon" unicode=":" horiz-adv-x="614" 
d="M127 770q0 78 52 130t130 52t128 -50t50 -128t-52 -130t-130 -52t-128 50t-50 128zM127 156q0 78 52 130t130 52t128 -50t50 -128t-52 -130t-130 -52t-128 50t-50 128z" />
    <glyph glyph-name="semicolon" unicode=";" horiz-adv-x="614" 
d="M127 770q0 78 52 130t130 52t128 -50t50 -128t-52 -130t-130 -52t-128 50t-50 128zM127 156q0 78 51 130t132 52t129 -56t48 -172q1 -116 -79 -247q-135 -222 -265 -215q-27 2 -45 18t-18 44t26 60q94 111 123 222q-102 45 -102 164z" />
    <glyph glyph-name="less" unicode="&#x3c;" horiz-adv-x="1085" 
d="M885 930q0 -47 -51 -82l-390 -256l396 -262q49 -31 49 -79t-33 -82t-72 -34t-71 21l-490 319q-66 45 -66 109t66 108l494 324q80 50 138 -8q30 -30 30 -78z" />
    <glyph glyph-name="equal" unicode="=" horiz-adv-x="1085" 
d="M209 881h665q45 0 71 -27t26 -72q0 -44 -26 -70t-71 -26h-665q-43 0 -70 26t-27 70t27 72q27 27 70 27zM209 481h665q45 -1 71 -27t26 -71t-26 -72t-71 -26h-665q-43 1 -70 27t-26 71q0 45 26 72q27 26 70 26z" />
    <glyph glyph-name="greater" unicode="&#x3e;" horiz-adv-x="1085" 
d="M197 919q1 47 33 81t71 34t72 -20l489 -320q66 -46 66 -110t-66 -107l-493 -323q-37 -23 -73 -23t-66 31t-30 78t52 82l389 256l-395 262q-49 31 -49 79z" />
    <glyph glyph-name="question" unicode="?" horiz-adv-x="808" 
d="M193 150q0 76 50 126t126 50t124 -48t48 -124q-1 -76 -51 -126t-126 -50t-123 48q-48 48 -48 124zM352 428q-70 0 -112 49t-41 136q0 87 44 160t95 118t95 108t44 133t-48 114q-47 44 -113 44t-117 -15t-82 -15t-53 24t-21 58q0 34 29 63q90 90 291 90t302 -86t101 -231
q0 -80 -30 -147t-72 -111t-86 -83q-103 -96 -103 -184q0 -41 8 -82q9 -41 9 -67t-35 -52q-35 -24 -105 -24z" />
    <glyph glyph-name="at" unicode="@" horiz-adv-x="2123" 
d="M911 514q0 -98 40 -146q41 -48 95 -48t92 18t54 37l14 18l37 449q-35 22 -119 22t-148 -89q-65 -89 -65 -261zM381 502q0 -645 620 -643q145 0 271 37q126 36 146 36q22 0 39 -19t17 -53t-36 -71q-37 -37 -172 -77t-303 -40q-414 0 -629 206t-215 589q0 446 304 737
t791 291q385 0 588 -181q203 -180 203 -500t-153 -506t-357 -185q-204 0 -252 129l-4 2q-9 -14 -39 -41q-98 -90 -238 -90q-141 0 -231 94t-90 264q0 254 150 408t391 153q162 0 254 -57q67 -43 61 -117l-37 -430q-8 -80 12 -110t66 -31q90 0 156 110q66 109 66 357
t-151 392t-440 144q-344 0 -566 -224t-222 -574z" />
    <glyph glyph-name="A" unicode="A" horiz-adv-x="1484" 
d="M520 553h398l-127 362l-70 228h-4q-33 -113 -72 -228zM743 1389q89 0 139 -37t85 -131l368 -1020l58 -25q43 -18 59 -38t16 -54q0 -36 -26 -60t-74 -24h-373q-47 0 -73 25t-27 59q0 34 17 52q17 17 63 36l61 25l-59 176h-516l-62 -176l62 -25q45 -18 62 -36t17 -52
q0 -36 -26 -60q-27 -24 -74 -24h-323q-47 0 -74 25t-27 59t16 54q16 19 60 38l58 25l370 1020q35 94 84 131t139 37z" />
    <glyph glyph-name="B" unicode="B" horiz-adv-x="1296" 
d="M502 791h123q119 0 180 54t61 148q0 197 -239 197h-125v-399zM502 188h137q276 0 276 218q0 209 -278 208h-135v-426zM133 1378h524q260 0 383 -92t123 -248q0 -215 -235 -295v-4q135 -20 211 -100t75 -199q0 -200 -152 -320t-454 -120h-463q-47 0 -73 25t-27 61
q0 36 16 52q16 17 62 32l96 31v977l-90 28q-83 26 -83 96q0 36 23 56q24 20 64 20z" />
    <glyph glyph-name="C" unicode="C" horiz-adv-x="1218" 
d="M383 690q0 -238 113 -366q113 -127 297 -127q90 1 171 23t93 22q72 0 71 -80q0 -41 -36 -77t-136 -71q-102 -35 -241 -34q-289 0 -461 178t-172 500t202 530q202 209 504 209t329 -124q7 -32 7 -110v-28q0 -94 -2 -146q-2 -82 -84 -82q-69 0 -94 80l-57 180
q-39 20 -121 21q-172 0 -278 -130t-105 -368z" />
    <glyph glyph-name="D" unicode="D" horiz-adv-x="1458" 
d="M506 203h112q221 0 339 125t118 366q0 481 -457 482h-112v-973zM651 1378q725 0 725 -662q0 -328 -207 -522t-583 -194h-441q-47 0 -73 25t-27 61q0 36 16 52q16 17 62 32l96 31v977l-90 28q-47 14 -66 37q-18 23 -18 59t24 56t64 20h518z" />
    <glyph glyph-name="E" unicode="E" horiz-adv-x="1196" 
d="M133 1378h825q68 0 99 -30t30 -127v-25q0 -63 -2 -111q-2 -82 -84 -81q-70 0 -96 79l-33 101h-366v-400h272l21 54q27 72 88 71q78 0 78 -90v-252q0 -90 -78 -90q-59 0 -88 74l-21 51h-272v-407h393l35 110q25 80 96 80q82 0 84 -82q2 -45 2 -110v-35q0 -96 -31 -127
t-98 -31h-842q-47 0 -73 25t-27 61q0 36 16 52q16 17 62 32l96 31v977l-90 28q-83 26 -83 96q0 36 23 56q24 20 64 20z" />
    <glyph glyph-name="F" unicode="F" horiz-adv-x="1105" 
d="M133 1378h813q68 0 99 -30t30 -127v-29q0 -70 -2 -111q-2 -82 -84 -82q-70 0 -96 80l-35 103h-352v-410h252l20 57q25 70 88 70q78 0 78 -90v-258q0 -90 -78 -90q-59 0 -88 74l-20 53h-252v-385l112 -33q44 -12 62 -30t18 -55t-26 -61t-74 -24h-453q-47 0 -73 25t-27 61
q0 36 16 52q16 17 62 32l96 31v977l-90 28q-83 26 -83 96q0 36 23 56q24 20 64 20z" />
    <glyph glyph-name="G" unicode="G" horiz-adv-x="1390" 
d="M846 178q47 0 125 12v322l-154 41q-86 25 -86 94q0 33 24 53t64 21h340q98 0 98 -98v-392q0 -104 -69 -155q-137 -98 -439 -98q-303 0 -485 182q-182 184 -182 508t210 527q210 202 568 202q258 0 336 -78q20 -20 28 -53t7 -111v-29q0 -90 -2 -139q-2 -82 -82 -82
q-69 0 -96 80l-58 176q-49 29 -182 29q-199 0 -313 -128t-115 -372q0 -244 124 -378t339 -134z" />
    <glyph glyph-name="H" unicode="H" horiz-adv-x="1564" 
d="M133 1378h447q40 0 64 -20t24 -53q0 -76 -86 -103l-78 -24v-377h557v377l-78 24q-86 27 -86 103q0 33 24 53t64 20h449q42 0 64 -20t22 -51q0 -76 -84 -101l-90 -28v-977l96 -31q45 -14 61 -32q17 -18 17 -54t-26 -60t-73 -24h-424q-47 0 -73 25t-27 61q0 36 16 53
q16 18 62 33l86 29v403h-557v-403l86 -29q45 -14 61 -32q17 -18 17 -55t-27 -61t-74 -24h-422q-47 0 -73 25t-27 61q0 36 16 52q16 17 62 32l96 31v977l-90 28q-83 26 -83 96q0 36 23 56q24 20 64 20z" />
    <glyph glyph-name="I" unicode="I" horiz-adv-x="724" 
d="M133 1378h459q40 0 64 -20t24 -56q0 -70 -84 -96l-90 -28v-977l96 -31q46 -14 62 -32t16 -53q0 -37 -27 -61t-73 -24h-435q-47 0 -73 25t-27 61q0 36 16 52q16 17 62 32l96 31v977l-90 28q-83 26 -83 96q0 36 23 56q24 20 64 20z" />
    <glyph glyph-name="J" unicode="J" horiz-adv-x="667" 
d="M193 119v1059l-82 26q-84 29 -84 101q0 33 23 53q24 20 65 20h442q41 0 64 -20t22 -53q0 -74 -82 -101l-82 -26v-992q0 -182 -40 -281t-109 -169q-109 -109 -254 -109q-115 0 -115 88q0 55 64 90q168 93 168 314z" />
    <glyph glyph-name="K" unicode="K" horiz-adv-x="1425" 
d="M133 1378h410q41 0 65 -22t23 -53q0 -66 -90 -109l-35 -16v-467l446 475l-41 16q-76 29 -75 101q0 33 24 55t64 20h399q41 0 65 -20t23 -53q0 -72 -96 -107l-62 -22l-442 -451l158 -188q143 -172 223 -246t170 -121q53 -27 53 -73t-50 -78q-50 -31 -143 -31
q-94 0 -184 56t-192 185l-340 430v-458l43 -19q47 -20 64 -40t17 -57t-26 -61q-27 -24 -74 -24h-385q-47 0 -73 25t-27 61q0 36 16 52q16 17 62 32l96 31v977l-90 28q-83 26 -83 96q0 36 23 56q24 20 64 20z" />
    <glyph glyph-name="L" unicode="L" horiz-adv-x="1093" 
d="M133 1378h477q41 0 65 -20t23 -53q0 -72 -86 -99l-106 -30v-973h317l54 166q27 80 92 80q80 0 82 -88t2 -168v-35q0 -96 -31 -127t-98 -31h-779q-47 0 -73 25t-27 61q0 36 16 52q16 17 62 32l96 31v977l-90 28q-83 26 -83 96q0 36 23 56q24 20 64 20z" />
    <glyph glyph-name="M" unicode="M" horiz-adv-x="1959" 
d="M109 1307q0 31 22 51q23 20 64 20h366q94 0 121 -84l240 -807l53 -219h4q18 104 53 221l240 805q27 84 123 84h370q41 0 64 -20t23 -55t-19 -59q-18 -24 -66 -40l-73 -24l110 -979l58 -25q43 -18 59 -38t16 -54q-1 -36 -27 -60t-73 -24h-362q-47 0 -74 25t-27 59t18 51
q18 18 64 41l53 25l-57 622l-20 287h-5l-284 -952q-29 -96 -70 -132t-120 -36t-119 36t-70 132l-285 954h-4q-8 -156 -20 -289l-58 -622l54 -25q47 -23 64 -41t17 -52q0 -35 -26 -59t-74 -24h-309q-47 0 -74 25t-27 59t17 54q16 19 59 38l58 25l110 979l-73 24
q-84 29 -84 103z" />
    <glyph glyph-name="N" unicode="N" horiz-adv-x="1593" 
d="M133 1378h293q104 0 168 -98l440 -682q62 -92 125 -215l19 -39l4 2q-14 143 -15 279l-4 553l-92 28q-86 27 -86 99q0 33 24 53t64 20h410q41 0 63 -20t23 -53q0 -74 -82 -101l-82 -26v-1022q0 -166 -180 -166q-125 0 -195 106l-440 682q-76 112 -123 215l-21 39l-4 -2
q14 -141 15 -278l4 -551l98 -31q45 -14 63 -32t17 -54q0 -36 -27 -60t-73 -24h-394q-47 0 -73 25t-27 61q0 36 16 52q16 17 62 32l96 31v977l-90 28q-83 26 -83 96q0 36 23 56q24 20 64 20z" />
    <glyph glyph-name="O" unicode="O" horiz-adv-x="1509" 
d="M383 692q0 -246 106 -378q105 -132 269 -132t266 129t102 375t-106 378t-269 132t-265 -129t-103 -375zM1427 710q-1 -329 -195 -531t-498 -202q-304 -1 -478 181t-174 510t194 530q195 203 499 203t478 -181t174 -510z" />
    <glyph glyph-name="P" unicode="P" horiz-adv-x="1204" 
d="M506 686h117q109 0 172 67t63 187t-61 181q-61 62 -176 63h-115v-498zM655 1378q500 0 500 -413q0 -203 -145 -333t-408 -130h-96v-299l112 -33q44 -12 62 -30t18 -55t-26 -61t-74 -24h-453q-47 0 -73 24t-27 60q0 36 16 54q16 17 62 32l96 31v977l-90 28q-83 26 -83 96
q0 36 23 56q24 20 64 20h522z" />
    <glyph glyph-name="Q" unicode="Q" horiz-adv-x="1509" 
d="M751 1196q-163 0 -265 -129t-103 -376q0 -247 106 -379q105 -132 269 -132t266 129t102 376t-106 379t-269 132zM82 672q0 322 194 526q195 203 499 203t478 -181q174 -182 174 -484t-139 -491t-368 -243q158 -221 536 -250q72 -6 72 -69q0 -49 -66 -89t-209 -38
q-197 0 -349 102t-218 322q-280 12 -442 191t-162 501z" />
    <glyph glyph-name="R" unicode="R" horiz-adv-x="1370" 
d="M526 748h144q250 0 250 218t-250 218h-144v-436zM70 1302q0 36 23 56q24 20 65 20h544q514 0 515 -377q0 -129 -78 -232t-185 -142l78 -148q123 -233 275 -309q53 -29 53 -73t-43 -77t-131 -32q-127 0 -218 77t-173 259l-109 243h-160v-366l56 -25q43 -18 61 -38
q19 -20 19 -55t-27 -59t-74 -24h-391q-47 0 -74 25q-26 25 -26 61t16 52q16 17 61 32l97 31v977l-90 28q-45 14 -65 37q-19 23 -19 59z" />
    <glyph glyph-name="S" unicode="S" horiz-adv-x="1140" 
d="M395 1054q0 -66 48 -115q48 -48 120 -74q183 -66 311 -140q72 -41 120 -124t48 -198q0 -188 -142 -306q-142 -117 -405 -117t-339 75q-35 35 -35 152v31q0 80 2 118q6 82 82 82q68 0 94 -80l51 -149q63 -33 179 -33t172 49q57 49 57 122t-48 123t-120 77
q-200 75 -292 128q-187 108 -187 326q0 178 137 288t388 110t325 -74q35 -35 34 -151v-25q0 -78 -2 -117q-6 -82 -82 -82q-67 0 -94 80l-49 144q-52 28 -162 28t-160 -41t-51 -107z" />
    <glyph glyph-name="T" unicode="T" horiz-adv-x="1224" 
d="M469 1180h-213l-49 -158q-25 -80 -92 -80q-80 0 -82 80t-2 164v35q1 96 31 127t98 30h905q69 0 99 -30t30 -127v-35q0 -84 -2 -164t-82 -80q-68 0 -92 80l-49 158h-213v-979l106 -31q44 -12 62 -30t18 -55t-27 -61t-73 -24h-459q-47 0 -74 25t-27 61t18 53q17 18 62 31
l107 31v979z" />
    <glyph glyph-name="U" unicode="U" horiz-adv-x="1449" 
d="M166 522v656l-74 26q-82 31 -82 101q0 33 24 53t64 20h432q41 0 65 -20t23 -53q0 -72 -83 -101l-82 -26v-621q0 -188 78 -283q79 -94 219 -94q285 0 284 344v654l-82 26q-84 29 -84 101q0 33 24 53t64 20h396q40 0 64 -20t24 -53q0 -70 -82 -101l-74 -26v-623
q0 -578 -565 -578q-283 1 -418 135t-135 410z" />
    <glyph glyph-name="V" unicode="V" horiz-adv-x="1452" 
d="M16 1305q0 33 24 53t64 20h402q40 0 64 -20t24 -53q0 -72 -88 -105l-55 -20l235 -713l62 -209h4q25 98 61 209l236 713l-56 20q-88 33 -88 105q0 33 24 53t64 20h355q40 0 64 -20t24 -53q0 -70 -84 -107l-49 -20l-359 -1020q-33 -96 -82 -132t-137 -36t-136 36t-81 132
l-358 1020l-50 20q-84 37 -84 107z" />
    <glyph glyph-name="W" unicode="W" horiz-adv-x="2119" 
d="M16 1305q0 33 24 53t64 20h394q40 0 64 -20t24 -56t-20 -59t-68 -43l-49 -20l161 -684l54 -256h4q20 139 47 254l170 727q20 92 67 130t133 38q87 0 135 -38t68 -130l168 -725l49 -256h4q29 137 56 256l159 684l-49 20q-49 20 -68 43t-19 59t23 56q24 20 64 20h340
q41 0 65 -20t23 -53q0 -70 -84 -107l-49 -20l-262 -1022q-25 -92 -77 -129t-140 -37t-141 39t-76 133l-162 702l-47 252h-4q-25 -150 -47 -252l-164 -704q-37 -170 -217 -170q-90 0 -144 38q-52 38 -77 132l-262 1018l-50 20q-84 37 -84 107z" />
    <glyph glyph-name="X" unicode="X" horiz-adv-x="1384" 
d="M1260 1378q88 0 88 -74q0 -36 -18 -59t-66 -45l-50 -22l-352 -473l373 -504l55 -25q46 -20 62 -38t16 -54t-27 -60t-73 -24h-398q-46 0 -72 24t-26 58t18 50q18 17 60 40l41 21l-248 346l-231 -346l41 -21q77 -37 77 -81q0 -91 -98 -91h-315q-47 0 -74 25t-27 59t16 53
q16 18 62 39l56 25l372 499l-352 478l-49 22q-47 20 -66 44q-18 24 -18 60q0 74 88 74h422q41 0 63 -19t23 -52q0 -33 -22 -57t-70 -50l-27 -14l227 -320l211 320l-26 14q-49 26 -71 50q-21 24 -21 57q1 71 86 71h340z" />
    <glyph glyph-name="Y" unicode="Y" horiz-adv-x="1351" 
d="M12 1305q0 33 24 53t64 20h428q41 0 65 -20t23 -53q0 -72 -90 -107l-45 -18l236 -408h4l225 408l-43 18q-88 37 -88 107q0 33 24 53t64 20h348q41 0 65 -20t23 -53q0 -72 -84 -107l-49 -20l-387 -637v-340l103 -31q45 -14 62 -32t17 -54q-1 -36 -27 -60t-73 -24h-450
q-47 0 -74 25t-27 59t18 53q18 18 62 33l102 31v340l-387 637l-49 20q-84 37 -84 107z" />
    <glyph glyph-name="Z" unicode="Z" horiz-adv-x="1132" 
d="M178 952q-80 0 -82 82q-2 72 -2 158v25q0 100 31 131t98 30h641q170 0 170 -149q0 -61 -53 -144l-582 -890h418l53 163q27 80 93 80q80 0 81 -82q2 -72 3 -161v-31q0 -102 -31 -133t-98 -31h-666q-170 0 -170 150q0 61 53 143l582 891h-400l-49 -152q-27 -80 -90 -80z
" />
    <glyph glyph-name="bracketleft" unicode="[" horiz-adv-x="659" 
d="M154 -252v1671q0 102 102 103h246q40 0 64 -20t24 -54q0 -70 -86 -94l-103 -29v-1485l109 -28q45 -12 62 -30q18 -18 18 -52q0 -35 -27 -60t-74 -24h-233q-102 0 -102 102z" />
    <glyph glyph-name="backslash" unicode="\" horiz-adv-x="872" 
d="M764 -342q-80 0 -113 92l-577 1587q-29 89 24 137q35 32 86 31q80 0 113 -92l577 -1587q29 -89 -24 -136q-35 -32 -86 -32z" />
    <glyph glyph-name="bracketright" unicode="]" horiz-adv-x="659" 
d="M70 1438q0 36 26 60t74 24h233q102 0 103 -103v-1671q0 -102 -103 -102h-245q-41 0 -65 20t-23 53q0 70 86 95l102 28v1485l-108 29q-45 12 -63 29q-17 17 -17 53z" />
    <glyph glyph-name="asciicircum" unicode="^" horiz-adv-x="1085" 
d="M543 1399q78 0 131 -84l287 -463q43 -73 -17 -124q-35 -30 -87 -30t-83 52l-237 376l-238 -378q-33 -50 -81 -50t-79 27t-31 63t17 62l289 465q51 84 129 84z" />
    <glyph glyph-name="underscore" unicode="_" horiz-adv-x="1085" 
d="M115 -311h878q92 0 92 -84q0 -117 -114 -117h-879q-92 0 -92 84q0 117 115 117z" />
    <glyph glyph-name="grave" unicode="`" 
d="M305 1416q0 44 46 88q47 44 93 44t78 -45l176 -237q23 -29 23 -59q0 -31 -26 -55t-55 -24t-60 25l-234 186q-41 33 -41 77z" />
    <glyph glyph-name="a" unicode="a" horiz-adv-x="1148" 
d="M510 184q57 0 101 18t65 38l18 18v139q-45 12 -125 13q-195 0 -194 -107q0 -51 39 -85t96 -34zM696 621q0 123 -43 170t-142 47t-187 -23t-111 -23t-45 24q-22 22 -23 56q0 34 34 69q34 34 145 67t247 32q215 0 309 -84t95 -268q0 -35 -3 -183t9 -306l78 -13
q74 -10 74 -76t-76 -92q-94 -33 -199 -32q-137 0 -137 133v10l-4 2q-4 -6 -10 -16t-43 -50t-109 -62q-73 -23 -137 -23q-147 0 -240 86q-92 86 -92 215t116 207t345 77l149 -10v66z" />
    <glyph glyph-name="b" unicode="b" horiz-adv-x="1196" 
d="M578 174q250 0 249 344q0 160 -57 237t-154 76q-55 -1 -103 -25t-69 -48l-20 -23v-522q53 -39 154 -39zM705 1040q197 0 303 -124t106 -380t-152 -408q-152 -151 -425 -151q-203 -1 -297 51t-95 140v1100l-82 18q-76 16 -75 84q0 37 17 56t87 40t166 21t131 -35t35 -125
v-256q0 -78 -14 -172l4 -2q95 143 291 143z" />
    <glyph glyph-name="c" unicode="c" horiz-adv-x="974" 
d="M610 848q-108 0 -176 -87t-68 -253t72 -247t203 -81q55 0 113 16t69 15q70 0 70 -74q0 -39 -31 -69q-90 -90 -306 -90t-345 130q-129 132 -129 376t154 401q154 158 399 157q162 0 223 -61q31 -31 31 -139v-19q0 -55 -2 -114q-2 -82 -80 -82q-63 0 -90 82l-41 129
q-23 10 -66 10z" />
    <glyph glyph-name="d" unicode="d" horiz-adv-x="1228" 
d="M618 846q-250 0 -249 -344q0 -160 57 -237t154 -77q55 0 103 25t69 49l20 23v522q-53 39 -154 39zM772 1139v129l-94 20q-76 16 -76 82q0 37 18 56t88 40t172 21t136 -35q35 -35 35 -125v-1126l84 -15q41 -8 57 -25t16 -55q0 -61 -75 -88q-94 -33 -195 -32
q-137 0 -137 133v26l-4 2q-4 -13 -36 -50q-99 -117 -282 -117q-184 0 -291 123q-106 124 -106 381t151 408q152 151 426 150q29 0 113 -12l4 4q-4 58 -4 105z" />
    <glyph glyph-name="e" unicode="e" horiz-adv-x="1089" 
d="M561 850q-80 0 -131 -59t-65 -168h366q-6 227 -170 227zM862 465h-502q29 -285 308 -285q72 0 140 18t83 19q70 0 70 -74q0 -39 -31 -69q-96 -96 -339 -96t-376 132t-133 382t141 400q141 151 373 150q192 0 300 -110t108 -311q-1 -156 -142 -156z" />
    <glyph glyph-name="f" unicode="f" horiz-adv-x="751" 
d="M211 829h-78q-92 0 -92 82q0 49 30 79t85 30h55v47q0 205 114 317t324 111q127 0 163 -36t36 -132v-16q0 -43 -2 -88q-2 -76 -78 -76q-63 0 -90 80l-25 73q-14 6 -43 7q-121 0 -121 -160v-127h146q92 0 92 -82q0 -109 -115 -109h-123v-632l99 -27q78 -20 78 -84
q0 -38 -27 -62t-74 -24h-420q-47 0 -73 25t-27 61q0 36 16 52q16 17 62 32l88 27v632z" />
    <glyph glyph-name="g" unicode="g" horiz-adv-x="1089" 
d="M393 681q0 -77 44 -123t113 -46q68 0 110 44t42 121t-44 123t-112 46t-111 -44q-42 -44 -42 -121zM518 -16q-105 0 -153 12q-47 -59 -48 -137q0 -158 232 -158q109 0 170 48q61 47 61 111t-40 94t-138 30h-84zM1069 1122q0 -38 -25 -64q-24 -26 -76 -60t-81 -60
q94 -84 94 -244t-123 -269q-123 -108 -340 -108l-123 11q-20 -25 -20 -64q0 -40 38 -60t140 -20h102q403 0 404 -284q0 -158 -151 -275t-393 -117t-354 82t-112 213q0 154 166 244q-74 53 -74 157t115 179q-141 84 -141 263t123 287t340 107q77 0 157 -20q63 100 115 150
t103 50q52 0 84 -29q32 -30 32 -69z" />
    <glyph glyph-name="h" unicode="h" horiz-adv-x="1296" 
d="M737 1040q385 0 385 -393v-450l78 -25q44 -14 60 -32t16 -55t-27 -61t-73 -24h-381q-47 0 -74 25t-27 61t16 53q16 18 60 33l74 25v385q0 133 -48 191t-145 58q-55 -1 -103 -25t-69 -48l-20 -23v-538l73 -25q44 -14 60 -32t16 -55t-26 -61t-74 -24h-381q-47 0 -74 25
t-26 61q0 61 69 84l84 27v1071l-82 18q-76 16 -75 84q0 37 17 56q16 19 86 40t166 21t132 -35q35 -35 35 -125v-256q0 -78 -15 -172l5 -2q95 143 288 143z" />
    <glyph glyph-name="i" unicode="i" horiz-adv-x="669" 
d="M174 1296q0 74 49 123t123 49t121 -47t47 -121t-49 -122t-123 -50q-74 0 -121 47t-47 121zM41 918q0 37 17 56t88 40q70 20 172 20t137 -35t34 -125v-677l84 -25q70 -20 70 -70t-28 -76t-74 -26h-396q-47 0 -73 25t-27 61q0 36 16 52q16 17 62 32l88 27v618l-94 21
q-76 16 -76 82z" />
    <glyph glyph-name="j" unicode="j" horiz-adv-x="604" 
d="M147 1296q-1 72 49 121t122 49t118 -47q47 -47 47 -119t-49 -120t-121 -50q-72 0 -119 47t-47 119zM180 10v805l-82 19q-76 16 -75 84q0 37 17 56q16 19 86 40q70 20 166 20t132 -35q35 -35 35 -125v-796q0 -301 -137 -443q-113 -113 -250 -112q-49 1 -75 23t-26 56
q-1 34 13 51t49 38q71 41 109 111t38 208z" />
    <glyph glyph-name="k" unicode="k" horiz-adv-x="1212" 
d="M292 1487q96 0 132 -35q35 -35 35 -125v-758l282 265l-36 20q-57 33 -58 92q0 33 23 53t63 21h354q41 0 65 -20t24 -54q0 -68 -89 -104l-53 -23l-284 -248l112 -145q141 -182 287 -262q47 -27 47 -70t-45 -75q-45 -31 -135 -31q-183 1 -336 219l-221 315v-325l35 -17
q45 -20 59 -40t14 -55q-1 -37 -29 -61t-75 -24h-336q-47 0 -74 25t-26 61q0 61 69 84l84 27v1071l-82 18q-76 16 -75 84q0 37 17 56q16 19 86 40t166 21z" />
    <glyph glyph-name="l" unicode="l" horiz-adv-x="638" 
d="M292 1487q96 0 132 -35q35 -35 35 -125v-1130l78 -25q43 -14 59 -32t16 -55t-26 -61t-74 -24h-385q-47 0 -74 25t-26 61q0 61 69 84l84 27v1071l-82 18q-76 16 -75 84q0 37 17 56q16 19 86 40t166 21z" />
    <glyph glyph-name="m" unicode="m" horiz-adv-x="1966" 
d="M41 918q0 37 17 56t88 40q72 20 162 20t122 -30t31 -103v-27l4 -2q6 17 37 53q100 115 274 115q227 0 320 -174q4 6 11 18t35 43q28 29 62 53q85 60 241 60q155 0 251 -100t96 -293v-450l78 -25q43 -14 59 -32q17 -18 17 -55t-27 -61t-74 -24h-375q-48 0 -74 25t-26 59
t16 53q16 18 60 35l67 25v385q0 250 -186 249q-55 1 -102 -25t-68 -52l-20 -25q4 -31 4 -82v-450l67 -25q44 -16 60 -34t16 -54t-27 -60t-73 -24h-365q-47 0 -74 25t-27 59t17 53q16 18 60 35l67 25v385q0 250 -186 249q-53 -1 -99 -25t-67 -48l-21 -23v-538l68 -25
q43 -16 59 -34t16 -54t-26 -60q-27 -24 -74 -24h-387q-47 0 -73 25t-27 61q0 36 16 52q16 17 62 32l88 27v618l-94 21q-76 16 -76 82z" />
    <glyph glyph-name="n" unicode="n" horiz-adv-x="1327" 
d="M41 918q0 37 17 56t88 40q72 20 162 20t122 -30t31 -103v-27l4 -2q6 17 37 53q100 115 279 115t275 -100t97 -293v-450l78 -25q43 -14 59 -32t16 -55t-26 -61q-27 -24 -74 -24h-381q-47 0 -73 25t-27 61q0 36 16 53q16 18 60 33l73 25v385q0 133 -48 191t-144 58
q-55 -1 -103 -25t-69 -48l-21 -23v-538l74 -25q43 -14 59 -32t17 -55q0 -37 -27 -61t-73 -24h-394q-47 0 -73 25t-27 61q0 36 16 52q16 17 62 32l88 27v618l-94 21q-76 16 -76 82z" />
    <glyph glyph-name="o" unicode="o" horiz-adv-x="1208" 
d="M369 514q-1 -166 67 -253t172 -87t168 83q63 83 64 249q0 166 -68 253t-172 87t-168 -83t-63 -249zM587 -23q-243 0 -374 133t-131 378t152 400q154 154 392 154t369 -133t131 -379t-148 -399q-148 -154 -391 -154z" />
    <glyph glyph-name="p" unicode="p" horiz-adv-x="1228" 
d="M610 174q250 0 250 344q0 160 -57 237t-154 76q-55 -1 -103 -25t-69 -48l-20 -23v-522q53 -39 153 -39zM569 -23q-21 0 -112 13l-4 -4q4 -57 4 -105v-153l88 -27q45 -13 61 -31t16 -54t-26 -60q-27 -24 -74 -25h-397q-47 0 -74 25t-26 61q0 61 69 84l84 27v1087l-82 19
q-76 16 -76 84q0 37 18 56t86 40q70 20 156 20t118 -30q30 -30 30 -103v-27l4 -2q6 17 37 53q100 115 282 115q183 0 289 -124t106 -380t-151 -408q-152 -151 -426 -151z" />
    <glyph glyph-name="q" unicode="q" horiz-adv-x="1196" 
d="M618 846q-250 0 -249 -344q0 -160 57 -237t154 -77q55 0 103 25t69 49l20 23v522q-53 39 -154 39zM82 484q0 257 151 408q152 151 426 150q203 0 308 -57q84 -45 84 -133v-1124l77 -25q44 -15 60 -33t16 -54t-26 -60t-74 -25h-397q-47 0 -74 25q-27 24 -27 60t16 53
t62 32l88 27v221q0 78 14 172l-4 2q-95 -143 -291 -143t-303 123q-106 124 -106 381z" />
    <glyph glyph-name="r" unicode="r" horiz-adv-x="872" 
d="M41 918q0 37 17 56t88 40q72 20 162 20t122 -30t31 -103v-57l4 -2q41 96 114 150t160 55q111 0 111 -111q0 -84 -32 -132t-73 -48q-18 0 -46 12t-50 12q-94 0 -160 -82v-501l99 -27q78 -20 78 -84q0 -38 -27 -62t-74 -24h-420q-47 0 -73 25t-27 61q0 36 16 52
q16 17 62 32l88 27v618l-94 21q-76 16 -76 82z" />
    <glyph glyph-name="s" unicode="s" horiz-adv-x="985" 
d="M629 266q0 80 -187 140q-78 26 -154 58t-131 100q-54 68 -55 167q0 137 114 224t328 87t275 -61q31 -31 31 -107v-10q0 -55 -2 -86q-6 -76 -82 -76q-61 0 -88 76l-21 60q-59 23 -141 22q-143 0 -143 -90q0 -45 54 -76q54 -32 131 -56t155 -58t132 -103q54 -70 54 -172
q0 -141 -120 -234t-345 -93t-291 65q-31 31 -30 107v14q0 55 2 86q6 76 82 76q61 0 88 -76l22 -64q59 -27 158 -26q164 0 164 106z" />
    <glyph glyph-name="t" unicode="t" horiz-adv-x="751" 
d="M731 133q0 -43 -35 -78q-68 -68 -233 -67q-289 0 -289 317v524h-70q-94 0 -94 82q0 49 30 79t85 30h55l37 145q16 68 49 99t90 30q96 0 97 -92v-182h176q92 0 92 -82q0 -109 -115 -109h-153v-464q0 -176 110 -177l107 13q61 0 61 -68z" />
    <glyph glyph-name="u" unicode="u" horiz-adv-x="1292" 
d="M174 362v453l-82 19q-76 16 -76 84q0 37 18 56t86 40q70 20 166 20t132 -35q35 -35 35 -125v-446q0 -129 46 -184q45 -56 121 -56t124 25t69 49l21 23v530l-95 21q-76 16 -75 82q0 37 17 56t87 40q70 20 172 20t137 -35t35 -125v-673l84 -15q41 -8 57 -25t17 -55
q0 -61 -76 -88q-94 -33 -195 -32q-137 0 -137 133v26l-4 2q-5 -15 -37 -52q-100 -115 -279 -115t-274 97q-94 97 -94 285z" />
    <glyph glyph-name="v" unicode="v" horiz-adv-x="1222" 
d="M16 946q0 33 24 53t64 21h353q41 0 65 -20t23 -55t-19 -57t-67 -44l-35 -17l149 -395l64 -190h4q25 90 64 194l147 391l-35 17q-49 24 -67 46t-18 56t23 53q24 20 64 21h299q41 0 65 -20t23 -54q0 -76 -84 -108l-35 -15l-272 -665q-41 -98 -83 -133t-122 -35t-122 35
q-41 35 -82 133l-271 665l-35 15q-84 33 -84 108z" />
    <glyph glyph-name="w" unicode="w" horiz-adv-x="1779" 
d="M16 946q0 33 24 53t64 21h351q41 0 65 -20t23 -55t-19 -57t-67 -44l-35 -17l110 -385l50 -204h4q14 104 37 204l96 414q23 96 68 135t131 39t132 -38t66 -132l98 -418l37 -204h4q18 98 50 204l110 385l-35 17q-49 24 -67 46q-19 22 -19 56t24 53q24 20 64 21h293
q41 0 65 -20t23 -54q0 -76 -84 -108l-34 -15l-218 -665q-33 -96 -75 -132t-127 -36q-84 0 -128 37t-67 131l-104 442l-35 195h-4q-10 -94 -35 -199l-104 -438q-23 -94 -67 -131t-127 -37t-127 36t-77 132l-215 665l-35 15q-84 33 -84 108z" />
    <glyph glyph-name="x" unicode="x" horiz-adv-x="1202" 
d="M483 1020q91 0 89 -81q0 -40 -50 -85l-20 -18l157 -183l138 183l-21 18q-49 45 -49 85q0 79 88 81h268q41 0 65 -20t23 -54q0 -72 -77 -108l-37 -17l-279 -299l291 -325l45 -21q70 -31 70 -90q0 -38 -27 -62t-74 -24h-354q-47 0 -74 25t-27 65t64 82l19 12l-170 197
l-148 -197l19 -12q63 -43 63 -83q-1 -41 -27 -65t-73 -24h-256q-47 0 -74 25t-27 61q0 57 70 90l45 21l289 315l-277 309l-36 17q-78 37 -78 108q0 33 23 53q24 20 65 21h364z" />
    <glyph glyph-name="y" unicode="y" horiz-adv-x="1222" 
d="M16 946q0 33 24 53t64 21h353q41 0 65 -20t23 -55t-19 -57t-67 -44l-35 -17l149 -395l64 -190h4q25 90 64 194l147 391l-35 17q-49 24 -67 46t-18 56t23 53q24 20 64 21h299q41 0 65 -20t23 -54q0 -76 -84 -108l-35 -15l-282 -692q-152 -369 -308 -500
q-139 -114 -288 -112q-88 0 -137 38t-49 100t28 97q29 35 65 35t80 -11t102 -11q118 0 196 176l-359 880l-35 15q-84 33 -84 108z" />
    <glyph glyph-name="z" unicode="z" horiz-adv-x="1009" 
d="M182 653q-76 0 -78 82q-2 51 -2 125v17q0 83 31 113t92 30h523q78 0 118 -38t41 -100q0 -62 -67 -149l-439 -549h308l39 115q29 82 90 82q76 -1 78 -95q2 -54 2 -126v-17q0 -83 -31 -113t-92 -30h-543q-78 0 -119 38t-41 100t68 149l438 549h-293l-33 -101
q-27 -82 -90 -82z" />
    <glyph glyph-name="braceleft" unicode="{" horiz-adv-x="776" 
d="M244 45v217q0 111 -31 160t-96 72q-66 20 -66 95t66 97q67 22 97 78q30 55 30 194v154q0 418 334 418h6q135 0 135 -90q0 -84 -96 -84h-13q-57 0 -80 -37t-22 -145v-154q0 -193 -42 -287t-124 -137v-4q82 -43 124 -132t42 -259v-197q0 -112 27 -152t86 -40h12
q86 0 86 -76q0 -45 -38 -72t-112 -26h-6q-319 -1 -319 407z" />
    <glyph glyph-name="bar" unicode="|" horiz-adv-x="663" 
d="M211 -371v1745q0 121 121 121t121 -121v-1745q0 -121 -121 -121t-121 121z" />
    <glyph glyph-name="braceright" unicode="}" horiz-adv-x="772" 
d="M268 -6v166q0 180 42 272t124 135v4q-82 43 -124 135t-42 273v184q0 113 -26 153q-27 40 -86 40h-13q-86 0 -86 76q0 46 38 72t112 26h6q315 0 315 -408v-202q0 -113 31 -162t96 -72q66 -20 66 -95t-66 -97q-67 -22 -97 -78q-30 -55 -30 -195v-166q0 -418 -329 -417h-6
q-135 0 -136 90q0 84 97 84h12q57 0 80 36q22 37 22 146z" />
    <glyph glyph-name="asciitilde" unicode="~" horiz-adv-x="1085" 
d="M378 748q89 0 191 -65t148 -65q70 0 127 91q20 31 58 31t66 -26q43 -40 17 -106q-39 -84 -114 -135t-163 -51t-192 64q-102 64 -147 65q-70 0 -127 -90q-20 -31 -58 -31t-66 26t-28 53t10 52q39 83 114 135t164 52z" />
    <glyph glyph-name="uni00A0" unicode="&#xa0;" horiz-adv-x="522" 
 />
    <glyph glyph-name="exclamdown" unicode="&#xa1;" horiz-adv-x="643" 
d="M147 920q1 76 51 126t126 50t124 -48t48 -124t-50 -126t-127 -50q-76 0 -124 48t-48 124zM322 645q104 0 108 -92l37 -723q6 -104 6 -129q1 -111 -151 -111t-152 111q0 25 6 129l37 723q5 92 109 92z" />
    <glyph glyph-name="cent" unicode="&#xa2;" horiz-adv-x="1013" 
d="M350 629q0 -141 83 -223t220 -82q72 0 134 16t71 16q70 0 70 -75q0 -37 -31 -68q-66 -66 -229 -86v-193q0 -96 -90 -96t-91 96v195q-199 23 -307 147t-106 312q0 188 114 327q115 139 301 183v207q1 96 91 96t90 -96v-191q168 -6 223 -61q31 -31 31 -127v-19
q0 -63 -2 -116q-2 -82 -80 -82q-65 0 -90 82l-37 120q-27 12 -86 13q-129 0 -204 -77t-75 -218z" />
    <glyph glyph-name="sterling" unicode="&#xa3;" horiz-adv-x="1056" 
d="M160 592q-88 0 -88 76q0 46 30 76t84 30h37q-43 125 -43 219q0 166 132 282t347 116q131 -1 206 -51t75 -111t-38 -99t-76 -36q-58 1 -99 56q-41 56 -116 56t-119 -43t-43 -104q0 -61 11 -111t28 -100q17 -49 24 -74h223q88 0 88 -76q1 -46 -29 -76t-85 -30h-185
q-23 -188 -196 -381l2 -2h463l41 137q25 82 86 82q78 0 80 -91t1 -177v-17q-1 -83 -31 -113t-91 -30h-621q-172 0 -172 139q0 51 54 127t74 109q18 33 36 93t14 124h-104z" />
    <glyph glyph-name="currency" unicode="&#xa4;" horiz-adv-x="1124" 
d="M379 708q0 -112 52 -176t134 -63q82 0 131 61q49 62 49 174t-52 175t-134 63t-131 -61t-49 -173zM94 1118q0 40 40 82q40 41 88 41t77 -47l84 -137q89 39 193 39t178 -29l80 129q28 47 76 47t85 -35t37 -76t-35 -73l-102 -92q78 -92 78 -244t-88 -258l112 -103
q33 -30 33 -70t-40 -81t-88 -41t-77 47l-84 137q-88 -39 -192 -39t-178 29l-80 -129q-29 -47 -77 -47t-85 35t-37 75t35 74l102 92q-77 92 -77 244t88 258l-113 103q-33 29 -33 69z" />
    <glyph glyph-name="yen" unicode="&#xa5;" horiz-adv-x="1306" 
d="M520 274h-235q-84 0 -84 70q0 86 110 86h209v96h-235q-84 0 -84 70q0 86 110 86h144l-303 496l-50 20q-80 33 -79 107q0 33 23 53q24 20 65 20h391q40 0 64 -20t24 -51q0 -59 -78 -99l-45 -22l223 -398h4l213 398l-45 22q-78 39 -78 99q0 31 24 51t64 20h324q41 0 65 -20
t23 -53q0 -74 -80 -107l-49 -20l-299 -496h170q84 0 84 -70q0 -86 -111 -86h-208v-96h235q84 0 84 -70q0 -86 -111 -86h-208v-81l102 -31q45 -14 62 -32t17 -50t-27 -56q-28 -24 -73 -24h-434q-44 0 -72 24t-28 56t17 50q17 17 63 32l102 31v81z" />
    <glyph glyph-name="brokenbar" unicode="&#xa6;" horiz-adv-x="663" 
d="M211 -371v633q0 121 121 121t121 -121v-633q0 -121 -121 -121t-121 121zM211 754v620q0 121 121 121t121 -121v-620q0 -121 -121 -121t-121 121z" />
    <glyph glyph-name="section" unicode="&#xa7;" horiz-adv-x="1130" 
d="M373 606q0 -47 35 -90q34 -44 72 -68t111 -65t103 -61q64 53 64 136t-75 141q-56 44 -136 89t-111 64q-63 -54 -63 -146zM544 -145q114 0 112 109q-1 96 -192 197q-79 42 -159 89t-136 122t-56 169q0 199 198 305q-90 94 -90 209q0 145 116 245t302 101q133 0 208 -50
q75 -51 75 -111t-39 -99t-92 -39q-31 0 -89 58t-115 58q-112 1 -112 -109q0 -94 192 -197q79 -42 159 -89t136 -122t56 -169q0 -203 -201 -305q92 -92 92 -223q1 -131 -115 -231t-302 -101q-133 0 -208 50t-75 110t39 100q39 39 92 39q31 0 89 -58q59 -58 115 -58z" />
    <glyph glyph-name="dieresis" unicode="&#xa8;" 
d="M567 1296q0 68 47 115t115 47t113 -45t45 -113t-47 -114t-115 -47q-68 1 -113 45t-45 112zM137 1296q0 68 47 115t115 47t113 -45t45 -113t-47 -114t-115 -47q-68 1 -113 45t-45 112z" />
    <glyph glyph-name="copyright" unicode="&#xa9;" horiz-adv-x="1640" 
d="M860 940q-84 0 -133 -60t-49 -182t58 -188q58 -64 165 -64q43 0 81 10t46 11q53 0 53 -55q0 -31 -22 -54q-68 -68 -233 -68t-263 103t-98 283t116 295t296 114q129 0 178 -49q23 -23 22 -102v-14q0 -43 -2 -78q-2 -61 -59 -62q-54 1 -70 62l-24 88q-20 10 -62 10z
M291 687q0 -249 146 -399t382 -151q236 0 383 153q148 154 148 402t-146 399t-383 151q-236 0 -383 -154q-147 -152 -147 -401zM98 670q0 309 213 520t529 211q316 1 509 -191t193 -501t-213 -521t-528 -211q-315 0 -509 192t-194 501z" />
    <glyph glyph-name="ordfeminine" unicode="&#xaa;" horiz-adv-x="892" 
d="M199 590h520q88 0 88 -76q0 -104 -113 -104h-520q-88 0 -88 75q0 105 113 105zM434 971q-109 0 -108 -60q0 -29 22 -48t71 -19q50 0 75 33l10 10v78q-25 6 -70 6zM506 1116q0 66 -26 92t-90 27q-64 0 -124 -15q-60 -16 -78 -16t-34 18t-16 44q-1 62 129 101q79 24 203 24
q257 0 257 -232q0 -248 4 -305l41 -8q53 -10 53 -60q0 -94 -198 -94q-96 0 -97 84v6l-4 2q-6 -10 -19 -26t-65 -43t-134 -27t-146 58t-64 146t78 141q78 54 236 54l94 -6v35z" />
    <glyph glyph-name="guillemotleft" unicode="&#xab;" horiz-adv-x="1236" 
d="M82 513q0 44 43 87l315 330q37 37 81 37t76 -27t32 -63t-25 -72l-207 -289l213 -297q23 -33 23 -71t-36 -68q-36 -31 -81 -31t-80 35l-311 336q-43 49 -43 93zM612 510q0 45 45 90l291 307q37 37 81 37t73 -26q28 -26 28 -64q0 -37 -24 -72l-191 -266l197 -274
q23 -33 23 -70t-35 -68q-35 -30 -81 -30t-79 35l-283 311q-45 45 -45 90z" />
    <glyph glyph-name="logicalnot" unicode="&#xac;" horiz-adv-x="1085" 
d="M209 682h639q123 0 123 -125v-264q-1 -119 -105 -119t-104 119v192h-553q-43 0 -70 27t-26 72q1 46 27 72t69 26z" />
    <glyph glyph-name="registered" unicode="&#xae;" horiz-adv-x="974" 
d="M451 1112h43q70 0 69 55q0 53 -67 54h-45v-109zM494 911q0 -29 -35 -28h-131q-35 0 -35 30q0 20 26 31l27 8v271l-24 8q-29 12 -29 37t31 24h182q166 0 166 -112q0 -78 -78 -113l14 -33q29 -70 72 -92q18 -8 18 -24q0 -39 -51 -39q-51 1 -78 25t-49 83l-22 60h-47v-95
q43 -19 43 -41zM797 1080q0 144 -87 232q-86 88 -224 89q-138 -1 -223 -87t-85 -226t87 -228t228 -88t223 82q81 82 81 226zM486 678q-186 0 -302 112t-116 289q0 176 120 296t304 120t300 -113q116 -114 116 -292t-118 -295t-304 -117z" />
    <glyph glyph-name="macron" unicode="&#xaf;" 
d="M270 1397h506q92 0 92 -84q0 -51 -30 -82t-84 -31h-506q-92 0 -92 84q0 51 29 82q30 31 85 31z" />
    <glyph glyph-name="degree" unicode="&#xb0;" horiz-adv-x="839" 
d="M420 1341q-64 -1 -104 -41t-40 -107t40 -107t104 -40t103 40q40 40 40 107t-40 107t-103 41zM92 1189q0 130 93 218t239 88t235 -83t89 -214t-94 -218t-239 -87q-146 0 -235 83q-88 83 -88 213z" />
    <glyph glyph-name="plusminus" unicode="&#xb1;" horiz-adv-x="1085" 
d="M199 197h686q45 0 71 -27t25 -72q0 -46 -26 -72t-70 -26h-686q-43 0 -70 27t-27 71t27 72q27 27 70 27zM436 670h-237q-43 0 -70 26t-27 72q0 45 27 72t70 26h237v228q0 119 107 118q106 0 106 -118v-228h236q45 0 71 -26t25 -72q0 -45 -26 -72t-70 -26h-236v-228
q0 -119 -106 -118q-106 0 -107 118v228z" />
    <glyph glyph-name="twosuperior" unicode="&#xb2;" horiz-adv-x="718" 
d="M346 1139q0 70 -108 69q-37 0 -69 -6q-31 -6 -49 -6t-34 18t-16 52t26 59q66 66 216 66q150 -1 225 -59q73 -58 73 -145t-55 -155t-184 -174l-52 -43h183l14 35q20 53 68 53q59 0 61 -61q2 -29 2 -80v-10q-1 -76 -23 -99t-71 -22h-358q-59 0 -95 33q-34 33 -34 90t53 104
l94 88q55 52 75 72q58 58 58 121z" />
    <glyph glyph-name="threesuperior" unicode="&#xb3;" horiz-adv-x="735" 
d="M303 618q-111 0 -172 40t-61 104q0 84 80 84q18 0 63 -33t92 -33q88 0 88 70q0 78 -176 78q-78 0 -78 90q1 35 17 51t73 16q141 0 142 68q0 55 -97 55q-38 0 -74 -8t-56 -8t-35 18q-17 18 -17 52t27 59q70 70 221 70q151 -1 220 -53t69 -132q0 -123 -115 -168v-4
q61 -12 102 -58t41 -112q0 -102 -93 -174t-261 -72z" />
    <glyph glyph-name="acute" unicode="&#xb4;" 
d="M583 1548q46 0 92 -44t46 -88t-41 -77l-234 -186q-30 -25 -60 -25t-56 25t-25 55q0 30 23 58l176 237q33 45 79 45z" />
    <glyph glyph-name="mu" unicode="&#xb5;" horiz-adv-x="1349" 
d="M1092 -12q-174 0 -203 157l-4 2q-6 -19 -34 -52q-93 -113 -224 -113q-53 0 -97 13t-59 25l-14 15l-2 -2l18 -365q6 -72 -36 -112q-43 -40 -113 -39q-70 0 -97 27q-26 28 -26 87v1184l-82 19q-76 16 -76 84q0 37 17 56t87 40q70 20 166 20t131 -35t35 -125v-436
q0 -133 47 -191t144 -59q55 0 102 25t68 49l20 23v530l-94 21q-76 16 -76 82q0 37 18 56t88 40q70 20 172 20t136 -35q35 -35 35 -125v-585q0 -104 75 -105l35 2q57 0 57 -60t-58 -99t-156 -39z" />
    <glyph glyph-name="mu" unicode="&#x3bc;" horiz-adv-x="1349" 
d="M1092 -12q-174 0 -203 157l-4 2q-6 -19 -34 -52q-93 -113 -224 -113q-53 0 -97 13t-59 25l-14 15l-2 -2l18 -365q6 -72 -36 -112q-43 -40 -113 -39q-70 0 -97 27q-26 28 -26 87v1184l-82 19q-76 16 -76 84q0 37 17 56t87 40q70 20 166 20t131 -35t35 -125v-436
q0 -133 47 -191t144 -59q55 0 102 25t68 49l20 23v530l-94 21q-76 16 -76 82q0 37 18 56t88 40q70 20 172 20t136 -35q35 -35 35 -125v-585q0 -104 75 -105l35 2q57 0 57 -60t-58 -99t-156 -39z" />
    <glyph glyph-name="paragraph" unicode="&#xb6;" horiz-adv-x="1329" 
d="M1169 1378q82 0 82 -69q0 -59 -82 -86l-82 -27v-1319l82 -27q45 -14 63 -32t19 -47q0 -76 -88 -76h-211q-38 -1 -62 23t-24 63v1409h-129v-1409q-1 -39 -23 -63t-63 -23h-231q-88 0 -88 76q0 29 18 46t66 31l100 29v606q-184 0 -291 114q-106 114 -106 330t125 334
t374 117h551z" />
    <glyph glyph-name="periodcentered" unicode="&#xb7;" horiz-adv-x="610" 
d="M127 545q0 78 51 129t129 51t127 -49t49 -127t-51 -129t-129 -51t-127 49t-49 127z" />
    <glyph glyph-name="cedilla" unicode="&#xb8;" 
d="M473 -289q0 53 -82 53q-51 1 -37 54l45 182h156l-18 -78q90 -6 148 -53t58 -138t-93 -157q-92 -66 -246 -66t-154 82q0 27 17 45t48 19l68 -2q90 0 90 59z" />
    <glyph glyph-name="onesuperior" unicode="&#xb9;" horiz-adv-x="614" 
d="M106 1163q-22 1 -39 19t-18 47q0 29 30 59t123 64q93 35 152 34q100 0 101 -108v-479l63 -21q68 -23 68 -73q0 -33 -20 -53t-56 -21h-371q-35 0 -55 20t-21 54q0 51 66 71l78 23v375l-41 -7q-38 -4 -60 -4z" />
    <glyph glyph-name="ordmasculine" unicode="&#xba;" horiz-adv-x="919" 
d="M207 590h530q88 0 88 -76q0 -104 -112 -104h-531q-88 0 -88 75q0 105 113 105zM326 1041q0 -97 39 -148t98 -51t95 48t36 146t-39 150t-97 51q-58 0 -96 -49q-36 -50 -36 -147zM98 1025q0 161 104 263t272 102q167 0 257 -87q90 -88 90 -249t-103 -263
q-104 -103 -272 -103t-258 88t-90 249z" />
    <glyph glyph-name="guillemotright" unicode="&#xbb;" horiz-adv-x="1236" 
d="M604 868q0 38 36 68q36 31 81 31t80 -35l311 -336q43 -49 43 -93t-43 -87l-315 -330q-37 -37 -81 -37t-76 27q-32 26 -32 62t25 73l207 289l-213 297q-23 33 -23 71zM102 844q0 38 35 68t81 30t79 -35l283 -311q45 -45 45 -90t-45 -90l-291 -307q-37 -37 -81 -37t-73 26
t-29 64q0 36 25 71l191 267l-197 274q-23 33 -23 70z" />
    <glyph glyph-name="onequarter" unicode="&#xbc;" horiz-adv-x="1708" 
d="M1288 375v200l-158 -200h158zM1375 760q81 0 115 -28t34 -85v-272h61q66 0 66 -76q0 -41 -24 -66t-66 -24h-37v-51l41 -17q53 -20 53 -69q0 -72 -82 -72h-274q-82 0 -82 72q0 45 55 65l53 21v51h-219q-131 0 -131 117q0 57 43 110l168 213q51 63 98 87t128 24zM376 56
q0 30 25 73l719 1208q37 63 81 63t69 -23q47 -45 0 -128l-719 -1208q-37 -63 -81 -63t-69 23q-25 25 -25 55zM106 1163q-22 1 -39 19t-18 47q0 29 30 59t123 64q93 35 152 34q100 0 101 -108v-479l63 -21q68 -23 68 -73q0 -33 -20 -53t-56 -21h-371q-35 0 -55 20t-21 54
q0 51 66 71l78 23v375l-41 -7q-38 -4 -60 -4z" />
    <glyph glyph-name="onehalf" unicode="&#xbd;" horiz-adv-x="1701" 
d="M1329 508q0 70 -108 70q-37 0 -68 -6t-49 -7q-18 1 -35 19q-16 18 -16 51t26 59q67 66 217 66t224 -58t74 -146q0 -87 -56 -155q-55 -68 -184 -174l-51 -43h182l14 35q20 53 68 53q59 0 61 -61q2 -29 2 -80v-10q0 -77 -22 -99t-72 -22h-358q-59 0 -95 33q-35 33 -35 90
t54 104l94 88q54 53 74 73q58 58 59 120zM376 56q0 30 25 73l719 1208q37 63 81 63t69 -23q47 -45 0 -128l-719 -1208q-37 -63 -81 -63t-69 23q-25 25 -25 55zM106 1163q-22 1 -39 19t-18 47q0 29 30 59t123 64q93 35 152 34q100 0 101 -108v-479l63 -21q68 -23 68 -73
q0 -33 -20 -53t-56 -21h-371q-35 0 -55 20t-21 54q0 51 66 71l78 23v375l-41 -7q-38 -4 -60 -4z" />
    <glyph glyph-name="threequarters" unicode="&#xbe;" horiz-adv-x="1738" 
d="M1319 375v200l-158 -200h158zM1406 760q81 0 115 -28t33 -85v-272h62q66 0 65 -76q1 -41 -23 -66t-67 -24h-37v-51l41 -17q53 -20 54 -69q0 -72 -82 -72h-275q-82 0 -82 72q0 45 56 65l53 21v51h-219q-131 0 -131 117q0 57 43 110l168 213q51 63 98 87t128 24zM1325 1322
q0 -30 -25 -73l-718 -1208q-37 -63 -81 -63t-69 23q-25 25 -25 55t25 73l719 1208q37 63 81 63t68 -23q24 -25 25 -55zM303 618q-111 0 -172 40t-61 104q0 84 80 84q18 0 63 -33t92 -33q88 0 88 70q0 78 -176 78q-78 0 -78 90q1 35 17 51t73 16q141 0 142 68q0 55 -97 55
q-38 0 -74 -8t-56 -8t-35 18q-17 18 -17 52t27 59q70 70 221 70q151 -1 220 -53t69 -132q0 -123 -115 -168v-4q61 -12 102 -58t41 -112q0 -102 -93 -174t-261 -72z" />
    <glyph glyph-name="questiondown" unicode="&#xbf;" horiz-adv-x="774" 
d="M268 920q0 76 50 126t126 50t124 -48t48 -124t-50 -126t-126 -50t-124 48t-48 124zM334 415q0 46 -8 87q-8 42 -8 68t34 51q35 25 105 25q69 0 111 -50q42 -49 42 -128q0 -138 -98 -243q-41 -43 -82 -85q-100 -102 -99 -186q1 -83 49 -127t114 -44t116 15q51 16 82 16
q30 0 52 -24t22 -58t-29 -64q-90 -90 -291 -90t-302 86t-101 234t102 255q43 44 86 84t73 86t30 92z" />
    <glyph glyph-name="Agrave" unicode="&#xc0;" horiz-adv-x="1484" 
d="M436 1740q0 54 43 100t82 46t66 -22l245 -226q25 -26 25 -58t-26 -58q-27 -26 -53 -25q-26 0 -46 10l-287 152q-49 27 -49 81zM520 553h398l-127 362l-70 228h-4q-33 -113 -72 -228zM743 1389q89 0 139 -37t85 -131l368 -1020l58 -25q43 -18 59 -38t16 -54q0 -36 -26 -60
t-74 -24h-373q-47 0 -73 25t-27 59q0 34 17 52q17 17 63 36l61 25l-59 176h-516l-62 -176l62 -25q45 -18 62 -36t17 -52q0 -36 -26 -60q-27 -24 -74 -24h-323q-47 0 -74 25t-27 59t16 54q16 19 60 38l58 25l370 1020q35 94 84 131t139 37z" />
    <glyph glyph-name="Aacute" unicode="&#xc1;" horiz-adv-x="1484" 
d="M1040 1740q0 -54 -49 -81l-286 -152q-20 -10 -47 -10t-53 26t-26 58t25 57l246 226q28 22 66 22t81 -46t43 -100zM520 553h398l-127 362l-70 228h-4q-33 -113 -72 -228zM743 1389q89 0 139 -37t85 -131l368 -1020l58 -25q43 -18 59 -38t16 -54q0 -36 -26 -60t-74 -24
h-373q-47 0 -73 25t-27 59q0 34 17 52q17 17 63 36l61 25l-59 176h-516l-62 -176l62 -25q45 -18 62 -36t17 -52q0 -36 -26 -60q-27 -24 -74 -24h-323q-47 0 -74 25t-27 59t16 54q16 19 60 38l58 25l370 1020q35 94 84 131t139 37z" />
    <glyph glyph-name="Acircumflex" unicode="&#xc2;" horiz-adv-x="1484" 
d="M760 1880q51 0 92 -41l209 -207q23 -22 23 -52t-28 -56q-26 -26 -58 -27q-32 0 -54 14l-196 127l-197 -127q-23 -14 -51 -14t-52 24t-24 54t25 55l219 209q41 41 92 41zM520 553h398l-127 362l-70 228h-4q-33 -113 -72 -228zM743 1389q89 0 139 -37t85 -131l368 -1020
l58 -25q43 -18 59 -38t16 -54q0 -36 -26 -60t-74 -24h-373q-47 0 -73 25t-27 59q0 34 17 52q17 17 63 36l61 25l-59 176h-516l-62 -176l62 -25q45 -18 62 -36t17 -52q0 -36 -26 -60q-27 -24 -74 -24h-323q-47 0 -74 25t-27 59t16 54q16 19 60 38l58 25l370 1020
q35 94 84 131t139 37z" />
    <glyph glyph-name="Atilde" unicode="&#xc3;" horiz-adv-x="1484" 
d="M602 1604q-39 0 -76 -35q-38 -35 -66 -35t-52 22t-25 58q0 61 82 127q82 65 166 65t159 -40q76 -40 114 -40t75 35t65 35t54 -22q25 -22 24 -58q0 -61 -82 -127q-82 -65 -166 -65t-158 40t-114 40zM520 553h398l-127 362l-70 228h-4q-33 -113 -72 -228zM743 1389
q89 0 139 -37t85 -131l368 -1020l58 -25q43 -18 59 -38t16 -54q0 -36 -26 -60t-74 -24h-373q-47 0 -73 25t-27 59q0 34 17 52q17 17 63 36l61 25l-59 176h-516l-62 -176l62 -25q45 -18 62 -36t17 -52q0 -36 -26 -60q-27 -24 -74 -24h-323q-47 0 -74 25t-27 59t16 54
q16 19 60 38l58 25l370 1020q35 94 84 131t139 37z" />
    <glyph glyph-name="Adieresis" unicode="&#xc4;" horiz-adv-x="1484" 
d="M823 1651q0 71 47 117t117 46t115 -44q45 -46 45 -116t-47 -116q-47 -47 -117 -47t-115 45t-45 115zM381 1651q0 71 47 117t117 46q71 0 115 -44q44 -46 44 -116t-46 -116q-48 -47 -118 -47t-114 45q-45 45 -45 115zM520 553h398l-127 362l-70 228h-4q-33 -113 -72 -228z
M743 1389q89 0 139 -37t85 -131l368 -1020l58 -25q43 -18 59 -38t16 -54q0 -36 -26 -60t-74 -24h-373q-47 0 -73 25t-27 59q0 34 17 52q17 17 63 36l61 25l-59 176h-516l-62 -176l62 -25q45 -18 62 -36t17 -52q0 -36 -26 -60q-27 -24 -74 -24h-323q-47 0 -74 25t-27 59
t16 54q16 19 60 38l58 25l370 1020q35 94 84 131t139 37z" />
    <glyph glyph-name="Aring" unicode="&#xc5;" horiz-adv-x="1484" 
d="M647 1726q0 -48 30 -78t77 -30q46 0 76 31t30 77t-30 78q-30 31 -76 31t-77 -31q-30 -31 -30 -78zM467 1722q0 111 82 181q82 69 209 69t205 -66q77 -66 77 -176t-82 -180t-208 -70t-205 66q-78 65 -78 176zM520 553h398l-127 362l-70 228h-4q-33 -113 -72 -228z
M743 1389q89 0 139 -37t85 -131l368 -1020l58 -25q43 -18 59 -38t16 -54q0 -36 -26 -60t-74 -24h-373q-47 0 -73 25t-27 59q0 34 17 52q17 17 63 36l61 25l-59 176h-516l-62 -176l62 -25q45 -18 62 -36t17 -52q0 -36 -26 -60q-27 -24 -74 -24h-323q-47 0 -74 25t-27 59
t16 54q16 19 60 38l58 25l370 1020q35 94 84 131t139 37z" />
    <glyph glyph-name="AE" unicode="&#xc6;" horiz-adv-x="1957" 
d="M1720 1378q68 0 99 -30t30 -127v-25q0 -63 -2 -111q-2 -82 -84 -81q-70 0 -96 79l-33 101h-366v-400h272l21 54q27 72 88 71q78 0 77 -90v-252q0 -90 -77 -90q-59 0 -88 74l-21 51h-272v-407h393l35 110q25 80 96 80q82 0 84 -82q2 -45 2 -110v-35q0 -96 -31 -127
t-98 -31h-809q-47 0 -74 25t-26 61q0 61 82 92l59 23v172h-467l-102 -172l55 -25q47 -20 64 -38t17 -54t-26 -60q-27 -24 -73 -24h-332q-47 0 -74 25t-27 59t16 54q16 19 60 40l47 23l654 1067q39 63 77 87q39 24 99 23h751zM981 553v604h-4l-359 -604h363z" />
    <glyph glyph-name="Ccedilla" unicode="&#xc7;" horiz-adv-x="1218" 
d="M633 -289q0 53 -82 53q-51 0 -37 54l45 178q-219 43 -348 213t-129 436q0 334 202 543t504 209t329 -124q7 -32 7 -110v-28q0 -94 -2 -146q-2 -82 -84 -82q-69 0 -94 80l-57 180q-39 20 -121 21q-172 0 -278 -130t-105 -368q0 -238 113 -366q113 -127 297 -127
q90 1 171 23t93 22q72 0 71 -80q0 -41 -36 -77t-136 -71q-102 -35 -241 -34h-6l-13 -58q90 -6 148 -53t59 -138q0 -91 -93 -157q-92 -66 -246 -66t-154 82q0 27 17 45t48 19l68 -2q90 0 90 59z" />
    <glyph glyph-name="Egrave" unicode="&#xc8;" horiz-adv-x="1196" 
d="M402 1886q40 0 65 -22l246 -226q25 -26 25 -58t-26 -58t-53 -25q-27 0 -47 10l-286 152q-50 27 -50 81t43 100t83 46zM133 1378h825q68 0 99 -30t30 -127v-25q0 -63 -2 -111q-2 -82 -84 -81q-70 0 -96 79l-33 101h-366v-400h272l21 54q27 72 88 71q78 0 78 -90v-252
q0 -90 -78 -90q-59 0 -88 74l-21 51h-272v-407h393l35 110q25 80 96 80q82 0 84 -82q2 -45 2 -110v-35q0 -96 -31 -127t-98 -31h-842q-47 0 -73 25t-27 61q0 36 16 52q16 17 62 32l96 31v977l-90 28q-83 26 -83 96q0 36 23 56q24 20 64 20z" />
    <glyph glyph-name="Eacute" unicode="&#xc9;" horiz-adv-x="1196" 
d="M946 1740q0 -54 -49 -81l-287 -152q-20 -10 -47 -10t-53 26t-25 58q0 32 25 57l246 226q28 22 66 22t81 -46t43 -100zM133 1378h825q68 0 99 -30t30 -127v-25q0 -63 -2 -111q-2 -82 -84 -81q-70 0 -96 79l-33 101h-366v-400h272l21 54q27 72 88 71q78 0 78 -90v-252
q0 -90 -78 -90q-59 0 -88 74l-21 51h-272v-407h393l35 110q25 80 96 80q82 0 84 -82q2 -45 2 -110v-35q0 -96 -31 -127t-98 -31h-842q-47 0 -73 25t-27 61q0 36 16 52q16 17 62 32l96 31v977l-90 28q-83 26 -83 96q0 36 23 56q24 20 64 20z" />
    <glyph glyph-name="Ecircumflex" unicode="&#xca;" horiz-adv-x="1196" 
d="M612 1880q51 0 93 -41l208 -207q23 -22 23 -52t-27 -56t-59 -27q-32 0 -53 14l-197 127l-197 -127q-23 -14 -51 -14t-52 24t-24 54t25 55l219 209q41 41 92 41zM133 1378h825q68 0 99 -30t30 -127v-25q0 -63 -2 -111q-2 -82 -84 -81q-70 0 -96 79l-33 101h-366v-400h272
l21 54q27 72 88 71q78 0 78 -90v-252q0 -90 -78 -90q-59 0 -88 74l-21 51h-272v-407h393l35 110q25 80 96 80q82 0 84 -82q2 -45 2 -110v-35q0 -96 -31 -127t-98 -31h-842q-47 0 -73 25t-27 61q0 36 16 52q16 17 62 32l96 31v977l-90 28q-83 26 -83 96q0 36 23 56
q24 20 64 20z" />
    <glyph glyph-name="Edieresis" unicode="&#xcb;" horiz-adv-x="1196" 
d="M657 1651q0 71 46 117t118 46t116 -44q44 -46 44 -116t-46 -116q-46 -47 -118 -47t-116 45t-44 115zM215 1651q0 71 46 117t118 46t116 -44q44 -46 44 -116t-46 -116q-46 -47 -118 -47t-116 45t-44 115zM133 1378h825q68 0 99 -30t30 -127v-25q0 -63 -2 -111
q-2 -82 -84 -81q-70 0 -96 79l-33 101h-366v-400h272l21 54q27 72 88 71q78 0 78 -90v-252q0 -90 -78 -90q-59 0 -88 74l-21 51h-272v-407h393l35 110q25 80 96 80q82 0 84 -82q2 -45 2 -110v-35q0 -96 -31 -127t-98 -31h-842q-47 0 -73 25t-27 61q0 36 16 52q16 17 62 32
l96 31v977l-90 28q-83 26 -83 96q0 36 23 56q24 20 64 20z" />
    <glyph glyph-name="Igrave" unicode="&#xcc;" horiz-adv-x="724" 
d="M76 1740q0 54 43 100t82 46t65 -22l246 -226q25 -26 25 -58t-26 -58q-27 -26 -53 -25q-26 0 -46 10l-287 152q-49 27 -49 81zM133 1378h459q40 0 64 -20t24 -56q0 -70 -84 -96l-90 -28v-977l96 -31q46 -14 62 -32t16 -53q0 -37 -27 -61t-73 -24h-435q-47 0 -73 25t-27 61
q0 36 16 52q16 17 62 32l96 31v977l-90 28q-83 26 -83 96q0 36 23 56q24 20 64 20z" />
    <glyph glyph-name="Iacute" unicode="&#xcd;" horiz-adv-x="724" 
d="M653 1740q0 -54 -49 -81l-287 -152q-21 -10 -47 -10t-52 26t-26 58t25 57l246 226q27 22 65 22t82 -46q43 -46 43 -100zM133 1378h459q40 0 64 -20t24 -56q0 -70 -84 -96l-90 -28v-977l96 -31q46 -14 62 -32t16 -53q0 -37 -27 -61t-73 -24h-435q-47 0 -73 25t-27 61
q0 36 16 52q16 17 62 32l96 31v977l-90 28q-83 26 -83 96q0 36 23 56q24 20 64 20z" />
    <glyph glyph-name="Icircumflex" unicode="&#xce;" horiz-adv-x="724" 
d="M379 1880q51 0 92 -41l209 -207q22 -22 22 -52t-26 -56t-59 -27q-32 0 -54 14l-196 127l-197 -127q-22 -14 -50 -14t-52 24t-25 54q0 30 25 55l219 209q41 41 92 41zM133 1378h459q40 0 64 -20t24 -56q0 -70 -84 -96l-90 -28v-977l96 -31q46 -14 62 -32t16 -53
q0 -37 -27 -61t-73 -24h-435q-47 0 -73 25t-27 61q0 36 16 52q16 17 62 32l96 31v977l-90 28q-83 26 -83 96q0 36 23 56q24 20 64 20z" />
    <glyph glyph-name="Idieresis" unicode="&#xcf;" horiz-adv-x="724" 
d="M430 1651q0 71 47 117t117 46t115 -44q45 -46 45 -116t-47 -116q-47 -47 -117 -47t-115 45t-45 115zM-12 1651q0 71 47 117t117 46t114 -44q44 -46 45 -116q0 -70 -47 -116q-47 -47 -117 -47q-71 0 -115 45t-44 115zM133 1378h459q40 0 64 -20t24 -56q0 -70 -84 -96
l-90 -28v-977l96 -31q46 -14 62 -32t16 -53q0 -37 -27 -61t-73 -24h-435q-47 0 -73 25t-27 61q0 36 16 52q16 17 62 32l96 31v977l-90 28q-83 26 -83 96q0 36 23 56q24 20 64 20z" />
    <glyph glyph-name="Eth" unicode="&#xd0;" horiz-adv-x="1515" 
d="M272 612h-114q-92 0 -92 82q0 49 29 79q30 30 85 30h92v375l-90 28q-47 14 -65 37q-19 23 -19 59t24 56t64 20h523q723 0 725 -662q0 -328 -207 -522t-584 -194h-444q-47 0 -74 25t-27 61t16 52q16 17 62 32l96 31v411zM559 201h115q223 0 342 124t119 369
q0 483 -461 484h-115v-375h195q92 0 92 -82q0 -49 -30 -79t-85 -30h-172v-411z" />
    <glyph glyph-name="Ntilde" unicode="&#xd1;" horiz-adv-x="1589" 
d="M633 1604q-39 0 -76 -35t-65 -35t-54 22q-25 22 -24 58q0 61 82 127q149 120 324 25q75 -40 114 -40t76 35q38 35 66 35t52 -22t25 -58q0 -61 -82 -127q-82 -65 -166 -65q-85 0 -159 40t-113 40zM43 1302q0 36 24 56t64 20h293q104 0 168 -98l440 -682q76 -112 123 -215
l21 -39l4 2q-14 143 -15 279l-4 553l-92 28q-86 27 -86 99q0 33 24 53t64 20h410q41 0 63 -20t23 -53q0 -74 -82 -101l-82 -26v-1022q0 -166 -180 -166q-125 0 -195 106l-440 682q-62 92 -125 215l-19 39l-4 -2q14 -141 15 -278l4 -551l98 -31q45 -14 63 -32t17 -54
q0 -36 -27 -60t-73 -24h-394q-47 0 -73 25t-27 61q0 36 16 52q16 17 62 32l96 31v977l-90 28q-45 14 -65 37q-19 23 -19 59z" />
    <glyph glyph-name="Ograve" unicode="&#xd2;" horiz-adv-x="1509" 
d="M567 1886q39 0 66 -22l246 -226q25 -26 25 -58t-26 -58t-53 -25q-27 0 -47 10l-286 152q-50 27 -50 81t43 100t82 46zM383 692q0 -246 106 -378q105 -132 269 -132t266 129t102 375t-106 378t-269 132t-265 -129t-103 -375zM1427 710q-1 -329 -195 -531t-498 -202
q-304 -1 -478 181t-174 510t194 530q195 203 499 203t478 -181t174 -510z" />
    <glyph glyph-name="Oacute" unicode="&#xd3;" horiz-adv-x="1509" 
d="M1087 1740q0 -54 -49 -81l-286 -152q-20 -10 -47 -10t-53 26t-26 58t25 57l246 226q27 22 65 22t82 -46q43 -46 43 -100zM383 692q0 -246 106 -378q105 -132 269 -132t266 129t102 375t-106 378t-269 132t-265 -129t-103 -375zM1427 710q-1 -329 -195 -531t-498 -202
q-304 -1 -478 181t-174 510t194 530q195 203 499 203t478 -181t174 -510z" />
    <glyph glyph-name="Ocircumflex" unicode="&#xd4;" horiz-adv-x="1509" 
d="M764 1880q51 0 92 -41l209 -207q23 -22 23 -52t-28 -56q-26 -26 -58 -27q-32 0 -54 14l-196 127l-197 -127q-23 -14 -51 -14t-52 24t-24 54t25 55l219 209q41 41 92 41zM383 692q0 -246 106 -378q105 -132 269 -132t266 129t102 375t-106 378t-269 132t-265 -129
t-103 -375zM1427 710q-1 -329 -195 -531t-498 -202q-304 -1 -478 181t-174 510t194 530q195 203 499 203t478 -181t174 -510z" />
    <glyph glyph-name="Otilde" unicode="&#xd5;" horiz-adv-x="1509" 
d="M604 1604q-39 0 -76 -35q-38 -35 -66 -35t-52 22t-25 58q0 61 82 127q82 65 166 65t159 -40q76 -40 114 -40t75 35t65 35t54 -22q25 -22 24 -58q0 -61 -82 -127q-82 -65 -166 -65t-158 40t-114 40zM383 692q0 -246 106 -378q105 -132 269 -132t266 129t102 375t-106 378
t-269 132t-265 -129t-103 -375zM1427 710q-1 -329 -195 -531t-498 -202q-304 -1 -478 181t-174 510t194 530q195 203 499 203t478 -181t174 -510z" />
    <glyph glyph-name="Odieresis" unicode="&#xd6;" horiz-adv-x="1509" 
d="M821 1651q0 71 46 117t118 46t116 -44q44 -46 44 -116t-46 -116q-46 -47 -118 -47t-116 45t-44 115zM379 1651q0 71 46 117t118 46q71 0 115 -44q44 -46 44 -116t-46 -116q-46 -47 -118 -47t-115 45q-44 45 -44 115zM383 692q0 -246 106 -378q105 -132 269 -132t266 129
t102 375t-106 378t-269 132t-265 -129t-103 -375zM1427 710q-1 -329 -195 -531t-498 -202q-304 -1 -478 181t-174 510t194 530q195 203 499 203t478 -181t174 -510z" />
    <glyph glyph-name="multiply" unicode="&#xd7;" horiz-adv-x="1085" 
d="M863 981q38 0 67 -26q28 -27 28 -67t-40 -79l-234 -221l234 -228q38 -38 38 -80t-30 -71t-70 -29q-41 0 -80 37l-237 229l-240 -225q-39 -35 -77 -35t-66 26t-29 66q0 40 41 80l233 222l-233 227q-39 39 -39 81t30 70q31 28 71 29q40 0 79 -37l238 -231l239 227
q39 35 77 35z" />
    <glyph glyph-name="Oslash" unicode="&#xd8;" horiz-adv-x="1538" 
d="M764 1202q-174 0 -283 -131t-109 -361t87 -374l463 835q-68 31 -158 31zM225 -118q0 36 21 75l80 143q-244 184 -244 559q0 334 199 538t516 204q127 0 231 -33l86 156q37 66 86 66t81 -28t32 -65t-21 -76l-80 -145q244 -182 244 -559q0 -334 -199 -537t-516 -203
q-127 0 -231 33l-86 -155q-37 -63 -88 -63t-81 26q-30 28 -30 64zM774 176q174 0 283 131t109 361t-87 374l-463 -835q61 -31 158 -31z" />
    <glyph glyph-name="Ugrave" unicode="&#xd9;" horiz-adv-x="1449" 
d="M397 1740q0 54 43 100t82 46t66 -22l246 -226q24 -26 24 -58t-26 -58t-52 -25q-27 0 -47 10l-287 152q-49 27 -49 81zM166 522v656l-74 26q-82 31 -82 101q0 33 24 53t64 20h432q41 0 65 -20t23 -53q0 -72 -83 -101l-82 -26v-621q0 -188 78 -283q79 -94 219 -94
q285 0 284 344v654l-82 26q-84 29 -84 101q0 33 24 53t64 20h396q40 0 64 -20t24 -53q0 -70 -82 -101l-74 -26v-623q0 -578 -565 -578q-283 1 -418 135t-135 410z" />
    <glyph glyph-name="Uacute" unicode="&#xda;" horiz-adv-x="1449" 
d="M1133 1740q0 -54 -50 -81l-286 -152q-20 -10 -47 -10t-53 26t-26 58t25 57l246 226q28 22 66 22t82 -46t43 -100zM166 522v656l-74 26q-82 31 -82 101q0 33 24 53t64 20h432q41 0 65 -20t23 -53q0 -72 -83 -101l-82 -26v-621q0 -188 78 -283q79 -94 219 -94
q285 0 284 344v654l-82 26q-84 29 -84 101q0 33 24 53t64 20h396q40 0 64 -20t24 -53q0 -70 -82 -101l-74 -26v-623q0 -578 -565 -578q-283 1 -418 135t-135 410z" />
    <glyph glyph-name="Ucircumflex" unicode="&#xdb;" horiz-adv-x="1449" 
d="M760 1880q51 0 92 -41l209 -207q23 -22 23 -52t-28 -56q-26 -26 -58 -27q-32 0 -54 14l-196 127l-197 -127q-23 -14 -51 -14t-52 24t-24 54t25 55l219 209q41 41 92 41zM166 522v656l-74 26q-82 31 -82 101q0 33 24 53t64 20h432q41 0 65 -20t23 -53q0 -72 -83 -101
l-82 -26v-621q0 -188 78 -283q79 -94 219 -94q285 0 284 344v654l-82 26q-84 29 -84 101q0 33 24 53t64 20h396q40 0 64 -20t24 -53q0 -70 -82 -101l-74 -26v-623q0 -578 -565 -578q-283 1 -418 135t-135 410z" />
    <glyph glyph-name="Udieresis" unicode="&#xdc;" horiz-adv-x="1449" 
d="M803 1651q0 71 47 117t117 46q71 0 115 -44q44 -46 44 -116t-47 -116q-47 -47 -117 -47t-114 45q-45 45 -45 115zM360 1651q0 71 48 117t116 46q70 0 115 -44q45 -46 45 -116t-47 -116q-47 -47 -117 -47t-115 45t-45 115zM166 522v656l-74 26q-82 31 -82 101q0 33 24 53
t64 20h432q41 0 65 -20t23 -53q0 -72 -83 -101l-82 -26v-621q0 -188 78 -283q79 -94 219 -94q285 0 284 344v654l-82 26q-84 29 -84 101q0 33 24 53t64 20h396q40 0 64 -20t24 -53q0 -70 -82 -101l-74 -26v-623q0 -578 -565 -578q-283 1 -418 135t-135 410z" />
    <glyph glyph-name="Yacute" unicode="&#xdd;" horiz-adv-x="1351" 
d="M1065 1740q0 -54 -49 -81l-287 -152q-20 -10 -47 -10q-26 0 -52 26t-26 58t25 57l245 226q27 22 66 22t82 -46t43 -100zM12 1305q0 33 24 53t64 20h428q41 0 65 -20t23 -53q0 -72 -90 -107l-45 -18l236 -408h4l225 408l-43 18q-88 37 -88 107q0 33 24 53t64 20h348
q41 0 65 -20t23 -53q0 -72 -84 -107l-49 -20l-387 -637v-340l103 -31q45 -14 62 -32t17 -54q-1 -36 -27 -60t-73 -24h-450q-47 0 -74 25t-27 59t18 53q18 18 62 33l102 31v340l-387 637l-49 20q-84 37 -84 107z" />
    <glyph glyph-name="Thorn" unicode="&#xde;" horiz-adv-x="1202" 
d="M506 471h115q102 1 163 63q62 62 62 170t-58 164q-58 57 -167 58h-115v-455zM133 1378h459q40 0 64 -20t24 -53q0 -68 -84 -97l-90 -28v-60h147q246 0 368 -101t122 -291q-1 -190 -145 -316t-398 -125h-94v-88l96 -31q46 -14 62 -32t16 -52q0 -36 -27 -60t-73 -24h-435
q-47 0 -73 25t-27 61q0 36 16 52q16 17 62 32l96 31v977l-90 28q-83 26 -83 96q0 36 23 56q24 20 64 20z" />
    <glyph glyph-name="germandbls" unicode="&#xdf;" horiz-adv-x="1359" 
d="M41 918q0 37 17 56t59 32l94 20v27q0 203 138 323t399 119q182 0 285 -82t104 -199q0 -78 -34 -144t-73 -106q-108 -106 -106 -169q0 -43 41 -77t99 -64t116 -65q57 -36 98 -103t41 -156q0 -152 -109 -249t-282 -97q-172 0 -208 36t-36 115v15q0 55 2 86q6 76 76 75
q57 0 88 -78l20 -55q27 -12 72 -12q119 0 119 102q0 45 -42 80q-43 35 -103 64q-60 28 -119 64t-102 102q-42 66 -42 148q-1 143 97 242t98 174q0 76 -44 116t-126 40t-135 -53t-54 -141v-907l29 -13q48 -20 64 -40t16 -58t-29 -62t-75 -24h-349q-47 0 -73 25t-27 61
q0 36 16 52q16 17 62 32l88 27v618l-94 21q-76 16 -76 82z" />
    <glyph glyph-name="agrave" unicode="&#xe0;" horiz-adv-x="1148" 
d="M297 1416q0 44 46 88t92 44t79 -45l176 -237q23 -29 23 -59q0 -31 -26 -55q-25 -24 -55 -24t-61 25l-233 186q-41 33 -41 77zM510 184q57 0 101 18t65 38l18 18v139q-45 12 -125 13q-195 0 -194 -107q0 -51 39 -85t96 -34zM696 621q0 123 -43 170t-142 47t-187 -23
t-111 -23t-45 24q-22 22 -23 56q0 34 34 69q34 34 145 67t247 32q215 0 309 -84t95 -268q0 -35 -3 -183t9 -306l78 -13q74 -10 74 -76t-76 -92q-94 -33 -199 -32q-137 0 -137 133v10l-4 2q-4 -6 -10 -16t-43 -50t-109 -62q-73 -23 -137 -23q-147 0 -240 86q-92 86 -92 215
t116 207t345 77l149 -10v66z" />
    <glyph glyph-name="aacute" unicode="&#xe1;" horiz-adv-x="1148" 
d="M738 1548q46 0 92 -44t46 -88t-40 -77l-234 -186q-30 -25 -60 -25t-56 25t-26 55t23 58l176 237q33 45 79 45zM510 184q57 0 101 18t65 38l18 18v139q-45 12 -125 13q-195 0 -194 -107q0 -51 39 -85t96 -34zM696 621q0 123 -43 170t-142 47t-187 -23t-111 -23t-45 24
q-22 22 -23 56q0 34 34 69q34 34 145 67t247 32q215 0 309 -84t95 -268q0 -35 -3 -183t9 -306l78 -13q74 -10 74 -76t-76 -92q-94 -33 -199 -32q-137 0 -137 133v10l-4 2q-4 -6 -10 -16t-43 -50t-109 -62q-73 -23 -137 -23q-147 0 -240 86q-92 86 -92 215t116 207t345 77
l149 -10v66z" />
    <glyph glyph-name="acircumflex" unicode="&#xe2;" horiz-adv-x="1148" 
d="M587 1524q46 0 83 -39l204 -213q20 -22 20 -52t-26 -56q-48 -46 -108 -9l-187 129l-186 -129q-27 -16 -53 -16q-26 1 -50 23q-22 22 -22 52t23 54l217 217q39 39 85 39zM510 184q57 0 101 18t65 38l18 18v139q-45 12 -125 13q-195 0 -194 -107q0 -51 39 -85t96 -34z
M696 621q0 123 -43 170t-142 47t-187 -23t-111 -23t-45 24q-22 22 -23 56q0 34 34 69q34 34 145 67t247 32q215 0 309 -84t95 -268q0 -35 -3 -183t9 -306l78 -13q74 -10 74 -76t-76 -92q-94 -33 -199 -32q-137 0 -137 133v10l-4 2q-4 -6 -10 -16t-43 -50t-109 -62
q-73 -23 -137 -23q-147 0 -240 86q-92 86 -92 215t116 207t345 77l149 -10v66z" />
    <glyph glyph-name="atilde" unicode="&#xe3;" horiz-adv-x="1148" 
d="M683 1161q-85 0 -157 44t-105 44q-32 0 -73 -39t-73 -39q-31 0 -55 23t-23 53q0 63 79 132q80 69 166 69t158 -44t104 -44t72 39q41 39 73 39q31 0 55 -23t24 -53q0 -63 -80 -132t-165 -69zM510 184q57 0 101 18t65 38l18 18v139q-45 12 -125 13q-195 0 -194 -107
q0 -51 39 -85t96 -34zM696 621q0 123 -43 170t-142 47t-187 -23t-111 -23t-45 24q-22 22 -23 56q0 34 34 69q34 34 145 67t247 32q215 0 309 -84t95 -268q0 -35 -3 -183t9 -306l78 -13q74 -10 74 -76t-76 -92q-94 -33 -199 -32q-137 0 -137 133v10l-4 2q-4 -6 -10 -16
t-43 -50t-109 -62q-73 -23 -137 -23q-147 0 -240 86q-92 86 -92 215t116 207t345 77l149 -10v66z" />
    <glyph glyph-name="adieresis" unicode="&#xe4;" horiz-adv-x="1148" 
d="M627 1296q0 68 47 115q46 47 114 47t113 -45t45 -113t-47 -114t-115 -47q-68 1 -112 45t-45 112zM197 1296q0 68 47 115q46 47 114 47t113 -45t45 -113t-47 -114t-115 -47q-68 1 -112 45t-45 112zM510 184q57 0 101 18t65 38l18 18v139q-45 12 -125 13q-195 0 -194 -107
q0 -51 39 -85t96 -34zM696 621q0 123 -43 170t-142 47t-187 -23t-111 -23t-45 24q-22 22 -23 56q0 34 34 69q34 34 145 67t247 32q215 0 309 -84t95 -268q0 -35 -3 -183t9 -306l78 -13q74 -10 74 -76t-76 -92q-94 -33 -199 -32q-137 0 -137 133v10l-4 2q-4 -6 -10 -16
t-43 -50t-109 -62q-73 -23 -137 -23q-147 0 -240 86q-92 86 -92 215t116 207t345 77l149 -10v66z" />
    <glyph glyph-name="aring" unicode="&#xe5;" horiz-adv-x="1148" 
d="M479 1356q0 -45 28 -75t71 -30q42 0 70 30t28 75t-28 75q-28 29 -70 29t-71 -30q-28 -30 -28 -74zM299 1352q0 110 80 178t203 68q122 0 198 -66q76 -64 76 -172t-80 -178q-80 -68 -203 -68t-199 64t-75 174zM510 184q57 0 101 18t65 38l18 18v139q-45 12 -125 13
q-195 0 -194 -107q0 -51 39 -85t96 -34zM696 621q0 123 -43 170t-142 47t-187 -23t-111 -23t-45 24q-22 22 -23 56q0 34 34 69q34 34 145 67t247 32q215 0 309 -84t95 -268q0 -35 -3 -183t9 -306l78 -13q74 -10 74 -76t-76 -92q-94 -33 -199 -32q-137 0 -137 133v10l-4 2
q-4 -6 -10 -16t-43 -50t-109 -62q-73 -23 -137 -23q-147 0 -240 86q-92 86 -92 215t116 207t345 77l149 -10v66z" />
    <glyph glyph-name="ae" unicode="&#xe6;" horiz-adv-x="1701" 
d="M1174 850q-80 0 -132 -59t-65 -168h366q-6 227 -169 227zM698 621q0 123 -43 170t-142 47t-187 -23t-111 -23t-45 24q-22 22 -23 56q0 34 34 69q34 34 145 67t247 32q248 0 308 -127q115 129 317 129t310 -110t108 -311q0 -156 -141 -156h-502q29 -285 307 -285
q72 0 140 18t83 19q70 0 70 -74q0 -39 -31 -69q-96 -96 -354 -96t-391 165q-10 -15 -50 -50q-41 -35 -79 -57q-97 -55 -243 -56q-147 0 -242 86t-95 215t116 207t345 77l149 -10v66zM528 184q66 0 114 20t67 42l20 18q-20 61 -27 131q-43 14 -131 15q-195 0 -194 -107
q0 -51 42 -85q43 -34 109 -34z" />
    <glyph glyph-name="ccedilla" unicode="&#xe7;" horiz-adv-x="974" 
d="M532 -289q0 53 -81 53q-23 0 -34 14t-3 40l43 170q-166 25 -271 147q-104 123 -104 334q0 258 154 416t399 157q162 0 223 -61q31 -31 31 -139v-19q0 -55 -2 -114q-2 -82 -80 -82q-63 0 -90 82l-41 129q-23 10 -66 10q-108 0 -176 -87t-68 -253t72 -247t203 -81
q55 0 113 16t69 15q70 0 70 -74q0 -39 -31 -69q-82 -82 -252 -88l-14 -58q90 -6 148 -53t58 -138t-92 -157t-246 -66t-155 82q-1 27 17 45t49 19l67 -2q90 0 90 59z" />
    <glyph glyph-name="egrave" unicode="&#xe8;" horiz-adv-x="1089" 
d="M276 1416q0 44 46 88t93 44q46 0 79 -45l176 -237q50 -63 -3 -113q-25 -25 -55 -25t-61 25l-234 186q-41 33 -41 77zM561 850q-80 0 -131 -59t-65 -168h366q-6 227 -170 227zM862 465h-502q29 -285 308 -285q72 0 140 18t83 19q70 0 70 -74q0 -39 -31 -69
q-96 -96 -339 -96t-376 132t-133 382t141 400q141 151 373 150q192 0 300 -110t108 -311q-1 -156 -142 -156z" />
    <glyph glyph-name="eacute" unicode="&#xe9;" horiz-adv-x="1089" 
d="M702 1548q46 0 92 -44t46 -88t-41 -77l-234 -186q-31 -25 -61 -25t-54 25q-52 51 -4 113l177 237q33 45 79 45zM561 850q-80 0 -131 -59t-65 -168h366q-6 227 -170 227zM862 465h-502q29 -285 308 -285q72 0 140 18t83 19q70 0 70 -74q0 -39 -31 -69q-96 -96 -339 -96
t-376 132t-133 382t141 400q141 151 373 150q192 0 300 -110t108 -311q-1 -156 -142 -156z" />
    <glyph glyph-name="ecircumflex" unicode="&#xea;" horiz-adv-x="1089" 
d="M570 1524q46 0 83 -39l205 -213q20 -22 20 -52t-26 -56q-47 -46 -109 -9l-186 129l-186 -129q-27 -16 -53 -16q-26 1 -50 23q-23 22 -23 52t23 54l217 217q39 39 85 39zM561 850q-80 0 -131 -59t-65 -168h366q-6 227 -170 227zM862 465h-502q29 -285 308 -285
q72 0 140 18t83 19q70 0 70 -74q0 -39 -31 -69q-96 -96 -339 -96t-376 132t-133 382t141 400q141 151 373 150q192 0 300 -110t108 -311q-1 -156 -142 -156z" />
    <glyph glyph-name="edieresis" unicode="&#xeb;" horiz-adv-x="1089" 
d="M623 1296q0 68 47 115q46 47 114 47t113 -45t45 -113t-47 -114t-115 -47q-68 1 -112 45t-45 112zM193 1296q0 68 47 115q46 47 114 47t113 -45t45 -113t-47 -114t-115 -47q-68 1 -112 45t-45 112zM561 850q-80 0 -131 -59t-65 -168h366q-6 227 -170 227zM862 465h-502
q29 -285 308 -285q72 0 140 18t83 19q70 0 70 -74q0 -39 -31 -69q-96 -96 -339 -96t-376 132t-133 382t141 400q141 151 373 150q192 0 300 -110t108 -311q-1 -156 -142 -156z" />
    <glyph glyph-name="igrave" unicode="&#xec;" horiz-adv-x="669" 
d="M68 1416q0 44 46 88t92 44t79 -45l176 -237q50 -63 -3 -113q-26 -25 -56 -25t-60 25l-233 186q-41 33 -41 77zM41 918q0 37 17 56t88 40q70 20 172 20t137 -35t34 -125v-677l84 -25q70 -20 70 -70t-28 -76t-74 -26h-396q-47 0 -73 25t-27 61q0 36 16 52q16 17 62 32
l88 27v618l-94 21q-76 16 -76 82z" />
    <glyph glyph-name="iacute" unicode="&#xed;" horiz-adv-x="669" 
d="M472 1548q46 0 92 -44t46 -88t-41 -77l-233 -186q-30 -25 -60 -25t-56 25t-26 55t23 58l176 237q33 45 79 45zM41 918q0 37 17 56t88 40q70 20 172 20t137 -35t34 -125v-677l84 -25q70 -20 70 -70t-28 -76t-74 -26h-396q-47 0 -73 25t-27 61q0 36 16 52q16 17 62 32
l88 27v618l-94 21q-76 16 -76 82z" />
    <glyph glyph-name="icircumflex" unicode="&#xee;" horiz-adv-x="669" 
d="M342 1524q51 0 84 -39l195 -213q20 -24 20 -54t-26 -55q-27 -25 -57 -25t-52 17l-178 133l-178 -133q-25 -16 -52 -16q-26 1 -50 23t-24 52t23 54l207 217q37 39 88 39zM41 918q0 37 17 56t88 40q70 20 172 20t137 -35t34 -125v-677l84 -25q70 -20 70 -70t-28 -76
t-74 -26h-396q-47 0 -73 25t-27 61q0 36 16 52q16 17 62 32l88 27v618l-94 21q-76 16 -76 82z" />
    <glyph glyph-name="idieresis" unicode="&#xef;" horiz-adv-x="669" 
d="M387 1296q0 70 44 115t110 45q65 0 107 -43t42 -113t-44 -114t-110 -45q-66 1 -107 43q-42 42 -42 112zM-10 1296q0 70 44 115t110 45t107 -43q42 -43 42 -113t-44 -114t-110 -45q-65 1 -107 43t-42 112zM41 918q0 37 17 56t88 40q70 20 172 20t137 -35t34 -125v-677
l84 -25q70 -20 70 -70t-28 -76t-74 -26h-396q-47 0 -73 25t-27 61q0 36 16 52q16 17 62 32l88 27v618l-94 21q-76 16 -76 82z" />
    <glyph glyph-name="eth" unicode="&#xf0;" horiz-adv-x="1181" 
d="M1094 596q0 -299 -144 -459t-380 -160q-238 1 -363 139t-125 370t150 382t401 150l90 -8l4 4q-39 102 -111 176l-151 -111q-29 -18 -59 -18q-30 -1 -57 25t-27 62t36 64l107 76q-49 23 -129 30t-80 75q0 47 43 75t117 27q133 0 250 -63l139 100q27 18 59 18t59 -26
q25 -26 25 -60t-35 -61l-104 -76q117 -109 201 -294t84 -437zM602 174q219 0 219 369q0 130 -22 221l-8 33q-63 31 -173 31t-180 -84t-70 -238t68 -243q66 -89 166 -89z" />
    <glyph glyph-name="ntilde" unicode="&#xf1;" horiz-adv-x="1327" 
d="M501 1249q-32 0 -73 -39t-73 -39q-31 0 -55 23t-24 53q0 63 80 132t166 69t158 -44t104 -44t72 39q41 39 73 39q31 0 55 -23t24 -53q0 -63 -80 -132t-166 -69t-157 44q-72 44 -104 44zM41 918q0 37 17 56t88 40q72 20 162 20t122 -30t31 -103v-27l4 -2q99 168 317 168
q178 0 274 -100t97 -293v-450l78 -25q43 -14 59 -32t16 -55t-26 -61q-27 -24 -74 -24h-381q-47 0 -73 25t-27 61q0 36 16 53q16 18 60 33l73 25v385q0 133 -48 191t-144 58q-55 -1 -105 -27q-51 -26 -65 -42t-23 -27v-538l74 -25q43 -14 59 -32t17 -55q0 -37 -27 -61
t-73 -24h-394q-47 0 -73 25t-27 61q0 36 16 52q16 17 62 32l88 27v618l-94 21q-76 16 -76 82z" />
    <glyph glyph-name="ograve" unicode="&#xf2;" horiz-adv-x="1208" 
d="M305 1416q0 44 46 88q47 44 93 44t78 -45l176 -237q23 -29 23 -59q0 -31 -26 -55t-55 -24t-60 25l-234 186q-41 33 -41 77zM369 514q-1 -166 67 -253t172 -87t168 83q63 83 64 249q0 166 -68 253t-172 87t-168 -83t-63 -249zM587 -23q-243 0 -374 133t-131 378t152 400
q154 154 392 154t369 -133t131 -379t-148 -399q-148 -154 -391 -154z" />
    <glyph glyph-name="oacute" unicode="&#xf3;" horiz-adv-x="1208" 
d="M736 1548q46 0 92 -44t46 -88t-40 -77l-234 -186q-30 -25 -60 -25t-56 25t-26 55t23 58l176 237q33 45 79 45zM369 514q-1 -166 67 -253t172 -87t168 83q63 83 64 249q0 166 -68 253t-172 87t-168 -83t-63 -249zM587 -23q-243 0 -374 133t-131 378t152 400
q154 154 392 154t369 -133t131 -379t-148 -399q-148 -154 -391 -154z" />
    <glyph glyph-name="ocircumflex" unicode="&#xf4;" horiz-adv-x="1208" 
d="M611 1524q46 0 83 -39l205 -213q21 -22 21 -52t-27 -56q-47 -46 -109 -9l-186 129l-186 -129q-28 -16 -54 -16q-26 1 -49 23t-23 52t23 54l217 217q39 39 85 39zM369 514q-1 -166 67 -253t172 -87t168 83q63 83 64 249q0 166 -68 253t-172 87t-168 -83t-63 -249zM587 -23
q-243 0 -374 133t-131 378t152 400q154 154 392 154t369 -133t131 -379t-148 -399q-148 -154 -391 -154z" />
    <glyph glyph-name="otilde" unicode="&#xf5;" horiz-adv-x="1208" 
d="M458 1249q-32 0 -73 -39t-73 -39t-56 23t-23 53q0 63 80 132q79 69 165 69t158 -44t104 -44t73 39t73 39t56 -23t23 -53q0 -63 -80 -132q-79 -69 -165 -69t-158 44t-104 44zM369 514q-1 -166 67 -253t172 -87t168 83q63 83 64 249q0 166 -68 253t-172 87t-168 -83
t-63 -249zM587 -23q-243 0 -374 133t-131 378t152 400q154 154 392 154t369 -133t131 -379t-148 -399q-148 -154 -391 -154z" />
    <glyph glyph-name="odieresis" unicode="&#xf6;" horiz-adv-x="1208" 
d="M657 1296q-1 68 47 115t116 47t112 -45q45 -45 45 -113t-47 -114t-115 -47q-68 1 -113 45t-45 112zM227 1296q0 68 47 115t115 47t113 -45t45 -113t-47 -114t-115 -47q-68 1 -113 45t-45 112zM369 514q-1 -166 67 -253t172 -87t168 83q63 83 64 249q0 166 -68 253
t-172 87t-168 -83t-63 -249zM587 -23q-243 0 -374 133t-131 378t152 400q154 154 392 154t369 -133t131 -379t-148 -399q-148 -154 -391 -154z" />
    <glyph glyph-name="divide" unicode="&#xf7;" horiz-adv-x="1085" 
d="M403 238q0 57 40 98q39 41 99 41t100 -41t40 -98q0 -56 -40 -98t-99 -42t-100 41q-40 42 -40 99zM403 930q0 57 40 98q39 41 99 41t100 -41t40 -98q0 -56 -40 -98t-99 -42t-100 41q-40 42 -40 99zM188 682h707q45 0 71 -27t26 -71t-26 -72q-26 -27 -71 -27h-707
q-44 0 -70 27t-26 72q0 46 26 72t70 26z" />
    <glyph glyph-name="oslash" unicode="&#xf8;" horiz-adv-x="1216" 
d="M612 170q108 0 176 84t68 229t-29 215l-307 -512q39 -16 92 -16zM604 850q-108 0 -176 -84t-68 -229t29 -215l307 512q-39 16 -92 16zM256 -186q-45 0 -75 24q-57 47 -3 139l64 107q-160 141 -160 396t152 409q153 154 403 153q96 0 168 -20l72 121q37 63 94 63
q35 0 65 -26t29 -60q0 -35 -27 -78l-63 -106q160 -141 160 -396t-153 -409t-402 -154q-96 1 -168 21l-72 -121q-39 -63 -84 -63z" />
    <glyph glyph-name="ugrave" unicode="&#xf9;" horiz-adv-x="1292" 
d="M297 1416q0 44 46 88t92 44t79 -45l176 -237q23 -29 23 -59q0 -31 -26 -55q-25 -24 -55 -24t-61 25l-233 186q-41 33 -41 77zM16 918q0 37 18 56t86 40q70 20 166 20t132 -35q35 -35 35 -125v-446q0 -129 46 -184q45 -56 121 -56t126 27t65 43q14 16 23 27v530l-95 21
q-76 16 -75 82q0 37 17 56t87 40q70 20 172 20t137 -35t35 -125v-673l84 -15q41 -8 57 -25t17 -55q0 -61 -76 -88q-94 -33 -195 -32q-137 0 -137 133v26l-4 2q-27 -44 -47 -64q-99 -103 -273 -103q-175 0 -270 97q-94 97 -94 285v453l-82 19q-76 16 -76 84z" />
    <glyph glyph-name="uacute" unicode="&#xfa;" horiz-adv-x="1292" 
d="M779 1548q46 0 92 -44q47 -44 47 -88t-41 -77l-234 -186q-31 -25 -61 -25t-55 25q-26 25 -26 55t23 58l176 237q33 45 79 45zM16 918q0 37 18 56t86 40q70 20 166 20t132 -35q35 -35 35 -125v-446q0 -129 46 -184q45 -56 121 -56t126 27t65 43q14 16 23 27v530l-95 21
q-76 16 -75 82q0 37 17 56t87 40q70 20 172 20t137 -35t35 -125v-673l84 -15q41 -8 57 -25t17 -55q0 -61 -76 -88q-94 -33 -195 -32q-137 0 -137 133v26l-4 2q-27 -44 -47 -64q-99 -103 -273 -103q-175 0 -270 97q-94 97 -94 285v453l-82 19q-76 16 -76 84z" />
    <glyph glyph-name="ucircumflex" unicode="&#xfb;" horiz-adv-x="1292" 
d="M630 1524q46 0 83 -39l205 -213q20 -22 20 -52t-27 -56q-48 -46 -108 -9l-187 129l-186 -129q-26 -16 -52 -16q-26 1 -50 23t-23 52q0 30 23 54l217 217q39 39 85 39zM16 918q0 37 18 56t86 40q70 20 166 20t132 -35q35 -35 35 -125v-446q0 -129 46 -184q45 -56 121 -56
t126 27t65 43q14 16 23 27v530l-95 21q-76 16 -75 82q0 37 17 56t87 40q70 20 172 20t137 -35t35 -125v-673l84 -15q41 -8 57 -25t17 -55q0 -61 -76 -88q-94 -33 -195 -32q-137 0 -137 133v26l-4 2q-27 -44 -47 -64q-99 -103 -273 -103q-175 0 -270 97q-94 97 -94 285v453
l-82 19q-76 16 -76 84z" />
    <glyph glyph-name="udieresis" unicode="&#xfc;" horiz-adv-x="1292" 
d="M666 1296q0 68 47 115t115 47t112 -45q45 -45 45 -113t-47 -114t-115 -47q-69 1 -113 45t-44 112zM236 1296q0 68 47 115t115 47t112 -45q45 -45 45 -113t-47 -114t-115 -47q-69 1 -113 45t-44 112zM16 918q0 37 18 56t86 40q70 20 166 20t132 -35q35 -35 35 -125v-446
q0 -129 46 -184q45 -56 121 -56t126 27t65 43q14 16 23 27v530l-95 21q-76 16 -75 82q0 37 17 56t87 40q70 20 172 20t137 -35t35 -125v-673l84 -15q41 -8 57 -25t17 -55q0 -61 -76 -88q-94 -33 -195 -32q-137 0 -137 133v26l-4 2q-27 -44 -47 -64q-99 -103 -273 -103
q-175 0 -270 97q-94 97 -94 285v453l-82 19q-76 16 -76 84z" />
    <glyph glyph-name="yacute" unicode="&#xfd;" horiz-adv-x="1222" 
d="M822 1548q46 0 92 -44t46 -88t-40 -77l-234 -186q-30 -25 -60 -25t-56 25t-26 55t23 58l176 237q33 45 79 45zM16 946q0 33 24 53t64 21h353q41 0 65 -20t23 -55t-19 -57t-67 -44l-35 -17l149 -395l64 -190h4q25 90 64 194l147 391l-35 17q-49 24 -67 46t-18 56t23 53
q24 20 64 21h299q41 0 65 -20t23 -54q0 -76 -84 -108l-35 -15l-282 -692q-152 -369 -308 -500q-139 -114 -288 -112q-88 0 -137 38t-49 100t28 97q29 35 65 35t80 -11t102 -11q118 0 196 176l-359 880l-35 15q-84 33 -84 108z" />
    <glyph glyph-name="thorn" unicode="&#xfe;" horiz-adv-x="1134" 
d="M516 174q250 0 250 344q0 160 -57 237t-154 76q-55 -1 -103 -25t-69 -48l-21 -23v-522q53 -39 154 -39zM475 -23q-16 0 -113 13l-4 -4q4 -57 4 -105v-153l89 -27q45 -13 61 -31t16 -54t-26 -60t-74 -25h-397q-47 0 -74 25t-27 61q0 61 70 84l84 27v1540l-82 18
q-76 16 -76 84q0 37 18 56t86 40q70 21 166 21t132 -35q35 -35 34 -125v-256q0 -78 -14 -172l4 -2q61 91 186 128q54 15 117 15q185 0 291 -124t106 -380t-151 -408q-152 -151 -426 -151z" />
    <glyph glyph-name="ydieresis" unicode="&#xff;" horiz-adv-x="1222" 
d="M700 1296q0 68 48 115t114 47q68 0 113 -45t45 -113t-47 -114t-115 -47q-68 1 -113 45t-45 112zM270 1296q0 68 47 115t115 47t113 -45t45 -113t-47 -114t-115 -47q-68 1 -113 45t-45 112zM16 946q0 33 24 53t64 21h353q41 0 65 -20t23 -55t-19 -57t-67 -44l-35 -17
l149 -395l64 -190h4q25 90 64 194l147 391l-35 17q-49 24 -67 46t-18 56t23 53q24 20 64 21h299q41 0 65 -20t23 -54q0 -76 -84 -108l-35 -15l-282 -692q-152 -369 -308 -500q-139 -114 -288 -112q-88 0 -137 38t-49 100t28 97q29 35 65 35t80 -11t102 -11q118 0 196 176
l-359 880l-35 15q-84 33 -84 108z" />
    <glyph glyph-name="Amacron" unicode="&#x100;" horiz-adv-x="1484" 
d="M508 1747h514q92 0 92 -86q0 -111 -115 -111h-514q-92 0 -92 86q0 111 115 111zM520 553h398l-127 362l-70 228h-4q-33 -113 -72 -228zM743 1389q89 0 139 -37t85 -131l368 -1020l58 -25q43 -18 59 -38t16 -54q0 -36 -26 -60t-74 -24h-373q-47 0 -73 25t-27 59
q0 34 17 52q17 17 63 36l61 25l-59 176h-516l-62 -176l62 -25q45 -18 62 -36t17 -52q0 -36 -26 -60q-27 -24 -74 -24h-323q-47 0 -74 25t-27 59t16 54q16 19 60 38l58 25l370 1020q35 94 84 131t139 37z" />
    <glyph glyph-name="amacron" unicode="&#x101;" horiz-adv-x="1148" 
d="M338 1397h506q92 0 92 -84q0 -51 -30 -82t-85 -31h-506q-92 0 -92 84q0 51 30 82t85 31zM510 184q57 0 101 18t65 38l18 18v139q-45 12 -125 13q-195 0 -194 -107q0 -51 39 -85t96 -34zM696 621q0 123 -43 170t-142 47t-187 -23t-111 -23t-45 24q-22 22 -23 56
q0 34 34 69q34 34 145 67t247 32q215 0 309 -84t95 -268q0 -35 -3 -183t9 -306l78 -13q74 -10 74 -76t-76 -92q-94 -33 -199 -32q-137 0 -137 133v10l-4 2q-4 -6 -10 -16t-43 -50t-109 -62q-73 -23 -137 -23q-147 0 -240 86q-92 86 -92 215t116 207t345 77l149 -10v66z" />
    <glyph glyph-name="Abreve" unicode="&#x102;" horiz-adv-x="1484" 
d="M432 1772q0 92 86 92q63 0 78 -70q10 -47 52 -76q42 -28 106 -28t106 28q41 28 51 76q14 70 78 70q86 0 86 -92q0 -123 -99 -201q-98 -78 -234 -78t-223 79t-87 200zM520 553h398l-127 362l-70 228h-4q-33 -113 -72 -228zM743 1389q89 0 139 -37t85 -131l368 -1020
l58 -25q43 -18 59 -38t16 -54q0 -36 -26 -60t-74 -24h-373q-47 0 -73 25t-27 59q0 34 17 52q17 17 63 36l61 25l-59 176h-516l-62 -176l62 -25q45 -18 62 -36t17 -52q0 -36 -26 -60q-27 -24 -74 -24h-323q-47 0 -74 25t-27 59t16 54q16 19 60 38l58 25l370 1020
q35 94 84 131t139 37z" />
    <glyph glyph-name="abreve" unicode="&#x103;" horiz-adv-x="1148" 
d="M264 1419q0 43 24 66t58 22q63 0 76 -65q23 -119 156 -119t155 119q12 66 76 65q35 -1 59 -23t23 -65q0 -125 -95 -207q-96 -82 -230 -82t-218 81t-84 208zM510 184q57 0 101 18t65 38l18 18v139q-45 12 -125 13q-195 0 -194 -107q0 -51 39 -85t96 -34zM696 621
q0 123 -43 170t-142 47t-187 -23t-111 -23t-45 24q-22 22 -23 56q0 34 34 69q34 34 145 67t247 32q215 0 309 -84t95 -268q0 -35 -3 -183t9 -306l78 -13q74 -10 74 -76t-76 -92q-94 -33 -199 -32q-137 0 -137 133v10l-4 2q-4 -6 -10 -16t-43 -50t-109 -62q-73 -23 -137 -23
q-147 0 -240 86q-92 86 -92 215t116 207t345 77l149 -10v66z" />
    <glyph glyph-name="Aogonek" unicode="&#x104;" horiz-adv-x="1484" 
d="M520 553h398l-127 362l-70 228h-4q-33 -113 -72 -228zM743 1389q89 0 139 -37t85 -131l368 -1020l58 -25q43 -18 59 -38t16 -54q0 -36 -26 -60t-74 -24h-86q-121 -109 -121 -208t90 -99q31 0 59 8t48 8t37 -17q16 -17 16 -46t-27 -56q-82 -82 -222 -82t-205 58t-65 144
q0 87 59 162q58 75 139 128h-95q-47 0 -73 25t-27 59q0 34 17 52q17 17 63 36l61 25l-59 176h-516l-62 -176l62 -25q45 -18 62 -36t17 -52q0 -36 -26 -60q-27 -24 -74 -24h-323q-47 0 -74 25t-27 59t16 54q16 19 60 38l58 25l370 1020q35 94 84 131t139 37z" />
    <glyph glyph-name="aogonek" unicode="&#x105;" horiz-adv-x="1148" 
d="M510 184q57 0 101 18t65 38l18 18v139q-45 12 -125 13q-195 0 -194 -107q0 -51 39 -85t96 -34zM696 621q0 123 -43 170t-142 47t-187 -23t-111 -23t-45 24q-22 22 -23 56q0 34 34 69q34 34 145 67t247 32q215 0 309 -84t95 -268q0 -35 -3 -183t9 -306l78 -13
q74 -10 74 -76t-82 -95q-83 -30 -145 -90t-62 -134q0 -98 90 -98q30 0 58 8t48 8t37 -17t17 -46t-27 -56q-83 -82 -223 -82t-204 58t-65 146q1 89 63 164t153 120q-70 29 -70 123v10l-4 2q-4 -6 -10 -16t-43 -50t-109 -62q-73 -23 -137 -23q-147 0 -240 86q-92 86 -92 215
t116 207t345 77l149 -10v66z" />
    <glyph glyph-name="Cacute" unicode="&#x106;" horiz-adv-x="1218" 
d="M1032 1740q0 -54 -49 -81l-287 -152q-20 -10 -47 -10t-53 26t-25 58q0 32 25 57l246 226q28 22 66 22t81 -46t43 -100zM383 690q0 -238 113 -366q113 -127 297 -127q90 1 171 23t93 22q72 0 71 -80q0 -41 -36 -77t-136 -71q-102 -35 -241 -34q-289 0 -461 178t-172 500
t202 530q202 209 504 209t329 -124q7 -32 7 -110v-28q0 -94 -2 -146q-2 -82 -84 -82q-69 0 -94 80l-57 180q-39 20 -121 21q-172 0 -278 -130t-105 -368z" />
    <glyph glyph-name="cacute" unicode="&#x107;" horiz-adv-x="974" 
d="M697 1548q47 0 93 -44t46 -88t-41 -77l-234 -186q-31 -25 -61 -25t-55 25q-26 25 -26 55t23 58l176 237q33 45 79 45zM610 848q-108 0 -176 -87t-68 -253t72 -247t203 -81q55 0 113 16t69 15q70 0 70 -74q0 -39 -31 -69q-90 -90 -306 -90t-345 130q-129 132 -129 376
t154 401q154 158 399 157q162 0 223 -61q31 -31 31 -139v-19q0 -55 -2 -114q-2 -82 -80 -82q-63 0 -90 82l-41 129q-23 10 -66 10z" />
    <glyph glyph-name="Ccircumflex" unicode="&#x108;" horiz-adv-x="1218" 
d="M745 1880q51 0 93 -41l209 -207q23 -22 23 -52t-28 -56q-26 -26 -58 -27q-32 0 -54 14l-197 127l-196 -127q-23 -14 -51 -14t-52 24q-25 24 -25 54t25 55l219 209q41 41 92 41zM383 690q0 -238 113 -366q113 -127 297 -127q90 1 171 23t93 22q72 0 71 -80q0 -41 -36 -77
t-136 -71q-102 -35 -241 -34q-289 0 -461 178t-172 500t202 530q202 209 504 209t329 -124q7 -32 7 -110v-28q0 -94 -2 -146q-2 -82 -84 -82q-69 0 -94 80l-57 180q-39 20 -121 21q-172 0 -278 -130t-105 -368z" />
    <glyph glyph-name="ccircumflex" unicode="&#x109;" horiz-adv-x="974" 
d="M574 1524q46 0 83 -39l205 -213q20 -22 20 -52t-26 -56q-48 -46 -108 -9l-187 129l-186 -129q-27 -16 -53 -16q-26 1 -50 23q-23 22 -23 52t23 54l217 217q39 39 85 39zM610 848q-108 0 -176 -87t-68 -253t72 -247t203 -81q55 0 113 16t69 15q70 0 70 -74q0 -39 -31 -69
q-90 -90 -306 -90t-345 130q-129 132 -129 376t154 401q154 158 399 157q162 0 223 -61q31 -31 31 -139v-19q0 -55 -2 -114q-2 -82 -80 -82q-63 0 -90 82l-41 129q-23 10 -66 10z" />
    <glyph glyph-name="Cdotaccent" unicode="&#x10a;" horiz-adv-x="1218" 
d="M569 1651q0 71 47 117t117 46t115 -44q45 -46 45 -116t-47 -116q-47 -47 -117 -47t-115 45t-45 115zM383 690q0 -238 113 -366q113 -127 297 -127q90 1 171 23t93 22q72 0 71 -80q0 -41 -36 -77t-136 -71q-102 -35 -241 -34q-289 0 -461 178t-172 500t202 530
q202 209 504 209t329 -124q7 -32 7 -110v-28q0 -94 -2 -146q-2 -82 -84 -82q-69 0 -94 80l-57 180q-39 20 -121 21q-172 0 -278 -130t-105 -368z" />
    <glyph glyph-name="cdotaccent" unicode="&#x10b;" horiz-adv-x="974" 
d="M408 1296q0 68 47 115t115 47t112 -45q45 -45 45 -113t-47 -114t-115 -47q-69 1 -113 45t-44 112zM610 848q-108 0 -176 -87t-68 -253t72 -247t203 -81q55 0 113 16t69 15q70 0 70 -74q0 -39 -31 -69q-90 -90 -306 -90t-345 130q-129 132 -129 376t154 401
q154 158 399 157q162 0 223 -61q31 -31 31 -139v-19q0 -55 -2 -114q-2 -82 -80 -82q-63 0 -90 82l-41 129q-23 10 -66 10z" />
    <glyph glyph-name="Ccaron" unicode="&#x10c;" horiz-adv-x="1218" 
d="M385 1792q0 30 27 56q26 26 58 26t54 -14l197 -127l197 127q22 14 50 14t52 -24t24 -54t-24 -55l-219 -209q-41 -41 -93 -41t-92 41l-208 207q-23 23 -23 53zM383 690q0 -238 113 -366q113 -127 297 -127q90 1 171 23t93 22q72 0 71 -80q0 -41 -36 -77t-136 -71
q-102 -35 -241 -34q-289 0 -461 178t-172 500t202 530q202 209 504 209t329 -124q7 -32 7 -110v-28q0 -94 -2 -146q-2 -82 -84 -82q-69 0 -94 80l-57 180q-39 20 -121 21q-172 0 -278 -130t-105 -368z" />
    <glyph glyph-name="ccaron" unicode="&#x10d;" horiz-adv-x="974" 
d="M248 1433q0 29 26 55q48 46 109 9l186 -129l187 129q28 16 54 16q26 1 48 -23t23 -54q0 -30 -23 -52l-217 -217q-39 -39 -85 -39t-83 39l-205 213q-20 23 -20 53zM610 848q-108 0 -176 -87t-68 -253t72 -247t203 -81q55 0 113 16t69 15q70 0 70 -74q0 -39 -31 -69
q-90 -90 -306 -90t-345 130q-129 132 -129 376t154 401q154 158 399 157q162 0 223 -61q31 -31 31 -139v-19q0 -55 -2 -114q-2 -82 -80 -82q-63 0 -90 82l-41 129q-23 10 -66 10z" />
    <glyph glyph-name="Dcaron" unicode="&#x10e;" horiz-adv-x="1458" 
d="M362 1792q0 30 27 56t59 26t54 -14l196 -127l197 127q23 14 51 14t52 -24t24 -54t-25 -55l-219 -209q-41 -41 -92 -41t-92 41l-209 207q-23 23 -23 53zM506 203h112q221 0 339 125t118 366q0 481 -457 482h-112v-973zM651 1378q725 0 725 -662q0 -328 -207 -522
t-583 -194h-441q-47 0 -73 25t-27 61q0 36 16 52q16 17 62 32l96 31v977l-90 28q-47 14 -66 37q-18 23 -18 59t24 56t64 20h518z" />
    <glyph glyph-name="dcaron" unicode="&#x10f;" horiz-adv-x="1495" 
d="M1462 1487q0 -18 -12 -43l-143 -277q-23 -43 -64 -43t-65 20t-23 40q0 19 4 39l64 297q12 72 102 71q53 1 95 -29t42 -75zM618 846q-250 0 -249 -344q0 -160 57 -237t154 -77q55 0 103 25t69 49l20 23v522q-53 39 -154 39zM772 1139v129l-94 20q-76 16 -76 82q0 37 18 56
t88 40t172 21t136 -35q35 -35 35 -125v-1126l84 -15q41 -8 57 -25t16 -55q0 -61 -75 -88q-94 -33 -195 -32q-137 0 -137 133v26l-4 2q-4 -13 -36 -50q-99 -117 -282 -117q-184 0 -291 123q-106 124 -106 381t151 408q152 151 426 150q29 0 113 -12l4 4q-4 58 -4 105z" />
    <glyph glyph-name="Dcroat" unicode="&#x110;" horiz-adv-x="1515" 
d="M272 612h-114q-92 0 -92 82q0 49 29 79q30 30 85 30h92v375l-90 28q-47 14 -65 37q-19 23 -19 59t24 56t64 20h523q723 0 725 -662q0 -328 -207 -522t-584 -194h-444q-47 0 -74 25t-27 61t16 52q16 17 62 32l96 31v411zM559 201h115q223 0 342 124t119 369
q0 483 -461 484h-115v-375h195q92 0 92 -82q0 -49 -30 -79t-85 -30h-172v-411z" />
    <glyph glyph-name="dcroat" unicode="&#x111;" horiz-adv-x="1245" 
d="M649 985q76 0 125 -14l4 4q-4 49 -4 86h-237q-88 0 -88 74q1 39 29 63t81 25h215v61l-96 21q-76 16 -76 73q0 33 18 50t88 38t172 21t136 -35q35 -35 35 -125v-104h96q88 0 88 -76q0 -39 -29 -63t-82 -23h-73v-860l84 -15q41 -8 57 -25t16 -55q0 -61 -75 -88
q-94 -33 -195 -32q-137 0 -137 133v26l-4 2q-4 -13 -36 -50q-99 -117 -282 -117q-184 0 -291 118q-106 118 -106 356t150 385q151 146 417 146zM618 793q-250 0 -249 -318q0 -141 58 -214t153 -73q55 0 103 25t69 49l20 23v467q-53 41 -154 41z" />
    <glyph glyph-name="Emacron" unicode="&#x112;" horiz-adv-x="1196" 
d="M365 1747h514q92 0 92 -86q0 -111 -115 -111h-514q-92 0 -92 86q0 111 115 111zM133 1378h825q68 0 99 -30t30 -127v-25q0 -63 -2 -111q-2 -82 -84 -81q-70 0 -96 79l-33 101h-366v-400h272l21 54q27 72 88 71q78 0 78 -90v-252q0 -90 -78 -90q-59 0 -88 74l-21 51h-272
v-407h393l35 110q25 80 96 80q82 0 84 -82q2 -45 2 -110v-35q0 -96 -31 -127t-98 -31h-842q-47 0 -73 25t-27 61q0 36 16 52q16 17 62 32l96 31v977l-90 28q-83 26 -83 96q0 36 23 56q24 20 64 20z" />
    <glyph glyph-name="emacron" unicode="&#x113;" horiz-adv-x="1089" 
d="M317 1397h506q92 0 92 -84q1 -51 -29 -82t-85 -31h-506q-92 0 -92 84q0 51 29 82q30 31 85 31zM561 850q-80 0 -131 -59t-65 -168h366q-6 227 -170 227zM862 465h-502q29 -285 308 -285q72 0 140 18t83 19q70 0 70 -74q0 -39 -31 -69q-96 -96 -339 -96t-376 132t-133 382
t141 400q141 151 373 150q192 0 300 -110t108 -311q-1 -156 -142 -156z" />
    <glyph glyph-name="Ebreve" unicode="&#x114;" horiz-adv-x="1196" 
d="M287 1772q0 92 86 92q63 0 78 -70q10 -47 52 -76q42 -28 106 -28t106 28q41 29 51 76q14 70 78 70q86 0 86 -92q0 -123 -100 -201t-234 -78q-135 0 -222 79t-87 200zM133 1378h825q68 0 99 -30t30 -127v-25q0 -63 -2 -111q-2 -82 -84 -81q-70 0 -96 79l-33 101h-366v-400
h272l21 54q27 72 88 71q78 0 78 -90v-252q0 -90 -78 -90q-59 0 -88 74l-21 51h-272v-407h393l35 110q25 80 96 80q82 0 84 -82q2 -45 2 -110v-35q0 -96 -31 -127t-98 -31h-842q-47 0 -73 25t-27 61q0 36 16 52q16 17 62 32l96 31v977l-90 28q-83 26 -83 96q0 36 23 56
q24 20 64 20z" />
    <glyph glyph-name="ebreve" unicode="&#x115;" horiz-adv-x="1089" 
d="M244 1419q0 43 23 66q24 23 59 22q63 0 75 -65q23 -119 156 -119t156 119q12 66 75 65q35 -1 59 -23t23 -65q0 -125 -95 -207t-229 -82t-218 81t-84 208zM561 850q-80 0 -131 -59t-65 -168h366q-6 227 -170 227zM862 465h-502q29 -285 308 -285q72 0 140 18t83 19
q70 0 70 -74q0 -39 -31 -69q-96 -96 -339 -96t-376 132t-133 382t141 400q141 151 373 150q192 0 300 -110t108 -311q-1 -156 -142 -156z" />
    <glyph glyph-name="Edotaccent" unicode="&#x116;" horiz-adv-x="1196" 
d="M440 1651q0 71 46 117t118 46t116 -44q44 -46 44 -116t-46 -116q-46 -47 -118 -47t-116 45t-44 115zM133 1378h825q68 0 99 -30t30 -127v-25q0 -63 -2 -111q-2 -82 -84 -81q-70 0 -96 79l-33 101h-366v-400h272l21 54q27 72 88 71q78 0 78 -90v-252q0 -90 -78 -90
q-59 0 -88 74l-21 51h-272v-407h393l35 110q25 80 96 80q82 0 84 -82q2 -45 2 -110v-35q0 -96 -31 -127t-98 -31h-842q-47 0 -73 25t-27 61q0 36 16 52q16 17 62 32l96 31v977l-90 28q-83 26 -83 96q0 36 23 56q24 20 64 20z" />
    <glyph glyph-name="edotaccent" unicode="&#x117;" horiz-adv-x="1089" 
d="M393 1296q0 68 47 115t115 47t113 -45t45 -113t-47 -114t-115 -47q-68 1 -113 45t-45 112zM561 850q-80 0 -131 -59t-65 -168h366q-6 227 -170 227zM862 465h-502q29 -285 308 -285q72 0 140 18t83 19q70 0 70 -74q0 -39 -31 -69q-96 -96 -339 -96t-376 132t-133 382
t141 400q141 151 373 150q192 0 300 -110t108 -311q-1 -156 -142 -156z" />
    <glyph glyph-name="Eogonek" unicode="&#x118;" horiz-adv-x="1196" 
d="M133 1378h825q68 0 99 -30t30 -127v-25q0 -63 -2 -111q-2 -82 -84 -81q-70 0 -96 79l-33 101h-366v-400h272l21 54q27 72 88 71q78 0 78 -90v-252q0 -90 -78 -90q-59 0 -88 74l-21 51h-272v-407h393l35 110q25 80 96 80q82 0 84 -82q2 -45 2 -110v-35q0 -76 -12 -104
t-55 -46q-199 -86 -199 -217q0 -98 90 -98q30 0 58 8t48 8t37 -17t17 -46t-27 -56q-83 -82 -223 -82t-204 58t-64 148q0 91 69 170q70 79 160 116h-666q-47 0 -73 25t-27 61q0 36 16 52q16 17 62 32l96 31v977l-90 28q-83 26 -83 96q0 36 23 56q24 20 64 20z" />
    <glyph glyph-name="eogonek" unicode="&#x119;" horiz-adv-x="1089" 
d="M862 465h-502q29 -285 308 -285q72 0 140 18t83 19q70 0 70 -74q0 -53 -62 -94q-190 -127 -190 -258q0 -98 90 -98q31 0 59 8t48 8t36 -17t16 -46t-26 -56q-82 -82 -222 -82t-206 58q-64 58 -64 143q0 86 52 155t118 113h-20q-242 1 -375 133t-133 382t141 400
q141 151 373 150q192 0 300 -110t108 -311q-1 -156 -142 -156zM561 850q-80 0 -131 -59t-65 -168h366q-6 227 -170 227z" />
    <glyph glyph-name="Ecaron" unicode="&#x11a;" horiz-adv-x="1196" 
d="M276 1792q0 30 27 56t59 26t54 -14l196 -127l197 127q23 14 51 14t52 -24t24 -54t-25 -55l-219 -209q-41 -41 -92 -41t-92 41l-209 207q-23 23 -23 53zM133 1378h825q68 0 99 -30t30 -127v-25q0 -63 -2 -111q-2 -82 -84 -81q-70 0 -96 79l-33 101h-366v-400h272l21 54
q27 72 88 71q78 0 78 -90v-252q0 -90 -78 -90q-59 0 -88 74l-21 51h-272v-407h393l35 110q25 80 96 80q82 0 84 -82q2 -45 2 -110v-35q0 -96 -31 -127t-98 -31h-842q-47 0 -73 25t-27 61q0 36 16 52q16 17 62 32l96 31v977l-90 28q-83 26 -83 96q0 36 23 56q24 20 64 20z
" />
    <glyph glyph-name="ecaron" unicode="&#x11b;" horiz-adv-x="1089" 
d="M236 1433q0 29 26 55q48 46 109 9l186 -129l186 129q27 16 54 16q27 1 49 -23t22 -54t-22 -52l-217 -217q-39 -39 -85 -39t-83 39l-205 213q-20 23 -20 53zM561 850q-80 0 -131 -59t-65 -168h366q-6 227 -170 227zM862 465h-502q29 -285 308 -285q72 0 140 18t83 19
q70 0 70 -74q0 -39 -31 -69q-96 -96 -339 -96t-376 132t-133 382t141 400q141 151 373 150q192 0 300 -110t108 -311q-1 -156 -142 -156z" />
    <glyph glyph-name="Gcircumflex" unicode="&#x11c;" horiz-adv-x="1390" 
d="M770 1880q51 0 92 -41l209 -207q23 -22 23 -52t-27 -56t-59 -27q-32 0 -54 14l-196 127l-197 -127q-23 -14 -51 -14t-52 24t-24 54t25 55l219 209q41 41 92 41zM846 178q47 0 125 12v322l-154 41q-86 25 -86 94q0 33 24 53t64 21h340q98 0 98 -98v-392q0 -104 -69 -155
q-137 -98 -439 -98q-303 0 -485 182q-182 184 -182 508t210 527q210 202 568 202q258 0 336 -78q20 -20 28 -53t7 -111v-29q0 -90 -2 -139q-2 -82 -82 -82q-69 0 -96 80l-58 176q-49 29 -182 29q-199 0 -313 -128t-115 -372q0 -244 124 -378t339 -134z" />
    <glyph glyph-name="gcircumflex" unicode="&#x11d;" horiz-adv-x="1089" 
d="M545 1597q51 0 92 -41l209 -206q22 -23 22 -53q0 -31 -26 -57t-59 -26q-32 0 -54 15l-197 127l-196 -127q-57 -35 -103 9q-25 24 -25 54t25 56l220 208q41 41 92 41zM393 681q0 -77 44 -123t113 -46q68 0 110 44t42 121t-44 123t-112 46t-111 -44q-42 -44 -42 -121z
M518 -16q-105 0 -153 12q-47 -59 -48 -137q0 -158 232 -158q109 0 170 48q61 47 61 111t-40 94t-138 30h-84zM1069 1122q0 -38 -25 -64q-24 -26 -76 -60t-81 -60q94 -84 94 -244t-123 -269q-123 -108 -340 -108l-123 11q-20 -25 -20 -64q0 -40 38 -60t140 -20h102
q403 0 404 -284q0 -158 -151 -275t-393 -117t-354 82t-112 213q0 154 166 244q-74 53 -74 157t115 179q-141 84 -141 263t123 287t340 107q77 0 157 -20q63 100 115 150t103 50q52 0 84 -29q32 -30 32 -69z" />
    <glyph glyph-name="Gbreve" unicode="&#x11e;" horiz-adv-x="1390" 
d="M428 1772q0 92 86 92q63 0 78 -70q10 -47 52 -76q42 -28 106 -28t106 28q41 28 51 76q14 70 78 70q86 0 86 -92q0 -123 -99 -201q-98 -78 -234 -78t-223 79t-87 200zM846 178q47 0 125 12v322l-154 41q-86 25 -86 94q0 33 24 53t64 21h340q98 0 98 -98v-392
q0 -104 -69 -155q-137 -98 -439 -98q-303 0 -485 182q-182 184 -182 508t210 527q210 202 568 202q258 0 336 -78q20 -20 28 -53t7 -111v-29q0 -90 -2 -139q-2 -82 -82 -82q-69 0 -96 80l-58 176q-49 29 -182 29q-199 0 -313 -128t-115 -372q0 -244 124 -378t339 -134z" />
    <glyph glyph-name="gbreve" unicode="&#x11f;" horiz-adv-x="1089" 
d="M236 1419q0 43 23 66q24 23 58 22q63 0 76 -65q23 -119 156 -119t156 119q12 66 75 65q35 -1 59 -23t23 -65q0 -125 -95 -207t-229 -82t-219 81q-83 81 -83 208zM393 681q0 -77 44 -123t113 -46q68 0 110 44t42 121t-44 123t-112 46t-111 -44q-42 -44 -42 -121zM518 -16
q-105 0 -153 12q-47 -59 -48 -137q0 -158 232 -158q109 0 170 48q61 47 61 111t-40 94t-138 30h-84zM1069 1122q0 -38 -25 -64q-24 -26 -76 -60t-81 -60q94 -84 94 -244t-123 -269q-123 -108 -340 -108l-123 11q-20 -25 -20 -64q0 -40 38 -60t140 -20h102q403 0 404 -284
q0 -158 -151 -275t-393 -117t-354 82t-112 213q0 154 166 244q-74 53 -74 157t115 179q-141 84 -141 263t123 287t340 107q77 0 157 -20q63 100 115 150t103 50q52 0 84 -29q32 -30 32 -69z" />
    <glyph glyph-name="Gdotaccent" unicode="&#x120;" horiz-adv-x="1390" 
d="M612 1651q0 71 46 117t118 46t116 -44q44 -46 44 -116t-46 -116q-46 -47 -118 -47t-116 45t-44 115zM846 178q47 0 125 12v322l-154 41q-86 25 -86 94q0 33 24 53t64 21h340q98 0 98 -98v-392q0 -104 -69 -155q-137 -98 -439 -98q-303 0 -485 182q-182 184 -182 508
t210 527q210 202 568 202q258 0 336 -78q20 -20 28 -53t7 -111v-29q0 -90 -2 -139q-2 -82 -82 -82q-69 0 -96 80l-58 176q-49 29 -182 29q-199 0 -313 -128t-115 -372q0 -244 124 -378t339 -134z" />
    <glyph glyph-name="gdotaccent" unicode="&#x121;" horiz-adv-x="1089" 
d="M385 1296q0 68 47 115t115 47q69 0 113 -45t44 -113t-46 -114q-48 -46 -116 -47q-68 1 -112 45q-45 44 -45 112zM393 681q0 -77 44 -123t113 -46q68 0 110 44t42 121t-44 123t-112 46t-111 -44q-42 -44 -42 -121zM518 -16q-105 0 -153 12q-47 -59 -48 -137
q0 -158 232 -158q109 0 170 48q61 47 61 111t-40 94t-138 30h-84zM1069 1122q0 -38 -25 -64q-24 -26 -76 -60t-81 -60q94 -84 94 -244t-123 -269q-123 -108 -340 -108l-123 11q-20 -25 -20 -64q0 -40 38 -60t140 -20h102q403 0 404 -284q0 -158 -151 -275t-393 -117t-354 82
t-112 213q0 154 166 244q-74 53 -74 157t115 179q-141 84 -141 263t123 287t340 107q77 0 157 -20q63 100 115 150t103 50q52 0 84 -29q32 -30 32 -69z" />
    <glyph glyph-name="Gcommaaccent" unicode="&#x122;" horiz-adv-x="1390" 
d="M655 -229q0 47 39 85q38 38 98 38t97 -38t37 -100q0 -112 -118 -180t-234 -68t-117 64q0 23 14 37q14 15 87 35t116 53q-19 28 -19 74zM846 178q47 0 125 12v322l-154 41q-86 25 -86 94q0 33 24 53t64 21h340q98 0 98 -98v-392q0 -104 -69 -155q-137 -98 -439 -98
q-303 0 -485 182q-182 184 -182 508t210 527q210 202 568 202q258 0 336 -78q20 -20 28 -53t7 -111v-29q0 -90 -2 -139q-2 -82 -82 -82q-69 0 -96 80l-58 176q-49 29 -182 29q-199 0 -313 -128t-115 -372q0 -244 124 -378t339 -134z" />
    <glyph glyph-name="gcommaaccent" unicode="&#x123;" horiz-adv-x="1089" 
d="M403 1280q0 112 118 180q119 68 235 68t116 -64q0 -23 -14 -37t-87 -34t-116 -54q19 -29 19 -75t-39 -83q-39 -38 -98 -38t-97 38q-37 38 -37 99zM393 681q0 -77 44 -123t113 -46q68 0 110 44t42 121t-44 123t-112 46t-111 -44q-42 -44 -42 -121zM518 -16q-105 0 -153 12
q-47 -59 -48 -137q0 -158 232 -158q109 0 170 48q61 47 61 111t-40 94t-138 30h-84zM1069 1122q0 -38 -25 -64q-24 -26 -76 -60t-81 -60q94 -84 94 -244t-123 -269q-123 -108 -340 -108l-123 11q-20 -25 -20 -64q0 -40 38 -60t140 -20h102q403 0 404 -284q0 -158 -151 -275
t-393 -117t-354 82t-112 213q0 154 166 244q-74 53 -74 157t115 179q-141 84 -141 263t123 287t340 107q77 0 157 -20q63 100 115 150t103 50q52 0 84 -29q32 -30 32 -69z" />
    <glyph glyph-name="Hcircumflex" unicode="&#x124;" horiz-adv-x="1564" 
d="M788 1880q51 0 93 -41l209 -207q22 -22 22 -52t-27 -56t-59 -27q-32 0 -53 14l-197 127l-196 -127q-22 -14 -50 -14t-53 24t-25 54t25 55l219 209q41 41 92 41zM133 1378h447q40 0 64 -20t24 -53q0 -76 -86 -103l-78 -24v-377h557v377l-78 24q-86 27 -86 103q0 33 24 53
t64 20h449q42 0 64 -20t22 -51q0 -76 -84 -101l-90 -28v-977l96 -31q45 -14 61 -32q17 -18 17 -54t-26 -60t-73 -24h-424q-47 0 -73 25t-27 61q0 36 16 53q16 18 62 33l86 29v403h-557v-403l86 -29q45 -14 61 -32q17 -18 17 -55t-27 -61t-74 -24h-422q-47 0 -73 25t-27 61
q0 36 16 52q16 17 62 32l96 31v977l-90 28q-83 26 -83 96q0 36 23 56q24 20 64 20z" />
    <glyph glyph-name="hcircumflex" unicode="&#x125;" horiz-adv-x="1296" 
d="M574 1599q-32 0 -54 15l-196 127l-197 -127q-58 -35 -102 9q-25 25 -25 55t25 55l219 209q41 40 92 40t92 -40l209 -207q23 -23 23 -53t-28 -56q-26 -27 -58 -27zM737 1040q385 0 385 -393v-450l78 -25q44 -14 60 -32t16 -55t-27 -61t-73 -24h-381q-47 0 -74 25t-27 61
t16 53q16 18 60 33l74 25v385q0 133 -48 191t-145 58q-55 -1 -103 -25t-69 -48l-20 -23v-538l73 -25q44 -14 60 -32t16 -55t-26 -61t-74 -24h-381q-47 0 -74 25t-26 61q0 61 69 84l84 27v1071l-82 18q-76 16 -75 84q0 37 17 56q16 19 86 40t166 21t132 -35q35 -35 35 -125
v-256q0 -78 -15 -172l5 -2q95 143 288 143z" />
    <glyph glyph-name="Hbar" unicode="&#x126;" horiz-adv-x="1667" 
d="M270 860h-116q-88 0 -88 78q0 96 110 96h94v144l-90 28q-84 26 -84 96q0 36 24 56t64 20h447q41 0 65 -20t23 -53q0 -76 -86 -103l-78 -24v-144h557v144l-78 24q-86 27 -86 103q0 33 24 53t64 20h449q41 0 63 -20t23 -51q0 -76 -84 -101l-90 -28v-144h116q88 0 89 -78
q0 -96 -111 -96h-94v-659l96 -31q45 -14 61 -32t16 -54t-25 -60q-26 -24 -72 -24h-424q-47 0 -74 25t-27 61t16 53q16 18 62 33l86 29v305h-557v-305l86 -29q45 -14 61 -32t16 -55t-26 -61q-27 -24 -74 -24h-421q-47 0 -74 25t-27 61t16 52q16 17 62 32l96 31v659zM555 692
h557v168h-557v-168z" />
    <glyph glyph-name="hbar" unicode="&#x127;" horiz-adv-x="1296" 
d="M737 993q385 0 385 -393v-403l78 -25q44 -14 60 -32t16 -55t-27 -61t-73 -24h-381q-47 0 -74 25t-27 61t16 53q16 18 60 33l74 25v342q0 133 -48 191t-145 58q-55 0 -103 -24t-69 -47l-20 -25v-495l73 -25q44 -14 60 -32t16 -55t-26 -61t-74 -24h-381q-47 0 -74 25
t-26 61q0 61 69 84l84 27v864h-102q-88 0 -88 76q0 39 28 63t82 23h80v61l-82 19q-76 16 -75 75q0 33 17 50q16 17 86 38t166 21t132 -35q35 -35 35 -125v-104h229q88 0 88 -76q0 -39 -28 -63t-82 -23h-207v-37q0 -78 -15 -172l5 -2q95 143 288 143z" />
    <glyph glyph-name="Itilde" unicode="&#x128;" horiz-adv-x="724" 
d="M215 1604q-39 0 -76 -35t-65 -35t-54 22q-25 22 -24 58q0 61 82 127q149 120 324 25q75 -40 114 -40t76 35q38 35 66 35t53 -22t24 -58q0 -61 -82 -127q-82 -65 -166 -65q-85 0 -159 40t-113 40zM133 1378h459q40 0 64 -20t24 -56q0 -70 -84 -96l-90 -28v-977l96 -31
q46 -14 62 -32t16 -53q0 -37 -27 -61t-73 -24h-435q-47 0 -73 25t-27 61q0 36 16 52q16 17 62 32l96 31v977l-90 28q-83 26 -83 96q0 36 23 56q24 20 64 20z" />
    <glyph glyph-name="itilde" unicode="&#x129;" horiz-adv-x="669" 
d="M196 1249q-30 0 -68 -39t-68 -39t-52 23t-20 55q0 67 74 133t154 66q81 0 138 -44t87 -44t68 39t68 39q29 0 51 -23t21 -55q0 -66 -74 -132q-75 -66 -155 -67q-80 0 -137 44t-87 44zM41 918q0 37 17 56t88 40q70 20 172 20t137 -35t34 -125v-677l84 -25q70 -20 70 -70
t-28 -76t-74 -26h-396q-47 0 -73 25t-27 61q0 36 16 52q16 17 62 32l88 27v618l-94 21q-76 16 -76 82z" />
    <glyph glyph-name="Imacron" unicode="&#x12a;" horiz-adv-x="724" 
d="M119 1747h514q92 0 92 -86q0 -111 -115 -111h-514q-92 0 -92 86q0 111 115 111zM133 1378h459q40 0 64 -20t24 -56q0 -70 -84 -96l-90 -28v-977l96 -31q46 -14 62 -32t16 -53q0 -37 -27 -61t-73 -24h-435q-47 0 -73 25t-27 61q0 36 16 52q16 17 62 32l96 31v977l-90 28
q-83 26 -83 96q0 36 23 56q24 20 64 20z" />
    <glyph glyph-name="imacron" unicode="&#x12b;" horiz-adv-x="669" 
d="M123 1397h424q92 0 92 -84q0 -51 -30 -82t-85 -31h-424q-92 0 -92 84q0 51 30 82t85 31zM41 918q0 37 17 56t88 40q70 20 172 20t137 -35t34 -125v-677l84 -25q70 -20 70 -70t-28 -76t-74 -26h-396q-47 0 -73 25t-27 61q0 36 16 52q16 17 62 32l88 27v618l-94 21
q-76 16 -76 82z" />
    <glyph glyph-name="Ibreve" unicode="&#x12c;" horiz-adv-x="724" 
d="M51 1772q0 92 86 92q63 0 78 -70q10 -47 52 -76q43 -28 107 -28t105 28t51 76q14 70 78 70q86 0 86 -92q0 -123 -99 -201t-235 -78t-222 79q-87 79 -87 200zM133 1378h459q40 0 64 -20t24 -56q0 -70 -84 -96l-90 -28v-977l96 -31q46 -14 62 -32t16 -53q0 -37 -27 -61
t-73 -24h-435q-47 0 -73 25t-27 61q0 36 16 52q16 17 62 32l96 31v977l-90 28q-83 26 -83 96q0 36 23 56q24 20 64 20z" />
    <glyph glyph-name="ibreve" unicode="&#x12d;" horiz-adv-x="669" 
d="M33 1421q0 86 84 86q59 0 73 -63q27 -121 146 -121t145 121q14 63 74 63q84 0 84 -86q0 -127 -93 -209t-222 -82t-210 82t-81 209zM41 918q0 37 17 56t88 40q70 20 172 20t137 -35t34 -125v-677l84 -25q70 -20 70 -70t-28 -76t-74 -26h-396q-47 0 -73 25t-27 61
q0 36 16 52q16 17 62 32l88 27v618l-94 21q-76 16 -76 82z" />
    <glyph glyph-name="Iogonek" unicode="&#x12e;" horiz-adv-x="724" 
d="M133 1378h459q40 0 64 -20t24 -56q0 -70 -84 -96l-90 -28v-977l96 -31q46 -14 62 -32t16 -53q0 -37 -27 -61t-73 -24h-121q-121 -109 -121 -208t90 -99q30 0 58 8t48 8t37 -17t17 -46t-27 -56q-83 -82 -223 -82t-204 58t-64 144q0 87 58 162t138 128h-121q-47 0 -73 25
t-27 61q0 36 16 52q16 17 62 32l96 31v977l-90 28q-83 26 -83 96q0 36 23 56q24 20 64 20z" />
    <glyph glyph-name="iogonek" unicode="&#x12f;" horiz-adv-x="669" 
d="M174 1296q0 74 49 123t123 49t121 -47t47 -121t-49 -122t-123 -50q-74 0 -121 47t-47 121zM41 918q0 37 17 56t88 40q70 20 172 20t137 -35t34 -125v-677l84 -25q70 -20 70 -70t-28 -76t-74 -26h-97q-120 -109 -120 -208t90 -99q30 0 58 8t48 8t37 -17q16 -17 16 -46
t-26 -56q-83 -82 -223 -82t-204 58t-65 144q1 87 59 162t138 128h-107q-47 0 -73 25t-27 61q0 36 16 52q16 17 62 32l88 27v618l-94 21q-76 16 -76 82z" />
    <glyph glyph-name="Idotaccent" unicode="&#x130;" horiz-adv-x="724" 
d="M207 1651q0 71 46 117t118 46q71 0 115 -44q44 -46 44 -116t-46 -116q-46 -47 -118 -47t-115 45q-44 45 -44 115zM133 1378h459q40 0 64 -20t24 -56q0 -70 -84 -96l-90 -28v-977l96 -31q46 -14 62 -32t16 -53q0 -37 -27 -61t-73 -24h-435q-47 0 -73 25t-27 61q0 36 16 52
q16 17 62 32l96 31v977l-90 28q-83 26 -83 96q0 36 23 56q24 20 64 20z" />
    <glyph glyph-name="dotlessi" unicode="&#x131;" horiz-adv-x="669" 
d="M41 918q0 37 17 56t88 40q70 20 172 20t137 -35t34 -125v-677l84 -25q70 -20 70 -70t-28 -76t-74 -26h-396q-47 0 -73 25t-27 61q0 36 16 52q16 17 62 32l88 27v618l-94 21q-76 16 -76 82z" />
    <glyph glyph-name="IJ" unicode="&#x132;" horiz-adv-x="1392" 
d="M918 119v1059l-82 26q-84 29 -84 101q0 33 23 53q24 20 65 20h442q41 0 64 -20t22 -53q0 -74 -82 -101l-82 -26v-992q0 -182 -40 -281t-109 -169q-109 -109 -254 -109q-115 0 -115 88q0 55 64 90q168 93 168 314zM133 1378h459q40 0 64 -20t24 -56q0 -70 -84 -96l-90 -28
v-977l96 -31q46 -14 62 -32t16 -53q0 -37 -27 -61t-73 -24h-435q-47 0 -73 25t-27 61q0 36 16 52q16 17 62 32l96 31v977l-90 28q-83 26 -83 96q0 36 23 56q24 20 64 20z" />
    <glyph glyph-name="ij" unicode="&#x133;" horiz-adv-x="1273" 
d="M817 1296q0 72 49 121t121 49t119 -47t47 -119t-49 -120t-121 -50q-72 0 -119 47t-47 119zM850 10v805l-82 19q-76 16 -76 84q0 37 18 56t86 40q70 20 166 20t132 -35q35 -35 34 -125v-796q0 -301 -137 -443q-113 -113 -250 -112q-49 1 -75 23t-25 56q0 34 13 51t48 38
q70 41 109 111t39 208zM174 1296q0 74 49 123t123 49t121 -47t47 -121t-49 -122t-123 -50q-74 0 -121 47t-47 121zM41 918q0 37 17 56t88 40q70 20 172 20t137 -35t34 -125v-677l84 -25q70 -20 70 -70t-28 -76t-74 -26h-396q-47 0 -73 25t-27 61q0 36 16 52q16 17 62 32
l88 27v618l-94 21q-76 16 -76 82z" />
    <glyph glyph-name="Jcircumflex" unicode="&#x134;" horiz-adv-x="667" 
d="M346 1880q51 0 92 -41l209 -207q23 -22 23 -52t-27 -56t-59 -27q-32 0 -54 14l-196 127l-197 -127q-23 -14 -51 -14t-52 24t-24 54t25 55l219 209q41 41 92 41zM193 119v1059l-82 26q-84 29 -84 101q0 33 23 53q24 20 65 20h442q41 0 64 -20t22 -53q0 -74 -82 -101
l-82 -26v-992q0 -182 -40 -281t-109 -169q-109 -109 -254 -109q-115 0 -115 88q0 55 64 90q168 93 168 314z" />
    <glyph glyph-name="jcircumflex" unicode="&#x135;" horiz-adv-x="604" 
d="M314 1524q46 0 83 -39l205 -213q20 -22 20 -52t-26 -56q-47 -46 -109 -9l-186 129l-186 -129q-27 -16 -53 -16q-26 1 -49 23q-24 22 -24 52t23 54l217 217q39 39 85 39zM180 10v805l-82 19q-76 16 -75 84q0 37 17 56q16 19 86 40q70 20 166 20t132 -35q35 -35 35 -125
v-796q0 -301 -137 -443q-113 -113 -250 -112q-49 1 -75 23t-26 56q-1 34 13 51t49 38q71 41 109 111t38 208z" />
    <glyph glyph-name="Kcommaaccent" unicode="&#x136;" horiz-adv-x="1425" 
d="M586 -229q0 47 39 85t98 38t96 -38t37 -100q0 -112 -118 -180t-234 -68t-117 64q0 23 14 37q14 15 87 35t116 53q-18 28 -18 74zM133 1378h410q41 0 65 -22t23 -53q0 -66 -90 -109l-35 -16v-467l446 475l-41 16q-76 29 -75 101q0 33 24 55t64 20h399q41 0 65 -20t23 -53
q0 -72 -96 -107l-62 -22l-442 -451l158 -188q143 -172 223 -246t170 -121q53 -27 53 -73t-50 -78q-50 -31 -143 -31q-94 0 -184 56t-192 185l-340 430v-458l43 -19q47 -20 64 -40t17 -57t-26 -61q-27 -24 -74 -24h-385q-47 0 -73 25t-27 61q0 36 16 52q16 17 62 32l96 31
v977l-90 28q-83 26 -83 96q0 36 23 56q24 20 64 20z" />
    <glyph glyph-name="kcommaaccent" unicode="&#x137;" horiz-adv-x="1212" 
d="M524 -229q0 47 39 85t99 38t96 -38q37 -38 37 -100q0 -112 -118 -180q-119 -68 -235 -68t-116 64q0 23 14 37q14 15 87 35t116 53q-19 28 -19 74zM292 1487q96 0 132 -35q35 -35 35 -125v-758l282 265l-36 20q-57 33 -58 92q0 33 23 53t63 21h354q41 0 65 -20t24 -54
q0 -68 -89 -104l-53 -23l-284 -248l112 -145q141 -182 287 -262q47 -27 47 -70t-45 -75q-45 -31 -135 -31q-183 1 -336 219l-221 315v-325l35 -17q45 -20 59 -40t14 -55q-1 -37 -29 -61t-75 -24h-336q-47 0 -74 25t-26 61q0 61 69 84l84 27v1071l-82 18q-76 16 -75 84
q0 37 17 56q16 19 86 40t166 21z" />
    <glyph glyph-name="kgreenlandic" unicode="&#x138;" horiz-adv-x="1243" 
d="M41 918q0 37 17 56t88 40q70 20 172 20t137 -35t34 -125v-331l283 291l-37 20q-57 33 -57 92q0 33 22 53q23 20 64 21h354q41 0 65 -20t23 -54q0 -68 -88 -104l-53 -23l-285 -274l103 -119q162 -186 297 -262q47 -27 47 -70t-45 -75q-45 -31 -135 -31t-171 50t-169 169
l-218 289v-299l35 -17q46 -20 60 -40t14 -55q0 -37 -29 -61t-75 -24h-349q-47 0 -73 25t-27 61q0 36 16 52q16 17 62 32l88 27v618l-94 21q-76 16 -76 82z" />
    <glyph glyph-name="Lacute" unicode="&#x139;" horiz-adv-x="1093" 
d="M768 1740q0 -54 -49 -81l-287 -152q-20 -10 -47 -10t-53 26t-25 58q0 32 25 57l246 226q28 22 66 22t81 -46t43 -100zM133 1378h477q41 0 65 -20t23 -53q0 -72 -86 -99l-106 -30v-973h317l54 166q27 80 92 80q80 0 82 -88t2 -168v-35q0 -96 -31 -127t-98 -31h-779
q-47 0 -73 25t-27 61q0 36 16 52q16 17 62 32l96 31v977l-90 28q-83 26 -83 96q0 36 23 56q24 20 64 20z" />
    <glyph glyph-name="lacute" unicode="&#x13a;" horiz-adv-x="638" 
d="M463 1989q39 0 82 -46q43 -47 43 -101t-49 -81l-287 -151q-57 -29 -99 15q-26 27 -26 59t25 57l245 225q27 23 66 23zM292 1487q96 0 132 -35q35 -35 35 -125v-1130l78 -25q43 -14 59 -32t16 -55t-26 -61t-74 -24h-385q-47 0 -74 25t-26 61q0 61 69 84l84 27v1071l-82 18
q-76 16 -75 84q0 37 17 56q16 19 86 40t166 21z" />
    <glyph glyph-name="Lcommaaccent" unicode="&#x13b;" horiz-adv-x="1093" 
d="M416 -229q0 47 39 85t98 38t96 -38t37 -100q0 -112 -118 -180t-234 -68t-117 64q0 23 14 37q14 15 87 35t116 53q-18 28 -18 74zM133 1378h477q41 0 65 -20t23 -53q0 -72 -86 -99l-106 -30v-973h317l54 166q27 80 92 80q80 0 82 -88t2 -168v-35q0 -96 -31 -127t-98 -31
h-779q-47 0 -73 25t-27 61q0 36 16 52q16 17 62 32l96 31v977l-90 28q-83 26 -83 96q0 36 23 56q24 20 64 20z" />
    <glyph glyph-name="lcommaaccent" unicode="&#x13c;" horiz-adv-x="638" 
d="M193 -229q0 46 38 85q39 38 99 38t96 -38q37 -38 37 -100q0 -112 -118 -180q-119 -68 -235 -68t-116 64q0 23 14 37q14 15 87 35t116 53q-18 28 -18 74zM292 1487q96 0 132 -35q35 -35 35 -125v-1130l78 -25q43 -14 59 -32t16 -55t-26 -61t-74 -24h-385q-47 0 -74 25
t-26 61q0 61 69 84l84 27v1071l-82 18q-76 16 -75 84q0 37 17 56q16 19 86 40t166 21z" />
    <glyph glyph-name="Lcaron" unicode="&#x13d;" horiz-adv-x="1093" 
d="M47 1792q0 30 27 56q26 26 58 26t54 -14l197 -127l197 127q22 14 50 14t52 -24t25 -54q0 -30 -25 -55l-219 -209q-41 -41 -92 -41t-92 41l-209 207q-23 23 -23 53zM133 1378h477q41 0 65 -20t23 -53q0 -72 -86 -99l-106 -30v-973h317l54 166q27 80 92 80q80 0 82 -88
t2 -168v-35q0 -96 -31 -127t-98 -31h-779q-47 0 -73 25t-27 61q0 36 16 52q16 17 62 32l96 31v977l-90 28q-83 26 -83 96q0 36 23 56q24 20 64 20z" />
    <glyph glyph-name="lcaron" unicode="&#x13e;" horiz-adv-x="903" 
d="M870 1487q0 -18 -12 -43l-143 -277q-23 -43 -64 -43t-65 20t-23 40q0 19 4 39l64 297q12 72 102 71q53 1 95 -29t42 -75zM292 1487q96 0 132 -35q35 -35 35 -125v-1130l78 -25q43 -14 59 -32t16 -55t-26 -61t-74 -24h-385q-47 0 -74 25t-26 61q0 61 69 84l84 27v1071
l-82 18q-76 16 -75 84q0 37 17 56q16 19 86 40t166 21z" />
    <glyph glyph-name="Ldot" unicode="&#x13f;" horiz-adv-x="1093" 
d="M731 801q0 78 51 129t129 51t127 -49t49 -127t-51 -129t-129 -51t-127 49t-49 127zM133 1378h477q41 0 65 -20t23 -53q0 -72 -86 -99l-106 -30v-973h317l54 166q27 80 92 80q80 0 82 -88t2 -168v-35q0 -96 -31 -127t-98 -31h-779q-47 0 -73 25t-27 61q0 36 16 52
q16 17 62 32l96 31v977l-90 28q-83 26 -83 96q0 36 23 56q24 20 64 20z" />
    <glyph glyph-name="ldot" unicode="&#x140;" horiz-adv-x="921" 
d="M606 705q0 78 51 129t129 51t127 -49t49 -127t-50 -129q-52 -52 -130 -52t-127 50t-49 127zM292 1487q96 0 132 -35q35 -35 35 -125v-1130l78 -25q43 -14 59 -32t16 -55t-26 -61t-74 -24h-385q-47 0 -74 25t-26 61q0 61 69 84l84 27v1071l-82 18q-76 16 -75 84
q0 37 17 56q16 19 86 40t166 21z" />
    <glyph glyph-name="Lslash" unicode="&#x141;" horiz-adv-x="1148" 
d="M61 681q0 48 54 73l159 67v357l-90 28q-84 26 -84 96q0 36 24 56t64 20h478q40 0 64 -20t24 -53q0 -72 -86 -99l-107 -30v-230l148 66q17 8 47 8t57 -32t27 -78t-52 -70l-227 -101v-536h318l53 166q27 80 92 80q80 0 82 -88t2 -168v-35q0 -96 -31 -127t-98 -31h-778
q-47 0 -74 25t-27 61t16 52q16 17 62 32l96 31v413l-79 -34q-54 -27 -103 22q-31 31 -31 79z" />
    <glyph glyph-name="lslash" unicode="&#x142;" horiz-adv-x="720" 
d="M70 711q-27 -1 -54 29q-26 30 -26 78t55 71l166 69v310l-82 18q-76 16 -76 84q-1 37 17 56t88 40t166 21t131 -35t34 -125v-248l93 39q18 8 47 8t53 -28t25 -76q0 -47 -58 -74l-160 -69v-682l78 -25q43 -14 59 -32t17 -55q0 -37 -27 -61t-73 -24h-385q-47 0 -74 25
t-27 61q0 61 70 84l84 27v563l-94 -41q-20 -8 -47 -8z" />
    <glyph glyph-name="Nacute" unicode="&#x143;" horiz-adv-x="1589" 
d="M1137 1740q0 -54 -50 -81l-286 -152q-20 -10 -47 -10t-53 26t-26 58t25 57l246 226q27 22 66 22t82 -46t43 -100zM43 1302q0 36 24 56t64 20h293q104 0 168 -98l440 -682q76 -112 123 -215l21 -39l4 2q-14 143 -15 279l-4 553l-92 28q-86 27 -86 99q0 33 24 53t64 20h410
q41 0 63 -20t23 -53q0 -74 -82 -101l-82 -26v-1022q0 -166 -180 -166q-125 0 -195 106l-440 682q-62 92 -125 215l-19 39l-4 -2q14 -141 15 -278l4 -551l98 -31q45 -14 63 -32t17 -54q0 -36 -27 -60t-73 -24h-394q-47 0 -73 25t-27 61q0 36 16 52q16 17 62 32l96 31v977
l-90 28q-45 14 -65 37q-19 23 -19 59z" />
    <glyph glyph-name="nacute" unicode="&#x144;" horiz-adv-x="1327" 
d="M861 1548q46 0 92 -44t46 -88t-41 -77l-233 -186q-31 -25 -61 -25t-55 25q-26 25 -26 55t23 58l176 237q33 45 79 45zM41 918q0 37 17 56t88 40q72 20 162 20t122 -30t31 -103v-27l4 -2q99 168 317 168q178 0 274 -100t97 -293v-450l78 -25q43 -14 59 -32t16 -55t-26 -61
q-27 -24 -74 -24h-381q-47 0 -73 25t-27 61q0 36 16 53q16 18 60 33l73 25v385q0 133 -48 191t-144 58q-55 -1 -105 -27q-51 -26 -65 -42t-23 -27v-538l74 -25q43 -14 59 -32t17 -55q0 -37 -27 -61t-73 -24h-394q-47 0 -73 25t-27 61q0 36 16 52q16 17 62 32l88 27v618
l-94 21q-76 16 -76 82z" />
    <glyph glyph-name="Ncommaaccent" unicode="&#x145;" horiz-adv-x="1589" 
d="M657 -229q0 47 39 85q38 38 98 38t97 -38t37 -100q0 -112 -118 -180t-234 -68t-117 64q0 23 14 37q14 15 87 35t116 53q-19 28 -19 74zM43 1302q0 36 24 56t64 20h293q104 0 168 -98l440 -682q76 -112 123 -215l21 -39l4 2q-14 143 -15 279l-4 553l-92 28q-86 27 -86 99
q0 33 24 53t64 20h410q41 0 63 -20t23 -53q0 -74 -82 -101l-82 -26v-1022q0 -166 -180 -166q-125 0 -195 106l-440 682q-62 92 -125 215l-19 39l-4 -2q14 -141 15 -278l4 -551l98 -31q45 -14 63 -32t17 -54q0 -36 -27 -60t-73 -24h-394q-47 0 -73 25t-27 61q0 36 16 52
q16 17 62 32l96 31v977l-90 28q-45 14 -65 37q-19 23 -19 59z" />
    <glyph glyph-name="ncommaaccent" unicode="&#x146;" horiz-adv-x="1327" 
d="M537 -229q0 46 38 85q39 38 99 38t96 -38q37 -38 37 -100q0 -112 -118 -180q-119 -68 -235 -68t-116 64q0 23 14 37q14 15 87 35t116 53q-18 28 -18 74zM41 918q0 37 17 56t88 40q72 20 162 20t122 -30t31 -103v-27l4 -2q6 17 37 53q100 115 279 115t275 -100t97 -293
v-450l78 -25q43 -14 59 -32t16 -55t-26 -61q-27 -24 -74 -24h-381q-47 0 -73 25t-27 61q0 36 16 53q16 18 60 33l73 25v385q0 133 -48 191t-144 58q-55 -1 -103 -25t-69 -48l-21 -23v-538l74 -25q43 -14 59 -32t17 -55q0 -37 -27 -61t-73 -24h-394q-47 0 -73 25t-27 61
q0 36 16 52q16 17 62 32l88 27v618l-94 21q-76 16 -76 82z" />
    <glyph glyph-name="Ncaron" unicode="&#x147;" horiz-adv-x="1589" 
d="M540 1874q32 0 54 -14l197 -127l196 127q23 14 51 14t52 -24t24 -54t-24 -55l-220 -209q-41 -41 -92 -41t-92 41l-209 207q-23 23 -23 53t28 56q26 26 58 26zM43 1302q0 36 24 56t64 20h293q104 0 168 -98l440 -682q76 -112 123 -215l21 -39l4 2q-14 143 -15 279l-4 553
l-92 28q-86 27 -86 99q0 33 24 53t64 20h410q41 0 63 -20t23 -53q0 -74 -82 -101l-82 -26v-1022q0 -166 -180 -166q-125 0 -195 106l-440 682q-62 92 -125 215l-19 39l-4 -2q14 -141 15 -278l4 -551l98 -31q45 -14 63 -32t17 -54q0 -36 -27 -60t-73 -24h-394q-47 0 -73 25
t-27 61q0 36 16 52q16 17 62 32l96 31v977l-90 28q-45 14 -65 37q-19 23 -19 59z" />
    <glyph glyph-name="ncaron" unicode="&#x148;" horiz-adv-x="1327" 
d="M338 1433q0 29 27 55q48 45 108 9l186 -129l187 129q28 16 54 16q26 1 48 -23t23 -54q0 -30 -23 -52l-217 -217q-39 -39 -85 -39t-83 39l-205 213q-20 23 -20 53zM41 918q0 37 17 56t88 40q72 20 162 20t122 -30t31 -103v-27l4 -2q99 168 317 168q178 0 274 -100t97 -293
v-450l78 -25q43 -14 59 -32t16 -55t-26 -61q-27 -24 -74 -24h-381q-47 0 -73 25t-27 61q0 36 16 53q16 18 60 33l73 25v385q0 133 -48 191t-144 58q-55 -1 -105 -27q-51 -26 -65 -42t-23 -27v-538l74 -25q43 -14 59 -32t17 -55q0 -37 -27 -61t-73 -24h-394q-47 0 -73 25
t-27 61q0 36 16 52q16 17 62 32l88 27v618l-94 21q-76 16 -76 82z" />
    <glyph glyph-name="napostrophe" unicode="&#x149;" horiz-adv-x="1488" 
d="M66 1446q0 66 40 105q42 40 104 40t99 -43q37 -42 37 -120t-62 -174t-124 -130q-35 -24 -77 -16t-42 45q0 21 36 65t60 115q-71 47 -71 113zM835 831q-105 0 -184 -96v-538l74 -25q43 -14 59 -32t16 -55t-26 -61q-27 -24 -74 -24h-393q-47 0 -74 25t-27 61t17 52
q16 17 62 32l88 27v618l-94 21q-76 16 -76 82q0 37 17 56t88 40q71 20 161 20t122 -30t32 -103v-27l4 -2q26 56 103 112q76 56 214 56q178 0 274 -100t97 -293v-450l78 -25q43 -14 59 -32t16 -55t-26 -61t-74 -24h-381q-47 0 -74 25t-27 61t17 53q16 18 60 33l73 25v385
q0 133 -48 191t-153 58z" />
    <glyph glyph-name="Eng" unicode="&#x14a;" horiz-adv-x="1593" 
d="M133 1378h293q104 0 168 -98l440 -682q62 -92 125 -215l19 -39l4 2q-14 143 -15 279l-4 553l-92 28q-86 27 -86 99q0 33 24 53t64 20h410q41 0 63 -20t23 -53q0 -74 -82 -101l-82 -26v-1096q0 -182 -40 -282t-110 -169q-109 -109 -256 -108q-55 -1 -85 23t-29 61
q0 55 63 90q172 94 172 256v4l-530 821q-76 112 -123 215l-21 39l-4 -2q14 -141 15 -278l4 -551l98 -31q45 -14 63 -32t17 -54q0 -36 -27 -60t-73 -24h-394q-47 0 -73 25t-27 61q0 36 16 52q16 17 62 32l96 31v977l-90 28q-83 26 -83 96q0 36 23 56q24 20 64 20z" />
    <glyph glyph-name="eng" unicode="&#x14b;" horiz-adv-x="1292" 
d="M41 918q0 37 17 56t88 40q72 20 162 20t122 -30t31 -103v-27l4 -2q6 17 37 53q100 115 290 115q191 0 275 -142t84 -498t-41 -521q-41 -164 -131 -260t-213 -96q-49 1 -76 23q-26 22 -26 55t13 50t56 44t70 69t49 182t20 412q0 272 -39 373q-40 100 -153 100
q-55 -1 -102 -25t-68 -48l-21 -23v-538l86 -27q45 -14 61 -32t17 -53q-1 -37 -27 -61t-73 -24h-408q-47 0 -73 25t-27 61q0 36 16 52q16 17 62 32l88 27v618l-94 21q-76 16 -76 82z" />
    <glyph glyph-name="Omacron" unicode="&#x14c;" horiz-adv-x="1509" 
d="M508 1747h514q92 0 92 -86q0 -111 -115 -111h-514q-92 0 -92 86q0 111 115 111zM383 692q0 -246 106 -378q105 -132 269 -132t266 129t102 375t-106 378t-269 132t-265 -129t-103 -375zM1427 710q-1 -329 -195 -531t-498 -202q-304 -1 -478 181t-174 510t194 530
q195 203 499 203t478 -181t174 -510z" />
    <glyph glyph-name="omacron" unicode="&#x14d;" horiz-adv-x="1208" 
d="M362 1397h506q92 0 93 -84q0 -51 -30 -82t-85 -31h-506q-92 0 -92 84q0 51 30 82t84 31zM369 514q-1 -166 67 -253t172 -87t168 83q63 83 64 249q0 166 -68 253t-172 87t-168 -83t-63 -249zM587 -23q-243 0 -374 133t-131 378t152 400q154 154 392 154t369 -133t131 -379
t-148 -399q-148 -154 -391 -154z" />
    <glyph glyph-name="Obreve" unicode="&#x14e;" horiz-adv-x="1509" 
d="M432 1772q0 92 86 92q63 0 78 -70q10 -47 52 -76q42 -28 106 -28t106 28q41 28 51 76q14 70 78 70q86 0 86 -92q0 -123 -99 -201q-98 -78 -234 -78t-223 79t-87 200zM383 692q0 -246 106 -378q105 -132 269 -132t266 129t102 375t-106 378t-269 132t-265 -129t-103 -375z
M1427 710q-1 -329 -195 -531t-498 -202q-304 -1 -478 181t-174 510t194 530q195 203 499 203t478 -181t174 -510z" />
    <glyph glyph-name="obreve" unicode="&#x14f;" horiz-adv-x="1208" 
d="M291 1419q0 43 23 66q24 23 59 22q63 0 76 -65q23 -119 155 -119t156 119q12 66 76 65q34 -1 58 -23t24 -65q0 -125 -96 -207t-229 -82q-134 0 -218 81t-84 208zM369 514q-1 -166 67 -253t172 -87t168 83q63 83 64 249q0 166 -68 253t-172 87t-168 -83t-63 -249zM587 -23
q-243 0 -374 133t-131 378t152 400q154 154 392 154t369 -133t131 -379t-148 -399q-148 -154 -391 -154z" />
    <glyph glyph-name="Ohungarumlaut" unicode="&#x150;" horiz-adv-x="1509" 
d="M1196 1862q39 0 81 -44t42 -94t-47 -77l-277 -158q-20 -12 -48 -12q-29 -1 -53 23t-24 54t25 56l229 223q33 29 72 29zM742 1886q48 0 89 -39t41 -81t-34 -70l-224 -195q-26 -20 -56 -20q-30 1 -54 23q-46 42 -4 104l168 239q26 39 74 39zM383 692q0 -246 106 -378
q105 -132 269 -132t266 129t102 375t-106 378t-269 132t-265 -129t-103 -375zM1427 710q-1 -329 -195 -531t-498 -202q-304 -1 -478 181t-174 510t194 530q195 203 499 203t478 -181t174 -510z" />
    <glyph glyph-name="ohungarumlaut" unicode="&#x151;" horiz-adv-x="1208" 
d="M974 1538q44 0 87 -42t43 -88t-39 -75l-260 -188q-56 -39 -106 6q-50 44 -7 104l211 252q27 31 71 31zM553 1556q49 0 93 -36t44 -74q0 -39 -26 -68l-199 -217q-27 -27 -59 -27t-58 22q-40 34 -14 87l141 264q29 49 78 49zM369 514q-1 -166 67 -253t172 -87t168 83
q63 83 64 249q0 166 -68 253t-172 87t-168 -83t-63 -249zM587 -23q-243 0 -374 133t-131 378t152 400q154 154 392 154t369 -133t131 -379t-148 -399q-148 -154 -391 -154z" />
    <glyph glyph-name="OE" unicode="&#x152;" horiz-adv-x="1929" 
d="M1239 195h393l35 110q25 80 96 80q82 0 84 -82q2 -45 2 -110v-35q-1 -96 -31 -127t-98 -31h-759q-92 -23 -234 -23q-297 -1 -471 181t-174 510t194 530q195 203 506 203q115 0 207 -17l27 -6h676q68 0 98 -30t31 -127v-25q0 -63 -2 -111q-2 -82 -84 -81q-70 0 -97 79
l-32 101h-367v-400h272l21 54q27 72 88 71q78 0 78 -90v-252q0 -90 -78 -90q-59 0 -88 74l-21 51h-272v-407zM774 180q104 0 178 33v952q-63 33 -186 33q-174 0 -278 -128t-105 -377q0 -249 109 -381t282 -132z" />
    <glyph glyph-name="oe" unicode="&#x153;" horiz-adv-x="1847" 
d="M1319 850q-79 0 -131 -59t-66 -168h367q-6 227 -170 227zM1620 465h-502q29 -285 307 -285q72 0 141 18t83 19q70 0 69 -74q0 -39 -30 -69q-96 -96 -349 -96t-370 157q-141 -158 -383 -158q-242 -1 -373 133t-131 378t152 400q152 154 388 154t365 -153q145 153 353 153
t314 -110q108 -110 107 -311q0 -156 -141 -156zM369 514q-1 -166 67 -253t172 -87t168 83q63 83 64 249q0 166 -68 253t-172 87t-168 -83t-63 -249z" />
    <glyph glyph-name="Racute" unicode="&#x154;" horiz-adv-x="1370" 
d="M961 1740q0 -54 -50 -81l-286 -152q-20 -10 -47 -10t-53 26t-26 58t25 57l246 226q28 22 66 22t82 -46t43 -100zM526 748h144q250 0 250 218t-250 218h-144v-436zM70 1302q0 36 23 56q24 20 65 20h544q514 0 515 -377q0 -129 -78 -232t-185 -142l78 -148
q123 -233 275 -309q53 -29 53 -73t-43 -77t-131 -32q-127 0 -218 77t-173 259l-109 243h-160v-366l56 -25q43 -18 61 -38q19 -20 19 -55t-27 -59t-74 -24h-391q-47 0 -74 25q-26 25 -26 61t16 52q16 17 61 32l97 31v977l-90 28q-45 14 -65 37q-19 23 -19 59z" />
    <glyph glyph-name="racute" unicode="&#x155;" horiz-adv-x="872" 
d="M650 1548q46 0 92 -44t46 -88t-40 -77l-234 -186q-30 -25 -60 -25t-56 25t-26 55t23 58l176 237q33 45 79 45zM41 918q0 37 17 56t88 40q72 20 162 20t122 -30t31 -103v-57l4 -2q41 96 114 150t160 55q111 0 111 -111q0 -84 -32 -132t-73 -48q-18 0 -46 12t-50 12
q-94 0 -160 -82v-501l99 -27q78 -20 78 -84q0 -38 -27 -62t-74 -24h-420q-47 0 -73 25t-27 61q0 36 16 52q16 17 62 32l88 27v618l-94 21q-76 16 -76 82z" />
    <glyph glyph-name="Rcommaaccent" unicode="&#x156;" horiz-adv-x="1370" 
d="M582 -229q0 47 39 85t98 38t96 -38t37 -100q0 -112 -118 -180t-234 -68t-117 64q0 23 14 37q14 15 87 35t116 53q-18 28 -18 74zM526 748h144q250 0 250 218t-250 218h-144v-436zM70 1302q0 36 23 56q24 20 65 20h544q514 0 515 -377q0 -129 -78 -232t-185 -142l78 -148
q123 -233 275 -309q53 -29 53 -73t-43 -77t-131 -32q-127 0 -218 77t-173 259l-109 243h-160v-366l56 -25q43 -18 61 -38q19 -20 19 -55t-27 -59t-74 -24h-391q-47 0 -74 25q-26 25 -26 61t16 52q16 17 61 32l97 31v977l-90 28q-45 14 -65 37q-19 23 -19 59z" />
    <glyph glyph-name="rcommaaccent" unicode="&#x157;" horiz-adv-x="872" 
d="M217 -229q0 47 39 85t98 38q58 0 96 -38t37 -100q1 -112 -117 -180t-234 -68t-118 64q0 23 14 37q14 15 88 35q73 20 116 53q-19 28 -19 74zM41 918q0 37 17 56t88 40q72 20 162 20t122 -30t31 -103v-57l4 -2q41 96 114 150t160 55q111 0 111 -111q0 -84 -32 -132
t-73 -48q-18 0 -46 12t-50 12q-94 0 -160 -82v-501l99 -27q78 -20 78 -84q0 -38 -27 -62t-74 -24h-420q-47 0 -73 25t-27 61q0 36 16 52q16 17 62 32l88 27v618l-94 21q-76 16 -76 82z" />
    <glyph glyph-name="Rcaron" unicode="&#x158;" horiz-adv-x="1370" 
d="M313 1792q0 30 27 56t59 26t54 -14l196 -127l197 127q22 14 50 14t52 -24t25 -54q0 -30 -25 -55l-219 -209q-41 -41 -92 -41t-92 41l-209 207q-23 23 -23 53zM526 748h144q250 0 250 218t-250 218h-144v-436zM70 1302q0 36 23 56q24 20 65 20h544q514 0 515 -377
q0 -129 -78 -232t-185 -142l78 -148q123 -233 275 -309q53 -29 53 -73t-43 -77t-131 -32q-127 0 -218 77t-173 259l-109 243h-160v-366l56 -25q43 -18 61 -38q19 -20 19 -55t-27 -59t-74 -24h-391q-47 0 -74 25q-26 25 -26 61t16 52q16 17 61 32l97 31v977l-90 28
q-45 14 -65 37q-19 23 -19 59z" />
    <glyph glyph-name="rcaron" unicode="&#x159;" horiz-adv-x="872" 
d="M694 1513q26 1 50 -23q22 -24 22 -54t-23 -52l-217 -217q-39 -39 -85 -39t-83 39l-204 213q-20 23 -20 53q0 29 26 55q48 45 108 9l187 -129l186 129q27 16 53 16zM41 918q0 37 17 56t88 40q72 20 162 20t122 -30t31 -103v-57l4 -2q41 96 114 150t160 55q111 0 111 -111
q0 -84 -32 -132t-73 -48q-18 0 -46 12t-50 12q-94 0 -160 -82v-501l99 -27q78 -20 78 -84q0 -38 -27 -62t-74 -24h-420q-47 0 -73 25t-27 61q0 36 16 52q16 17 62 32l88 27v618l-94 21q-76 16 -76 82z" />
    <glyph glyph-name="Sacute" unicode="&#x15a;" horiz-adv-x="1140" 
d="M911 1740q0 -54 -49 -81l-287 -152q-21 -10 -47 -10t-52 26t-26 58t25 57l246 226q27 22 65 22t82 -46q43 -46 43 -100zM395 1054q0 -66 48 -115q48 -48 120 -74q183 -66 311 -140q72 -41 120 -124t48 -198q0 -188 -142 -306q-142 -117 -405 -117t-339 75q-35 35 -35 152
v31q0 80 2 118q6 82 82 82q68 0 94 -80l51 -149q63 -33 179 -33t172 49q57 49 57 122t-48 123t-120 77q-200 75 -292 128q-187 108 -187 326q0 178 137 288t388 110t325 -74q35 -35 34 -151v-25q0 -78 -2 -117q-6 -82 -82 -82q-67 0 -94 80l-49 144q-52 28 -162 28t-160 -41
t-51 -107z" />
    <glyph glyph-name="sacute" unicode="&#x15b;" horiz-adv-x="985" 
d="M656 1548q46 0 92 -44t47 -88q0 -44 -41 -77l-234 -186q-30 -25 -60 -25t-56 25t-26 55t23 58l177 237q32 45 78 45zM629 266q0 80 -187 140q-78 26 -154 58t-131 100q-54 68 -55 167q0 137 114 224t328 87t275 -61q31 -31 31 -107v-10q0 -55 -2 -86q-6 -76 -82 -76
q-61 0 -88 76l-21 60q-59 23 -141 22q-143 0 -143 -90q0 -45 54 -76q54 -32 131 -56t155 -58t132 -103q54 -70 54 -172q0 -141 -120 -234t-345 -93t-291 65q-31 31 -30 107v14q0 55 2 86q6 76 82 76q61 0 88 -76l22 -64q59 -27 158 -26q164 0 164 106z" />
    <glyph glyph-name="Scircumflex" unicode="&#x15c;" horiz-adv-x="1140" 
d="M598 1880q51 0 92 -41l209 -207q23 -22 23 -52t-27 -56t-59 -27q-32 0 -54 14l-196 127l-197 -127q-23 -14 -51 -14t-52 24t-24 54t25 55l219 209q41 41 92 41zM395 1054q0 -66 48 -115q48 -48 120 -74q183 -66 311 -140q72 -41 120 -124t48 -198q0 -188 -142 -306
q-142 -117 -405 -117t-339 75q-35 35 -35 152v31q0 80 2 118q6 82 82 82q68 0 94 -80l51 -149q63 -33 179 -33t172 49q57 49 57 122t-48 123t-120 77q-200 75 -292 128q-187 108 -187 326q0 178 137 288t388 110t325 -74q35 -35 34 -151v-25q0 -78 -2 -117q-6 -82 -82 -82
q-67 0 -94 80l-49 144q-52 28 -162 28t-160 -41t-51 -107z" />
    <glyph glyph-name="scircumflex" unicode="&#x15d;" horiz-adv-x="985" 
d="M509 1524q46 0 83 -39l205 -213q20 -22 20 -52q-1 -30 -27 -56q-47 -47 -108 -9l-186 129l-187 -129q-27 -16 -53 -16q-26 1 -50 23q-22 22 -22 52t23 54l217 217q39 39 85 39zM629 266q0 80 -187 140q-78 26 -154 58t-131 100q-54 68 -55 167q0 137 114 224t328 87
t275 -61q31 -31 31 -107v-10q0 -55 -2 -86q-6 -76 -82 -76q-61 0 -88 76l-21 60q-59 23 -141 22q-143 0 -143 -90q0 -45 54 -76q54 -32 131 -56t155 -58t132 -103q54 -70 54 -172q0 -141 -120 -234t-345 -93t-291 65q-31 31 -30 107v14q0 55 2 86q6 76 82 76q61 0 88 -76
l22 -64q59 -27 158 -26q164 0 164 106z" />
    <glyph glyph-name="Scedilla" unicode="&#x15e;" horiz-adv-x="1140" 
d="M524 -289q0 53 -82 53q-49 0 -36 54l40 162q-221 6 -290 75q-35 35 -35 152v31q0 80 2 118q6 82 82 82q68 0 94 -80l51 -149q63 -33 179 -33t172 49q57 49 57 122t-48 123t-120 77q-200 75 -292 128q-187 108 -187 326q0 178 137 288t388 110t325 -74q35 -35 34 -151v-25
q0 -78 -2 -117q-6 -82 -82 -82q-67 0 -94 80l-49 144q-52 28 -162 28t-160 -41t-51 -107q0 -66 48 -115q48 -48 120 -74q183 -66 311 -140q72 -41 120 -124t48 -198q0 -177 -120 -287t-320 -130l-14 -64q90 -6 148 -53t58 -138t-92 -157q-94 -66 -248 -66t-153 82
q0 27 17 45t49 19l67 -2q90 0 90 59z" />
    <glyph glyph-name="scedilla" unicode="&#x15f;" horiz-adv-x="985" 
d="M444 -289q0 53 -82 53q-51 0 -36 54l41 162q-168 8 -224 63q-31 31 -30 107v14q0 55 2 86q6 76 82 76q61 0 88 -76l22 -64q59 -27 158 -26q164 0 164 106q0 80 -187 140q-78 26 -154 58t-131 100q-54 68 -55 167q0 137 114 224t328 87t275 -61q31 -31 31 -107v-10
q0 -55 -2 -86q-6 -76 -82 -76q-61 0 -88 76l-21 60q-59 23 -141 22q-143 0 -143 -90q0 -45 54 -76q54 -32 131 -56t155 -58t132 -103t54 -187t-101 -205t-276 -103l-14 -60q90 -6 148 -53t58 -138t-92 -157t-246 -66t-155 82q-1 27 17 45t49 19l67 -2q90 0 90 59z" />
    <glyph glyph-name="Scaron" unicode="&#x160;" horiz-adv-x="1140" 
d="M256 1792q0 30 27 56t59 26t53 -14l197 -127l196 127q23 14 51 14q29 0 53 -24t24 -54t-25 -55l-219 -209q-40 -41 -92 -41t-93 41l-208 207q-23 23 -23 53zM395 1054q0 -66 48 -115q48 -48 120 -74q183 -66 311 -140q72 -41 120 -124t48 -198q0 -188 -142 -306
q-142 -117 -405 -117t-339 75q-35 35 -35 152v31q0 80 2 118q6 82 82 82q68 0 94 -80l51 -149q63 -33 179 -33t172 49q57 49 57 122t-48 123t-120 77q-200 75 -292 128q-187 108 -187 326q0 178 137 288t388 110t325 -74q35 -35 34 -151v-25q0 -78 -2 -117q-6 -82 -82 -82
q-67 0 -94 80l-49 144q-52 28 -162 28t-160 -41t-51 -107z" />
    <glyph glyph-name="scaron" unicode="&#x161;" horiz-adv-x="985" 
d="M740 1513q26 1 50 -23t24 -54t-23 -52l-218 -217q-39 -39 -85 -39t-82 39l-205 213q-21 23 -21 53q0 29 27 55q48 45 108 9l187 -129l186 129q26 16 52 16zM629 266q0 80 -187 140q-78 26 -154 58t-131 100q-54 68 -55 167q0 137 114 224t328 87t275 -61q31 -31 31 -107
v-10q0 -55 -2 -86q-6 -76 -82 -76q-61 0 -88 76l-21 60q-59 23 -141 22q-143 0 -143 -90q0 -45 54 -76q54 -32 131 -56t155 -58t132 -103q54 -70 54 -172q0 -141 -120 -234t-345 -93t-291 65q-31 31 -30 107v14q0 55 2 86q6 76 82 76q61 0 88 -76l22 -64q59 -27 158 -26
q164 0 164 106z" />
    <glyph glyph-name="uni0162" unicode="&#x162;" horiz-adv-x="1224" 
d="M594 -289q0 53 -82 53q-49 0 -37 54l45 182h-137q-47 0 -74 25t-27 61t18 53q17 18 62 31l107 31v979h-213l-49 -158q-25 -80 -92 -80q-80 0 -82 80t-2 164v35q1 96 31 127t98 30h905q69 0 99 -30t30 -127v-35q0 -84 -2 -164t-82 -80q-68 0 -92 80l-49 158h-213v-979
l106 -31q44 -12 62 -30t18 -55t-27 -61t-73 -24h-166l-19 -78q91 -6 149 -53t58 -138t-93 -157t-247 -66t-153 82q0 27 17 45t48 19l68 -2q90 0 90 59z" />
    <glyph glyph-name="uni0163" unicode="&#x163;" horiz-adv-x="751" 
d="M399 -289q0 53 -82 53q-51 0 -36 54l47 192q-154 64 -154 295v524h-70q-94 0 -94 82q0 49 30 79t85 30h55l37 145q16 68 49 99t90 30q96 0 97 -92v-182h176q92 0 92 -82q0 -109 -115 -109h-153v-464q0 -176 110 -177l107 13q61 0 61 -68q0 -43 -35 -78q-61 -61 -217 -67
l-16 -66q90 -6 148 -53q59 -47 59 -138t-93 -157t-247 -66t-154 82q0 27 18 45t48 19l67 -2q90 0 90 59z" />
    <glyph glyph-name="Tcaron" unicode="&#x164;" horiz-adv-x="1224" 
d="M372 1874q32 0 54 -14l197 -127l196 127q23 14 51 14t52 -24t24 -54t-24 -55l-220 -209q-41 -41 -92 -41t-92 41l-209 207q-23 23 -23 53t28 56q26 26 58 26zM469 1180h-213l-49 -158q-25 -80 -92 -80q-80 0 -82 80t-2 164v35q1 96 31 127t98 30h905q69 0 99 -30t30 -127
v-35q0 -84 -2 -164t-82 -80q-68 0 -92 80l-49 158h-213v-979l106 -31q44 -12 62 -30t18 -55t-27 -61t-73 -24h-459q-47 0 -74 25t-27 61t18 53q17 18 62 31l107 31v979z" />
    <glyph glyph-name="tcaron" unicode="&#x165;" horiz-adv-x="886" 
d="M848 1487q0 -18 -12 -43l-144 -277q-24 -43 -64 -43t-64 20t-24 40q0 19 5 39l63 297q12 72 103 71q53 1 95 -29t42 -75zM743 133q0 -43 -34 -78q-68 -68 -234 -67q-289 0 -289 317v524h-69q-94 0 -94 82q0 49 29 79q30 30 85 30h56l36 145q15 68 49 99t91 30
q96 0 96 -92v-182h176q92 0 92 -82q0 -109 -115 -109h-153v-464q0 -176 110 -177l107 13q61 0 61 -68z" />
    <glyph glyph-name="Tbar" unicode="&#x166;" horiz-adv-x="1224" 
d="M469 596h-186q-92 0 -93 82q0 49 30 79t85 29h164v394h-213l-49 -158q-27 -80 -92 -80q-80 0 -82 82q-2 68 -2 162v35q1 96 31 127t98 30h905q69 0 99 -30t30 -127v-35q0 -94 -2 -162q-2 -82 -82 -82q-68 0 -92 80l-49 158h-213v-394h190q92 0 92 -81q0 -49 -30 -79
t-84 -30h-168v-395l106 -31q44 -12 62 -30t18 -55t-27 -61t-73 -24h-459q-47 0 -74 25t-27 61t18 53q17 18 62 31l107 31v395z" />
    <glyph glyph-name="tbar" unicode="&#x167;" horiz-adv-x="792" 
d="M195 305v176h-58q-94 0 -94 82q0 49 30 79t85 30h37v157h-70q-94 0 -94 82q0 49 29 79q30 30 85 30h56l37 145q16 68 49 99t90 30q96 0 96 -92v-182h176q92 0 92 -82q0 -109 -114 -109h-154v-157h133q92 0 92 -82q0 -109 -114 -109h-111v-116q0 -176 111 -177l106 13
q61 0 62 -68q0 -43 -35 -78q-68 -68 -234 -67q-288 0 -288 317z" />
    <glyph glyph-name="Utilde" unicode="&#x168;" horiz-adv-x="1449" 
d="M600 1604q-39 0 -76 -35q-38 -35 -66 -35t-52 22t-25 58q0 61 82 127q149 120 324 25q75 -40 114 -40t76 35t65 35t54 -22q25 -22 24 -58q0 -61 -82 -127q-82 -65 -166 -65t-158 40t-114 40zM166 522v656l-74 26q-82 31 -82 101q0 33 24 53t64 20h432q41 0 65 -20t23 -53
q0 -72 -83 -101l-82 -26v-621q0 -188 78 -283q79 -94 219 -94q285 0 284 344v654l-82 26q-84 29 -84 101q0 33 24 53t64 20h396q40 0 64 -20t24 -53q0 -70 -82 -101l-74 -26v-623q0 -578 -565 -578q-283 1 -418 135t-135 410z" />
    <glyph glyph-name="utilde" unicode="&#x169;" horiz-adv-x="1292" 
d="M748 1161q-86 0 -158 44t-104 44t-72 -39t-73 -39q-31 0 -55 23t-24 53q0 63 80 132t165 69t158 -44t105 -44t72 39t72 39t56 -23t23 -53q0 -63 -80 -132t-165 -69zM16 918q0 37 18 56t86 40q70 20 166 20t132 -35q35 -35 35 -125v-446q0 -129 46 -184q45 -56 121 -56
t126 27t65 43q14 16 23 27v530l-95 21q-76 16 -75 82q0 37 17 56t87 40q70 20 172 20t137 -35t35 -125v-673l84 -15q41 -8 57 -25t17 -55q0 -61 -76 -88q-94 -33 -195 -32q-137 0 -137 133v26l-4 2q-27 -44 -47 -64q-99 -103 -273 -103q-175 0 -270 97q-94 97 -94 285v453
l-82 19q-76 16 -76 84z" />
    <glyph glyph-name="Umacron" unicode="&#x16a;" horiz-adv-x="1449" 
d="M506 1747h514q92 0 92 -86q0 -111 -115 -111h-514q-92 0 -92 86q0 111 115 111zM166 522v656l-74 26q-82 31 -82 101q0 33 24 53t64 20h432q41 0 65 -20t23 -53q0 -72 -83 -101l-82 -26v-621q0 -188 78 -283q79 -94 219 -94q285 0 284 344v654l-82 26q-84 29 -84 101
q0 33 24 53t64 20h396q40 0 64 -20t24 -53q0 -70 -82 -101l-74 -26v-623q0 -578 -565 -578q-283 1 -418 135t-135 410z" />
    <glyph glyph-name="umacron" unicode="&#x16b;" horiz-adv-x="1292" 
d="M385 1397h506q92 0 92 -84q0 -51 -30 -82t-85 -31h-506q-92 0 -92 84q0 51 30 82t85 31zM16 918q0 37 18 56t86 40q70 20 166 20t132 -35q35 -35 35 -125v-446q0 -129 46 -184q45 -56 121 -56t126 27t65 43q14 16 23 27v530l-95 21q-76 16 -75 82q0 37 17 56t87 40
q70 20 172 20t137 -35t35 -125v-673l84 -15q41 -8 57 -25t17 -55q0 -61 -76 -88q-94 -33 -195 -32q-137 0 -137 133v26l-4 2q-27 -44 -47 -64q-99 -103 -273 -103q-175 0 -270 97q-94 97 -94 285v453l-82 19q-76 16 -76 84z" />
    <glyph glyph-name="Ubreve" unicode="&#x16c;" horiz-adv-x="1449" 
d="M426 1772q0 92 86 92q63 0 78 -70q10 -47 52 -76q42 -28 106 -28t106 28q41 28 51 76q14 70 78 70q86 0 86 -92q0 -123 -99 -201q-98 -78 -234 -78t-223 79t-87 200zM166 522v656l-74 26q-82 31 -82 101q0 33 24 53t64 20h432q41 0 65 -20t23 -53q0 -72 -83 -101l-82 -26
v-621q0 -188 78 -283q79 -94 219 -94q285 0 284 344v654l-82 26q-84 29 -84 101q0 33 24 53t64 20h396q40 0 64 -20t24 -53q0 -70 -82 -101l-74 -26v-623q0 -578 -565 -578q-283 1 -418 135t-135 410z" />
    <glyph glyph-name="ubreve" unicode="&#x16d;" horiz-adv-x="1292" 
d="M303 1419q0 43 24 66t58 22q63 0 76 -65q23 -119 155 -119t156 119q12 66 76 65q34 -1 58 -23t24 -65q0 -125 -95 -207t-229 -82t-219 81q-84 81 -84 208zM16 918q0 37 18 56t86 40q70 20 166 20t132 -35q35 -35 35 -125v-446q0 -129 46 -184q45 -56 121 -56t126 27
t65 43q14 16 23 27v530l-95 21q-76 16 -75 82q0 37 17 56t87 40q70 20 172 20t137 -35t35 -125v-673l84 -15q41 -8 57 -25t17 -55q0 -61 -76 -88q-94 -33 -195 -32q-137 0 -137 133v26l-4 2q-27 -44 -47 -64q-99 -103 -273 -103q-175 0 -270 97q-94 97 -94 285v453l-82 19
q-76 16 -76 84z" />
    <glyph glyph-name="Uring" unicode="&#x16e;" horiz-adv-x="1449" 
d="M657 1726q0 -48 30 -78t77 -30t77 31q29 31 29 77t-29 78q-30 31 -77 31t-77 -31t-30 -78zM477 1722q0 111 82 181q82 69 209 69t205 -66t78 -176t-82 -180t-209 -70t-205 66q-78 65 -78 176zM166 522v656l-74 26q-82 31 -82 101q0 33 24 53t64 20h432q41 0 65 -20
t23 -53q0 -72 -83 -101l-82 -26v-621q0 -188 78 -283q79 -94 219 -94q285 0 284 344v654l-82 26q-84 29 -84 101q0 33 24 53t64 20h396q40 0 64 -20t24 -53q0 -70 -82 -101l-74 -26v-623q0 -578 -565 -578q-283 1 -418 135t-135 410z" />
    <glyph glyph-name="uring" unicode="&#x16f;" horiz-adv-x="1292" 
d="M516 1356q0 -45 28 -75t70 -30t71 30q28 30 28 75t-28 75q-28 29 -71 29q-42 0 -70 -30t-28 -74zM336 1352q0 110 80 178t202 68t199 -66q76 -64 76 -172t-80 -178q-80 -68 -203 -68q-122 0 -198 64t-76 174zM16 918q0 37 18 56t86 40q70 20 166 20t132 -35
q35 -35 35 -125v-446q0 -129 46 -184q45 -56 121 -56t126 27t65 43q14 16 23 27v530l-95 21q-76 16 -75 82q0 37 17 56t87 40q70 20 172 20t137 -35t35 -125v-673l84 -15q41 -8 57 -25t17 -55q0 -61 -76 -88q-94 -33 -195 -32q-137 0 -137 133v26l-4 2q-27 -44 -47 -64
q-99 -103 -273 -103q-175 0 -270 97q-94 97 -94 285v453l-82 19q-76 16 -76 84z" />
    <glyph glyph-name="Uhungarumlaut" unicode="&#x170;" horiz-adv-x="1449" 
d="M1188 1862q39 0 81 -44t42 -94t-47 -77l-277 -158q-23 -12 -49 -12q-26 -1 -52 23q-24 24 -24 54t25 56l229 223q33 29 72 29zM734 1886q48 0 89 -39t41 -81t-35 -70l-223 -195q-26 -20 -56 -20q-30 1 -54 23q-46 42 -4 104l167 239q27 39 75 39zM166 522v656l-74 26
q-82 31 -82 101q0 33 24 53t64 20h432q41 0 65 -20t23 -53q0 -72 -83 -101l-82 -26v-621q0 -188 78 -283q79 -94 219 -94q285 0 284 344v654l-82 26q-84 29 -84 101q0 33 24 53t64 20h396q40 0 64 -20t24 -53q0 -70 -82 -101l-74 -26v-623q0 -578 -565 -578q-283 1 -418 135
t-135 410z" />
    <glyph glyph-name="uhungarumlaut" unicode="&#x171;" horiz-adv-x="1292" 
d="M1002 1538q42 0 85 -42t43 -88t-38 -75l-261 -188q-56 -39 -106 6q-49 45 -6 104l211 252q30 31 72 31zM579 1556q50 0 94 -36t44 -74q0 -39 -27 -68l-198 -217q-27 -27 -60 -27q-34 0 -58 22t-24 44t10 43l142 264q27 49 77 49zM16 918q0 37 18 56t86 40q70 20 166 20
t132 -35q35 -35 35 -125v-446q0 -129 46 -184q45 -56 121 -56t126 27t65 43q14 16 23 27v530l-95 21q-76 16 -75 82q0 37 17 56t87 40q70 20 172 20t137 -35t35 -125v-673l84 -15q41 -8 57 -25t17 -55q0 -61 -76 -88q-94 -33 -195 -32q-137 0 -137 133v26l-4 2
q-27 -44 -47 -64q-99 -103 -273 -103q-175 0 -270 97q-94 97 -94 285v453l-82 19q-76 16 -76 84z" />
    <glyph glyph-name="Uogonek" unicode="&#x172;" horiz-adv-x="1449" 
d="M166 522v656l-74 26q-82 31 -82 101q0 33 24 53t64 20h432q41 0 65 -20t23 -53q0 -72 -83 -101l-82 -26v-621q0 -188 78 -283q79 -94 219 -94q285 0 284 344v654l-82 26q-84 29 -84 101q0 33 24 53t64 20h396q40 0 64 -20t24 -53q0 -70 -84 -101l-72 -26v-623
q0 -369 -235 -506q-205 -121 -205 -258q0 -98 90 -98q30 0 58 8t48 8t37 -17t17 -46t-27 -56q-83 -82 -223 -82t-204 58t-65 151q0 139 177 260h-33q-283 1 -418 135t-135 410z" />
    <glyph glyph-name="uogonek" unicode="&#x173;" horiz-adv-x="1292" 
d="M174 369v446l-82 19q-76 16 -76 84q0 37 18 56t86 40q70 20 166 20t132 -35q35 -35 35 -125v-440q0 -133 46 -189q45 -57 121 -57t124 25t69 49l21 23v530l-95 21q-76 16 -75 82q0 37 17 56t87 40q70 20 172 20t137 -35t35 -125v-673l84 -15q41 -8 57 -25t17 -55
q0 -61 -82 -91t-144 -90t-63 -134q0 -98 90 -98q31 0 59 8t48 8t36 -17t16 -46t-26 -56q-82 -82 -222 -82t-205 58t-65 146q0 89 63 165q62 76 153 121q-66 29 -66 121v26l-4 2q-5 -15 -37 -52q-100 -115 -279 -115t-274 98q-94 98 -94 291z" />
    <glyph glyph-name="Wcircumflex" unicode="&#x174;" horiz-adv-x="2111" 
d="M1081 1880q51 0 93 -41l208 -207q23 -22 23 -52t-27 -56q-26 -26 -58 -27q-32 0 -54 14l-197 127l-197 -127q-22 -14 -50 -14t-52 24t-25 54q0 30 25 55l219 209q41 41 92 41zM12 1305q0 33 24 53t64 20h394q40 0 64 -20t24 -56t-20 -59t-68 -43l-50 -20l162 -684
l53 -256h5q20 139 47 254l170 727q20 92 67 130t133 38t134 -38t69 -130l168 -725l49 -256h4q29 137 56 256l159 684l-49 20q-49 20 -68 43t-19 59t23 56q24 20 64 20h340q41 0 65 -20t23 -53q0 -70 -84 -107l-49 -20l-262 -1022q-25 -92 -77 -129t-140 -37t-141 39t-76 133
l-162 702l-47 252h-4q-25 -150 -47 -252l-164 -704q-37 -170 -217 -170q-90 0 -144 38q-52 38 -77 132l-263 1018l-49 20q-84 37 -84 107z" />
    <glyph glyph-name="wcircumflex" unicode="&#x175;" horiz-adv-x="1779" 
d="M923 1524q46 0 83 -39l204 -213q20 -22 20 -52t-26 -56q-48 -46 -108 -9l-187 129l-186 -129q-27 -16 -53 -16q-26 1 -50 23q-22 22 -22 52t23 54l217 217q39 39 85 39zM16 946q0 33 24 53t64 21h351q41 0 65 -20t23 -55t-19 -57t-67 -44l-35 -17l110 -385l50 -204h4
q14 104 37 204l96 414q23 96 68 135t131 39t132 -38t66 -132l98 -418l37 -204h4q18 98 50 204l110 385l-35 17q-49 24 -67 46q-19 22 -19 56t24 53q24 20 64 21h293q41 0 65 -20t23 -54q0 -76 -84 -108l-34 -15l-218 -665q-33 -96 -75 -132t-127 -36q-84 0 -128 37t-67 131
l-104 442l-35 195h-4q-10 -94 -35 -199l-104 -438q-23 -94 -67 -131t-127 -37t-127 36t-77 132l-215 665l-35 15q-84 33 -84 108z" />
    <glyph glyph-name="Ycircumflex" unicode="&#x176;" horiz-adv-x="1351" 
d="M719 1880q51 0 92 -41l209 -207q22 -22 22 -52t-26 -56t-59 -27q-32 0 -54 14l-196 127l-197 -127q-22 -14 -50 -14t-52 24t-25 54q0 30 25 55l219 209q41 41 92 41zM12 1305q0 33 24 53t64 20h428q41 0 65 -20t23 -53q0 -72 -90 -107l-45 -18l236 -408h4l225 408l-43 18
q-88 37 -88 107q0 33 24 53t64 20h348q41 0 65 -20t23 -53q0 -72 -84 -107l-49 -20l-387 -637v-340l103 -31q45 -14 62 -32t17 -54q-1 -36 -27 -60t-73 -24h-450q-47 0 -74 25t-27 59t18 53q18 18 62 33l102 31v340l-387 637l-49 20q-84 37 -84 107z" />
    <glyph glyph-name="ycircumflex" unicode="&#x177;" horiz-adv-x="1222" 
d="M648 1524q46 0 83 -39l205 -213q20 -22 20 -52t-26 -56q-47 -47 -109 -9l-186 129l-186 -129q-27 -16 -54 -16q-27 1 -49 23t-23 52q0 30 23 54l217 217q39 39 85 39zM16 946q0 33 24 53t64 21h353q41 0 65 -20t23 -55t-19 -57t-67 -44l-35 -17l149 -395l64 -190h4
q25 90 64 194l147 391l-35 17q-49 24 -67 46t-18 56t23 53q24 20 64 21h299q41 0 65 -20t23 -54q0 -76 -84 -108l-35 -15l-282 -692q-152 -369 -308 -500q-139 -114 -288 -112q-88 0 -137 38t-49 100t28 97q29 35 65 35t80 -11t102 -11q118 0 196 176l-359 880l-35 15
q-84 33 -84 108z" />
    <glyph glyph-name="Ydieresis" unicode="&#x178;" horiz-adv-x="1351" 
d="M774 1651q0 71 47 117t117 46t115 -44q45 -46 45 -116t-47 -116q-47 -47 -117 -47t-115 45t-45 115zM332 1651q0 71 47 117t117 46t114 -44q44 -46 45 -116q0 -70 -47 -116q-46 -47 -116 -47t-115 45t-45 115zM12 1305q0 33 24 53t64 20h428q41 0 65 -20t23 -53
q0 -72 -90 -107l-45 -18l236 -408h4l225 408l-43 18q-88 37 -88 107q0 33 24 53t64 20h348q41 0 65 -20t23 -53q0 -72 -84 -107l-49 -20l-387 -637v-340l103 -31q45 -14 62 -32t17 -54q-1 -36 -27 -60t-73 -24h-450q-47 0 -74 25t-27 59t18 53q18 18 62 33l102 31v340
l-387 637l-49 20q-84 37 -84 107z" />
    <glyph glyph-name="Zacute" unicode="&#x179;" horiz-adv-x="1130" 
d="M938 1740q0 -54 -49 -81l-287 -152q-20 -10 -47 -10t-53 26t-25 58q0 32 25 57l246 226q28 22 66 22t81 -46t43 -100zM176 952q-80 0 -82 82q-2 72 -2 158v25q0 100 31 131t98 30h641q170 0 170 -149q0 -61 -53 -144l-582 -890h418l53 163q27 80 93 80q80 0 81 -82
q2 -72 2 -161v-31q0 -102 -30 -133t-99 -31h-665q-170 0 -170 150q0 61 53 143l582 891h-400l-49 -152q-27 -80 -90 -80z" />
    <glyph glyph-name="zacute" unicode="&#x17a;" horiz-adv-x="1009" 
d="M697 1548q47 0 93 -44t46 -88t-41 -77l-234 -186q-31 -25 -61 -25t-55 25q-26 25 -26 55t23 58l176 237q33 45 79 45zM182 653q-76 0 -78 82q-2 51 -2 125v17q0 83 31 113t92 30h523q78 0 118 -38t41 -100q0 -62 -67 -149l-439 -549h308l39 115q29 82 90 82q76 -1 78 -95
q2 -54 2 -126v-17q0 -83 -31 -113t-92 -30h-543q-78 0 -119 38t-41 100t68 149l438 549h-293l-33 -101q-27 -82 -90 -82z" />
    <glyph glyph-name="Zdotaccent" unicode="&#x17b;" horiz-adv-x="1130" 
d="M446 1651q0 71 48 117t116 46q70 0 115 -44q45 -46 45 -116t-47 -116q-47 -47 -117 -47t-115 45t-45 115zM176 952q-80 0 -82 82q-2 72 -2 158v25q0 100 31 131t98 30h641q170 0 170 -149q0 -61 -53 -144l-582 -890h418l53 163q27 80 93 80q80 0 81 -82q2 -72 2 -161v-31
q0 -102 -30 -133t-99 -31h-665q-170 0 -170 150q0 61 53 143l582 891h-400l-49 -152q-27 -80 -90 -80z" />
    <glyph glyph-name="zdotaccent" unicode="&#x17c;" horiz-adv-x="1009" 
d="M383 1296q0 68 47 115t115 47q69 0 113 -45t44 -113t-47 -114t-115 -47q-68 1 -112 45q-45 44 -45 112zM182 653q-76 0 -78 82q-2 51 -2 125v17q0 83 31 113t92 30h523q78 0 118 -38t41 -100q0 -62 -67 -149l-439 -549h308l39 115q29 82 90 82q76 -1 78 -95q2 -54 2 -126
v-17q0 -83 -31 -113t-92 -30h-543q-78 0 -119 38t-41 100t68 149l438 549h-293l-33 -101q-27 -82 -90 -82z" />
    <glyph glyph-name="Zcaron" unicode="&#x17d;" horiz-adv-x="1130" 
d="M274 1792q0 30 27 56t59 26t54 -14l196 -127l197 127q23 14 51 14t52 -24t24 -54t-25 -55l-219 -209q-41 -41 -92 -41t-92 41l-209 207q-23 23 -23 53zM176 952q-80 0 -82 82q-2 72 -2 158v25q0 100 31 131t98 30h641q170 0 170 -149q0 -61 -53 -144l-582 -890h418
l53 163q27 80 93 80q80 0 81 -82q2 -72 2 -161v-31q0 -102 -30 -133t-99 -31h-665q-170 0 -170 150q0 61 53 143l582 891h-400l-49 -152q-27 -80 -90 -80z" />
    <glyph glyph-name="zcaron" unicode="&#x17e;" horiz-adv-x="1009" 
d="M792 1513q26 1 50 -23q22 -24 22 -54t-22 -52l-217 -217q-39 -39 -85 -39t-83 39l-205 213q-20 23 -20 53q0 29 26 55q48 45 109 9l186 -129l186 129q27 16 53 16zM182 653q-76 0 -78 82q-2 51 -2 125v17q0 83 31 113t92 30h523q78 0 118 -38t41 -100q0 -62 -67 -149
l-439 -549h308l39 115q29 82 90 82q76 -1 78 -95q2 -54 2 -126v-17q0 -83 -31 -113t-92 -30h-543q-78 0 -119 38t-41 100t68 149l438 549h-293l-33 -101q-27 -82 -90 -82z" />
    <glyph glyph-name="florin" unicode="&#x192;" horiz-adv-x="1120" 
d="M283 653q-90 0 -90 76q0 115 122 115h121l15 139q47 416 462 418q119 0 155 -36t36 -132v-27q0 -53 -2 -92q-2 -76 -78 -76q-61 0 -86 78l-27 86q-16 8 -61 8q-100 0 -115 -153l-20 -213h157q90 0 91 -76q0 -115 -123 -115h-142l-49 -563q-18 -205 -136 -311t-327 -107
q-118 0 -154 36t-36 132v27q0 47 2 92q2 76 78 76q61 0 86 -78l26 -86q16 -8 62 -8q100 0 115 153l55 637h-137z" />
    <glyph glyph-name="Acaron" unicode="&#x1cd;" horiz-adv-x="1484" 
d="M508 1874q32 0 53 -14l197 -127l196 127q22 14 50 14t53 -24t25 -54t-25 -55l-219 -209q-40 -41 -92 -41t-93 41l-209 207q-22 23 -22 53t27 56t59 26zM520 553h398l-127 362l-70 228h-4q-33 -113 -72 -228zM743 1389q89 0 139 -37t85 -131l368 -1020l58 -25
q43 -18 59 -38t16 -54q0 -36 -26 -60t-74 -24h-373q-47 0 -73 25t-27 59q0 34 17 52q17 17 63 36l61 25l-59 176h-516l-62 -176l62 -25q45 -18 62 -36t17 -52q0 -36 -26 -60q-27 -24 -74 -24h-323q-47 0 -74 25t-27 59t16 54q16 19 60 38l58 25l370 1020q35 94 84 131
t139 37z" />
    <glyph glyph-name="acaron" unicode="&#x1ce;" horiz-adv-x="1148" 
d="M818 1513q26 1 50 -23t23 -54q0 -30 -23 -52l-217 -217q-39 -39 -85 -39t-83 39l-204 213q-21 23 -21 53q0 29 27 55q48 45 108 9l187 -129l186 129q26 16 52 16zM510 184q57 0 101 18t65 38l18 18v139q-45 12 -125 13q-195 0 -194 -107q0 -51 39 -85t96 -34zM696 621
q0 123 -43 170t-142 47t-187 -23t-111 -23t-45 24q-22 22 -23 56q0 34 34 69q34 34 145 67t247 32q215 0 309 -84t95 -268q0 -35 -3 -183t9 -306l78 -13q74 -10 74 -76t-76 -92q-94 -33 -199 -32q-137 0 -137 133v10l-4 2q-4 -6 -10 -16t-43 -50t-109 -62q-73 -23 -137 -23
q-147 0 -240 86q-92 86 -92 215t116 207t345 77l149 -10v66z" />
    <glyph glyph-name="Icaron" unicode="&#x1cf;" horiz-adv-x="724" 
d="M49 1792q0 30 27 56q26 26 58 26t54 -14l197 -127l197 127q22 14 50 14t52 -24t25 -54q0 -30 -25 -55l-219 -209q-41 -41 -92 -41t-92 41l-209 207q-23 23 -23 53zM133 1378h459q40 0 64 -20t24 -56q0 -70 -84 -96l-90 -28v-977l96 -31q46 -14 62 -32t16 -53
q0 -37 -27 -61t-73 -24h-435q-47 0 -73 25t-27 61q0 36 16 52q16 17 62 32l96 31v977l-90 28q-83 26 -83 96q0 36 23 56q24 20 64 20z" />
    <glyph glyph-name="icaron" unicode="&#x1d0;" horiz-adv-x="669" 
d="M33 1434q-1 32 25 56t57 24t53 -17l178 -133l178 133q26 16 52 16q26 -1 50 -23t24 -52t-23 -54l-207 -217q-37 -39 -88 -39t-84 39l-195 213q-20 23 -20 54zM41 918q0 37 17 56t88 40q70 20 172 20t137 -35t34 -125v-677l84 -25q70 -20 70 -70t-28 -76t-74 -26h-396
q-47 0 -73 25t-27 61q0 36 16 52q16 17 62 32l88 27v618l-94 21q-76 16 -76 82z" />
    <glyph glyph-name="Ocaron" unicode="&#x1d1;" horiz-adv-x="1509" 
d="M510 1874q32 0 53 -14l197 -127l196 127q22 14 50 14t53 -24t25 -54t-25 -55l-219 -209q-40 -41 -92 -41t-93 41l-209 207q-22 23 -22 53t27 56t59 26zM383 692q0 -246 106 -378q105 -132 269 -132t266 129t102 375t-106 378t-269 132t-265 -129t-103 -375zM1427 710
q-1 -329 -195 -531t-498 -202q-304 -1 -478 181t-174 510t194 530q195 203 499 203t478 -181t174 -510z" />
    <glyph glyph-name="ocaron" unicode="&#x1d2;" horiz-adv-x="1208" 
d="M283 1433q1 29 27 55q48 46 108 9l186 -129l187 129q27 16 53 16q26 1 48 -23q24 -24 24 -54t-23 -52l-217 -217q-39 -39 -85 -39t-83 39l-205 213q-20 23 -20 53zM369 514q-1 -166 67 -253t172 -87t168 83q63 83 64 249q0 166 -68 253t-172 87t-168 -83t-63 -249z
M587 -23q-243 0 -374 133t-131 378t152 400q154 154 392 154t369 -133t131 -379t-148 -399q-148 -154 -391 -154z" />
    <glyph glyph-name="Ucaron" unicode="&#x1d3;" horiz-adv-x="1449" 
d="M430 1792q0 30 27 56t59 26t53 -14l197 -127l197 127q23 14 51 14t52 -24t24 -54t-25 -55l-219 -209q-41 -41 -92 -41t-92 41l-209 207q-23 23 -23 53zM166 522v656l-74 26q-82 31 -82 101q0 33 24 53t64 20h432q41 0 65 -20t23 -53q0 -72 -83 -101l-82 -26v-621
q0 -188 78 -283q79 -94 219 -94q285 0 284 344v654l-82 26q-84 29 -84 101q0 33 24 53t64 20h396q40 0 64 -20t24 -53q0 -70 -82 -101l-74 -26v-623q0 -578 -565 -578q-283 1 -418 135t-135 410z" />
    <glyph glyph-name="ucaron" unicode="&#x1d4;" horiz-adv-x="1292" 
d="M289 1433q1 29 27 55q48 46 108 9l186 -129l187 129q27 16 53 16q26 1 50 -23q22 -24 22 -54t-23 -52l-217 -217q-39 -39 -85 -39t-83 39l-205 213q-20 23 -20 53zM16 918q0 37 18 56t86 40q70 20 166 20t132 -35q35 -35 35 -125v-446q0 -129 46 -184q45 -56 121 -56
t126 27t65 43q14 16 23 27v530l-95 21q-76 16 -75 82q0 37 17 56t87 40q70 20 172 20t137 -35t35 -125v-673l84 -15q41 -8 57 -25t17 -55q0 -61 -76 -88q-94 -33 -195 -32q-137 0 -137 133v26l-4 2q-27 -44 -47 -64q-99 -103 -273 -103q-175 0 -270 97q-94 97 -94 285v453
l-82 19q-76 16 -76 84z" />
    <glyph glyph-name="AEmacron" unicode="&#x1e2;" horiz-adv-x="1957" 
d="M776 1747h514q92 0 92 -86q0 -111 -114 -111h-514q-92 0 -92 86q-1 111 114 111zM1720 1378q68 0 99 -30t30 -127v-25q0 -63 -2 -111q-2 -82 -84 -81q-70 0 -96 79l-33 101h-366v-400h272l21 54q27 72 88 71q78 0 77 -90v-252q0 -90 -77 -90q-59 0 -88 74l-21 51h-272
v-407h393l35 110q25 80 96 80q82 0 84 -82q2 -45 2 -110v-35q0 -96 -31 -127t-98 -31h-809q-47 0 -74 25t-26 61q0 61 82 92l59 23v172h-467l-102 -172l55 -25q47 -20 64 -38t17 -54t-26 -60q-27 -24 -73 -24h-332q-47 0 -74 25t-27 59t16 54q16 19 60 40l47 23l654 1067
q39 63 77 87q39 24 99 23h751zM981 553v604h-4l-359 -604h363z" />
    <glyph glyph-name="aemacron" unicode="&#x1e3;" horiz-adv-x="1701" 
d="M623 1397h505q92 0 93 -84q0 -51 -30 -82t-85 -31h-506q-92 0 -92 84q0 51 30 82t85 31zM1174 850q-80 0 -132 -59t-65 -168h366q-6 227 -169 227zM698 621q0 123 -43 170t-142 47t-187 -23t-111 -23t-45 24q-22 22 -23 56q0 34 34 69q34 34 145 67t247 32
q248 0 308 -127q115 129 317 129t310 -110t108 -311q0 -156 -141 -156h-502q29 -285 307 -285q72 0 140 18t83 19q70 0 70 -74q0 -39 -31 -69q-96 -96 -354 -96t-391 165q-10 -15 -50 -50q-41 -35 -79 -57q-97 -55 -243 -56q-147 0 -242 86t-95 215t116 207t345 77l149 -10
v66zM528 184q66 0 114 20t67 42l20 18q-20 61 -27 131q-43 14 -131 15q-195 0 -194 -107q0 -51 42 -85q43 -34 109 -34z" />
    <glyph glyph-name="Gcaron" unicode="&#x1e6;" horiz-adv-x="1390" 
d="M508 1874q32 0 53 -14l197 -127l196 127q22 14 50 14t53 -24t25 -54t-25 -55l-219 -209q-40 -41 -92 -41t-93 41l-209 207q-22 23 -22 53t27 56t59 26zM846 178q47 0 125 12v322l-154 41q-86 25 -86 94q0 33 24 53t64 21h340q98 0 98 -98v-392q0 -104 -69 -155
q-137 -98 -439 -98q-303 0 -485 182q-182 184 -182 508t210 527q210 202 568 202q258 0 336 -78q20 -20 28 -53t7 -111v-29q0 -90 -2 -139q-2 -82 -82 -82q-69 0 -96 80l-58 176q-49 29 -182 29q-199 0 -313 -128t-115 -372q0 -244 124 -378t339 -134z" />
    <glyph glyph-name="gcaron" unicode="&#x1e7;" horiz-adv-x="1089" 
d="M236 1433q0 29 26 55q48 46 109 9l186 -129l186 129q27 16 54 16q27 1 49 -23t22 -54t-22 -52l-217 -217q-39 -39 -85 -39t-83 39l-205 213q-20 23 -20 53zM393 681q0 -77 44 -123t113 -46q68 0 110 44t42 121t-44 123t-112 46t-111 -44q-42 -44 -42 -121zM518 -16
q-105 0 -153 12q-47 -59 -48 -137q0 -158 232 -158q109 0 170 48q61 47 61 111t-40 94t-138 30h-84zM1069 1122q0 -38 -25 -64q-24 -26 -76 -60t-81 -60q94 -84 94 -244t-123 -269q-123 -108 -340 -108l-123 11q-20 -25 -20 -64q0 -40 38 -60t140 -20h102q403 0 404 -284
q0 -158 -151 -275t-393 -117t-354 82t-112 213q0 154 166 244q-74 53 -74 157t115 179q-141 84 -141 263t123 287t340 107q77 0 157 -20q63 100 115 150t103 50q52 0 84 -29q32 -30 32 -69z" />
    <glyph glyph-name="Kcaron" unicode="&#x1e8;" horiz-adv-x="1425" 
d="M458 1874q32 0 54 -14l197 -127l196 127q23 14 51 14t52 -24t24 -54t-24 -55l-220 -209q-41 -41 -92 -41t-92 41l-209 207q-23 23 -23 53t28 56q26 26 58 26zM133 1378h410q41 0 65 -22t23 -53q0 -66 -90 -109l-35 -16v-467l446 475l-41 16q-76 29 -75 101q0 33 24 55
t64 20h399q41 0 65 -20t23 -53q0 -72 -96 -107l-62 -22l-442 -451l158 -188q143 -172 223 -246t170 -121q53 -27 53 -73t-50 -78q-50 -31 -143 -31q-94 0 -184 56t-192 185l-340 430v-458l43 -19q47 -20 64 -40t17 -57t-26 -61q-27 -24 -74 -24h-385q-47 0 -73 25t-27 61
q0 36 16 52q16 17 62 32l96 31v977l-90 28q-83 26 -83 96q0 36 23 56q24 20 64 20z" />
    <glyph glyph-name="kcaron" unicode="&#x1e9;" horiz-adv-x="1212" 
d="M18 1894q0 30 27 56t59 26t54 -14l196 -127l197 127q23 14 51 14t52 -24t24 -54q0 -31 -25 -55l-219 -209q-41 -41 -92 -41t-92 41l-209 207q-23 23 -23 53zM292 1487q96 0 132 -35q35 -35 35 -125v-758l282 265l-36 20q-57 33 -58 92q0 33 23 53t63 21h354q41 0 65 -20
t24 -54q0 -68 -89 -104l-53 -23l-284 -248l112 -145q141 -182 287 -262q47 -27 47 -70t-45 -75q-45 -31 -135 -31q-183 1 -336 219l-221 315v-325l35 -17q45 -20 59 -40t14 -55q-1 -37 -29 -61t-75 -24h-336q-47 0 -74 25t-26 61q0 61 69 84l84 27v1071l-82 18
q-76 16 -75 84q0 37 17 56q16 19 86 40t166 21z" />
    <glyph glyph-name="Gacute" unicode="&#x1f4;" horiz-adv-x="1390" 
d="M1063 1740q0 -54 -49 -81l-287 -152q-20 -10 -47 -10q-26 0 -52 26t-26 58t25 57l245 226q27 22 66 22t82 -46t43 -100zM846 178q47 0 125 12v322l-154 41q-86 25 -86 94q0 33 24 53t64 21h340q98 0 98 -98v-392q0 -104 -69 -155q-137 -98 -439 -98q-303 0 -485 182
q-182 184 -182 508t210 527q210 202 568 202q258 0 336 -78q20 -20 28 -53t7 -111v-29q0 -90 -2 -139q-2 -82 -82 -82q-69 0 -96 80l-58 176q-49 29 -182 29q-199 0 -313 -128t-115 -372q0 -244 124 -378t339 -134z" />
    <glyph glyph-name="gacute" unicode="&#x1f5;" horiz-adv-x="1089" 
d="M765 1548q46 0 92 -44t46 -88t-41 -77l-233 -186q-31 -25 -61 -25t-56 25t-25 55q0 30 23 58l176 237q33 45 79 45zM393 681q0 -77 44 -123t113 -46q68 0 110 44t42 121t-44 123t-112 46t-111 -44q-42 -44 -42 -121zM518 -16q-105 0 -153 12q-47 -59 -48 -137
q0 -158 232 -158q109 0 170 48q61 47 61 111t-40 94t-138 30h-84zM1069 1122q0 -38 -25 -64q-24 -26 -76 -60t-81 -60q94 -84 94 -244t-123 -269q-123 -108 -340 -108l-123 11q-20 -25 -20 -64q0 -40 38 -60t140 -20h102q403 0 404 -284q0 -158 -151 -275t-393 -117t-354 82
t-112 213q0 154 166 244q-74 53 -74 157t115 179q-141 84 -141 263t123 287t340 107q77 0 157 -20q63 100 115 150t103 50q52 0 84 -29q32 -30 32 -69z" />
    <glyph glyph-name="Aringacute" unicode="&#x1fa;" horiz-adv-x="1484" 
d="M922 2048q20 0 38 -24t19 -54q0 -66 -57 -74l-349 -45q-49 -4 -51 62q0 33 39 43l324 88q17 4 37 4zM653 1628q0 -38 26 -60t73 -22q46 0 72 23t26 59t-26 60q-26 22 -72 22t-73 -22q-26 -22 -26 -60zM473 1624q0 94 80 154t203 59q122 0 198 -55q76 -56 76 -150
t-80 -153t-202 -59t-199 54q-76 56 -76 150zM520 553h398l-127 362l-70 228h-4q-33 -113 -72 -228zM743 1389q89 0 139 -37t85 -131l368 -1020l58 -25q43 -18 59 -38t16 -54q0 -36 -26 -60t-74 -24h-373q-47 0 -73 25t-27 59q0 34 17 52q17 17 63 36l61 25l-59 176h-516
l-62 -176l62 -25q45 -18 62 -36t17 -52q0 -36 -26 -60q-27 -24 -74 -24h-323q-47 0 -74 25t-27 59t16 54q16 19 60 38l58 25l370 1020q35 94 84 131t139 37z" />
    <glyph glyph-name="aringacute" unicode="&#x1fb;" horiz-adv-x="1148" 
d="M732 1919q28 0 58 -38t29 -81q0 -76 -74 -90l-305 -68q-16 -4 -38 -4t-40 20t-18 58t45 58l289 135q26 10 54 10zM479 1356q0 -45 28 -75t71 -30q42 0 70 30t28 75t-28 75q-28 29 -70 29t-71 -30q-28 -30 -28 -74zM299 1352q0 110 80 178t203 68q122 0 198 -66
q76 -64 76 -172t-80 -178q-80 -68 -203 -68t-199 64t-75 174zM510 184q57 0 101 18t65 38l18 18v139q-45 12 -125 13q-195 0 -194 -107q0 -51 39 -85t96 -34zM696 621q0 123 -43 170t-142 47t-187 -23t-111 -23t-45 24q-22 22 -23 56q0 34 34 69q34 34 145 67t247 32
q215 0 309 -84t95 -268q0 -35 -3 -183t9 -306l78 -13q74 -10 74 -76t-76 -92q-94 -33 -199 -32q-137 0 -137 133v10l-4 2q-4 -6 -10 -16t-43 -50t-109 -62q-73 -23 -137 -23q-147 0 -240 86q-92 86 -92 215t116 207t345 77l149 -10v66z" />
    <glyph glyph-name="AEacute" unicode="&#x1fc;" horiz-adv-x="1957" 
d="M1290 1740q0 -54 -49 -81l-287 -152q-20 -10 -47 -10t-53 26t-25 58q0 32 25 57l246 226q28 22 66 22t81 -46t43 -100zM1720 1378q68 0 99 -30t30 -127v-25q0 -63 -2 -111q-2 -82 -84 -81q-70 0 -96 79l-33 101h-366v-400h272l21 54q27 72 88 71q78 0 77 -90v-252
q0 -90 -77 -90q-59 0 -88 74l-21 51h-272v-407h393l35 110q25 80 96 80q82 0 84 -82q2 -45 2 -110v-35q0 -96 -31 -127t-98 -31h-809q-47 0 -74 25t-26 61q0 61 82 92l59 23v172h-467l-102 -172l55 -25q47 -20 64 -38t17 -54t-26 -60q-27 -24 -73 -24h-332q-47 0 -74 25
t-27 59t16 54q16 19 60 40l47 23l654 1067q39 63 77 87q39 24 99 23h751zM981 553v604h-4l-359 -604h363z" />
    <glyph glyph-name="aeacute" unicode="&#x1fd;" horiz-adv-x="1701" 
d="M996 1548q46 0 92 -44t47 -88q0 -44 -41 -77l-234 -186q-30 -25 -60 -25t-56 25t-26 55t23 58l177 237q32 45 78 45zM1174 850q-80 0 -132 -59t-65 -168h366q-6 227 -169 227zM698 621q0 123 -43 170t-142 47t-187 -23t-111 -23t-45 24q-22 22 -23 56q0 34 34 69
q34 34 145 67t247 32q248 0 308 -127q115 129 317 129t310 -110t108 -311q0 -156 -141 -156h-502q29 -285 307 -285q72 0 140 18t83 19q70 0 70 -74q0 -39 -31 -69q-96 -96 -354 -96t-391 165q-10 -15 -50 -50q-41 -35 -79 -57q-97 -55 -243 -56q-147 0 -242 86t-95 215
t116 207t345 77l149 -10v66zM528 184q66 0 114 20t67 42l20 18q-20 61 -27 131q-43 14 -131 15q-195 0 -194 -107q0 -51 42 -85q43 -34 109 -34z" />
    <glyph glyph-name="Oslashacute" unicode="&#x1fe;" horiz-adv-x="1538" 
d="M1112 1740q0 -54 -49 -81l-287 -152q-20 -10 -47 -10t-53 26t-25 58q0 32 25 57l246 226q28 22 66 22t81 -46t43 -100zM764 1202q-174 0 -283 -131t-109 -361t87 -374l463 835q-68 31 -158 31zM225 -118q0 36 21 75l80 143q-244 184 -244 559q0 334 199 538t516 204
q127 0 231 -33l86 156q37 66 86 66t81 -28t32 -65t-21 -76l-80 -145q244 -182 244 -559q0 -334 -199 -537t-516 -203q-127 0 -231 33l-86 -155q-37 -63 -88 -63t-81 26q-30 28 -30 64zM774 176q174 0 283 131t109 361t-87 374l-463 -835q61 -31 158 -31z" />
    <glyph glyph-name="oslashacute" unicode="&#x1ff;" horiz-adv-x="1216" 
d="M843 1548q46 0 92 -44t46 -88t-41 -77l-233 -186q-31 -25 -61 -25t-56 25t-25 55q0 30 23 58l176 237q33 45 79 45zM612 170q108 0 176 84t68 229t-29 215l-307 -512q39 -16 92 -16zM604 850q-108 0 -176 -84t-68 -229t29 -215l307 512q-39 16 -92 16zM256 -186
q-45 0 -75 24q-57 47 -3 139l64 107q-160 141 -160 396t152 409q153 154 403 153q96 0 168 -20l72 121q37 63 94 63q35 0 65 -26t29 -60q0 -35 -27 -78l-63 -106q160 -141 160 -396t-153 -409t-402 -154q-96 1 -168 21l-72 -121q-39 -63 -84 -63z" />
    <glyph glyph-name="Scommaaccent" unicode="&#x218;" horiz-adv-x="1140" 
d="M426 -229q0 47 39 85t98 38t96 -38t37 -100q0 -112 -118 -180t-234 -68t-117 64q1 23 15 37q14 15 87 35t115 53q-18 28 -18 74zM395 1054q0 -66 48 -115q48 -48 120 -74q183 -66 311 -140q72 -41 120 -124t48 -198q0 -188 -142 -306q-142 -117 -405 -117t-339 75
q-35 35 -35 152v31q0 80 2 118q6 82 82 82q68 0 94 -80l51 -149q63 -33 179 -33t172 49q57 49 57 122t-48 123t-120 77q-200 75 -292 128q-187 108 -187 326q0 178 137 288t388 110t325 -74q35 -35 34 -151v-25q0 -78 -2 -117q-6 -82 -82 -82q-67 0 -94 80l-49 144
q-52 28 -162 28t-160 -41t-51 -107z" />
    <glyph glyph-name="scommaaccent" unicode="&#x219;" horiz-adv-x="985" 
d="M367 -229q0 47 39 85t98 38t96 -38t37 -100q0 -112 -118 -180q-119 -68 -235 -68t-116 64q0 23 14 37q14 15 87 35t116 53q-18 28 -18 74zM629 266q0 80 -187 140q-78 26 -154 58t-131 100q-54 68 -55 167q0 137 114 224t328 87t275 -61q31 -31 31 -107v-10q0 -55 -2 -86
q-6 -76 -82 -76q-61 0 -88 76l-21 60q-59 23 -141 22q-143 0 -143 -90q0 -45 54 -76q54 -32 131 -56t155 -58t132 -103q54 -70 54 -172q0 -141 -120 -234t-345 -93t-291 65q-31 31 -30 107v14q0 55 2 86q6 76 82 76q61 0 88 -76l22 -64q59 -27 158 -26q164 0 164 106z" />
    <glyph glyph-name="Tcommaaccent" unicode="&#x21a;" horiz-adv-x="1224" 
d="M481 -229q0 47 39 85t98 38q58 0 96 -38t38 -100q0 -112 -118 -180t-234 -68t-117 64q0 23 14 37q14 15 87 35t116 53q-19 28 -19 74zM469 1180h-213l-49 -158q-25 -80 -92 -80q-80 0 -82 80t-2 164v35q1 96 31 127t98 30h905q69 0 99 -30t30 -127v-35q0 -84 -2 -164
t-82 -80q-68 0 -92 80l-49 158h-213v-979l106 -31q44 -12 62 -30t18 -55t-27 -61t-73 -24h-459q-47 0 -74 25t-27 61t18 53q17 18 62 31l107 31v979z" />
    <glyph glyph-name="tcommaaccent" unicode="&#x21b;" horiz-adv-x="751" 
d="M303 -229q0 47 39 85t98 38q58 0 96 -38t37 -100q1 -112 -117 -180t-234 -68t-118 64q0 23 14 37q14 15 88 35q73 20 116 53q-19 28 -19 74zM731 133q0 -43 -35 -78q-68 -68 -233 -67q-289 0 -289 317v524h-70q-94 0 -94 82q0 49 30 79t85 30h55l37 145q16 68 49 99
t90 30q96 0 97 -92v-182h176q92 0 92 -82q0 -109 -115 -109h-153v-464q0 -176 110 -177l107 13q61 0 61 -68z" />
    <glyph glyph-name="Adotaccent" unicode="&#x226;" horiz-adv-x="1484" 
d="M590 1651q0 71 47 117t117 46t114 -44q44 -46 45 -116q0 -70 -47 -116q-46 -47 -116 -47t-115 45t-45 115zM520 553h398l-127 362l-70 228h-4q-33 -113 -72 -228zM743 1389q89 0 139 -37t85 -131l368 -1020l58 -25q43 -18 59 -38t16 -54q0 -36 -26 -60t-74 -24h-373
q-47 0 -73 25t-27 59q0 34 17 52q17 17 63 36l61 25l-59 176h-516l-62 -176l62 -25q45 -18 62 -36t17 -52q0 -36 -26 -60q-27 -24 -74 -24h-323q-47 0 -74 25t-27 59t16 54q16 19 60 38l58 25l370 1020q35 94 84 131t139 37z" />
    <glyph glyph-name="adotaccent" unicode="&#x227;" horiz-adv-x="1148" 
d="M422 1296q0 68 47 115t115 47t112 -45t45 -113q0 -68 -47 -114q-46 -46 -114 -47q-68 1 -113 45t-45 112zM510 184q57 0 101 18t65 38l18 18v139q-45 12 -125 13q-195 0 -194 -107q0 -51 39 -85t96 -34zM696 621q0 123 -43 170t-142 47t-187 -23t-111 -23t-45 24
q-22 22 -23 56q0 34 34 69q34 34 145 67t247 32q215 0 309 -84t95 -268q0 -35 -3 -183t9 -306l78 -13q74 -10 74 -76t-76 -92q-94 -33 -199 -32q-137 0 -137 133v10l-4 2q-4 -6 -10 -16t-43 -50t-109 -62q-73 -23 -137 -23q-147 0 -240 86q-92 86 -92 215t116 207t345 77
l149 -10v66z" />
    <glyph glyph-name="dotlessj" unicode="&#x237;" horiz-adv-x="604" 
d="M180 10v805l-82 19q-76 16 -75 84q0 37 17 56q16 19 86 40q70 20 166 20t132 -35q35 -35 35 -125v-796q0 -301 -137 -443q-113 -113 -250 -112q-49 1 -75 23t-26 56q-1 34 13 51t49 38q71 41 109 111t38 208z" />
    <glyph glyph-name="apostrophe" unicode="&#x2bc;" 
d="M377 1446q0 66 41 105q41 40 103 40q61 0 99 -43q38 -42 38 -120t-63 -174q-62 -96 -124 -130q-35 -24 -77 -16t-42 45q0 21 36 65t61 115q-72 47 -72 113z" />
    <glyph glyph-name="circumflex" unicode="&#x2c6;" 
d="M519 1524q46 0 83 -39l205 -213q20 -22 20 -52q-1 -30 -27 -56q-47 -47 -108 -9l-186 129l-187 -129q-27 -16 -53 -16q-26 1 -48 23q-24 22 -24 52t23 54l217 217q39 39 85 39z" />
    <glyph glyph-name="caron" unicode="&#x2c7;" 
d="M195 1433q1 29 27 55q48 46 108 9l186 -129l186 129q27 16 54 16q28 1 50 -23t22 -54t-23 -52l-217 -217q-39 -39 -85 -39t-83 39l-205 213q-20 23 -20 53z" />
    <glyph glyph-name="breve" unicode="&#x2d8;" 
d="M199 1419q0 43 23 66q24 23 59 22q63 0 75 -65q23 -119 156 -119t156 119q12 66 75 65q35 -1 59 -23t23 -65q0 -125 -95 -207t-229 -82t-218 81t-84 208z" />
    <glyph glyph-name="dotaccent" unicode="&#x2d9;" 
d="M352 1296q0 68 47 115t115 47t113 -45t45 -113t-47 -114t-115 -47q-68 1 -113 45t-45 112z" />
    <glyph glyph-name="ring" unicode="&#x2da;" 
d="M414 1356q0 -45 28 -75t70 -30q43 0 71 30t27 75q0 45 -27 75q-28 29 -71 29t-71 -29q-27 -30 -27 -75zM233 1352q0 110 80 178t203 68t199 -66q76 -64 76 -172t-80 -178q-80 -68 -203 -68t-199 64t-76 174z" />
    <glyph glyph-name="ogonek" unicode="&#x2db;" 
d="M532 -208q0 -99 91 -99q31 0 59 8t48 8t36 -17t16 -46t-26 -56q-82 -82 -222 -82t-206 58q-64 58 -64 144q0 87 58 162t139 128h192q-121 -109 -121 -208z" />
    <glyph glyph-name="tilde" unicode="&#x2dc;" 
d="M370 1249q-32 0 -73 -39t-73 -39t-56 23t-23 53q0 63 80 132q79 69 165 69t158 -44t104 -44t73 39t73 39t56 -23t23 -53q0 -63 -80 -132q-79 -69 -165 -69t-158 44t-104 44z" />
    <glyph glyph-name="hungarumlaut" unicode="&#x2dd;" 
d="M778 1538q44 0 86 -42q43 -42 43 -88t-39 -75l-260 -188q-56 -39 -106 6q-49 45 -6 104l211 252q27 31 71 31zM356 1556q48 0 94 -35q44 -36 44 -75t-27 -68l-199 -217q-28 -27 -60 -27t-56 22t-25 44q0 22 10 43l142 264q29 49 77 49z" />
    <glyph glyph-name="uni0312" unicode="&#x312;" 
d="M315 1280q0 112 118 180q119 68 235 68t116 -64q0 -23 -14 -37t-87 -34t-116 -54q19 -29 19 -75t-39 -83q-39 -38 -98 -38t-97 38q-37 38 -37 99z" />
    <glyph glyph-name="uni0315" unicode="&#x315;" 
d="M674 1487q0 -18 -12 -43l-144 -277q-24 -43 -64 -43t-64 20t-24 40q0 19 5 39l63 297q12 72 103 71q53 1 95 -29t42 -75z" />
    <glyph glyph-name="uni0326" unicode="&#x326;" 
d="M438 -229q0 47 39 85t98 38t97 -38t37 -100q0 -112 -118 -180q-119 -68 -235 -68t-116 64q0 23 14 37q14 15 87 35t116 53q-19 28 -19 74z" />
    <glyph glyph-name="Delta" unicode="&#x394;" horiz-adv-x="1314" 
d="M559 915l-240 -698h625l-239 698l-70 228h-4q-33 -115 -72 -228zM658 1389q88 0 138 -37t85 -131l360 -996q45 -129 -20 -189q-39 -36 -109 -36h-911q-70 0 -109 36q-64 59 -20 189l362 996q35 96 85 132t139 36z" />
    <glyph glyph-name="Delta" unicode="&#x2206;" horiz-adv-x="1314" 
d="M559 915l-240 -698h625l-239 698l-70 228h-4q-33 -115 -72 -228zM658 1389q88 0 138 -37t85 -131l360 -996q45 -129 -20 -189q-39 -36 -109 -36h-911q-70 0 -109 36q-64 59 -20 189l362 996q35 96 85 132t139 36z" />
    <glyph glyph-name="Omega" unicode="&#x3a9;" horiz-adv-x="1617" 
d="M512 186v4q-154 98 -266 253t-111 339q0 260 196 440t502 179q306 0 482 -160t176 -416q0 -190 -108 -356t-277 -279v-4h250l26 95q25 68 78 67q70 0 72 -82q2 -45 2 -94v-22q0 -90 -25 -117q-37 -33 -98 -33h-389q-47 0 -68 23q-25 20 -24 114v17q0 61 8 91t37 58
q223 217 223 485q0 180 -113 296t-277 116t-272 -114t-108 -285q0 -115 38 -213t82 -154t122 -131q27 -31 35 -59t8 -90v-17q0 -93 -23 -115t-69 -22h-412q-61 0 -98 33q-27 29 -27 117v16q0 55 2 100q2 82 74 82q53 0 78 -67l26 -95h248z" />
    <glyph glyph-name="Omega" unicode="&#x2126;" horiz-adv-x="1617" 
d="M512 186v4q-154 98 -266 253t-111 339q0 260 196 440t502 179q306 0 482 -160t176 -416q0 -190 -108 -356t-277 -279v-4h250l26 95q25 68 78 67q70 0 72 -82q2 -45 2 -94v-22q0 -90 -25 -117q-37 -33 -98 -33h-389q-47 0 -68 23q-25 20 -24 114v17q0 61 8 91t37 58
q223 217 223 485q0 180 -113 296t-277 116t-272 -114t-108 -285q0 -115 38 -213t82 -154t122 -131q27 -31 35 -59t8 -90v-17q0 -93 -23 -115t-69 -22h-412q-61 0 -98 33q-27 29 -27 117v16q0 55 2 100q2 82 74 82q53 0 78 -67l26 -95h248z" />
    <glyph glyph-name="pi" unicode="&#x3c0;" horiz-adv-x="1312" 
d="M1278 126q0 -60 -57 -99t-165 -39t-160 52t-73 135q-20 83 -20 280v362h-326v-708q0 -121 -131 -121t-131 121v708h-76q-94 0 -94 88q0 115 115 115h1022q94 0 94 -88q0 -115 -115 -115h-94v-270q0 -295 43 -342q20 -20 61 -21l52 2q55 0 55 -60z" />
    <glyph glyph-name="uni1E02" unicode="&#x1e02;" horiz-adv-x="1296" 
d="M438 1651q0 71 47 117t117 46t115 -44q45 -46 45 -116t-47 -116q-47 -47 -117 -47t-115 45t-45 115zM502 791h123q119 0 180 54t61 148q0 197 -239 197h-125v-399zM502 188h137q276 0 276 218q0 209 -278 208h-135v-426zM133 1378h524q260 0 383 -92t123 -248
q0 -215 -235 -295v-4q135 -20 211 -100t75 -199q0 -200 -152 -320t-454 -120h-463q-47 0 -73 25t-27 61q0 36 16 52q16 17 62 32l96 31v977l-90 28q-83 26 -83 96q0 36 23 56q24 20 64 20z" />
    <glyph glyph-name="uni1E03" unicode="&#x1e03;" horiz-adv-x="1196" 
d="M133 1753q0 70 46 117t118 47t116 -45t44 -115t-46 -117t-118 -47t-116 45t-44 115zM578 174q250 0 249 344q0 160 -57 237t-154 76q-55 -1 -103 -25t-69 -48l-20 -23v-522q53 -39 154 -39zM705 1040q197 0 303 -124t106 -380t-152 -408q-152 -151 -425 -151
q-203 -1 -297 51t-95 140v1100l-82 18q-76 16 -75 84q0 37 17 56t87 40t166 21t131 -35t35 -125v-256q0 -78 -14 -172l4 -2q95 143 291 143z" />
    <glyph glyph-name="uni1E0A" unicode="&#x1e0a;" horiz-adv-x="1458" 
d="M526 1651q0 71 46 117t118 46t116 -44q44 -46 44 -116t-46 -116q-46 -47 -118 -47t-116 45t-44 115zM506 203h112q221 0 339 125t118 366q0 481 -457 482h-112v-973zM651 1378q725 0 725 -662q0 -328 -207 -522t-583 -194h-441q-47 0 -73 25t-27 61q0 36 16 52
q16 17 62 32l96 31v977l-90 28q-47 14 -66 37q-18 23 -18 59t24 56t64 20h518z" />
    <glyph glyph-name="uni1E0B" unicode="&#x1e0b;" horiz-adv-x="1228" 
d="M707 1753q0 70 46 117q45 47 117 47t116 -45t44 -115t-46 -117t-118 -47t-116 45t-43 115zM618 846q-250 0 -249 -344q0 -160 57 -237t154 -77q55 0 103 25t69 49l20 23v522q-53 39 -154 39zM772 1139v129l-94 20q-76 16 -76 82q0 37 18 56t88 40t172 21t136 -35
q35 -35 35 -125v-1126l84 -15q41 -8 57 -25t16 -55q0 -61 -75 -88q-94 -33 -195 -32q-137 0 -137 133v26l-4 2q-4 -13 -36 -50q-99 -117 -282 -117q-184 0 -291 123q-106 124 -106 381t151 408q152 151 426 150q29 0 113 -12l4 4q-4 58 -4 105z" />
    <glyph glyph-name="uni1E1E" unicode="&#x1e1e;" horiz-adv-x="1105" 
d="M424 1651q0 71 46 117t118 46t116 -44q44 -46 44 -116t-46 -116q-46 -47 -118 -47t-116 45t-44 115zM133 1378h813q68 0 99 -30t30 -127v-29q0 -70 -2 -111q-2 -82 -84 -82q-70 0 -96 80l-35 103h-352v-410h252l20 57q25 70 88 70q78 0 78 -90v-258q0 -90 -78 -90
q-59 0 -88 74l-20 53h-252v-385l112 -33q44 -12 62 -30t18 -55t-26 -61t-74 -24h-453q-47 0 -73 25t-27 61q0 36 16 52q16 17 62 32l96 31v977l-90 28q-83 26 -83 96q0 36 23 56q24 20 64 20z" />
    <glyph glyph-name="uni1E1F" unicode="&#x1e1f;" horiz-adv-x="751" 
d="M412 1753q0 70 46 117t118 47t115 -45q44 -45 44 -115t-46 -117t-118 -47q-71 0 -115 45t-44 115zM211 829h-78q-92 0 -92 82q0 49 30 79t85 30h55v47q0 205 114 317t324 111q127 0 163 -36t36 -132v-16q0 -43 -2 -88q-2 -76 -78 -76q-63 0 -90 80l-25 73q-14 6 -43 7
q-121 0 -121 -160v-127h146q92 0 92 -82q0 -109 -115 -109h-123v-632l99 -27q78 -20 78 -84q0 -38 -27 -62t-74 -24h-420q-47 0 -73 25t-27 61q0 36 16 52q16 17 62 32l88 27v632z" />
    <glyph glyph-name="uni1E40" unicode="&#x1e40;" horiz-adv-x="1951" 
d="M817 1651q0 71 46 117t118 46t116 -44q44 -46 44 -116t-46 -116q-46 -47 -118 -47t-116 45t-44 115zM104 1307q0 31 23 51t63 20h367q94 0 121 -84l240 -807l53 -219h4q18 104 53 221l240 805q27 84 123 84h370q41 0 64 -20t23 -55t-19 -59q-18 -24 -66 -40l-73 -24
l110 -979l58 -25q43 -18 59 -38t16 -54q-1 -36 -27 -60t-73 -24h-363q-48 0 -74 25t-26 59t18 51q18 18 64 41l53 25l-57 622l-21 287h-4l-284 -952q-29 -96 -70 -132t-120 -36t-120 36t-69 132l-285 954h-4q-8 -156 -20 -289l-58 -622l53 -25q46 -23 64 -41t18 -52
q0 -35 -26 -59t-74 -24h-309q-47 0 -74 25t-27 59t16 54q16 19 60 38l58 25l110 979l-74 24q-84 29 -84 103z" />
    <glyph glyph-name="uni1E41" unicode="&#x1e41;" horiz-adv-x="1966" 
d="M840 1296q0 68 47 115t115 47t112 -45q45 -45 45 -113t-47 -114t-115 -47q-69 1 -113 45t-44 112zM41 918q0 37 17 56t88 40q72 20 162 20t122 -30t31 -103v-27l4 -2q6 17 37 53q100 115 274 115q227 0 320 -174q4 6 11 18t35 43q28 29 62 53q85 60 241 60
q155 0 251 -100t96 -293v-450l78 -25q43 -14 59 -32q17 -18 17 -55t-27 -61t-74 -24h-375q-48 0 -74 25t-26 59t16 53q16 18 60 35l67 25v385q0 250 -186 249q-55 1 -102 -25t-68 -52l-20 -25q4 -31 4 -82v-450l67 -25q44 -16 60 -34t16 -54t-27 -60t-73 -24h-365
q-47 0 -74 25t-27 59t17 53q16 18 60 35l67 25v385q0 250 -186 249q-53 -1 -99 -25t-67 -48l-21 -23v-538l68 -25q43 -16 59 -34t16 -54t-26 -60q-27 -24 -74 -24h-387q-47 0 -73 25t-27 61q0 36 16 52q16 17 62 32l88 27v618l-94 21q-76 16 -76 82z" />
    <glyph glyph-name="uni1E56" unicode="&#x1e56;" horiz-adv-x="1204" 
d="M424 1651q0 71 46 117t118 46t116 -44q44 -46 44 -116t-46 -116q-46 -47 -118 -47t-116 45t-44 115zM506 686h117q109 0 172 67t63 187t-61 181q-61 62 -176 63h-115v-498zM655 1378q500 0 500 -413q0 -203 -145 -333t-408 -130h-96v-299l112 -33q44 -12 62 -30t18 -55
t-26 -61t-74 -24h-453q-47 0 -73 24t-27 60q0 36 16 54q16 17 62 32l96 31v977l-90 28q-83 26 -83 96q0 36 23 56q24 20 64 20h522z" />
    <glyph glyph-name="uni1E57" unicode="&#x1e57;" horiz-adv-x="1228" 
d="M453 1296q0 68 47 115q46 47 114 47t113 -45t45 -113t-47 -114t-115 -47q-68 1 -112 45t-45 112zM610 174q250 0 250 344q0 160 -57 237t-154 76q-55 -1 -103 -25t-69 -48l-20 -23v-522q53 -39 153 -39zM569 -23q-21 0 -112 13l-4 -4q4 -57 4 -105v-153l88 -27
q45 -13 61 -31t16 -54t-26 -60q-27 -24 -74 -25h-397q-47 0 -74 25t-26 61q0 61 69 84l84 27v1087l-82 19q-76 16 -76 84q0 37 18 56t86 40q70 20 156 20t118 -30q30 -30 30 -103v-27l4 -2q6 17 37 53q100 115 282 115q183 0 289 -124t106 -380t-151 -408
q-152 -151 -426 -151z" />
    <glyph glyph-name="uni1E60" unicode="&#x1e60;" horiz-adv-x="1140" 
d="M412 1651q0 71 46 117t118 46t115 -44q44 -46 44 -116t-46 -116q-46 -47 -118 -47q-71 0 -115 45t-44 115zM395 1054q0 -66 48 -115q48 -48 120 -74q183 -66 311 -140q72 -41 120 -124t48 -198q0 -188 -142 -306q-142 -117 -405 -117t-339 75q-35 35 -35 152v31
q0 80 2 118q6 82 82 82q68 0 94 -80l51 -149q63 -33 179 -33t172 49q57 49 57 122t-48 123t-120 77q-200 75 -292 128q-187 108 -187 326q0 178 137 288t388 110t325 -74q35 -35 34 -151v-25q0 -78 -2 -117q-6 -82 -82 -82q-67 0 -94 80l-49 144q-52 28 -162 28t-160 -41
t-51 -107z" />
    <glyph glyph-name="uni1E61" unicode="&#x1e61;" horiz-adv-x="985" 
d="M332 1296q0 68 47 115t115 47t112 -45t45 -113q0 -68 -47 -114t-115 -47q-69 1 -113 45t-44 112zM629 266q0 80 -187 140q-78 26 -154 58t-131 100q-54 68 -55 167q0 137 114 224t328 87t275 -61q31 -31 31 -107v-10q0 -55 -2 -86q-6 -76 -82 -76q-61 0 -88 76l-21 60
q-59 23 -141 22q-143 0 -143 -90q0 -45 54 -76q54 -32 131 -56t155 -58t132 -103q54 -70 54 -172q0 -141 -120 -234t-345 -93t-291 65q-31 31 -30 107v14q0 55 2 86q6 76 82 76q61 0 88 -76l22 -64q59 -27 158 -26q164 0 164 106z" />
    <glyph glyph-name="uni1E6A" unicode="&#x1e6a;" horiz-adv-x="1224" 
d="M457 1651q0 71 46 117t118 46q71 0 115 -44q44 -46 44 -116t-46 -116q-46 -47 -118 -47t-116 45t-43 115zM469 1180h-213l-49 -158q-25 -80 -92 -80q-80 0 -82 80t-2 164v35q1 96 31 127t98 30h905q69 0 99 -30t30 -127v-35q0 -84 -2 -164t-82 -80q-68 0 -92 80l-49 158
h-213v-979l106 -31q44 -12 62 -30t18 -55t-27 -61t-73 -24h-459q-47 0 -74 25t-27 61t18 53q17 18 62 31l107 31v979z" />
    <glyph glyph-name="uni1E6B" unicode="&#x1e6b;" horiz-adv-x="751" 
d="M201 1589q0 70 47 117t117 47q71 0 115 -45t44 -115q0 -71 -47 -117t-117 -46t-114 44t-45 115zM731 133q0 -43 -35 -78q-68 -68 -233 -67q-289 0 -289 317v524h-70q-94 0 -94 82q0 49 30 79t85 30h55l37 145q16 68 49 99t90 30q96 0 97 -92v-182h176q92 0 92 -82
q0 -109 -115 -109h-153v-464q0 -176 110 -177l107 13q61 0 61 -68z" />
    <glyph glyph-name="Wgrave" unicode="&#x1e80;" horiz-adv-x="2111" 
d="M793 1740q0 54 43 100t82 46t65 -22l246 -226q25 -26 25 -58t-26 -58t-53 -25q-27 0 -47 10l-286 152q-49 27 -49 81zM12 1305q0 33 24 53t64 20h394q40 0 64 -20t24 -56t-20 -59t-68 -43l-50 -20l162 -684l53 -256h5q20 139 47 254l170 727q20 92 67 130t133 38t134 -38
t69 -130l168 -725l49 -256h4q29 137 56 256l159 684l-49 20q-49 20 -68 43t-19 59t23 56q24 20 64 20h340q41 0 65 -20t23 -53q0 -70 -84 -107l-49 -20l-262 -1022q-25 -92 -77 -129t-140 -37t-141 39t-76 133l-162 702l-47 252h-4q-25 -150 -47 -252l-164 -704
q-37 -170 -217 -170q-90 0 -144 38q-52 38 -77 132l-263 1018l-49 20q-84 37 -84 107z" />
    <glyph glyph-name="wgrave" unicode="&#x1e81;" horiz-adv-x="1779" 
d="M633 1416q0 44 46 88t92 44t79 -45l176 -237q23 -29 23 -59q0 -31 -26 -55q-25 -24 -55 -24t-61 25l-233 186q-41 33 -41 77zM16 946q0 33 24 53t64 21h351q41 0 65 -20t23 -55t-19 -57t-67 -44l-35 -17l110 -385l50 -204h4q14 104 37 204l96 414q23 96 68 135t131 39
t132 -38t66 -132l98 -418l37 -204h4q18 98 50 204l110 385l-35 17q-49 24 -67 46q-19 22 -19 56t24 53q24 20 64 21h293q41 0 65 -20t23 -54q0 -76 -84 -108l-34 -15l-218 -665q-33 -96 -75 -132t-127 -36q-84 0 -128 37t-67 131l-104 442l-35 195h-4q-10 -94 -35 -199
l-104 -438q-23 -94 -67 -131t-127 -37t-127 36t-77 132l-215 665l-35 15q-84 33 -84 108z" />
    <glyph glyph-name="Wacute" unicode="&#x1e82;" horiz-adv-x="2111" 
d="M1335 1740q0 -54 -49 -81l-287 -152q-21 -10 -47 -10t-52 26t-26 58t25 57l246 226q27 22 65 22t82 -46q43 -46 43 -100zM12 1305q0 33 24 53t64 20h394q40 0 64 -20t24 -56t-20 -59t-68 -43l-50 -20l162 -684l53 -256h5q20 139 47 254l170 727q20 92 67 130t133 38
t134 -38t69 -130l168 -725l49 -256h4q29 137 56 256l159 684l-49 20q-49 20 -68 43t-19 59t23 56q24 20 64 20h340q41 0 65 -20t23 -53q0 -70 -84 -107l-49 -20l-262 -1022q-25 -92 -77 -129t-140 -37t-141 39t-76 133l-162 702l-47 252h-4q-25 -150 -47 -252l-164 -704
q-37 -170 -217 -170q-90 0 -144 38q-52 38 -77 132l-263 1018l-49 20q-84 37 -84 107z" />
    <glyph glyph-name="wacute" unicode="&#x1e83;" horiz-adv-x="1779" 
d="M1017 1548q46 0 92 -44t46 -88t-41 -77l-233 -186q-31 -25 -61 -25t-56 25t-25 55q0 30 23 58l176 237q33 45 79 45zM16 946q0 33 24 53t64 21h351q41 0 65 -20t23 -55t-19 -57t-67 -44l-35 -17l110 -385l50 -204h4q14 104 37 204l96 414q23 96 68 135t131 39t132 -38
t66 -132l98 -418l37 -204h4q18 98 50 204l110 385l-35 17q-49 24 -67 46q-19 22 -19 56t24 53q24 20 64 21h293q41 0 65 -20t23 -54q0 -76 -84 -108l-34 -15l-218 -665q-33 -96 -75 -132t-127 -36q-84 0 -128 37t-67 131l-104 442l-35 195h-4q-10 -94 -35 -199l-104 -438
q-23 -94 -67 -131t-127 -37t-127 36t-77 132l-215 665l-35 15q-84 33 -84 108z" />
    <glyph glyph-name="Wdieresis" unicode="&#x1e84;" horiz-adv-x="2111" 
d="M1137 1651q0 71 46 117q45 46 117 46t116 -44q44 -46 44 -116t-46 -116q-46 -47 -118 -47t-116 45t-43 115zM694 1651q0 71 46 117t118 46t116 -44q44 -46 44 -116t-46 -116q-46 -47 -118 -47t-116 45t-44 115zM12 1305q0 33 24 53t64 20h394q40 0 64 -20t24 -56t-20 -59
t-68 -43l-50 -20l162 -684l53 -256h5q20 139 47 254l170 727q20 92 67 130t133 38t134 -38t69 -130l168 -725l49 -256h4q29 137 56 256l159 684l-49 20q-49 20 -68 43t-19 59t23 56q24 20 64 20h340q41 0 65 -20t23 -53q0 -70 -84 -107l-49 -20l-262 -1022q-25 -92 -77 -129
t-140 -37t-141 39t-76 133l-162 702l-47 252h-4q-25 -150 -47 -252l-164 -704q-37 -170 -217 -170q-90 0 -144 38q-52 38 -77 132l-263 1018l-49 20q-84 37 -84 107z" />
    <glyph glyph-name="wdieresis" unicode="&#x1e85;" horiz-adv-x="1779" 
d="M967 1296q0 68 47 115q46 47 114 47t113 -45t45 -113t-47 -114t-115 -47q-68 1 -112 45t-45 112zM537 1296q0 68 47 115q46 47 114 47t113 -45t45 -113t-47 -114t-115 -47q-68 1 -112 45t-45 112zM16 946q0 33 24 53t64 21h351q41 0 65 -20t23 -55t-19 -57t-67 -44
l-35 -17l110 -385l50 -204h4q14 104 37 204l96 414q23 96 68 135t131 39t132 -38t66 -132l98 -418l37 -204h4q18 98 50 204l110 385l-35 17q-49 24 -67 46q-19 22 -19 56t24 53q24 20 64 21h293q41 0 65 -20t23 -54q0 -76 -84 -108l-34 -15l-218 -665q-33 -96 -75 -132
t-127 -36q-84 0 -128 37t-67 131l-104 442l-35 195h-4q-10 -94 -35 -199l-104 -438q-23 -94 -67 -131t-127 -37t-127 36t-77 132l-215 665l-35 15q-84 33 -84 108z" />
    <glyph glyph-name="uni1E9E" unicode="&#x1e9e;" horiz-adv-x="1515" 
d="M133 1378h1014q71 0 109 -32t38 -88q0 -55 -59 -136l-207 -274q174 -14 295 -124t121 -300t-139 -314q-139 -126 -383 -126q-148 0 -186 38t-38 117v15q0 53 2 110q2 76 76 76q55 0 80 -78l29 -88q27 -8 63 -8q90 0 144 58q53 58 53 167t-69 173t-193 65h-54
q-45 -1 -75 29t-31 79q0 49 41 105l248 342h-508v-983l28 -13q84 -35 80 -102q-2 -38 -30 -62t-76 -24h-361q-47 0 -73 25t-27 61q0 36 16 52q16 17 62 32l96 31v977l-90 28q-83 26 -83 96q0 36 23 56q24 20 64 20z" />
    <glyph glyph-name="Ygrave" unicode="&#x1ef2;" horiz-adv-x="1351" 
d="M367 1740q0 54 43 100t82 46t65 -22l246 -226q25 -26 25 -58t-26 -58t-53 -25q-27 0 -47 10l-286 152q-49 27 -49 81zM12 1305q0 33 24 53t64 20h428q41 0 65 -20t23 -53q0 -72 -90 -107l-45 -18l236 -408h4l225 408l-43 18q-88 37 -88 107q0 33 24 53t64 20h348
q41 0 65 -20t23 -53q0 -72 -84 -107l-49 -20l-387 -637v-340l103 -31q45 -14 62 -32t17 -54q-1 -36 -27 -60t-73 -24h-450q-47 0 -74 25t-27 59t18 53q18 18 62 33l102 31v340l-387 637l-49 20q-84 37 -84 107z" />
    <glyph glyph-name="ygrave" unicode="&#x1ef3;" horiz-adv-x="1222" 
d="M309 1416q0 44 46 88q47 44 93 44t78 -45l176 -237q23 -29 23 -59q0 -31 -26 -55t-55 -24t-60 25l-234 186q-41 33 -41 77zM16 946q0 33 24 53t64 21h353q41 0 65 -20t23 -55t-19 -57t-67 -44l-35 -17l149 -395l64 -190h4q25 90 64 194l147 391l-35 17q-49 24 -67 46
t-18 56t23 53q24 20 64 21h299q41 0 65 -20t23 -54q0 -76 -84 -108l-35 -15l-282 -692q-152 -369 -308 -500q-139 -114 -288 -112q-88 0 -137 38t-49 100t28 97q29 35 65 35t80 -11t102 -11q118 0 196 176l-359 880l-35 15q-84 33 -84 108z" />
    <glyph glyph-name="endash" unicode="&#x2013;" horiz-adv-x="1085" 
d="M115 651h878q92 0 92 -88q0 -121 -114 -121h-879q-92 0 -92 88q0 121 115 121z" />
    <glyph glyph-name="emdash" unicode="&#x2014;" horiz-adv-x="2048" 
d="M258 651h1554q92 0 93 -88q0 -121 -115 -121h-1554q-92 0 -93 88q0 121 115 121z" />
    <glyph glyph-name="uni2015" unicode="&#x2015;" horiz-adv-x="2048" 
d="M258 651h1554q92 0 93 -88q0 -121 -115 -121h-1554q-92 0 -93 88q0 121 115 121z" />
    <glyph glyph-name="quoteleft" unicode="&#x2018;" horiz-adv-x="604" 
d="M127 1052q0 110 80 239q135 220 258 208q25 -2 42 -17t17 -41t-24 -56q-24 -29 -62 -83q-37 -54 -57 -133q98 -57 98 -159q0 -74 -51 -126t-129 -52t-125 54q-47 56 -47 166z" />
    <glyph glyph-name="quoteright" unicode="&#x2019;" horiz-adv-x="604" 
d="M125 1317q0 74 51 126t129 52t125 -55t47 -165t-80 -240q-134 -218 -258 -208q-25 1 -42 17t-17 42t24 56q91 110 119 215q-98 58 -98 160z" />
    <glyph glyph-name="quotesinglbase" unicode="&#x201a;" horiz-adv-x="604" 
d="M125 156q0 74 51 126t129 52t125 -55t47 -165t-80 -240q-134 -218 -258 -208q-25 2 -42 18t-17 41t24 55q91 110 119 216q-98 58 -98 160z" />
    <glyph glyph-name="quotedblleft" unicode="&#x201c;" horiz-adv-x="1089" 
d="M612 1054q0 110 80 239q135 220 258 208q58 -5 60 -59q0 -24 -25 -54q-90 -106 -119 -217q98 -57 99 -159q1 -74 -51 -126t-130 -52t-125 55t-47 165zM127 1054q0 110 80 239q135 220 258 208q25 -2 42 -17t17 -41q0 -25 -24 -55q-92 -110 -119 -217q98 -57 98 -159
q0 -74 -51 -126t-129 -52t-125 55t-47 165z" />
    <glyph glyph-name="quotedblright" unicode="&#x201d;" horiz-adv-x="1089" 
d="M610 1317q0 74 52 126t128 52q78 0 125 -55t47 -165t-79 -240q-134 -218 -258 -208q-25 1 -42 17t-17 42t24 56q89 105 119 215q-99 58 -99 160zM125 1317q0 74 51 126t129 52t125 -55t47 -165t-80 -240q-134 -218 -258 -208q-25 1 -42 17t-17 42t24 56q91 110 119 215
q-98 58 -98 160z" />
    <glyph glyph-name="quotedblbase" unicode="&#x201e;" horiz-adv-x="1089" 
d="M610 156q0 74 52 126t128 52q78 0 125 -55t47 -165t-79 -240q-134 -218 -258 -208q-25 2 -42 18t-17 41t24 55q89 105 119 216q-99 58 -99 160zM125 156q0 74 51 126t129 52t125 -55t47 -165t-80 -240q-134 -218 -258 -208q-25 2 -42 18t-17 41t24 55q91 110 119 216
q-98 58 -98 160z" />
    <glyph glyph-name="dagger" unicode="&#x2020;" horiz-adv-x="1155" 
d="M434 1289q0 112 144 112q70 0 106 -29t37 -80l-33 -340q228 23 280 23t81 -33t29 -94t-30 -94q-28 -33 -77 -33l-287 22q39 -893 39 -951t-38 -89q-37 -31 -107 -31t-108 31t-38 82l39 958q-233 -23 -285 -23t-80 34q-29 33 -28 94q0 61 28 94q29 33 78 33l283 -23
q-33 283 -33 337z" />
    <glyph glyph-name="daggerdbl" unicode="&#x2021;" horiz-adv-x="1216" 
d="M752 -216q0 -112 -144 -112q-70 0 -106 29t-37 80l33 311q-228 -22 -280 -22t-81 32t-29 94t29 95t78 33l287 -25q-39 139 -39 232t29 206l10 35q-232 -22 -284 -22t-81 32t-29 94t29 95t78 33l283 -23q-33 254 -33 308t37 83q36 29 106 29t107 -29t37 -80l-33 -311
q229 23 280 23t80 -33t29 -94t-29 -95t-78 -32l-286 22q39 -129 39 -212t-29 -224l-10 -37q233 25 284 25t80 -33t29 -94t-29 -95t-78 -32l-282 22q33 -254 33 -308z" />
    <glyph glyph-name="bullet" unicode="&#x2022;" horiz-adv-x="974" 
d="M190 702q0 129 85 214t214 85q129 -1 212 -83t83 -211t-85 -214t-214 -85t-212 82t-83 212z" />
    <glyph glyph-name="ellipsis" unicode="&#x2026;" horiz-adv-x="1785" 
d="M1298 156q0 78 52 130t131 52q78 0 128 -50t50 -128t-52 -130t-130 -52q-79 0 -129 50t-50 128zM713 156q0 78 52 130t130 52t128 -50t50 -128t-52 -130t-130 -52t-128 50t-50 128zM127 156q0 78 52 130t130 52t128 -50t50 -128t-52 -130t-130 -52t-128 50t-50 128z" />
    <glyph glyph-name="perthousand" unicode="&#x2030;" horiz-adv-x="2861" 
d="M2281 375q0 -105 36 -157t91 -52q121 0 121 207q0 106 -36 157t-91 52q-121 0 -121 -207zM2030 362q0 178 107 288q108 110 280 110t268 -98t96 -276q1 -178 -107 -289q-108 -109 -280 -109t-268 98t-96 276zM1397 375q0 -105 36 -157t91 -52q121 0 121 207
q0 106 -36 157t-91 52q-121 0 -121 -207zM1145 362q0 178 107 288q108 110 280 110t268 -98t96 -276t-108 -289q-108 -109 -279 -109q-172 0 -268 98t-96 276zM1444 1322q0 -30 -25 -73l-719 -1208q-37 -63 -81 -63q-45 0 -69 23q-24 25 -24 55t25 73l719 1208q37 63 81 63
q45 0 69 -23q24 -25 24 -55zM332 1006q0 -106 36 -158t91 -51q121 0 121 207q0 106 -36 157t-91 51q-121 1 -121 -206zM80 993q0 178 107 288q108 110 280 110q172 -1 268 -99t96 -276q1 -178 -107 -288t-280 -110t-268 98t-96 277z" />
    <glyph glyph-name="guilsinglleft" unicode="&#x2039;" horiz-adv-x="735" 
d="M82 513q0 44 43 87l315 330q37 37 81 37t76 -27t32 -63t-25 -72l-207 -289l213 -297q23 -33 23 -71t-36 -68q-36 -31 -81 -31t-80 35l-311 336q-43 49 -43 93z" />
    <glyph glyph-name="guilsinglright" unicode="&#x203a;" horiz-adv-x="735" 
d="M102 868q0 38 36 68q36 31 81 31t80 -35l311 -336q43 -49 43 -93t-43 -87l-315 -330q-37 -37 -81 -37t-76 27q-32 26 -32 62t25 73l207 289l-213 297q-23 33 -23 71z" />
    <glyph glyph-name="fraction" unicode="&#x2044;" horiz-adv-x="991" 
d="M36 56q0 30 25 73l719 1208q37 63 81 63t69 -23q47 -45 0 -128l-719 -1208q-37 -63 -81 -63t-69 23q-25 25 -25 55z" />
    <glyph glyph-name="zero.superior" unicode="&#x2070;" horiz-adv-x="911" 
d="M332 1006q0 -106 36 -158t91 -51q121 0 121 207q0 106 -36 157t-91 51q-121 1 -121 -206zM80 993q0 178 107 288q108 110 280 110q172 -1 268 -99t96 -276q1 -178 -107 -288t-280 -110t-268 98t-96 277z" />
    <glyph glyph-name="four.superior" unicode="&#x2074;" horiz-adv-x="831" 
d="M412 1006v200l-158 -200h158zM499 1391q81 0 115 -28t33 -85v-272h62q66 0 65 -76q0 -41 -24 -66t-66 -24h-37v-52l41 -16q53 -20 53 -70q0 -72 -82 -71h-274q-82 0 -82 71q0 43 55 66l54 20v52h-219q-131 0 -132 116q0 58 43 111l168 213q50 63 98 87t129 24z" />
    <glyph glyph-name="zero.inferior" unicode="&#x2080;" horiz-adv-x="911" 
d="M332 375q0 -105 36 -157t91 -52q121 0 121 207q0 106 -36 157t-91 52q-121 0 -121 -207zM80 362q0 178 107 288q108 110 280 110t268 -98t96 -276q1 -178 -107 -289q-108 -109 -280 -109t-268 98t-96 276z" />
    <glyph glyph-name="one.inferior" unicode="&#x2081;" horiz-adv-x="614" 
d="M354 756q100 0 101 -109v-479l63 -21q68 -23 68 -73q0 -34 -20 -54t-56 -20h-371q-35 0 -55 20t-21 54q0 51 66 71l78 23v375l-41 -6q-38 -5 -60 -5t-39 18t-18 48q0 28 30 58t123 65t152 35z" />
    <glyph glyph-name="two.inferior" unicode="&#x2082;" horiz-adv-x="718" 
d="M346 508q0 70 -108 70q-37 0 -69 -6q-31 -6 -49 -7q-18 1 -34 19t-16 51t26 59q66 66 216 66t225 -58q73 -58 73 -146q0 -87 -55 -155t-184 -174l-52 -43h183l14 35q20 53 68 53q59 0 61 -61q2 -29 2 -80v-10q-1 -77 -23 -99t-71 -22h-358q-59 0 -95 33q-34 33 -34 90
t53 104l94 88q55 53 75 73q58 58 58 120z" />
    <glyph glyph-name="three.inferior" unicode="&#x2083;" horiz-adv-x="735" 
d="M303 -12q-111 0 -172 40t-61 103q0 84 80 84q18 0 63 -33t92 -32q88 0 88 69q0 78 -176 78q-78 0 -78 90q1 35 17 51t73 17q141 0 142 67q0 55 -97 56q-38 0 -74 -8t-56 -9q-20 1 -35 19q-17 18 -17 51t27 59q70 70 221 70t220 -52t69 -133q0 -123 -115 -167v-5
q61 -12 102 -58t41 -112q0 -101 -93 -173t-261 -72z" />
    <glyph glyph-name="four.inferior" unicode="&#x2084;" horiz-adv-x="831" 
d="M412 375v200l-158 -200h158zM499 760q81 0 115 -28t33 -85v-272h62q66 0 65 -76q0 -41 -24 -66t-66 -24h-37v-51l41 -17q53 -20 53 -69q0 -72 -82 -72h-274q-82 0 -82 72q0 45 55 65l54 21v51h-219q-131 0 -132 117q0 57 43 110l168 213q50 63 98 87t129 24z" />
    <glyph glyph-name="Euro" unicode="&#x20ac;" horiz-adv-x="1255" 
d="M111 442q-84 0 -84 76q0 94 110 94h45q-2 55 4 131h-75q-84 0 -84 76q0 94 110 94h80q66 227 236 355t409 129q186 0 250 -64q33 -33 33 -135v-18q0 -72 -2 -117q-2 -82 -80 -82q-66 0 -90 82l-39 129q-33 16 -107 16q-266 0 -340 -295h289q84 0 84 -75q0 -94 -110 -95
h-287q0 -109 2 -131h311q84 0 84 -75q0 -94 -110 -95h-254q88 -260 372 -260q78 0 140 16t75 17q70 0 70 -76q0 -37 -31 -67q-92 -92 -319 -92t-387 116t-213 346h-92z" />
    </font>
</defs>
</svg>
